<?xml version="1.0" encoding="UTF-8" standalone="no"?>
<!DOCTYPE svg PUBLIC "-//W3C//DTD SVG 1.1//EN"
 "http://www.w3.org/Graphics/SVG/1.1/DTD/svg11.dtd">
<!-- Generated by graphviz version 12.2.1 (20241206.2353)
 -->
<!-- Title: MutableSemanticGraph Pages: 1 -->
<svg width="970pt" height="484pt"
 viewBox="0.00 0.00 970.00 484.25" xmlns="http://www.w3.org/2000/svg" xmlns:xlink="http://www.w3.org/1999/xlink">
<g id="graph0" class="graph" transform="scale(1 1) rotate(0) translate(4 480.25)">
<title>MutableSemanticGraph</title>
<polygon fill="#181818" stroke="none" points="-4,4 -4,-480.25 966,-480.25 966,4 -4,4"/>
<g id="clust1" class="cluster">
<title>cluster_sm_0</title>
<polygon fill="#181818" stroke="#d3d3d3" points="8,-141.25 8,-468.25 352,-468.25 352,-141.25 8,-141.25"/>
<text text-anchor="middle" x="180" y="-454.75" font-family="Courier New" font-size="10.00" fill="#d3d3d3">sm_0</text>
</g>
<g id="clust2" class="cluster">
<title>cluster_metric_time_base</title>
<polygon fill="#181818" stroke="#d3d3d3" points="360,-141.25 360,-214 550,-214 550,-141.25 360,-141.25"/>
<text text-anchor="middle" x="455" y="-200.5" font-family="Courier New" font-size="10.00" fill="#d3d3d3">metric_time_base</text>
</g>
<g id="clust3" class="cluster">
<title>cluster_model_entity</title>
<polygon fill="#181818" stroke="#d3d3d3" points="712,-141.25 712,-214 954,-214 954,-141.25 712,-141.25"/>
<text text-anchor="middle" x="833" y="-200.5" font-family="Courier New" font-size="10.00" fill="#d3d3d3">model_entity</text>
</g>
<g id="clust4" class="cluster">
<title>cluster_time_attribute</title>
<polygon fill="#181818" stroke="#d3d3d3" points="298,-8 298,-80.75 760,-80.75 760,-8 298,-8"/>
<text text-anchor="middle" x="529" y="-67.25" font-family="Courier New" font-size="10.00" fill="#d3d3d3">time_attribute</text>
</g>
<g id="clust5" class="cluster">
<title>cluster_time_base</title>
<polygon fill="#181818" stroke="#d3d3d3" points="558,-141.25 558,-214 704,-214 704,-141.25 558,-141.25"/>
<text text-anchor="middle" x="631" y="-200.5" font-family="Courier New" font-size="10.00" fill="#d3d3d3">time_base</text>
</g>
<!-- Agg(sm_0, ds) -->
<g id="node1" class="node">
<title>Agg(sm_0, ds)</title>
<polygon fill="#303030" stroke="#d3d3d3" points="173.75,-321.75 52.25,-321.75 52.25,-285.75 173.75,-285.75 173.75,-321.75"/>
<text text-anchor="start" x="64.25" y="-299.48" font-family="Courier New" font-size="12.00" fill="#d3d3d3">Agg(sm_0, ds)</text>
</g>
<!-- JoinFrom(sm_0) -->
<g id="node2" class="node">
<title>JoinFrom(sm_0)</title>
<polygon fill="#303030" stroke="#d3d3d3" points="177.5,-185.25 48.5,-185.25 48.5,-149.25 177.5,-149.25 177.5,-185.25"/>
<text text-anchor="start" x="60.5" y="-162.97" font-family="Courier New" font-size="12.00" fill="#d3d3d3">JoinFrom(sm_0)</text>
</g>
<!-- Agg(sm_0, ds)&#45;&gt;JoinFrom(sm_0) -->
<g id="edge1" class="edge">
<title>Agg(sm_0, ds)&#45;&gt;JoinFrom(sm_0)</title>
<path fill="none" stroke="#d3d3d3" d="M113,-285.44C113,-263.05 113,-223.72 113,-196.85"/>
<polygon fill="#303030" stroke="#d3d3d3" points="116.5,-197.01 113,-187.01 109.5,-197.01 116.5,-197.01"/>
<text text-anchor="start" x="124.88" y="-248.8" font-family="Courier New" font-size="6.00" fill="#d3d3d3">Agg(sm_0, ds)</text>
<text text-anchor="start" x="145.5" y="-241.3" font-family="Courier New" font-size="6.00" fill="#d3d3d3">&#45;&gt;</text>
<text text-anchor="start" x="123" y="-233.8" font-family="Courier New" font-size="6.00" fill="#d3d3d3">JoinFrom(sm_0)</text>
</g>
<!-- MetricTimeBase(YEAR) -->
<g id="node6" class="node">
<title>MetricTimeBase(YEAR)</title>
<polygon fill="#303030" stroke="#d3d3d3" points="542,-185.25 368,-185.25 368,-149.25 542,-149.25 542,-185.25"/>
<text text-anchor="start" x="380" y="-162.97" font-family="Courier New" font-size="12.00" fill="#d3d3d3">MetricTimeBase(YEAR)</text>
</g>
<!-- Agg(sm_0, ds)&#45;&gt;MetricTimeBase(YEAR) -->
<g id="edge2" class="edge">
<title>Agg(sm_0, ds)&#45;&gt;MetricTimeBase(YEAR)</title>
<path fill="none" stroke="#d3d3d3" d="M157.61,-285.29C201.3,-268.4 269.86,-242.42 330,-222 341.45,-218.11 344.71,-218.32 356,-214 374.01,-207.1 393.36,-198.45 410.14,-190.53"/>
<polygon fill="#303030" stroke="#d3d3d3" points="411.33,-193.84 418.85,-186.37 408.31,-187.53 411.33,-193.84"/>
<text text-anchor="start" x="353.12" y="-248.8" font-family="Courier New" font-size="6.00" fill="#d3d3d3">Agg(sm_0, ds)</text>
<text text-anchor="start" x="373.75" y="-241.3" font-family="Courier New" font-size="6.00" fill="#d3d3d3">&#45;&gt;</text>
<text text-anchor="start" x="340" y="-233.8" font-family="Courier New" font-size="6.00" fill="#d3d3d3">MetricTimeBase(YEAR)</text>
</g>
<!-- Entity(sm_0_primary_entity) -->
<g id="node7" class="node">
<title>Entity(sm_0_primary_entity)</title>
<polygon fill="#303030" stroke="#87cefa" points="946.25,-185.25 719.75,-185.25 719.75,-149.25 946.25,-149.25 946.25,-185.25"/>
<text text-anchor="start" x="731.75" y="-162.97" font-family="Courier New" font-size="12.00" fill="#d3d3d3">Entity(sm_0_primary_entity)</text>
</g>
<!-- Agg(sm_0, ds)&#45;&gt;Entity(sm_0_primary_entity) -->
<g id="edge3" class="edge">
<title>Agg(sm_0, ds)&#45;&gt;Entity(sm_0_primary_entity)</title>
<path fill="none" stroke="#d3d3d3" d="M169.69,-285.28C174.17,-284.23 178.64,-283.28 183,-282.5 236.08,-272.96 380.07,-294.32 425,-264.5 442.68,-252.77 428.82,-233.35 446.75,-222 471.29,-206.47 679.49,-219.51 708,-214 734.05,-208.97 761.88,-199.25 784.65,-190.06"/>
<polygon fill="#303030" stroke="#d3d3d3" points="785.76,-193.39 793.66,-186.33 783.08,-186.92 785.76,-193.39"/>
<text text-anchor="start" x="483" y="-248.8" font-family="Courier New" font-size="6.00" fill="#d3d3d3">Agg(sm_0, ds)</text>
<text text-anchor="start" x="503.62" y="-241.3" font-family="Courier New" font-size="6.00" fill="#d3d3d3">&#45;&gt;</text>
<text text-anchor="start" x="456.75" y="-233.8" font-family="Courier New" font-size="6.00" fill="#d3d3d3">Entity(sm_0_primary_entity)</text>
</g>
<!-- JoinTo(sm_0) -->
<g id="node3" class="node">
<title>JoinTo(sm_0)</title>
<polygon fill="#303030" stroke="#d3d3d3" points="344,-439.5 230,-439.5 230,-403.5 344,-403.5 344,-439.5"/>
<text text-anchor="start" x="242" y="-417.23" font-family="Courier New" font-size="12.00" fill="#d3d3d3">JoinTo(sm_0)</text>
</g>
<!-- TimeDim(sm_0, ds) -->
<g id="node5" class="node">
<title>TimeDim(sm_0, ds)</title>
<polygon fill="#303030" stroke="#d3d3d3" points="343.75,-321.75 192.25,-321.75 192.25,-285.75 343.75,-285.75 343.75,-321.75"/>
<text text-anchor="start" x="204.25" y="-299.48" font-family="Courier New" font-size="12.00" fill="#d3d3d3">TimeDim(sm_0, ds)</text>
</g>
<!-- JoinTo(sm_0)&#45;&gt;TimeDim(sm_0, ds) -->
<g id="edge4" class="edge">
<title>JoinTo(sm_0)&#45;&gt;TimeDim(sm_0, ds)</title>
<path fill="none" stroke="#d3d3d3" d="M284.16,-403.17C281.13,-384.76 276.31,-355.35 272.71,-333.46"/>
<polygon fill="#303030" stroke="#d3d3d3" points="276.18,-332.99 271.11,-323.69 269.28,-334.13 276.18,-332.99"/>
<text text-anchor="start" x="300.23" y="-369.8" font-family="Courier New" font-size="6.00" fill="#d3d3d3">JoinTo(sm_0)</text>
<text text-anchor="start" x="318.98" y="-362.3" font-family="Courier New" font-size="6.00" fill="#d3d3d3">&#45;&gt;</text>
<text text-anchor="start" x="290.85" y="-354.8" font-family="Courier New" font-size="6.00" fill="#d3d3d3">TimeDim(sm_0, ds)</text>
</g>
<!-- Measure(sm_0_measure_0) -->
<g id="node4" class="node">
<title>Measure(sm_0_measure_0)</title>
<polygon fill="#303030" stroke="#ffa07a" points="212.25,-439.5 15.75,-439.5 15.75,-403.5 212.25,-403.5 212.25,-439.5"/>
<text text-anchor="start" x="27.75" y="-417.23" font-family="Courier New" font-size="12.00" fill="#d3d3d3">Measure(sm_0_measure_0)</text>
</g>
<!-- Measure(sm_0_measure_0)&#45;&gt;Agg(sm_0, ds) -->
<g id="edge7" class="edge">
<title>Measure(sm_0_measure_0)&#45;&gt;Agg(sm_0, ds)</title>
<path fill="none" stroke="#d3d3d3" d="M113.85,-403.17C113.69,-384.76 113.44,-355.35 113.25,-333.46"/>
<polygon fill="#303030" stroke="#d3d3d3" points="116.75,-333.68 113.16,-323.71 109.75,-333.74 116.75,-333.68"/>
<text text-anchor="start" x="123.68" y="-369.8" font-family="Courier New" font-size="6.00" fill="#d3d3d3">Measure(sm_0_measure_0)</text>
<text text-anchor="start" x="163.05" y="-362.3" font-family="Courier New" font-size="6.00" fill="#d3d3d3">&#45;&gt;</text>
<text text-anchor="start" x="142.43" y="-354.8" font-family="Courier New" font-size="6.00" fill="#d3d3d3">Agg(sm_0, ds)</text>
</g>
<!-- TimeBase(YEAR) -->
<g id="node11" class="node">
<title>TimeBase(YEAR)</title>
<polygon fill="#303030" stroke="#d3d3d3" points="695.5,-185.25 566.5,-185.25 566.5,-149.25 695.5,-149.25 695.5,-185.25"/>
<text text-anchor="start" x="578.5" y="-162.97" font-family="Courier New" font-size="12.00" fill="#d3d3d3">TimeBase(YEAR)</text>
</g>
<!-- TimeDim(sm_0, ds)&#45;&gt;TimeBase(YEAR) -->
<g id="edge6" class="edge">
<title>TimeDim(sm_0, ds)&#45;&gt;TimeBase(YEAR)</title>
<path fill="none" stroke="#d3d3d3" d="M344.08,-300.61C421.59,-297.14 535.46,-288.08 572,-264.5 596.66,-248.59 612.65,-218.37 621.68,-196.02"/>
<polygon fill="#303030" stroke="#d3d3d3" points="624.87,-197.48 625.14,-186.89 618.33,-195.01 624.87,-197.48"/>
<text text-anchor="start" x="618.08" y="-248.8" font-family="Courier New" font-size="6.00" fill="#d3d3d3">TimeDim(sm_0, ds)</text>
<text text-anchor="start" x="646.21" y="-241.3" font-family="Courier New" font-size="6.00" fill="#d3d3d3">&#45;&gt;</text>
<text text-anchor="start" x="623.71" y="-233.8" font-family="Courier New" font-size="6.00" fill="#d3d3d3">TimeBase(YEAR)</text>
</g>
<!-- Time(custom_year) -->
<g id="node8" class="node">
<title>Time(custom_year)</title>
<polygon fill="#303030" stroke="#ffa07a" points="457.75,-52 306.25,-52 306.25,-16 457.75,-16 457.75,-52"/>
<text text-anchor="start" x="318.25" y="-29.73" font-family="Courier New" font-size="12.00" fill="#d3d3d3">Time(custom_year)</text>
</g>
<!-- MetricTimeBase(YEAR)&#45;&gt;Time(custom_year) -->
<g id="edge8" class="edge">
<title>MetricTimeBase(YEAR)&#45;&gt;Time(custom_year)</title>
<path fill="none" stroke="#d3d3d3" d="M391.66,-148.76C379.87,-145.93 367.61,-143.27 356,-141.25 333.56,-137.34 269.3,-148.12 254,-131.25 241.31,-117.26 243.54,-104.48 254,-88.75 264,-73.71 279.11,-62.86 295.49,-55.05"/>
<polygon fill="#303030" stroke="#d3d3d3" points="296.65,-58.37 304.43,-51.17 293.86,-51.94 296.65,-58.37"/>
<text text-anchor="start" x="264" y="-115.55" font-family="Courier New" font-size="6.00" fill="#d3d3d3">MetricTimeBase(YEAR)</text>
<text text-anchor="start" x="297.75" y="-108.05" font-family="Courier New" font-size="6.00" fill="#d3d3d3">&#45;&gt;</text>
<text text-anchor="start" x="269.62" y="-100.55" font-family="Courier New" font-size="6.00" fill="#d3d3d3">Time(custom_year)</text>
</g>
<!-- Time(extract_year) -->
<g id="node9" class="node">
<title>Time(extract_year)</title>
<polygon fill="#303030" stroke="#ffa07a" points="634.5,-52 475.5,-52 475.5,-16 634.5,-16 634.5,-52"/>
<text text-anchor="start" x="487.5" y="-29.73" font-family="Courier New" font-size="12.00" fill="#d3d3d3">Time(extract_year)</text>
</g>
<!-- MetricTimeBase(YEAR)&#45;&gt;Time(extract_year) -->
<g id="edge9" class="edge">
<title>MetricTimeBase(YEAR)&#45;&gt;Time(extract_year)</title>
<path fill="none" stroke="#d3d3d3" d="M391.04,-148.9C383.54,-144.33 376.84,-138.55 372,-131.25 361.56,-115.51 359.22,-102.66 372,-88.75 386.34,-73.15 446.65,-86.64 467,-80.75 484.91,-75.57 503.41,-66.58 518.8,-57.94"/>
<polygon fill="#303030" stroke="#d3d3d3" points="520.23,-61.16 527.12,-53.12 516.71,-55.11 520.23,-61.16"/>
<text text-anchor="start" x="382" y="-115.55" font-family="Courier New" font-size="6.00" fill="#d3d3d3">MetricTimeBase(YEAR)</text>
<text text-anchor="start" x="415.75" y="-108.05" font-family="Courier New" font-size="6.00" fill="#d3d3d3">&#45;&gt;</text>
<text text-anchor="start" x="385.75" y="-100.55" font-family="Courier New" font-size="6.00" fill="#d3d3d3">Time(extract_year)</text>
</g>
<!-- Time(year) -->
<g id="node10" class="node">
<title>Time(year)</title>
<polygon fill="#303030" stroke="#ffa07a" points="751.5,-52 652.5,-52 652.5,-16 751.5,-16 751.5,-52"/>
<text text-anchor="start" x="664.5" y="-29.73" font-family="Courier New" font-size="12.00" fill="#d3d3d3">Time(year)</text>
</g>
<!-- MetricTimeBase(YEAR)&#45;&gt;Time(year) -->
<g id="edge10" class="edge">
<title>MetricTimeBase(YEAR)&#45;&gt;Time(year)</title>
<path fill="none" stroke="#d3d3d3" d="M522.95,-148.79C547.15,-142.09 569.56,-135.13 574,-131.25 589.58,-117.63 576.57,-101.32 593,-88.75 611.22,-74.81 622.97,-89.93 644,-80.75 655.58,-75.69 666.84,-67.75 676.3,-59.9"/>
<polygon fill="#303030" stroke="#d3d3d3" points="678.42,-62.7 683.64,-53.49 673.81,-57.43 678.42,-62.7"/>
<text text-anchor="start" x="603" y="-115.55" font-family="Courier New" font-size="6.00" fill="#d3d3d3">MetricTimeBase(YEAR)</text>
<text text-anchor="start" x="636.75" y="-108.05" font-family="Courier New" font-size="6.00" fill="#d3d3d3">&#45;&gt;</text>
<text text-anchor="start" x="621.75" y="-100.55" font-family="Courier New" font-size="6.00" fill="#d3d3d3">Time(year)</text>
</g>
<!-- Entity(sm_0_primary_entity)&#45;&gt;JoinTo(sm_0) -->
<g id="edge5" class="edge">
<title>Entity(sm_0_primary_entity)&#45;&gt;JoinTo(sm_0)</title>
<path fill="none" stroke="#d3d3d3" d="M811.78,-185.69C785.73,-206.48 739.64,-241.31 696,-264.5 581.51,-325.33 437.99,-374.36 354.97,-400.31"/>
<polygon fill="#303030" stroke="#d3d3d3" points="354.12,-396.91 345.61,-403.21 356.19,-403.59 354.12,-396.91"/>
<text text-anchor="start" x="664.87" y="-309.3" font-family="Courier New" font-size="6.00" fill="#d3d3d3">Entity(sm_0_primary_entity)</text>
<text text-anchor="start" x="711.74" y="-301.8" font-family="Courier New" font-size="6.00" fill="#d3d3d3">&#45;&gt;</text>
<text text-anchor="start" x="692.99" y="-294.3" font-family="Courier New" font-size="6.00" fill="#d3d3d3">JoinTo(sm_0)</text>
</g>
<!-- TimeBase(YEAR)&#45;&gt;Time(custom_year) -->
<g id="edge11" class="edge">
<title>TimeBase(YEAR)&#45;&gt;Time(custom_year)</title>
<path fill="none" stroke="#d3d3d3" d="M581.64,-148.88C572.52,-146.05 563.03,-143.37 554,-141.25 524.37,-134.3 510.55,-149.57 486.25,-131.25 469.69,-118.77 480.61,-104.39 467,-88.75 456.49,-76.67 442.59,-66.34 429.09,-58.07"/>
<polygon fill="#303030" stroke="#d3d3d3" points="431.09,-55.18 420.69,-53.17 427.57,-61.23 431.09,-55.18"/>
<text text-anchor="start" x="501.88" y="-115.55" font-family="Courier New" font-size="6.00" fill="#d3d3d3">TimeBase(YEAR)</text>
<text text-anchor="start" x="524.38" y="-108.05" font-family="Courier New" font-size="6.00" fill="#d3d3d3">&#45;&gt;</text>
<text text-anchor="start" x="496.25" y="-100.55" font-family="Courier New" font-size="6.00" fill="#d3d3d3">Time(custom_year)</text>
</g>
<!-- TimeBase(YEAR)&#45;&gt;Time(extract_year) -->
<g id="edge12" class="edge">
<title>TimeBase(YEAR)&#45;&gt;Time(extract_year)</title>
<path fill="none" stroke="#d3d3d3" d="M674.95,-148.76C681.77,-144.1 687.9,-138.33 692,-131.25 701.47,-114.9 704.21,-103.16 692,-88.75 678.02,-72.25 664.53,-87.55 644,-80.75 626.55,-74.97 608.32,-66.15 592.93,-57.79"/>
<polygon fill="#303030" stroke="#d3d3d3" points="595.03,-54.95 584.59,-53.14 591.62,-61.07 595.03,-54.95"/>
<text text-anchor="start" x="717.66" y="-115.55" font-family="Courier New" font-size="6.00" fill="#d3d3d3">TimeBase(YEAR)</text>
<text text-anchor="start" x="740.16" y="-108.05" font-family="Courier New" font-size="6.00" fill="#d3d3d3">&#45;&gt;</text>
<text text-anchor="start" x="710.16" y="-100.55" font-family="Courier New" font-size="6.00" fill="#d3d3d3">Time(extract_year)</text>
</g>
<!-- TimeBase(YEAR)&#45;&gt;Time(year) -->
<g id="edge13" class="edge">
<title>TimeBase(YEAR)&#45;&gt;Time(year)</title>
<path fill="none" stroke="#d3d3d3" d="M679.46,-148.82C688.84,-145.93 698.65,-143.24 708,-141.25 728.76,-136.84 788.8,-147.03 803,-131.25 815.64,-117.21 812.73,-104.94 803,-88.75 793.64,-73.17 778.07,-61.86 761.92,-53.76"/>
<polygon fill="#303030" stroke="#d3d3d3" points="763.76,-50.75 753.22,-49.75 760.84,-57.11 763.76,-50.75"/>
<text text-anchor="start" x="821.42" y="-115.55" font-family="Courier New" font-size="6.00" fill="#d3d3d3">TimeBase(YEAR)</text>
<text text-anchor="start" x="843.92" y="-108.05" font-family="Courier New" font-size="6.00" fill="#d3d3d3">&#45;&gt;</text>
<text text-anchor="start" x="828.92" y="-100.55" font-family="Courier New" font-size="6.00" fill="#d3d3d3">Time(year)</text>
</g>
</g>
</svg>
