<?xml version="1.0" encoding="UTF-8" standalone="no"?>
<!DOCTYPE svg PUBLIC "-//W3C//DTD SVG 1.1//EN"
 "http://www.w3.org/Graphics/SVG/1.1/DTD/svg11.dtd">
<!-- Generated by graphviz version 12.2.1 (20241206.2353)
 -->
<!-- Title: MutableSemanticGraph Pages: 1 -->
<svg width="1732pt" height="336pt"
 viewBox="0.00 0.00 1732.00 336.00" xmlns="http://www.w3.org/2000/svg" xmlns:xlink="http://www.w3.org/1999/xlink">
<g id="graph0" class="graph" transform="scale(1 1) rotate(0) translate(4 332)">
<title>MutableSemanticGraph</title>
<polygon fill="#181818" stroke="none" points="-4,4 -4,-332 1728,-332 1728,4 -4,4"/>
<g id="clust1" class="cluster">
<title>cluster_sm_0</title>
<polygon fill="#181818" stroke="#d3d3d3" points="8,-8 8,-320 840,-320 840,-8 8,-8"/>
<text text-anchor="middle" x="424" y="-306.5" font-family="Courier New" font-size="10.00" fill="#d3d3d3">sm_0</text>
</g>
<g id="clust2" class="cluster">
<title>cluster_metric_time_base</title>
<polygon fill="#181818" stroke="#d3d3d3" points="848,-8 848,-80.75 1256,-80.75 1256,-8 848,-8"/>
<text text-anchor="middle" x="1052" y="-67.25" font-family="Courier New" font-size="10.00" fill="#d3d3d3">metric_time_base</text>
</g>
<g id="clust3" class="cluster">
<title>cluster_model_entity</title>
<polygon fill="#181818" stroke="#d3d3d3" points="1264,-8 1264,-80.75 1716,-80.75 1716,-8 1264,-8"/>
<text text-anchor="middle" x="1490" y="-67.25" font-family="Courier New" font-size="10.00" fill="#d3d3d3">model_entity</text>
</g>
<!-- AggregationNode(sm_0, ds) -->
<g id="node1" class="node">
<title>AggregationNode(sm_0, ds)</title>
<polygon fill="#303030" stroke="#d3d3d3" points="832,-188.5 478,-188.5 478,-152.5 832,-152.5 832,-188.5"/>
<text text-anchor="start" x="490" y="-166.22" font-family="Courier New" font-size="12.00" fill="#d3d3d3">AggregationNode(&#39;AggregationNode(sm_0, ds)&#39;)</text>
</g>
<!-- JoinFromModelNode(sm_0) -->
<g id="node2" class="node">
<title>JoinFromModelNode(sm_0)</title>
<polygon fill="#303030" stroke="#d3d3d3" points="832,-52 478,-52 478,-16 832,-16 832,-52"/>
<text text-anchor="start" x="490" y="-29.73" font-family="Courier New" font-size="12.00" fill="#d3d3d3">JoinFromModelNode(&#39;JoinFromModelNode(sm_0)&#39;)</text>
</g>
<!-- AggregationNode(sm_0, ds)&#45;&gt;JoinFromModelNode(sm_0) -->
<g id="edge1" class="edge">
<title>AggregationNode(sm_0, ds)&#45;&gt;JoinFromModelNode(sm_0)</title>
<path fill="none" stroke="#d3d3d3" d="M655,-152.19C655,-129.8 655,-90.47 655,-63.6"/>
<polygon fill="#303030" stroke="#d3d3d3" points="658.5,-63.76 655,-53.76 651.5,-63.76 658.5,-63.76"/>
<text text-anchor="start" x="665" y="-115.55" font-family="Courier New" font-size="6.00" fill="#d3d3d3">AggregationNode(sm_0, ds)</text>
<text text-anchor="start" x="708.12" y="-108.05" font-family="Courier New" font-size="6.00" fill="#d3d3d3">&#45;&gt;</text>
<text text-anchor="start" x="668.75" y="-100.55" font-family="Courier New" font-size="6.00" fill="#d3d3d3">JoinFromModelNode(sm_0)</text>
</g>
<!-- MetricTimeBaseNode(QUARTER) -->
<g id="node5" class="node">
<title>MetricTimeBaseNode(QUARTER)</title>
<polygon fill="#303030" stroke="#d3d3d3" points="1247.75,-52 856.25,-52 856.25,-16 1247.75,-16 1247.75,-52"/>
<text text-anchor="start" x="868.25" y="-29.73" font-family="Courier New" font-size="12.00" fill="#d3d3d3">MetricTimeBaseNode(&#39;MetricTimeBaseNode(QUARTER)&#39;)</text>
</g>
<!-- AggregationNode(sm_0, ds)&#45;&gt;MetricTimeBaseNode(QUARTER) -->
<g id="edge2" class="edge">
<title>AggregationNode(sm_0, ds)&#45;&gt;MetricTimeBaseNode(QUARTER)</title>
<path fill="none" stroke="#d3d3d3" d="M709.71,-152C729.65,-145.56 752.37,-138.15 773,-131.25 848.55,-105.98 935.24,-75.9 991.68,-56.18"/>
<polygon fill="#303030" stroke="#d3d3d3" points="992.49,-59.6 1000.77,-52.99 990.18,-52.99 992.49,-59.6"/>
<text text-anchor="start" x="909.39" y="-115.55" font-family="Courier New" font-size="6.00" fill="#d3d3d3">AggregationNode(sm_0, ds)</text>
<text text-anchor="start" x="952.52" y="-108.05" font-family="Courier New" font-size="6.00" fill="#d3d3d3">&#45;&gt;</text>
<text text-anchor="start" x="905.64" y="-100.55" font-family="Courier New" font-size="6.00" fill="#d3d3d3">MetricTimeBaseNode(QUARTER)</text>
</g>
<!-- ModelEntityNode(sm_0_primary_entity) -->
<g id="node6" class="node">
<title>ModelEntityNode(sm_0_primary_entity)</title>
<polygon fill="#303030" stroke="#87cefa" points="1708.25,-52 1271.75,-52 1271.75,-16 1708.25,-16 1708.25,-52"/>
<text text-anchor="start" x="1283.75" y="-29.73" font-family="Courier New" font-size="12.00" fill="#d3d3d3">ModelEntityNode(&#39;ModelEntityNode(sm_0_primary_entity)&#39;)</text>
</g>
<!-- AggregationNode(sm_0, ds)&#45;&gt;ModelEntityNode(sm_0_primary_entity) -->
<g id="edge3" class="edge">
<title>AggregationNode(sm_0, ds)&#45;&gt;ModelEntityNode(sm_0_primary_entity)</title>
<path fill="none" stroke="#d3d3d3" d="M832.3,-154.51C892.38,-148.49 959.76,-140.71 1021,-131.25 1156.38,-110.34 1311.82,-76.46 1405.39,-54.98"/>
<polygon fill="#303030" stroke="#d3d3d3" points="1406.05,-58.42 1415.01,-52.76 1404.48,-51.6 1406.05,-58.42"/>
<text text-anchor="start" x="1270.84" y="-115.55" font-family="Courier New" font-size="6.00" fill="#d3d3d3">AggregationNode(sm_0, ds)</text>
<text text-anchor="start" x="1313.97" y="-108.05" font-family="Courier New" font-size="6.00" fill="#d3d3d3">&#45;&gt;</text>
<text text-anchor="start" x="1250.22" y="-100.55" font-family="Courier New" font-size="6.00" fill="#d3d3d3">ModelEntityNode(sm_0_primary_entity)</text>
</g>
<!-- JoinToModelNode(sm_0) -->
<g id="node3" class="node">
<title>JoinToModelNode(sm_0)</title>
<polygon fill="#303030" stroke="#d3d3d3" points="832,-291.25 508,-291.25 508,-255.25 832,-255.25 832,-291.25"/>
<text text-anchor="start" x="520" y="-268.98" font-family="Courier New" font-size="12.00" fill="#d3d3d3">JoinToModelNode(&#39;JoinToModelNode(sm_0)&#39;)</text>
</g>
<!-- MeasureAttributeNode(sm_0_measure_0) -->
<g id="node4" class="node">
<title>MeasureAttributeNode(sm_0_measure_0)</title>
<polygon fill="#303030" stroke="#ffa07a" points="490,-291.25 16,-291.25 16,-255.25 490,-255.25 490,-291.25"/>
<text text-anchor="start" x="28" y="-268.98" font-family="Courier New" font-size="12.00" fill="#d3d3d3">MeasureAttributeNode(&#39;MeasureAttributeNode(sm_0_measure_0)&#39;)</text>
</g>
<!-- MeasureAttributeNode(sm_0_measure_0)&#45;&gt;AggregationNode(sm_0, ds) -->
<g id="edge5" class="edge">
<title>MeasureAttributeNode(sm_0_measure_0)&#45;&gt;AggregationNode(sm_0, ds)</title>
<path fill="none" stroke="#d3d3d3" d="M322.56,-254.82C392.57,-237.27 500.45,-210.23 574.2,-191.75"/>
<polygon fill="#303030" stroke="#d3d3d3" points="574.96,-195.17 583.81,-189.34 573.26,-188.38 574.96,-195.17"/>
<text text-anchor="start" x="511.83" y="-221.55" font-family="Courier New" font-size="6.00" fill="#d3d3d3">source</text>
</g>
<!-- ModelEntityNode(sm_0_primary_entity)&#45;&gt;JoinToModelNode(sm_0) -->
<g id="edge4" class="edge">
<title>ModelEntityNode(sm_0_primary_entity)&#45;&gt;JoinToModelNode(sm_0)</title>
<path fill="none" stroke="#d3d3d3" d="M1478.77,-52.37C1463.51,-74.45 1434.07,-111.99 1399,-131.25 1225.66,-226.45 998.28,-258.19 843.87,-268.33"/>
<polygon fill="#303030" stroke="#d3d3d3" points="843.69,-264.84 833.93,-268.96 844.13,-271.82 843.69,-264.84"/>
<text text-anchor="start" x="1369.59" y="-176.05" font-family="Courier New" font-size="6.00" fill="#d3d3d3">ModelEntityNode(sm_0_primary_entity)</text>
<text text-anchor="start" x="1433.34" y="-168.55" font-family="Courier New" font-size="6.00" fill="#d3d3d3">&#45;&gt;</text>
<text text-anchor="start" x="1397.72" y="-161.05" font-family="Courier New" font-size="6.00" fill="#d3d3d3">JoinToModelNode(sm_0)</text>
</g>
</g>
</svg>
