<?xml version="1.0" encoding="UTF-8" standalone="no"?>
<!DOCTYPE svg PUBLIC "-//W3C//DTD SVG 1.1//EN"
 "http://www.w3.org/Graphics/SVG/1.1/DTD/svg11.dtd">
<!-- Generated by graphviz version 12.2.1 (20241206.2353)
 -->
<!-- Title: MutableSemanticGraph Pages: 1 -->
<svg width="660pt" height="599pt"
 viewBox="0.00 0.00 659.50 598.75" xmlns="http://www.w3.org/2000/svg" xmlns:xlink="http://www.w3.org/1999/xlink">
<g id="graph0" class="graph" transform="scale(1 1) rotate(0) translate(4 594.75)">
<title>MutableSemanticGraph</title>
<polygon fill="#181818" stroke="none" points="-4,4 -4,-594.75 655.5,-594.75 655.5,4 -4,4"/>
<g id="clust1" class="cluster">
<title>cluster_sm_0</title>
<polygon fill="#181818" stroke="#000000" stroke-width="3" points="42.75,-277.75 42.75,-582.75 320.75,-582.75 320.75,-277.75 42.75,-277.75"/>
<text text-anchor="middle" x="181.75" y="-569.25" font-family="Courier New" font-size="10.00" fill="#d3d3d3">sm_0</text>
</g>
<g id="clust2" class="cluster">
<title>cluster_time_dimension</title>
<polygon fill="#181818" stroke="#000000" stroke-width="3" points="110.75,-141.25 110.75,-214 462.75,-214 462.75,-141.25 110.75,-141.25"/>
<text text-anchor="middle" x="286.75" y="-200.5" font-family="Courier New" font-size="10.00" fill="#d3d3d3">time_dimension</text>
</g>
<g id="clust3" class="cluster">
<title>cluster_time_attribute</title>
<polygon fill="#181818" stroke="#000000" stroke-width="3" points="65.75,-8 65.75,-80.75 527.75,-80.75 527.75,-8 65.75,-8"/>
<text text-anchor="middle" x="296.75" y="-67.25" font-family="Courier New" font-size="10.00" fill="#d3d3d3">time_attribute</text>
</g>
<!-- Agg(sm_0, ds) -->
<g id="node1" class="node">
<title>Agg(sm_0, ds)</title>
<polygon fill="#303030" stroke="#d3d3d3" points="283.5,-439.5 162,-439.5 162,-403.5 283.5,-403.5 283.5,-439.5"/>
<text text-anchor="start" x="174" y="-417.23" font-family="Courier New" font-size="12.00" fill="#d3d3d3">Agg(sm_0, ds)</text>
</g>
<!-- JoinFrom(sm_0) -->
<g id="node2" class="node">
<title>JoinFrom(sm_0)</title>
<polygon fill="#303030" stroke="#d3d3d3" points="312.25,-321.75 183.25,-321.75 183.25,-285.75 312.25,-285.75 312.25,-321.75"/>
<text text-anchor="start" x="195.25" y="-299.48" font-family="Courier New" font-size="12.00" fill="#d3d3d3">JoinFrom(sm_0)</text>
</g>
<!-- Agg(sm_0, ds)&#45;&gt;JoinFrom(sm_0) -->
<g id="edge9" class="edge">
<title>Agg(sm_0, ds)&#45;&gt;JoinFrom(sm_0)</title>
<path fill="none" stroke="#d3d3d3" d="M226.49,-403.17C230.49,-384.67 236.88,-355.07 241.61,-333.16"/>
<polygon fill="#303030" stroke="#d3d3d3" points="244.97,-334.19 243.66,-323.68 238.13,-332.71 244.97,-334.19"/>
<text text-anchor="start" x="250.82" y="-369.8" font-family="Courier New" font-size="6.00" fill="#d3d3d3">Agg(sm_0, ds)</text>
<text text-anchor="start" x="252.7" y="-362.3" font-family="Courier New" font-size="6.00" fill="#d3d3d3">(weight:0)&#45;&gt;</text>
<text text-anchor="start" x="248.95" y="-354.8" font-family="Courier New" font-size="6.00" fill="#d3d3d3">JoinFrom(sm_0)</text>
</g>
<!-- JoinTo(sm_0) -->
<g id="node3" class="node">
<title>JoinTo(sm_0)</title>
<polygon fill="#303030" stroke="#d3d3d3" points="164.75,-321.75 50.75,-321.75 50.75,-285.75 164.75,-285.75 164.75,-321.75"/>
<text text-anchor="start" x="62.75" y="-299.48" font-family="Courier New" font-size="12.00" fill="#d3d3d3">JoinTo(sm_0)</text>
</g>
<!-- Agg(sm_0, ds)&#45;&gt;JoinTo(sm_0) -->
<g id="edge10" class="edge">
<title>Agg(sm_0, ds)&#45;&gt;JoinTo(sm_0)</title>
<path fill="none" stroke="#d3d3d3" d="M205.53,-403.17C186.31,-383.82 155.01,-352.32 133.02,-330.18"/>
<polygon fill="#303030" stroke="#d3d3d3" points="135.68,-327.9 126.15,-323.27 130.72,-332.83 135.68,-327.9"/>
<text text-anchor="start" x="168" y="-369.8" font-family="Courier New" font-size="6.00" fill="#d3d3d3">Agg(sm_0, ds)</text>
<text text-anchor="start" x="169.88" y="-362.3" font-family="Courier New" font-size="6.00" fill="#d3d3d3">(weight:0)&#45;&gt;</text>
<text text-anchor="start" x="169.88" y="-354.8" font-family="Courier New" font-size="6.00" fill="#d3d3d3">JoinTo(sm_0)</text>
</g>
<!-- MetricTimeDimension(YEAR) -->
<g id="node5" class="node">
<title>MetricTimeDimension(YEAR)</title>
<polygon fill="#303030" stroke="#d3d3d3" points="454.5,-185.25 243,-185.25 243,-149.25 454.5,-149.25 454.5,-185.25"/>
<text text-anchor="start" x="255" y="-162.97" font-family="Courier New" font-size="12.00" fill="#d3d3d3">MetricTimeDimension(YEAR)</text>
</g>
<!-- Agg(sm_0, ds)&#45;&gt;MetricTimeDimension(YEAR) -->
<g id="edge11" class="edge">
<title>Agg(sm_0, ds)&#45;&gt;MetricTimeDimension(YEAR)</title>
<path fill="none" stroke="#d3d3d3" d="M246.75,-403.12C283.3,-375.12 348.75,-325 348.75,-325 348.75,-325 348.75,-242.64 348.75,-196.94"/>
<polygon fill="#303030" stroke="#d3d3d3" points="352.25,-197.17 348.75,-187.17 345.25,-197.17 352.25,-197.17"/>
<text text-anchor="start" x="381.25" y="-309.3" font-family="Courier New" font-size="6.00" fill="#d3d3d3">Agg(sm_0, ds)</text>
<text text-anchor="start" x="383.12" y="-301.8" font-family="Courier New" font-size="6.00" fill="#d3d3d3">(weight:1)&#45;&gt;</text>
<text text-anchor="start" x="358.75" y="-294.3" font-family="Courier New" font-size="6.00" fill="#d3d3d3">MetricTimeDimension(YEAR)</text>
</g>
<!-- TimeDim(ds) -->
<g id="node6" class="node">
<title>TimeDim(ds)</title>
<polygon fill="#303030" stroke="#d3d3d3" points="225,-185.25 118.5,-185.25 118.5,-149.25 225,-149.25 225,-185.25"/>
<text text-anchor="start" x="130.5" y="-162.97" font-family="Courier New" font-size="12.00" fill="#d3d3d3">TimeDim(ds)</text>
</g>
<!-- JoinFrom(sm_0)&#45;&gt;TimeDim(ds) -->
<g id="edge1" class="edge">
<title>JoinFrom(sm_0)&#45;&gt;TimeDim(ds)</title>
<path fill="none" stroke="#d3d3d3" d="M237.97,-285.44C225.09,-262.64 202.29,-222.3 187.1,-195.41"/>
<polygon fill="#303030" stroke="#d3d3d3" points="190.2,-193.79 182.24,-186.81 184.11,-197.24 190.2,-193.79"/>
<text text-anchor="start" x="235.29" y="-248.8" font-family="Courier New" font-size="6.00" fill="#d3d3d3">JoinFrom(sm_0)</text>
<text text-anchor="start" x="239.04" y="-241.3" font-family="Courier New" font-size="6.00" fill="#d3d3d3">(weight:1)&#45;&gt;</text>
<text text-anchor="start" x="240.92" y="-233.8" font-family="Courier New" font-size="6.00" fill="#d3d3d3">TimeDim(ds)</text>
</g>
<!-- JoinTo(sm_0)&#45;&gt;TimeDim(ds) -->
<g id="edge12" class="edge">
<title>JoinTo(sm_0)&#45;&gt;TimeDim(ds)</title>
<path fill="none" stroke="#d3d3d3" d="M115.99,-285.44C126.79,-262.74 145.86,-222.66 158.65,-195.77"/>
<polygon fill="#303030" stroke="#d3d3d3" points="161.76,-197.39 162.9,-186.86 155.44,-194.38 161.76,-197.39"/>
<text text-anchor="start" x="144.75" y="-248.8" font-family="Courier New" font-size="6.00" fill="#d3d3d3">JoinTo(sm_0)</text>
<text text-anchor="start" x="144.75" y="-241.3" font-family="Courier New" font-size="6.00" fill="#d3d3d3">(weight:1)&#45;&gt;</text>
<text text-anchor="start" x="146.62" y="-233.8" font-family="Courier New" font-size="6.00" fill="#d3d3d3">TimeDim(ds)</text>
</g>
<!-- Measure(sm_0_measure_0) -->
<g id="node4" class="node">
<title>Measure(sm_0_measure_0)</title>
<polygon fill="#303030" stroke="#006400" points="305,-554 108.5,-554 108.5,-518 305,-518 305,-554"/>
<text text-anchor="start" x="120.5" y="-531.73" font-family="Courier New" font-size="12.00" fill="#d3d3d3">Measure(sm_0_measure_0)</text>
</g>
<!-- Measure(sm_0_measure_0)&#45;&gt;Agg(sm_0, ds) -->
<g id="edge2" class="edge">
<title>Measure(sm_0_measure_0)&#45;&gt;Agg(sm_0, ds)</title>
<path fill="none" stroke="#d3d3d3" d="M209.18,-517.91C211.71,-500.16 215.7,-472.06 218.7,-450.94"/>
<polygon fill="#303030" stroke="#d3d3d3" points="222.14,-451.64 220.08,-441.25 215.21,-450.65 222.14,-451.64"/>
<text text-anchor="start" x="227.57" y="-484.3" font-family="Courier New" font-size="6.00" fill="#d3d3d3">Measure(sm_0_measure_0)</text>
<text text-anchor="start" x="248.2" y="-476.8" font-family="Courier New" font-size="6.00" fill="#d3d3d3">(weight:0)&#45;&gt;</text>
<text text-anchor="start" x="246.32" y="-469.3" font-family="Courier New" font-size="6.00" fill="#d3d3d3">Agg(sm_0, ds)</text>
</g>
<!-- Time(custom_year) -->
<g id="node7" class="node">
<title>Time(custom_year)</title>
<polygon fill="#303030" stroke="#ffa07a" points="225.5,-52 74,-52 74,-16 225.5,-16 225.5,-52"/>
<text text-anchor="start" x="86" y="-29.73" font-family="Courier New" font-size="12.00" fill="#d3d3d3">Time(custom_year)</text>
</g>
<!-- MetricTimeDimension(YEAR)&#45;&gt;Time(custom_year) -->
<g id="edge3" class="edge">
<title>MetricTimeDimension(YEAR)&#45;&gt;Time(custom_year)</title>
<path fill="none" stroke="#d3d3d3" d="M322.32,-148.82C287.14,-125.61 224.78,-84.49 185.44,-58.54"/>
<polygon fill="#303030" stroke="#d3d3d3" points="187.51,-55.71 177.23,-53.13 183.65,-61.55 187.51,-55.71"/>
<text text-anchor="start" x="312" y="-115.55" font-family="Courier New" font-size="6.00" fill="#d3d3d3">MetricTimeDimension(YEAR)</text>
<text text-anchor="start" x="336.38" y="-108.05" font-family="Courier New" font-size="6.00" fill="#d3d3d3">(weight:0)&#45;&gt;</text>
<text text-anchor="start" x="327" y="-100.55" font-family="Courier New" font-size="6.00" fill="#d3d3d3">Time(custom_year)</text>
</g>
<!-- Time(extract_year) -->
<g id="node8" class="node">
<title>Time(extract_year)</title>
<polygon fill="#303030" stroke="#ffa07a" points="402.25,-52 243.25,-52 243.25,-16 402.25,-16 402.25,-52"/>
<text text-anchor="start" x="255.25" y="-29.73" font-family="Courier New" font-size="12.00" fill="#d3d3d3">Time(extract_year)</text>
</g>
<!-- MetricTimeDimension(YEAR)&#45;&gt;Time(extract_year) -->
<g id="edge4" class="edge">
<title>MetricTimeDimension(YEAR)&#45;&gt;Time(extract_year)</title>
<path fill="none" stroke="#d3d3d3" d="M345.3,-148.82C340.96,-126.93 333.47,-89.1 328.32,-63.1"/>
<polygon fill="#303030" stroke="#d3d3d3" points="331.8,-62.7 326.43,-53.57 324.94,-64.06 331.8,-62.7"/>
<text text-anchor="start" x="429.75" y="-115.55" font-family="Courier New" font-size="6.00" fill="#d3d3d3">MetricTimeDimension(YEAR)</text>
<text text-anchor="start" x="454.12" y="-108.05" font-family="Courier New" font-size="6.00" fill="#d3d3d3">(weight:0)&#45;&gt;</text>
<text text-anchor="start" x="442.88" y="-100.55" font-family="Courier New" font-size="6.00" fill="#d3d3d3">Time(extract_year)</text>
</g>
<!-- Time(year) -->
<g id="node9" class="node">
<title>Time(year)</title>
<polygon fill="#303030" stroke="#ffa07a" points="519.25,-52 420.25,-52 420.25,-16 519.25,-16 519.25,-52"/>
<text text-anchor="start" x="432.25" y="-29.73" font-family="Courier New" font-size="12.00" fill="#d3d3d3">Time(year)</text>
</g>
<!-- MetricTimeDimension(YEAR)&#45;&gt;Time(year) -->
<g id="edge5" class="edge">
<title>MetricTimeDimension(YEAR)&#45;&gt;Time(year)</title>
<path fill="none" stroke="#d3d3d3" d="M364.82,-148.82C385.73,-126.14 422.41,-86.35 446.4,-60.33"/>
<polygon fill="#303030" stroke="#d3d3d3" points="448.77,-62.92 452.97,-53.2 443.62,-58.18 448.77,-62.92"/>
<text text-anchor="start" x="547.75" y="-115.55" font-family="Courier New" font-size="6.00" fill="#d3d3d3">MetricTimeDimension(YEAR)</text>
<text text-anchor="start" x="572.12" y="-108.05" font-family="Courier New" font-size="6.00" fill="#d3d3d3">(weight:0)&#45;&gt;</text>
<text text-anchor="start" x="575.88" y="-100.55" font-family="Courier New" font-size="6.00" fill="#d3d3d3">Time(year)</text>
</g>
<!-- TimeDim(ds)&#45;&gt;Time(custom_year) -->
<g id="edge6" class="edge">
<title>TimeDim(ds)&#45;&gt;Time(custom_year)</title>
<path fill="none" stroke="#d3d3d3" d="M168.83,-148.82C165.16,-126.93 158.82,-89.1 154.46,-63.1"/>
<polygon fill="#303030" stroke="#d3d3d3" points="157.97,-62.86 152.86,-53.58 151.07,-64.02 157.97,-62.86"/>
<text text-anchor="start" x="21.25" y="-115.55" font-family="Courier New" font-size="6.00" fill="#d3d3d3">TimeDim(ds)</text>
<text text-anchor="start" x="19.38" y="-108.05" font-family="Courier New" font-size="6.00" fill="#d3d3d3">(weight:0)&#45;&gt;</text>
<text text-anchor="start" x="10" y="-100.55" font-family="Courier New" font-size="6.00" fill="#d3d3d3">Time(custom_year)</text>
</g>
<!-- TimeDim(ds)&#45;&gt;Time(extract_year) -->
<g id="edge7" class="edge">
<title>TimeDim(ds)&#45;&gt;Time(extract_year)</title>
<path fill="none" stroke="#d3d3d3" d="M191.8,-148.82C218.23,-125.85 264.87,-85.31 294.77,-59.32"/>
<polygon fill="#303030" stroke="#d3d3d3" points="296.7,-62.28 301.95,-53.08 292.11,-57 296.7,-62.28"/>
<text text-anchor="start" x="130.38" y="-115.55" font-family="Courier New" font-size="6.00" fill="#d3d3d3">TimeDim(ds)</text>
<text text-anchor="start" x="128.5" y="-108.05" font-family="Courier New" font-size="6.00" fill="#d3d3d3">(weight:0)&#45;&gt;</text>
<text text-anchor="start" x="117.25" y="-100.55" font-family="Courier New" font-size="6.00" fill="#d3d3d3">Time(extract_year)</text>
</g>
<!-- TimeDim(ds)&#45;&gt;Time(year) -->
<g id="edge8" class="edge">
<title>TimeDim(ds)&#45;&gt;Time(year)</title>
<path fill="none" stroke="#d3d3d3" d="M211.32,-148.82C265.13,-125.12 361.36,-82.74 420,-56.91"/>
<polygon fill="#303030" stroke="#d3d3d3" points="421.36,-60.14 429.1,-52.9 418.54,-53.73 421.36,-60.14"/>
<text text-anchor="start" x="225.62" y="-115.55" font-family="Courier New" font-size="6.00" fill="#d3d3d3">TimeDim(ds)</text>
<text text-anchor="start" x="223.75" y="-108.05" font-family="Courier New" font-size="6.00" fill="#d3d3d3">(weight:0)&#45;&gt;</text>
<text text-anchor="start" x="227.5" y="-100.55" font-family="Courier New" font-size="6.00" fill="#d3d3d3">Time(year)</text>
</g>
</g>
</svg>
