<?xml version="1.0" encoding="UTF-8" standalone="no"?>
<!DOCTYPE svg PUBLIC "-//W3C//DTD SVG 1.1//EN"
 "http://www.w3.org/Graphics/SVG/1.1/DTD/svg11.dtd">
<!-- Generated by graphviz version 12.2.1 (20241206.2353)
 -->
<!-- Pages: 1 -->
<svg width="247pt" height="271pt"
 viewBox="0.00 0.00 247.25 270.75" xmlns="http://www.w3.org/2000/svg" xmlns:xlink="http://www.w3.org/1999/xlink">
<g id="graph0" class="graph" transform="scale(1 1) rotate(0) translate(4 266.75)">
<polygon fill="#181818" stroke="none" points="-4,4 -4,-266.75 243.25,-266.75 243.25,4 -4,4"/>
<!-- sm_0 -->
<g id="node1" class="node">
<title>sm_0</title>
<polygon fill="#333333" stroke="#87cefa" points="200,-262.75 26.5,-262.75 26.5,-217.5 200,-217.5 200,-262.75"/>
<text text-anchor="start" x="45.75" y="-243.35" font-family="Courier New" font-size="12.00" fill="#e6e6e6">EntityNode(&#39;sm_0&#39;)</text>
<text text-anchor="start" x="34.5" y="-230.8" font-family="Courier New" font-size="6.00" fill="#e6e6e6">description </text>
<text text-anchor="start" x="79.5" y="-230.8" font-family="Courier New" font-size="6.00" fill="#e6e6e6">Entry point for joining to the</text>
<text text-anchor="start" x="79.5" y="-223.3" font-family="Courier New" font-size="6.00" fill="#e6e6e6">&#39;sm_0&#39; semantic model</text>
</g>
<!-- ds -->
<g id="node2" class="node">
<title>ds</title>
<polygon fill="#333333" stroke="#87cefa" points="185.25,-144.75 41.25,-144.75 41.25,-108.75 185.25,-108.75 185.25,-144.75"/>
<text text-anchor="start" x="53.25" y="-122.47" font-family="Courier New" font-size="12.00" fill="#e6e6e6">EntityNode(&#39;ds&#39;)</text>
</g>
<!-- sm_0&#45;&gt;ds -->
<g id="edge1" class="edge">
<title>sm_0&#45;&gt;ds</title>
<path fill="none" stroke="#e6e6e6" d="M113.25,-217.12C113.25,-199.75 113.25,-175.38 113.25,-156.47"/>
<polygon fill="#e6e6e6" stroke="#e6e6e6" points="116.75,-156.48 113.25,-146.48 109.75,-156.48 116.75,-156.48"/>
<text text-anchor="start" x="125.25" y="-178" font-family="Courier New" font-size="10.00" fill="#e6e6e6">sm_0&#45;&gt;ds</text>
</g>
<!-- _base_quarter -->
<g id="node3" class="node">
<title>_base_quarter</title>
<polygon fill="#333333" stroke="#87cefa" points="226.5,-36 0,-36 0,0 226.5,0 226.5,-36"/>
<text text-anchor="start" x="12" y="-13.72" font-family="Courier New" font-size="12.00" fill="#e6e6e6">EntityNode(&#39;_base_quarter&#39;)</text>
</g>
<!-- ds&#45;&gt;_base_quarter -->
<g id="edge2" class="edge">
<title>ds&#45;&gt;_base_quarter</title>
<path fill="none" stroke="#e6e6e6" d="M113.25,-108.6C113.25,-92.2 113.25,-67.16 113.25,-47.72"/>
<polygon fill="#e6e6e6" stroke="#e6e6e6" points="116.75,-47.98 113.25,-37.98 109.75,-47.98 116.75,-47.98"/>
<text text-anchor="start" x="125.25" y="-69.25" font-family="Courier New" font-size="10.00" fill="#e6e6e6">ds&#45;&gt;_base_quarter</text>
</g>
</g>
</svg>
