<?xml version="1.0" encoding="UTF-8" standalone="no"?>
<!DOCTYPE svg PUBLIC "-//W3C//DTD SVG 1.1//EN"
 "http://www.w3.org/Graphics/SVG/1.1/DTD/svg11.dtd">
<!-- Generated by graphviz version 12.2.1 (20241206.2353)
 -->
<!-- Pages: 1 -->
<svg width="2465pt" height="694pt"
 viewBox="0.00 0.00 2465.25 694.00" xmlns="http://www.w3.org/2000/svg" xmlns:xlink="http://www.w3.org/1999/xlink">
<g id="graph0" class="graph" transform="scale(1 1) rotate(0) translate(4 690)">
<polygon fill="#181818" stroke="none" points="-4,4 -4,-690 2461.25,-690 2461.25,4 -4,4"/>
<g id="clust1" class="cluster">
<title>cluster_sm_0</title>
<polygon fill="#181818" stroke="#000000" stroke-width="3" points="159.25,-310 159.25,-425 1578.5,-425 1578.5,-310 159.25,-310"/>
<text text-anchor="middle" x="868.88" y="-411.5" font-family="Courier New" font-size="10.00" fill="#d3d3d3">sm_0</text>
</g>
<g id="clust2" class="cluster">
<title>cluster_other_attribute</title>
<polygon fill="#181818" stroke="#000000" stroke-width="3" points="1780.75,-303 1780.75,-392 2068.25,-392 2068.25,-303 1780.75,-303"/>
<text text-anchor="middle" x="1924.5" y="-378.5" font-family="Courier New" font-size="10.00" fill="#d3d3d3">other_attribute</text>
</g>
<g id="clust3" class="cluster">
<title>cluster_dsi_entity</title>
<polygon fill="#181818" stroke="#000000" stroke-width="3" points="536.5,-456 536.5,-531 801.5,-531 801.5,-456 536.5,-456"/>
<text text-anchor="middle" x="669" y="-517.5" font-family="Courier New" font-size="10.00" fill="#d3d3d3">dsi_entity</text>
</g>
<g id="clust4" class="cluster">
<title>cluster_time_dimension</title>
<polygon fill="#181818" stroke="#000000" stroke-width="3" points="1799.5,-400 1799.5,-560 2049.5,-560 2049.5,-400 1799.5,-400"/>
<text text-anchor="middle" x="1924.5" y="-546.5" font-family="Courier New" font-size="10.00" fill="#d3d3d3">time_dimension</text>
</g>
<g id="clust5" class="cluster">
<title>cluster_time_attribute</title>
<polygon fill="#181818" stroke="#000000" stroke-width="3" points="2251.75,-186 2251.75,-485 2449.25,-485 2449.25,-186 2251.75,-186"/>
<text text-anchor="middle" x="2350.5" y="-471.5" font-family="Courier New" font-size="10.00" fill="#d3d3d3">time_attribute</text>
</g>
<g id="clust6" class="cluster">
<title>cluster_time_entity</title>
<polygon fill="#181818" stroke="#000000" stroke-width="3" points="1807,-150 1807,-295 2042,-295 2042,-150 1807,-150"/>
<text text-anchor="middle" x="1924.5" y="-281.5" font-family="Courier New" font-size="10.00" fill="#d3d3d3">time_entity</text>
</g>
<g id="clust7" class="cluster">
<title>cluster_metric_attribute</title>
<polygon fill="#181818" stroke="#000000" stroke-width="3" points="992.5,-538 992.5,-611 1250,-611 1250,-538 992.5,-538"/>
<text text-anchor="middle" x="1121.25" y="-597.5" font-family="Courier New" font-size="10.00" fill="#d3d3d3">metric_attribute</text>
</g>
<!-- JoinTo(sm_0) -->
<g id="node1" class="node">
<title>JoinTo(sm_0)</title>
<polygon fill="#303030" stroke="#d3d3d3" points="1178.25,-355.88 1064.25,-355.88 1064.25,-318.12 1178.25,-318.12 1178.25,-355.88"/>
<text text-anchor="start" x="1076.25" y="-336.48" font-family="Courier New" font-size="12.00" fill="#d3d3d3">JoinTo(sm_0)</text>
<text text-anchor="start" x="1072.25" y="-323.93" font-family="Courier New" font-size="6.00" fill="#d3d3d3">add_model: sm_0</text>
</g>
<!-- edge_as_node_2 -->
<g id="node5" class="node">
<title>edge_as_node_2</title>
<polygon fill="none" stroke="none" points="1394.25,-366.25 1289.25,-366.25 1289.25,-343.75 1394.25,-343.75 1394.25,-366.25"/>
<text text-anchor="start" x="1289.25" y="-360.55" font-family="Courier New" font-size="6.00" fill="#d3d3d3">type: EntityRelationshipEdge</text>
<text text-anchor="start" x="1289.25" y="-353.05" font-family="Courier New" font-size="6.00" fill="#d3d3d3">tail: JoinTo(sm_0)</text>
<text text-anchor="start" x="1289.25" y="-345.55" font-family="Courier New" font-size="6.00" fill="#d3d3d3">head: JoinFrom(sm_0)</text>
</g>
<!-- JoinTo(sm_0)&#45;&gt;edge_as_node_2 -->
<g id="edge5" class="edge">
<title>JoinTo(sm_0)&#45;&gt;edge_as_node_2</title>
<path fill="none" stroke="#d3d3d3" d="M1178.52,-341.64C1212.79,-344.46 1256.23,-348.04 1289.53,-350.78"/>
</g>
<!-- edge_as_node_0 -->
<g id="node21" class="node">
<title>edge_as_node_0</title>
<polygon fill="none" stroke="none" points="1752.75,-327.25 1606.5,-327.25 1606.5,-304.75 1752.75,-304.75 1752.75,-327.25"/>
<text text-anchor="start" x="1606.5" y="-321.55" font-family="Courier New" font-size="6.00" fill="#d3d3d3">type: EntityAttributeEdge</text>
<text text-anchor="start" x="1606.5" y="-314.05" font-family="Courier New" font-size="6.00" fill="#d3d3d3">tail: JoinTo(sm_0)</text>
<text text-anchor="start" x="1606.5" y="-306.55" font-family="Courier New" font-size="6.00" fill="#d3d3d3">head: DsiEntityKey(sm_0_primary_entity)</text>
</g>
<!-- JoinTo(sm_0)&#45;&gt;edge_as_node_0 -->
<g id="edge1" class="edge">
<title>JoinTo(sm_0)&#45;&gt;edge_as_node_0</title>
<path fill="none" stroke="#d3d3d3" d="M1178.64,-334.84C1280.92,-331 1494.48,-322.96 1606.88,-318.74"/>
</g>
<!-- edge_as_node_17 -->
<g id="node34" class="node">
<title>edge_as_node_17</title>
<polygon fill="none" stroke="none" points="1739.62,-197.25 1619.62,-197.25 1619.62,-174.75 1739.62,-174.75 1739.62,-197.25"/>
<text text-anchor="start" x="1619.62" y="-191.55" font-family="Courier New" font-size="6.00" fill="#d3d3d3">type: EntityRelationshipEdge</text>
<text text-anchor="start" x="1619.62" y="-184.05" font-family="Courier New" font-size="6.00" fill="#d3d3d3">tail: JoinTo(sm_0)</text>
<text text-anchor="start" x="1619.62" y="-176.55" font-family="Courier New" font-size="6.00" fill="#d3d3d3">head: TimeDimension(ds, quarter)</text>
</g>
<!-- JoinTo(sm_0)&#45;&gt;edge_as_node_17 -->
<g id="edge35" class="edge">
<title>JoinTo(sm_0)&#45;&gt;edge_as_node_17</title>
<path fill="none" stroke="#d3d3d3" d="M1178.64,-321.48C1291.49,-290.96 1539.83,-223.8 1638.26,-197.19"/>
</g>
<!-- edge_as_node_22 -->
<g id="node39" class="node">
<title>edge_as_node_22</title>
<polygon fill="none" stroke="none" points="1405.5,-275 1278,-275 1278,-245 1405.5,-245 1405.5,-275"/>
<text text-anchor="start" x="1278" y="-269.3" font-family="Courier New" font-size="6.00" fill="#d3d3d3">add_prop: DERIVED_TIME_GRANULARITY</text>
<text text-anchor="start" x="1278" y="-261.8" font-family="Courier New" font-size="6.00" fill="#d3d3d3">type: EntityRelationshipEdge</text>
<text text-anchor="start" x="1278" y="-254.3" font-family="Courier New" font-size="6.00" fill="#d3d3d3">tail: JoinTo(sm_0)</text>
<text text-anchor="start" x="1278" y="-246.8" font-family="Courier New" font-size="6.00" fill="#d3d3d3">head: TimeDimension(ds, year)</text>
</g>
<!-- JoinTo(sm_0)&#45;&gt;edge_as_node_22 -->
<g id="edge45" class="edge">
<title>JoinTo(sm_0)&#45;&gt;edge_as_node_22</title>
<path fill="none" stroke="#d3d3d3" d="M1177.1,-317.67C1214.65,-304.44 1263.7,-287.15 1298.28,-274.97"/>
</g>
<!-- JoinFrom(sm_0) -->
<g id="node2" class="node">
<title>JoinFrom(sm_0)</title>
<polygon fill="#303030" stroke="#d3d3d3" points="1570.5,-395.88 1441.5,-395.88 1441.5,-358.12 1570.5,-358.12 1570.5,-395.88"/>
<text text-anchor="start" x="1453.5" y="-376.48" font-family="Courier New" font-size="12.00" fill="#d3d3d3">JoinFrom(sm_0)</text>
<text text-anchor="start" x="1449.5" y="-363.93" font-family="Courier New" font-size="6.00" fill="#d3d3d3">add_model: sm_0</text>
</g>
<!-- edge_as_node_1 -->
<g id="node22" class="node">
<title>edge_as_node_1</title>
<polygon fill="none" stroke="none" points="1752.75,-368.25 1606.5,-368.25 1606.5,-345.75 1752.75,-345.75 1752.75,-368.25"/>
<text text-anchor="start" x="1606.5" y="-362.55" font-family="Courier New" font-size="6.00" fill="#d3d3d3">type: EntityAttributeEdge</text>
<text text-anchor="start" x="1606.5" y="-355.05" font-family="Courier New" font-size="6.00" fill="#d3d3d3">tail: JoinFrom(sm_0)</text>
<text text-anchor="start" x="1606.5" y="-347.55" font-family="Courier New" font-size="6.00" fill="#d3d3d3">head: DsiEntityKey(sm_0_primary_entity)</text>
</g>
<!-- JoinFrom(sm_0)&#45;&gt;edge_as_node_1 -->
<g id="edge3" class="edge">
<title>JoinFrom(sm_0)&#45;&gt;edge_as_node_1</title>
<path fill="none" stroke="#d3d3d3" d="M1570.91,-369.55C1582.53,-368.2 1594.74,-366.78 1606.58,-365.4"/>
</g>
<!-- edge_as_node_4 -->
<g id="node24" class="node">
<title>edge_as_node_4</title>
<polygon fill="none" stroke="none" points="1747.12,-498 1612.12,-498 1612.12,-468 1747.12,-468 1747.12,-498"/>
<text text-anchor="start" x="1612.12" y="-492.3" font-family="Courier New" font-size="6.00" fill="#d3d3d3">add_prop: LOCAL_LINKED</text>
<text text-anchor="start" x="1612.12" y="-484.8" font-family="Courier New" font-size="6.00" fill="#d3d3d3">type: JoinFromModelEdge</text>
<text text-anchor="start" x="1612.12" y="-477.3" font-family="Courier New" font-size="6.00" fill="#d3d3d3">tail: JoinFrom(sm_0)</text>
<text text-anchor="start" x="1612.12" y="-469.8" font-family="Courier New" font-size="6.00" fill="#d3d3d3">head: DsiEntity(sm_0_primary_entity)</text>
</g>
<!-- JoinFrom(sm_0)&#45;&gt;edge_as_node_4 -->
<g id="edge9" class="edge">
<title>JoinFrom(sm_0)&#45;&gt;edge_as_node_4</title>
<path fill="none" stroke="#d3d3d3" d="M1538.08,-396.2C1571.5,-416.84 1623.94,-449.22 1654.42,-468.05"/>
</g>
<!-- edge_as_node_5 -->
<g id="node25" class="node">
<title>edge_as_node_5</title>
<polygon fill="none" stroke="none" points="1743.38,-409.25 1615.88,-409.25 1615.88,-386.75 1743.38,-386.75 1743.38,-409.25"/>
<text text-anchor="start" x="1615.88" y="-403.55" font-family="Courier New" font-size="6.00" fill="#d3d3d3">type: EntityRelationshipEdge</text>
<text text-anchor="start" x="1615.88" y="-396.05" font-family="Courier New" font-size="6.00" fill="#d3d3d3">tail: JoinFrom(sm_0)</text>
<text text-anchor="start" x="1615.88" y="-388.55" font-family="Courier New" font-size="6.00" fill="#d3d3d3">head: MetricTimeDimension(QUARTER)</text>
</g>
<!-- JoinFrom(sm_0)&#45;&gt;edge_as_node_5 -->
<g id="edge11" class="edge">
<title>JoinFrom(sm_0)&#45;&gt;edge_as_node_5</title>
<path fill="none" stroke="#d3d3d3" d="M1570.91,-384.82C1585.68,-386.63 1601.38,-388.55 1616.09,-390.35"/>
</g>
<!-- edge_as_node_12 -->
<g id="node30" class="node">
<title>edge_as_node_12</title>
<polygon fill="none" stroke="none" points="1737.75,-450.25 1621.5,-450.25 1621.5,-427.75 1737.75,-427.75 1737.75,-450.25"/>
<text text-anchor="start" x="1621.5" y="-444.55" font-family="Courier New" font-size="6.00" fill="#d3d3d3">type: EntityRelationshipEdge</text>
<text text-anchor="start" x="1621.5" y="-437.05" font-family="Courier New" font-size="6.00" fill="#d3d3d3">tail: JoinFrom(sm_0)</text>
<text text-anchor="start" x="1621.5" y="-429.55" font-family="Courier New" font-size="6.00" fill="#d3d3d3">head: MetricTimeDimension(YEAR)</text>
</g>
<!-- JoinFrom(sm_0)&#45;&gt;edge_as_node_12 -->
<g id="edge25" class="edge">
<title>JoinFrom(sm_0)&#45;&gt;edge_as_node_12</title>
<path fill="none" stroke="#d3d3d3" d="M1560.36,-396.28C1589,-406.62 1623.28,-419.01 1647.55,-427.77"/>
</g>
<!-- Agg(sm_0, ds) -->
<g id="node3" class="node">
<title>Agg(sm_0, ds)</title>
<polygon fill="#303030" stroke="#d3d3d3" points="729.75,-395 608.25,-395 608.25,-359 729.75,-359 729.75,-395"/>
<text text-anchor="start" x="620.25" y="-372.73" font-family="Courier New" font-size="12.00" fill="#d3d3d3">Agg(sm_0, ds)</text>
</g>
<!-- edge_as_node_10 -->
<g id="node6" class="node">
<title>edge_as_node_10</title>
<polygon fill="none" stroke="none" points="1173.75,-396.25 1068.75,-396.25 1068.75,-373.75 1173.75,-373.75 1173.75,-396.25"/>
<text text-anchor="start" x="1068.75" y="-390.55" font-family="Courier New" font-size="6.00" fill="#d3d3d3">type: EntityRelationshipEdge</text>
<text text-anchor="start" x="1068.75" y="-383.05" font-family="Courier New" font-size="6.00" fill="#d3d3d3">tail: Agg(sm_0, ds)</text>
<text text-anchor="start" x="1068.75" y="-375.55" font-family="Courier New" font-size="6.00" fill="#d3d3d3">head: JoinFrom(sm_0)</text>
</g>
<!-- Agg(sm_0, ds)&#45;&gt;edge_as_node_10 -->
<g id="edge21" class="edge">
<title>Agg(sm_0, ds)&#45;&gt;edge_as_node_10</title>
<path fill="none" stroke="#d3d3d3" d="M729.99,-378.08C819.44,-379.66 984.69,-382.58 1068.93,-384.07"/>
</g>
<!-- edge_as_node_11 -->
<g id="node7" class="node">
<title>edge_as_node_11</title>
<polygon fill="none" stroke="none" points="949.5,-355.25 844.5,-355.25 844.5,-332.75 949.5,-332.75 949.5,-355.25"/>
<text text-anchor="start" x="844.5" y="-349.55" font-family="Courier New" font-size="6.00" fill="#d3d3d3">type: EntityRelationshipEdge</text>
<text text-anchor="start" x="844.5" y="-342.05" font-family="Courier New" font-size="6.00" fill="#d3d3d3">tail: Agg(sm_0, ds)</text>
<text text-anchor="start" x="844.5" y="-334.55" font-family="Courier New" font-size="6.00" fill="#d3d3d3">head: JoinTo(sm_0)</text>
</g>
<!-- Agg(sm_0, ds)&#45;&gt;edge_as_node_11 -->
<g id="edge23" class="edge">
<title>Agg(sm_0, ds)&#45;&gt;edge_as_node_11</title>
<path fill="none" stroke="#d3d3d3" d="M729.97,-368.24C765.67,-363.03 810.5,-356.48 844.58,-351.51"/>
</g>
<!-- Measure(sm_0_measure_0) -->
<g id="node4" class="node">
<title>Measure(sm_0_measure_0)</title>
<polygon fill="#303030" stroke="#006400" points="363.75,-395.88 167.25,-395.88 167.25,-358.12 363.75,-358.12 363.75,-395.88"/>
<text text-anchor="start" x="179.25" y="-376.48" font-family="Courier New" font-size="12.00" fill="#d3d3d3">Measure(sm_0_measure_0)</text>
<text text-anchor="start" x="175.25" y="-363.93" font-family="Courier New" font-size="6.00" fill="#d3d3d3">add_model: sm_0</text>
</g>
<!-- edge_as_node_16 -->
<g id="node8" class="node">
<title>edge_as_node_16</title>
<polygon fill="none" stroke="none" points="508.5,-388.25 399.75,-388.25 399.75,-365.75 508.5,-365.75 508.5,-388.25"/>
<text text-anchor="start" x="399.75" y="-382.55" font-family="Courier New" font-size="6.00" fill="#d3d3d3">type: EntityAttributeEdge</text>
<text text-anchor="start" x="399.75" y="-375.05" font-family="Courier New" font-size="6.00" fill="#d3d3d3">tail: Measure(sm_0_measure_0)</text>
<text text-anchor="start" x="399.75" y="-367.55" font-family="Courier New" font-size="6.00" fill="#d3d3d3">head: Agg(sm_0, ds)</text>
</g>
<!-- Measure(sm_0_measure_0)&#45;&gt;edge_as_node_16 -->
<g id="edge33" class="edge">
<title>Measure(sm_0_measure_0)&#45;&gt;edge_as_node_16</title>
<path fill="none" stroke="#d3d3d3" d="M364.19,-377C376.53,-377 388.78,-377 400.05,-377"/>
</g>
<!-- edge_as_node_2&#45;&gt;JoinFrom(sm_0) -->
<g id="edge6" class="edge">
<title>edge_as_node_2&#45;&gt;JoinFrom(sm_0)</title>
<path fill="none" stroke="#d3d3d3" d="M1394.09,-361.96C1405.53,-363.51 1417.89,-365.19 1430.07,-366.84"/>
<polygon fill="#303030" stroke="#d3d3d3" points="1429.29,-370.27 1439.67,-368.14 1430.23,-363.33 1429.29,-370.27"/>
</g>
<!-- edge_as_node_10&#45;&gt;JoinFrom(sm_0) -->
<g id="edge22" class="edge">
<title>edge_as_node_10&#45;&gt;JoinFrom(sm_0)</title>
<path fill="none" stroke="#d3d3d3" d="M1173.54,-383.91C1239.69,-382.54 1354.12,-380.16 1429.94,-378.58"/>
<polygon fill="#303030" stroke="#d3d3d3" points="1429.86,-382.08 1439.79,-378.38 1429.72,-375.09 1429.86,-382.08"/>
</g>
<!-- edge_as_node_11&#45;&gt;JoinTo(sm_0) -->
<g id="edge24" class="edge">
<title>edge_as_node_11&#45;&gt;JoinTo(sm_0)</title>
<path fill="none" stroke="#d3d3d3" d="M949.27,-342.39C979.89,-341.42 1019.15,-340.18 1052.32,-339.14"/>
<polygon fill="#303030" stroke="#d3d3d3" points="1052.38,-342.64 1062.27,-338.83 1052.16,-335.64 1052.38,-342.64"/>
</g>
<!-- edge_as_node_16&#45;&gt;Agg(sm_0, ds) -->
<g id="edge34" class="edge">
<title>edge_as_node_16&#45;&gt;Agg(sm_0, ds)</title>
<path fill="none" stroke="#d3d3d3" d="M508.29,-377C535.04,-377 567.83,-377 596.72,-377"/>
<polygon fill="#303030" stroke="#d3d3d3" points="596.49,-380.5 606.49,-377 596.49,-373.5 596.49,-380.5"/>
</g>
<!-- DsiEntityKey(sm_0_primary_entity) -->
<g id="node9" class="node">
<title>DsiEntityKey(sm_0_primary_entity)</title>
<polygon fill="#303030" stroke="#ffa07a" points="2060.25,-363.38 1788.75,-363.38 1788.75,-310.62 2060.25,-310.62 2060.25,-363.38"/>
<text text-anchor="start" x="1800.75" y="-343.98" font-family="Courier New" font-size="12.00" fill="#d3d3d3">DsiEntityKey(sm_0_primary_entity)</text>
<text text-anchor="start" x="1796.75" y="-331.43" font-family="Courier New" font-size="6.00" fill="#d3d3d3">add_name: sm_0_primary_entity</text>
<text text-anchor="start" x="1796.75" y="-323.93" font-family="Courier New" font-size="6.00" fill="#d3d3d3">add_prop: ENTITY</text>
<text text-anchor="start" x="1796.75" y="-316.43" font-family="Courier New" font-size="6.00" fill="#d3d3d3">add_type: ENTITY</text>
</g>
<!-- DsiEntity(sm_0_primary_entity) -->
<g id="node10" class="node">
<title>DsiEntity(sm_0_primary_entity)</title>
<polygon fill="#303030" stroke="#87cefa" points="793.5,-501.88 544.5,-501.88 544.5,-464.12 793.5,-464.12 793.5,-501.88"/>
<text text-anchor="start" x="556.5" y="-482.48" font-family="Courier New" font-size="12.00" fill="#d3d3d3">DsiEntity(sm_0_primary_entity)</text>
<text text-anchor="start" x="552.5" y="-469.93" font-family="Courier New" font-size="6.00" fill="#d3d3d3">add_name: sm_0_primary_entity</text>
</g>
<!-- edge_as_node_3 -->
<g id="node23" class="node">
<title>edge_as_node_3</title>
<polygon fill="none" stroke="none" points="964.5,-455.25 829.5,-455.25 829.5,-432.75 964.5,-432.75 964.5,-455.25"/>
<text text-anchor="start" x="829.5" y="-449.55" font-family="Courier New" font-size="6.00" fill="#d3d3d3">type: JoinToModelEdge</text>
<text text-anchor="start" x="829.5" y="-442.05" font-family="Courier New" font-size="6.00" fill="#d3d3d3">tail: DsiEntity(sm_0_primary_entity)</text>
<text text-anchor="start" x="829.5" y="-434.55" font-family="Courier New" font-size="6.00" fill="#d3d3d3">head: JoinTo(sm_0)</text>
</g>
<!-- DsiEntity(sm_0_primary_entity)&#45;&gt;edge_as_node_3 -->
<g id="edge7" class="edge">
<title>DsiEntity(sm_0_primary_entity)&#45;&gt;edge_as_node_3</title>
<path fill="none" stroke="#d3d3d3" d="M782.01,-463.67C798.77,-460.78 815.56,-457.88 830.9,-455.23"/>
</g>
<!-- edge_as_node_27 -->
<g id="node44" class="node">
<title>edge_as_node_27</title>
<polygon fill="none" stroke="none" points="964.5,-563.25 829.5,-563.25 829.5,-510.75 964.5,-510.75 964.5,-563.25"/>
<text text-anchor="start" x="829.5" y="-557.55" font-family="Courier New" font-size="6.00" fill="#d3d3d3">add_name: sm_0_measure_0_metric</text>
<text text-anchor="start" x="829.5" y="-550.05" font-family="Courier New" font-size="6.00" fill="#d3d3d3">add_prop: METRIC</text>
<text text-anchor="start" x="829.5" y="-542.55" font-family="Courier New" font-size="6.00" fill="#d3d3d3">add_model: sm_0</text>
<text text-anchor="start" x="829.5" y="-535.05" font-family="Courier New" font-size="6.00" fill="#d3d3d3">add_type: METRIC</text>
<text text-anchor="start" x="829.5" y="-527.55" font-family="Courier New" font-size="6.00" fill="#d3d3d3">type: EntityAttributeEdge</text>
<text text-anchor="start" x="829.5" y="-520.05" font-family="Courier New" font-size="6.00" fill="#d3d3d3">tail: DsiEntity(sm_0_primary_entity)</text>
<text text-anchor="start" x="829.5" y="-512.55" font-family="Courier New" font-size="6.00" fill="#d3d3d3">head: Metric(sm_0_measure_0_metric)</text>
</g>
<!-- DsiEntity(sm_0_primary_entity)&#45;&gt;edge_as_node_27 -->
<g id="edge55" class="edge">
<title>DsiEntity(sm_0_primary_entity)&#45;&gt;edge_as_node_27</title>
<path fill="none" stroke="#d3d3d3" d="M750.95,-502.34C776.79,-508.52 805.07,-515.27 829.73,-521.17"/>
</g>
<!-- MetricTimeDimension(QUARTER) -->
<g id="node11" class="node">
<title>MetricTimeDimension(QUARTER)</title>
<polygon fill="#303030" stroke="#d3d3d3" points="2041.5,-460.38 1807.5,-460.38 1807.5,-407.62 2041.5,-407.62 2041.5,-460.38"/>
<text text-anchor="start" x="1819.5" y="-440.98" font-family="Courier New" font-size="12.00" fill="#d3d3d3">MetricTimeDimension(QUARTER)</text>
<text text-anchor="start" x="1815.5" y="-428.43" font-family="Courier New" font-size="6.00" fill="#d3d3d3">add_name: metric_time</text>
<text text-anchor="start" x="1815.5" y="-420.93" font-family="Courier New" font-size="6.00" fill="#d3d3d3">add_prop: METRIC_TIME</text>
<text text-anchor="start" x="1815.5" y="-413.43" font-family="Courier New" font-size="6.00" fill="#d3d3d3">add_type: TIME_DIMENSION</text>
</g>
<!-- edge_as_node_6 -->
<g id="node26" class="node">
<title>edge_as_node_6</title>
<polygon fill="none" stroke="none" points="2223.75,-286 2096.25,-286 2096.25,-256 2223.75,-256 2223.75,-286"/>
<text text-anchor="start" x="2096.25" y="-280.3" font-family="Courier New" font-size="6.00" fill="#d3d3d3">add_time_grain: quarter</text>
<text text-anchor="start" x="2096.25" y="-272.8" font-family="Courier New" font-size="6.00" fill="#d3d3d3">type: EntityAttributeEdge</text>
<text text-anchor="start" x="2096.25" y="-265.3" font-family="Courier New" font-size="6.00" fill="#d3d3d3">tail: MetricTimeDimension(QUARTER)</text>
<text text-anchor="start" x="2096.25" y="-257.8" font-family="Courier New" font-size="6.00" fill="#d3d3d3">head: Time(quarter)</text>
</g>
<!-- MetricTimeDimension(QUARTER)&#45;&gt;edge_as_node_6 -->
<g id="edge13" class="edge">
<title>MetricTimeDimension(QUARTER)&#45;&gt;edge_as_node_6</title>
<path fill="none" stroke="#d3d3d3" d="M1963.8,-407.27C2013.48,-372.58 2098.44,-313.28 2137.81,-285.79"/>
</g>
<!-- edge_as_node_7 -->
<g id="node27" class="node">
<title>edge_as_node_7</title>
<polygon fill="none" stroke="none" points="2223.75,-486 2096.25,-486 2096.25,-456 2223.75,-456 2223.75,-486"/>
<text text-anchor="start" x="2096.25" y="-480.3" font-family="Courier New" font-size="6.00" fill="#d3d3d3">add_prop: DATE_PART</text>
<text text-anchor="start" x="2096.25" y="-472.8" font-family="Courier New" font-size="6.00" fill="#d3d3d3">type: EntityAttributeEdge</text>
<text text-anchor="start" x="2096.25" y="-465.3" font-family="Courier New" font-size="6.00" fill="#d3d3d3">tail: MetricTimeDimension(QUARTER)</text>
<text text-anchor="start" x="2096.25" y="-457.8" font-family="Courier New" font-size="6.00" fill="#d3d3d3">head: Time(extract_year)</text>
</g>
<!-- MetricTimeDimension(QUARTER)&#45;&gt;edge_as_node_7 -->
<g id="edge15" class="edge">
<title>MetricTimeDimension(QUARTER)&#45;&gt;edge_as_node_7</title>
<path fill="none" stroke="#d3d3d3" d="M2041.91,-452.45C2060.76,-455.43 2079.62,-458.42 2096.53,-461.1"/>
</g>
<!-- edge_as_node_8 -->
<g id="node28" class="node">
<title>edge_as_node_8</title>
<polygon fill="none" stroke="none" points="2223.75,-126 2096.25,-126 2096.25,-96 2223.75,-96 2223.75,-126"/>
<text text-anchor="start" x="2096.25" y="-120.3" font-family="Courier New" font-size="6.00" fill="#d3d3d3">add_prop: DATE_PART</text>
<text text-anchor="start" x="2096.25" y="-112.8" font-family="Courier New" font-size="6.00" fill="#d3d3d3">type: EntityAttributeEdge</text>
<text text-anchor="start" x="2096.25" y="-105.3" font-family="Courier New" font-size="6.00" fill="#d3d3d3">tail: MetricTimeDimension(QUARTER)</text>
<text text-anchor="start" x="2096.25" y="-97.8" font-family="Courier New" font-size="6.00" fill="#d3d3d3">head: Time(extract_quarter)</text>
</g>
<!-- MetricTimeDimension(QUARTER)&#45;&gt;edge_as_node_8 -->
<g id="edge17" class="edge">
<title>MetricTimeDimension(QUARTER)&#45;&gt;edge_as_node_8</title>
<path fill="none" stroke="#d3d3d3" d="M1944.81,-407.29C1992.01,-342 2112.04,-175.95 2148.4,-125.66"/>
</g>
<!-- edge_as_node_9 -->
<g id="node29" class="node">
<title>edge_as_node_9</title>
<polygon fill="none" stroke="none" points="2223.75,-341.75 2096.25,-341.75 2096.25,-304.25 2223.75,-304.25 2223.75,-341.75"/>
<text text-anchor="start" x="2096.25" y="-336.05" font-family="Courier New" font-size="6.00" fill="#d3d3d3">add_prop: DERIVED_TIME_GRANULARITY</text>
<text text-anchor="start" x="2096.25" y="-328.55" font-family="Courier New" font-size="6.00" fill="#d3d3d3">add_time_grain: custom_year</text>
<text text-anchor="start" x="2096.25" y="-321.05" font-family="Courier New" font-size="6.00" fill="#d3d3d3">type: EntityAttributeEdge</text>
<text text-anchor="start" x="2096.25" y="-313.55" font-family="Courier New" font-size="6.00" fill="#d3d3d3">tail: MetricTimeDimension(QUARTER)</text>
<text text-anchor="start" x="2096.25" y="-306.05" font-family="Courier New" font-size="6.00" fill="#d3d3d3">head: Time(custom_year)</text>
</g>
<!-- MetricTimeDimension(QUARTER)&#45;&gt;edge_as_node_9 -->
<g id="edge19" class="edge">
<title>MetricTimeDimension(QUARTER)&#45;&gt;edge_as_node_9</title>
<path fill="none" stroke="#d3d3d3" d="M1982.02,-407.13C2024.67,-386.85 2082.09,-359.56 2119.8,-341.63"/>
</g>
<!-- MetricTimeDimension(YEAR) -->
<g id="node12" class="node">
<title>MetricTimeDimension(YEAR)</title>
<polygon fill="#303030" stroke="#d3d3d3" points="2030.25,-531.38 1818.75,-531.38 1818.75,-478.62 2030.25,-478.62 2030.25,-531.38"/>
<text text-anchor="start" x="1830.75" y="-511.98" font-family="Courier New" font-size="12.00" fill="#d3d3d3">MetricTimeDimension(YEAR)</text>
<text text-anchor="start" x="1826.75" y="-499.43" font-family="Courier New" font-size="6.00" fill="#d3d3d3">add_name: metric_time</text>
<text text-anchor="start" x="1826.75" y="-491.93" font-family="Courier New" font-size="6.00" fill="#d3d3d3">add_prop: METRIC_TIME</text>
<text text-anchor="start" x="1826.75" y="-484.43" font-family="Courier New" font-size="6.00" fill="#d3d3d3">add_type: TIME_DIMENSION</text>
</g>
<!-- edge_as_node_13 -->
<g id="node31" class="node">
<title>edge_as_node_13</title>
<polygon fill="none" stroke="none" points="2218.12,-686 2101.88,-686 2101.88,-656 2218.12,-656 2218.12,-686"/>
<text text-anchor="start" x="2101.88" y="-680.3" font-family="Courier New" font-size="6.00" fill="#d3d3d3">add_time_grain: year</text>
<text text-anchor="start" x="2101.88" y="-672.8" font-family="Courier New" font-size="6.00" fill="#d3d3d3">type: EntityAttributeEdge</text>
<text text-anchor="start" x="2101.88" y="-665.3" font-family="Courier New" font-size="6.00" fill="#d3d3d3">tail: MetricTimeDimension(YEAR)</text>
<text text-anchor="start" x="2101.88" y="-657.8" font-family="Courier New" font-size="6.00" fill="#d3d3d3">head: Time(year)</text>
</g>
<!-- MetricTimeDimension(YEAR)&#45;&gt;edge_as_node_13 -->
<g id="edge27" class="edge">
<title>MetricTimeDimension(YEAR)&#45;&gt;edge_as_node_13</title>
<path fill="none" stroke="#d3d3d3" d="M1963.28,-531.86C2012.97,-567.18 2098.6,-628.06 2138.02,-656.08"/>
</g>
<!-- edge_as_node_14 -->
<g id="node32" class="node">
<title>edge_as_node_14</title>
<polygon fill="none" stroke="none" points="2218.12,-638 2101.88,-638 2101.88,-608 2218.12,-608 2218.12,-638"/>
<text text-anchor="start" x="2101.88" y="-632.3" font-family="Courier New" font-size="6.00" fill="#d3d3d3">add_prop: DATE_PART</text>
<text text-anchor="start" x="2101.88" y="-624.8" font-family="Courier New" font-size="6.00" fill="#d3d3d3">type: EntityAttributeEdge</text>
<text text-anchor="start" x="2101.88" y="-617.3" font-family="Courier New" font-size="6.00" fill="#d3d3d3">tail: MetricTimeDimension(YEAR)</text>
<text text-anchor="start" x="2101.88" y="-609.8" font-family="Courier New" font-size="6.00" fill="#d3d3d3">head: Time(extract_year)</text>
</g>
<!-- MetricTimeDimension(YEAR)&#45;&gt;edge_as_node_14 -->
<g id="edge29" class="edge">
<title>MetricTimeDimension(YEAR)&#45;&gt;edge_as_node_14</title>
<path fill="none" stroke="#d3d3d3" d="M1978.48,-531.78C2025.18,-555.37 2091.49,-588.89 2129.39,-608.04"/>
</g>
<!-- edge_as_node_15 -->
<g id="node33" class="node">
<title>edge_as_node_15</title>
<polygon fill="none" stroke="none" points="2223.75,-541.75 2096.25,-541.75 2096.25,-504.25 2223.75,-504.25 2223.75,-541.75"/>
<text text-anchor="start" x="2096.25" y="-536.05" font-family="Courier New" font-size="6.00" fill="#d3d3d3">add_prop: DERIVED_TIME_GRANULARITY</text>
<text text-anchor="start" x="2096.25" y="-528.55" font-family="Courier New" font-size="6.00" fill="#d3d3d3">add_time_grain: custom_year</text>
<text text-anchor="start" x="2096.25" y="-521.05" font-family="Courier New" font-size="6.00" fill="#d3d3d3">type: EntityAttributeEdge</text>
<text text-anchor="start" x="2096.25" y="-513.55" font-family="Courier New" font-size="6.00" fill="#d3d3d3">tail: MetricTimeDimension(YEAR)</text>
<text text-anchor="start" x="2096.25" y="-506.05" font-family="Courier New" font-size="6.00" fill="#d3d3d3">head: Time(custom_year)</text>
</g>
<!-- MetricTimeDimension(YEAR)&#45;&gt;edge_as_node_15 -->
<g id="edge31" class="edge">
<title>MetricTimeDimension(YEAR)&#45;&gt;edge_as_node_15</title>
<path fill="none" stroke="#d3d3d3" d="M2030.64,-513.1C2053.15,-514.84 2076.25,-516.62 2096.53,-518.18"/>
</g>
<!-- Time(custom_year) -->
<g id="node13" class="node">
<title>Time(custom_year)</title>
<polygon fill="#303030" stroke="#ffa07a" points="2426.25,-343.88 2274.75,-343.88 2274.75,-306.12 2426.25,-306.12 2426.25,-343.88"/>
<text text-anchor="start" x="2286.75" y="-324.48" font-family="Courier New" font-size="12.00" fill="#d3d3d3">Time(custom_year)</text>
<text text-anchor="start" x="2282.75" y="-311.93" font-family="Courier New" font-size="6.00" fill="#d3d3d3">add_name: custom_year</text>
</g>
<!-- Time(extract_quarter) -->
<g id="node14" class="node">
<title>Time(extract_quarter)</title>
<polygon fill="#303030" stroke="#ffa07a" points="2441.25,-231.88 2259.75,-231.88 2259.75,-194.12 2441.25,-194.12 2441.25,-231.88"/>
<text text-anchor="start" x="2271.75" y="-212.47" font-family="Courier New" font-size="12.00" fill="#d3d3d3">Time(extract_quarter)</text>
<text text-anchor="start" x="2267.75" y="-199.93" font-family="Courier New" font-size="6.00" fill="#d3d3d3">add_name: extract_quarter</text>
</g>
<!-- Time(extract_year) -->
<g id="node15" class="node">
<title>Time(extract_year)</title>
<polygon fill="#303030" stroke="#ffa07a" points="2430,-399.88 2271,-399.88 2271,-362.12 2430,-362.12 2430,-399.88"/>
<text text-anchor="start" x="2283" y="-380.48" font-family="Courier New" font-size="12.00" fill="#d3d3d3">Time(extract_year)</text>
<text text-anchor="start" x="2279" y="-367.93" font-family="Courier New" font-size="6.00" fill="#d3d3d3">add_name: extract_year</text>
</g>
<!-- Time(quarter) -->
<g id="node16" class="node">
<title>Time(quarter)</title>
<polygon fill="#303030" stroke="#ffa07a" points="2411.25,-287.88 2289.75,-287.88 2289.75,-250.12 2411.25,-250.12 2411.25,-287.88"/>
<text text-anchor="start" x="2301.75" y="-268.48" font-family="Courier New" font-size="12.00" fill="#d3d3d3">Time(quarter)</text>
<text text-anchor="start" x="2297.75" y="-255.93" font-family="Courier New" font-size="6.00" fill="#d3d3d3">add_name: quarter</text>
</g>
<!-- Time(year) -->
<g id="node17" class="node">
<title>Time(year)</title>
<polygon fill="#303030" stroke="#ffa07a" points="2400,-455.88 2301,-455.88 2301,-418.12 2400,-418.12 2400,-455.88"/>
<text text-anchor="start" x="2313" y="-436.48" font-family="Courier New" font-size="12.00" fill="#d3d3d3">Time(year)</text>
<text text-anchor="start" x="2309" y="-423.93" font-family="Courier New" font-size="6.00" fill="#d3d3d3">add_name: year</text>
</g>
<!-- TimeDimension(ds, quarter) -->
<g id="node18" class="node">
<title>TimeDimension(ds, quarter)</title>
<polygon fill="#303030" stroke="#d3d3d3" points="2034,-203.62 1815,-203.62 1815,-158.38 2034,-158.38 2034,-203.62"/>
<text text-anchor="start" x="1827" y="-184.22" font-family="Courier New" font-size="12.00" fill="#d3d3d3">TimeDimension(ds, quarter)</text>
<text text-anchor="start" x="1823" y="-171.68" font-family="Courier New" font-size="6.00" fill="#d3d3d3">add_name: ds</text>
<text text-anchor="start" x="1823" y="-164.18" font-family="Courier New" font-size="6.00" fill="#d3d3d3">add_type: TIME_DIMENSION</text>
</g>
<!-- edge_as_node_18 -->
<g id="node35" class="node">
<title>edge_as_node_18</title>
<polygon fill="none" stroke="none" points="2220,-78 2100,-78 2100,-48 2220,-48 2220,-78"/>
<text text-anchor="start" x="2100" y="-72.3" font-family="Courier New" font-size="6.00" fill="#d3d3d3">add_time_grain: quarter</text>
<text text-anchor="start" x="2100" y="-64.8" font-family="Courier New" font-size="6.00" fill="#d3d3d3">type: EntityAttributeEdge</text>
<text text-anchor="start" x="2100" y="-57.3" font-family="Courier New" font-size="6.00" fill="#d3d3d3">tail: TimeDimension(ds, quarter)</text>
<text text-anchor="start" x="2100" y="-49.8" font-family="Courier New" font-size="6.00" fill="#d3d3d3">head: Time(quarter)</text>
</g>
<!-- TimeDimension(ds, quarter)&#45;&gt;edge_as_node_18 -->
<g id="edge37" class="edge">
<title>TimeDimension(ds, quarter)&#45;&gt;edge_as_node_18</title>
<path fill="none" stroke="#d3d3d3" d="M1971.08,-157.97C2017.93,-134.29 2089.5,-98.12 2129.44,-77.94"/>
</g>
<!-- edge_as_node_19 -->
<g id="node36" class="node">
<title>edge_as_node_19</title>
<polygon fill="none" stroke="none" points="2220,-390 2100,-390 2100,-360 2220,-360 2220,-390"/>
<text text-anchor="start" x="2100" y="-384.3" font-family="Courier New" font-size="6.00" fill="#d3d3d3">add_prop: DATE_PART</text>
<text text-anchor="start" x="2100" y="-376.8" font-family="Courier New" font-size="6.00" fill="#d3d3d3">type: EntityAttributeEdge</text>
<text text-anchor="start" x="2100" y="-369.3" font-family="Courier New" font-size="6.00" fill="#d3d3d3">tail: TimeDimension(ds, quarter)</text>
<text text-anchor="start" x="2100" y="-361.8" font-family="Courier New" font-size="6.00" fill="#d3d3d3">head: Time(extract_year)</text>
</g>
<!-- TimeDimension(ds, quarter)&#45;&gt;edge_as_node_19 -->
<g id="edge39" class="edge">
<title>TimeDimension(ds, quarter)&#45;&gt;edge_as_node_19</title>
<path fill="none" stroke="#d3d3d3" d="M1953.2,-204.02C2001.64,-244.26 2100.44,-326.35 2141.01,-360.05"/>
</g>
<!-- edge_as_node_20 -->
<g id="node37" class="node">
<title>edge_as_node_20</title>
<polygon fill="none" stroke="none" points="2220,-30 2100,-30 2100,0 2220,0 2220,-30"/>
<text text-anchor="start" x="2100" y="-24.3" font-family="Courier New" font-size="6.00" fill="#d3d3d3">add_prop: DATE_PART</text>
<text text-anchor="start" x="2100" y="-16.8" font-family="Courier New" font-size="6.00" fill="#d3d3d3">type: EntityAttributeEdge</text>
<text text-anchor="start" x="2100" y="-9.3" font-family="Courier New" font-size="6.00" fill="#d3d3d3">tail: TimeDimension(ds, quarter)</text>
<text text-anchor="start" x="2100" y="-1.8" font-family="Courier New" font-size="6.00" fill="#d3d3d3">head: Time(extract_quarter)</text>
</g>
<!-- TimeDimension(ds, quarter)&#45;&gt;edge_as_node_20 -->
<g id="edge41" class="edge">
<title>TimeDimension(ds, quarter)&#45;&gt;edge_as_node_20</title>
<path fill="none" stroke="#d3d3d3" d="M1957.97,-157.92C2006.71,-123.26 2097.43,-58.77 2138.21,-29.78"/>
</g>
<!-- edge_as_node_21 -->
<g id="node38" class="node">
<title>edge_as_node_21</title>
<polygon fill="none" stroke="none" points="2223.75,-181.75 2096.25,-181.75 2096.25,-144.25 2223.75,-144.25 2223.75,-181.75"/>
<text text-anchor="start" x="2096.25" y="-176.05" font-family="Courier New" font-size="6.00" fill="#d3d3d3">add_prop: DERIVED_TIME_GRANULARITY</text>
<text text-anchor="start" x="2096.25" y="-168.55" font-family="Courier New" font-size="6.00" fill="#d3d3d3">add_time_grain: custom_year</text>
<text text-anchor="start" x="2096.25" y="-161.05" font-family="Courier New" font-size="6.00" fill="#d3d3d3">type: EntityAttributeEdge</text>
<text text-anchor="start" x="2096.25" y="-153.55" font-family="Courier New" font-size="6.00" fill="#d3d3d3">tail: TimeDimension(ds, quarter)</text>
<text text-anchor="start" x="2096.25" y="-146.05" font-family="Courier New" font-size="6.00" fill="#d3d3d3">head: Time(custom_year)</text>
</g>
<!-- TimeDimension(ds, quarter)&#45;&gt;edge_as_node_21 -->
<g id="edge43" class="edge">
<title>TimeDimension(ds, quarter)&#45;&gt;edge_as_node_21</title>
<path fill="none" stroke="#d3d3d3" d="M2034.39,-172.61C2055.67,-170.97 2077.3,-169.3 2096.44,-167.82"/>
</g>
<!-- TimeDimension(ds, year) -->
<g id="node19" class="node">
<title>TimeDimension(ds, year)</title>
<polygon fill="#303030" stroke="#d3d3d3" points="2022.75,-266.62 1826.25,-266.62 1826.25,-221.38 2022.75,-221.38 2022.75,-266.62"/>
<text text-anchor="start" x="1838.25" y="-247.22" font-family="Courier New" font-size="12.00" fill="#d3d3d3">TimeDimension(ds, year)</text>
<text text-anchor="start" x="1834.25" y="-234.68" font-family="Courier New" font-size="6.00" fill="#d3d3d3">add_name: ds</text>
<text text-anchor="start" x="1834.25" y="-227.18" font-family="Courier New" font-size="6.00" fill="#d3d3d3">add_type: TIME_DIMENSION</text>
</g>
<!-- edge_as_node_23 -->
<g id="node40" class="node">
<title>edge_as_node_23</title>
<polygon fill="none" stroke="none" points="2214.38,-590 2105.62,-590 2105.62,-560 2214.38,-560 2214.38,-590"/>
<text text-anchor="start" x="2105.62" y="-584.3" font-family="Courier New" font-size="6.00" fill="#d3d3d3">add_time_grain: year</text>
<text text-anchor="start" x="2105.62" y="-576.8" font-family="Courier New" font-size="6.00" fill="#d3d3d3">type: EntityAttributeEdge</text>
<text text-anchor="start" x="2105.62" y="-569.3" font-family="Courier New" font-size="6.00" fill="#d3d3d3">tail: TimeDimension(ds, year)</text>
<text text-anchor="start" x="2105.62" y="-561.8" font-family="Courier New" font-size="6.00" fill="#d3d3d3">head: Time(year)</text>
</g>
<!-- TimeDimension(ds, year)&#45;&gt;edge_as_node_23 -->
<g id="edge47" class="edge">
<title>TimeDimension(ds, year)&#45;&gt;edge_as_node_23</title>
<path fill="none" stroke="#d3d3d3" d="M1941.73,-267.01C1986.62,-330.64 2111.52,-507.69 2148.53,-560.16"/>
</g>
<!-- edge_as_node_24 -->
<g id="node41" class="node">
<title>edge_as_node_24</title>
<polygon fill="none" stroke="none" points="2214.38,-438 2105.62,-438 2105.62,-408 2214.38,-408 2214.38,-438"/>
<text text-anchor="start" x="2105.62" y="-432.3" font-family="Courier New" font-size="6.00" fill="#d3d3d3">add_prop: DATE_PART</text>
<text text-anchor="start" x="2105.62" y="-424.8" font-family="Courier New" font-size="6.00" fill="#d3d3d3">type: EntityAttributeEdge</text>
<text text-anchor="start" x="2105.62" y="-417.3" font-family="Courier New" font-size="6.00" fill="#d3d3d3">tail: TimeDimension(ds, year)</text>
<text text-anchor="start" x="2105.62" y="-409.8" font-family="Courier New" font-size="6.00" fill="#d3d3d3">head: Time(extract_year)</text>
</g>
<!-- TimeDimension(ds, year)&#45;&gt;edge_as_node_24 -->
<g id="edge49" class="edge">
<title>TimeDimension(ds, year)&#45;&gt;edge_as_node_24</title>
<path fill="none" stroke="#d3d3d3" d="M1955.55,-267.03C2004.2,-304.33 2098.88,-376.91 2139.61,-408.13"/>
</g>
<!-- edge_as_node_25 -->
<g id="node42" class="node">
<title>edge_as_node_25</title>
<polygon fill="none" stroke="none" points="2223.75,-237.75 2096.25,-237.75 2096.25,-200.25 2223.75,-200.25 2223.75,-237.75"/>
<text text-anchor="start" x="2096.25" y="-232.05" font-family="Courier New" font-size="6.00" fill="#d3d3d3">add_prop: DERIVED_TIME_GRANULARITY</text>
<text text-anchor="start" x="2096.25" y="-224.55" font-family="Courier New" font-size="6.00" fill="#d3d3d3">add_time_grain: custom_year</text>
<text text-anchor="start" x="2096.25" y="-217.05" font-family="Courier New" font-size="6.00" fill="#d3d3d3">type: EntityAttributeEdge</text>
<text text-anchor="start" x="2096.25" y="-209.55" font-family="Courier New" font-size="6.00" fill="#d3d3d3">tail: TimeDimension(ds, year)</text>
<text text-anchor="start" x="2096.25" y="-202.05" font-family="Courier New" font-size="6.00" fill="#d3d3d3">head: Time(custom_year)</text>
</g>
<!-- TimeDimension(ds, year)&#45;&gt;edge_as_node_25 -->
<g id="edge51" class="edge">
<title>TimeDimension(ds, year)&#45;&gt;edge_as_node_25</title>
<path fill="none" stroke="#d3d3d3" d="M2023.17,-233.54C2047.92,-230.89 2073.84,-228.12 2096.32,-225.71"/>
</g>
<!-- Metric(sm_0_measure_0_metric) -->
<g id="node20" class="node">
<title>Metric(sm_0_measure_0_metric)</title>
<polygon fill="#303030" stroke="#ffa07a" points="1242,-582 1000.5,-582 1000.5,-546 1242,-546 1242,-582"/>
<text text-anchor="start" x="1012.5" y="-559.73" font-family="Courier New" font-size="12.00" fill="#d3d3d3">Metric(sm_0_measure_0_metric)</text>
</g>
<!-- edge_as_node_26 -->
<g id="node43" class="node">
<title>edge_as_node_26</title>
<polygon fill="none" stroke="none" points="131.25,-495.25 0,-495.25 0,-472.75 131.25,-472.75 131.25,-495.25"/>
<text text-anchor="start" x="0" y="-489.55" font-family="Courier New" font-size="6.00" fill="#d3d3d3">type: MetricDefinitionEdge</text>
<text text-anchor="start" x="0" y="-482.05" font-family="Courier New" font-size="6.00" fill="#d3d3d3">tail: Metric(sm_0_measure_0_metric)</text>
<text text-anchor="start" x="0" y="-474.55" font-family="Courier New" font-size="6.00" fill="#d3d3d3">head: Measure(sm_0_measure_0)</text>
</g>
<!-- Metric(sm_0_measure_0_metric)&#45;&gt;edge_as_node_26 -->
<g id="edge53" class="edge">
<title>Metric(sm_0_measure_0_metric)&#45;&gt;edge_as_node_26</title>
<path fill="none" stroke="#d3d3d3" d="M1000.18,-554.82C776.1,-537.84 303.81,-502.05 130.86,-488.94"/>
</g>
<!-- edge_as_node_0&#45;&gt;DsiEntityKey(sm_0_primary_entity) -->
<g id="edge2" class="edge">
<title>edge_as_node_0&#45;&gt;DsiEntityKey(sm_0_primary_entity)</title>
<path fill="none" stroke="#d3d3d3" d="M1752.51,-322.22C1760.48,-322.91 1768.8,-323.62 1777.29,-324.36"/>
<polygon fill="#303030" stroke="#d3d3d3" points="1776.76,-327.83 1787.03,-325.2 1777.36,-320.85 1776.76,-327.83"/>
</g>
<!-- edge_as_node_1&#45;&gt;DsiEntityKey(sm_0_primary_entity) -->
<g id="edge4" class="edge">
<title>edge_as_node_1&#45;&gt;DsiEntityKey(sm_0_primary_entity)</title>
<path fill="none" stroke="#d3d3d3" d="M1752.51,-351.08C1760.48,-350.42 1768.8,-349.74 1777.29,-349.04"/>
<polygon fill="#303030" stroke="#d3d3d3" points="1777.35,-352.55 1787.02,-348.24 1776.77,-345.57 1777.35,-352.55"/>
</g>
<!-- edge_as_node_3&#45;&gt;JoinTo(sm_0) -->
<g id="edge8" class="edge">
<title>edge_as_node_3&#45;&gt;JoinTo(sm_0)</title>
<path fill="none" stroke="#d3d3d3" d="M921.36,-432.75C956.49,-415.84 1023.73,-383.47 1070.24,-361.08"/>
<polygon fill="#303030" stroke="#d3d3d3" points="1071.56,-364.33 1079.05,-356.83 1068.52,-358.02 1071.56,-364.33"/>
</g>
<!-- edge_as_node_4&#45;&gt;DsiEntity(sm_0_primary_entity) -->
<g id="edge10" class="edge">
<title>edge_as_node_4&#45;&gt;DsiEntity(sm_0_primary_entity)</title>
<path fill="none" stroke="#d3d3d3" d="M1612.13,-483C1447.81,-483 1024.47,-483 805.19,-483"/>
<polygon fill="#303030" stroke="#d3d3d3" points="805.45,-479.5 795.45,-483 805.45,-486.5 805.45,-479.5"/>
</g>
<!-- edge_as_node_5&#45;&gt;MetricTimeDimension(QUARTER) -->
<g id="edge12" class="edge">
<title>edge_as_node_5&#45;&gt;MetricTimeDimension(QUARTER)</title>
<path fill="none" stroke="#d3d3d3" d="M1743.17,-407.27C1759.54,-409.7 1777.8,-412.4 1796.24,-415.14"/>
<polygon fill="#303030" stroke="#d3d3d3" points="1795.51,-418.57 1805.91,-416.57 1796.53,-411.64 1795.51,-418.57"/>
</g>
<!-- edge_as_node_6&#45;&gt;Time(quarter) -->
<g id="edge14" class="edge">
<title>edge_as_node_6&#45;&gt;Time(quarter)</title>
<path fill="none" stroke="#d3d3d3" d="M2223.51,-270.34C2241,-270.15 2260.14,-269.95 2278.1,-269.76"/>
<polygon fill="#303030" stroke="#d3d3d3" points="2277.93,-273.26 2287.89,-269.65 2277.85,-266.26 2277.93,-273.26"/>
</g>
<!-- edge_as_node_7&#45;&gt;Time(extract_year) -->
<g id="edge16" class="edge">
<title>edge_as_node_7&#45;&gt;Time(extract_year)</title>
<path fill="none" stroke="#d3d3d3" d="M2192.13,-456.14C2221.13,-442.29 2264.88,-421.4 2298.9,-405.16"/>
<polygon fill="#303030" stroke="#d3d3d3" points="2300.23,-408.4 2307.75,-400.94 2297.21,-402.09 2300.23,-408.4"/>
</g>
<!-- edge_as_node_8&#45;&gt;Time(extract_quarter) -->
<g id="edge18" class="edge">
<title>edge_as_node_8&#45;&gt;Time(extract_quarter)</title>
<path fill="none" stroke="#d3d3d3" d="M2188.41,-125.83C2218.74,-142.25 2268.11,-168.96 2304.21,-188.49"/>
<polygon fill="#303030" stroke="#d3d3d3" points="2302.22,-191.4 2312.68,-193.08 2305.55,-185.24 2302.22,-191.4"/>
</g>
<!-- edge_as_node_9&#45;&gt;Time(custom_year) -->
<g id="edge20" class="edge">
<title>edge_as_node_9&#45;&gt;Time(custom_year)</title>
<path fill="none" stroke="#d3d3d3" d="M2223.51,-323.66C2236.23,-323.8 2249.83,-323.94 2263.22,-324.08"/>
<polygon fill="#303030" stroke="#d3d3d3" points="2262.84,-327.58 2272.87,-324.19 2262.91,-320.58 2262.84,-327.58"/>
</g>
<!-- edge_as_node_12&#45;&gt;MetricTimeDimension(YEAR) -->
<g id="edge26" class="edge">
<title>edge_as_node_12&#45;&gt;MetricTimeDimension(YEAR)</title>
<path fill="none" stroke="#d3d3d3" d="M1721.83,-450.2C1747.18,-457.09 1780.97,-466.27 1813.64,-475.15"/>
<polygon fill="#303030" stroke="#d3d3d3" points="1812.64,-478.5 1823.2,-477.75 1814.47,-471.75 1812.64,-478.5"/>
</g>
<!-- edge_as_node_13&#45;&gt;Time(year) -->
<g id="edge28" class="edge">
<title>edge_as_node_13&#45;&gt;Time(year)</title>
<path fill="none" stroke="#d3d3d3" d="M2173.08,-656.01C2204.06,-617.55 2286.73,-514.92 2326.93,-465.02"/>
<polygon fill="#303030" stroke="#d3d3d3" points="2329.42,-467.51 2332.97,-457.52 2323.97,-463.11 2329.42,-467.51"/>
</g>
<!-- edge_as_node_14&#45;&gt;Time(extract_year) -->
<g id="edge30" class="edge">
<title>edge_as_node_14&#45;&gt;Time(extract_year)</title>
<path fill="none" stroke="#d3d3d3" d="M2172.51,-608.23C2203.21,-568.81 2287.45,-460.66 2327.63,-409.08"/>
<polygon fill="#303030" stroke="#d3d3d3" points="2330.28,-411.37 2333.67,-401.33 2324.76,-407.07 2330.28,-411.37"/>
</g>
<!-- edge_as_node_15&#45;&gt;Time(custom_year) -->
<g id="edge32" class="edge">
<title>edge_as_node_15&#45;&gt;Time(custom_year)</title>
<path fill="none" stroke="#d3d3d3" d="M2178.73,-504.37C2212.1,-469.32 2284.37,-393.41 2323.34,-352.48"/>
<polygon fill="#303030" stroke="#d3d3d3" points="2325.72,-355.06 2330.08,-345.4 2320.65,-350.23 2325.72,-355.06"/>
</g>
<!-- edge_as_node_17&#45;&gt;TimeDimension(ds, quarter) -->
<g id="edge36" class="edge">
<title>edge_as_node_17&#45;&gt;TimeDimension(ds, quarter)</title>
<path fill="none" stroke="#d3d3d3" d="M1739.42,-184.79C1758.87,-184.39 1781.28,-183.93 1803.62,-183.47"/>
<polygon fill="#303030" stroke="#d3d3d3" points="1803.49,-186.97 1813.41,-183.27 1803.34,-179.97 1803.49,-186.97"/>
</g>
<!-- edge_as_node_18&#45;&gt;Time(quarter) -->
<g id="edge38" class="edge">
<title>edge_as_node_18&#45;&gt;Time(quarter)</title>
<path fill="none" stroke="#d3d3d3" d="M2174.56,-77.82C2205.9,-112.06 2283.77,-197.16 2324.21,-241.36"/>
<polygon fill="#303030" stroke="#d3d3d3" points="2321.42,-243.5 2330.76,-248.51 2326.59,-238.77 2321.42,-243.5"/>
</g>
<!-- edge_as_node_19&#45;&gt;Time(extract_year) -->
<g id="edge40" class="edge">
<title>edge_as_node_19&#45;&gt;Time(extract_year)</title>
<path fill="none" stroke="#d3d3d3" d="M2219.87,-376.87C2232.44,-377.27 2246,-377.71 2259.44,-378.13"/>
<polygon fill="#303030" stroke="#d3d3d3" points="2259.07,-381.62 2269.17,-378.44 2259.29,-374.63 2259.07,-381.62"/>
</g>
<!-- edge_as_node_20&#45;&gt;Time(extract_quarter) -->
<g id="edge42" class="edge">
<title>edge_as_node_20&#45;&gt;Time(extract_quarter)</title>
<path fill="none" stroke="#d3d3d3" d="M2175.17,-29.88C2206.65,-62.95 2282.81,-142.95 2323.26,-185.43"/>
<polygon fill="#303030" stroke="#d3d3d3" points="2320.6,-187.72 2330.03,-192.55 2325.67,-182.9 2320.6,-187.72"/>
</g>
<!-- edge_as_node_21&#45;&gt;Time(custom_year) -->
<g id="edge44" class="edge">
<title>edge_as_node_21&#45;&gt;Time(custom_year)</title>
<path fill="none" stroke="#d3d3d3" d="M2182.62,-181.58C2215.93,-210.21 2279.93,-265.21 2318.27,-298.16"/>
<polygon fill="#303030" stroke="#d3d3d3" points="2315.95,-300.78 2325.81,-304.64 2320.51,-295.47 2315.95,-300.78"/>
</g>
<!-- edge_as_node_22&#45;&gt;TimeDimension(ds, year) -->
<g id="edge46" class="edge">
<title>edge_as_node_22&#45;&gt;TimeDimension(ds, year)</title>
<path fill="none" stroke="#d3d3d3" d="M1405.22,-258.26C1503.46,-255.56 1693.58,-250.34 1814.5,-247.02"/>
<polygon fill="#303030" stroke="#d3d3d3" points="1814.57,-250.52 1824.47,-246.75 1814.37,-243.52 1814.57,-250.52"/>
</g>
<!-- edge_as_node_23&#45;&gt;Time(year) -->
<g id="edge48" class="edge">
<title>edge_as_node_23&#45;&gt;Time(year)</title>
<path fill="none" stroke="#d3d3d3" d="M2181.17,-560.23C2212.91,-536.99 2274.94,-491.59 2314.19,-462.85"/>
<polygon fill="#303030" stroke="#d3d3d3" points="2315.94,-465.91 2321.94,-457.18 2311.8,-460.26 2315.94,-465.91"/>
</g>
<!-- edge_as_node_24&#45;&gt;Time(extract_year) -->
<g id="edge50" class="edge">
<title>edge_as_node_24&#45;&gt;Time(extract_year)</title>
<path fill="none" stroke="#d3d3d3" d="M2214.26,-411.13C2228.37,-407.99 2243.99,-404.51 2259.46,-401.06"/>
<polygon fill="#303030" stroke="#d3d3d3" points="2260.2,-404.48 2269.2,-398.89 2258.68,-397.65 2260.2,-404.48"/>
</g>
<!-- edge_as_node_25&#45;&gt;Time(custom_year) -->
<g id="edge52" class="edge">
<title>edge_as_node_25&#45;&gt;Time(custom_year)</title>
<path fill="none" stroke="#d3d3d3" d="M2194.27,-237.71C2225.24,-255.13 2271.62,-281.2 2305.61,-300.32"/>
<polygon fill="#303030" stroke="#d3d3d3" points="2303.54,-303.17 2313.97,-305.02 2306.97,-297.07 2303.54,-303.17"/>
</g>
<!-- edge_as_node_26&#45;&gt;Measure(sm_0_measure_0) -->
<g id="edge54" class="edge">
<title>edge_as_node_26&#45;&gt;Measure(sm_0_measure_0)</title>
<path fill="none" stroke="#d3d3d3" d="M87.43,-472.75C118.44,-455.98 177.56,-424.01 218.93,-401.64"/>
<polygon fill="#303030" stroke="#d3d3d3" points="220.57,-404.73 227.7,-396.9 217.24,-398.58 220.57,-404.73"/>
</g>
<!-- edge_as_node_27&#45;&gt;Metric(sm_0_measure_0_metric) -->
<g id="edge56" class="edge">
<title>edge_as_node_27&#45;&gt;Metric(sm_0_measure_0_metric)</title>
<path fill="none" stroke="#d3d3d3" d="M964.38,-545.06C972.3,-546.03 980.58,-547.03 989.01,-548.06"/>
<polygon fill="#303030" stroke="#d3d3d3" points="988.33,-551.5 998.68,-549.23 989.18,-544.55 988.33,-551.5"/>
</g>
</g>
</svg>
