<?xml version="1.0" encoding="UTF-8" standalone="no"?>
<!DOCTYPE svg PUBLIC "-//W3C//DTD SVG 1.1//EN"
 "http://www.w3.org/Graphics/SVG/1.1/DTD/svg11.dtd">
<!-- Generated by graphviz version 12.2.1 (20241206.2353)
 -->
<!-- Pages: 1 -->
<svg width="987pt" height="153pt"
 viewBox="0.00 0.00 987.12 152.75" xmlns="http://www.w3.org/2000/svg" xmlns:xlink="http://www.w3.org/1999/xlink">
<g id="graph0" class="graph" transform="scale(1 1) rotate(0) translate(4 148.75)">
<polygon fill="white" stroke="none" points="-4,4 -4,-148.75 983.12,-148.75 983.12,4 -4,4"/>
<!-- custom_year -->
<g id="node1" class="node">
<title>custom_year</title>
<ellipse fill="none" stroke="black" cx="130.75" cy="-18" rx="72.85" ry="18"/>
<text text-anchor="middle" x="130.75" y="-12.95" font-family="Courier New" font-size="14.00">custom_year</text>
</g>
<!-- extract_quarter -->
<g id="node2" class="node">
<title>extract_quarter</title>
<ellipse fill="none" stroke="black" cx="883.75" cy="-18" rx="95.37" ry="18"/>
<text text-anchor="middle" x="883.75" y="-12.95" font-family="Courier New" font-size="14.00">extract_quarter</text>
</g>
<!-- extract_year -->
<g id="node3" class="node">
<title>extract_year</title>
<ellipse fill="none" stroke="black" cx="476.75" cy="-18" rx="78.48" ry="18"/>
<text text-anchor="middle" x="476.75" y="-12.95" font-family="Courier New" font-size="14.00">extract_year</text>
</g>
<!-- quarter -->
<g id="node4" class="node">
<title>quarter</title>
<ellipse fill="none" stroke="black" cx="671.75" cy="-18" rx="50.33" ry="18"/>
<text text-anchor="middle" x="671.75" y="-12.95" font-family="Courier New" font-size="14.00">quarter</text>
</g>
<!-- year -->
<g id="node5" class="node">
<title>year</title>
<ellipse fill="none" stroke="black" cx="289.75" cy="-18" rx="33.44" ry="18"/>
<text text-anchor="middle" x="289.75" y="-12.95" font-family="Courier New" font-size="14.00">year</text>
</g>
<!-- metric_time[base=quarter] -->
<g id="node6" class="node">
<title>metric_time[base=quarter]</title>
<polygon fill="none" stroke="black" points="656.88,-144.75 434.62,-144.75 434.62,-108.75 656.88,-108.75 656.88,-144.75"/>
<text text-anchor="middle" x="545.75" y="-121.7" font-family="Courier New" font-size="14.00">metric_time[base=quarter]</text>
</g>
<!-- metric_time[base=quarter]&#45;&gt;extract_quarter -->
<g id="edge1" class="edge">
<title>metric_time[base=quarter]&#45;&gt;extract_quarter</title>
<path fill="none" stroke="black" d="M657.28,-116.19C698.61,-110.79 739.39,-102.66 755.75,-90.75 770.61,-79.93 760.71,-65.88 774.75,-54 784.04,-46.14 795.13,-40.03 806.62,-35.3"/>
<polygon fill="black" stroke="black" points="807.69,-38.63 815.83,-31.85 805.23,-32.08 807.69,-38.63"/>
<text text-anchor="start" x="786.75" y="-69.25" font-family="Courier New" font-size="10.00">has</text>
</g>
<!-- metric_time[base=quarter]&#45;&gt;extract_year -->
<g id="edge2" class="edge">
<title>metric_time[base=quarter]&#45;&gt;extract_year</title>
<path fill="none" stroke="black" d="M531.57,-108.27C527.29,-102.77 522.7,-96.6 518.75,-90.75 509.04,-76.35 499.18,-59.64 491.45,-45.96"/>
<polygon fill="black" stroke="black" points="494.67,-44.54 486.74,-37.51 488.55,-47.95 494.67,-44.54"/>
<text text-anchor="start" x="530.75" y="-69.25" font-family="Courier New" font-size="10.00">has</text>
</g>
<!-- metric_time[base=quarter]&#45;&gt;quarter -->
<g id="edge3" class="edge">
<title>metric_time[base=quarter]&#45;&gt;quarter</title>
<path fill="none" stroke="black" d="M597.94,-108.35C607.82,-103.61 617.6,-97.78 625.75,-90.75 640.34,-78.16 638.35,-70.22 648.75,-54 650.61,-51.09 652.58,-48.06 654.54,-45.05"/>
<polygon fill="black" stroke="black" points="657.29,-47.23 659.85,-36.95 651.44,-43.4 657.29,-47.23"/>
<text text-anchor="start" x="660.75" y="-69.25" font-family="Courier New" font-size="10.00">has</text>
</g>
<!-- metric_time[base=quarter]&#45;&gt;year -->
<g id="edge4" class="edge">
<title>metric_time[base=quarter]&#45;&gt;year</title>
<path fill="none" stroke="black" d="M434.25,-117.82C388.34,-112.62 341.71,-104.19 323.75,-90.75 316.11,-85.03 306.79,-64.51 299.84,-46.87"/>
<polygon fill="black" stroke="black" points="303.12,-45.66 296.29,-37.56 296.58,-48.15 303.12,-45.66"/>
<text text-anchor="start" x="335.75" y="-69.25" font-family="Courier New" font-size="10.00">has</text>
</g>
<!-- metric_time[base=year] -->
<g id="node7" class="node">
<title>metric_time[base=year]</title>
<polygon fill="none" stroke="black" points="197.5,-144.75 0,-144.75 0,-108.75 197.5,-108.75 197.5,-144.75"/>
<text text-anchor="middle" x="98.75" y="-121.7" font-family="Courier New" font-size="14.00">metric_time[base=year]</text>
</g>
<!-- metric_time[base=year]&#45;&gt;custom_year -->
<g id="edge5" class="edge">
<title>metric_time[base=year]&#45;&gt;custom_year</title>
<path fill="none" stroke="black" d="M76.32,-108.61C71.23,-103.48 66.51,-97.42 63.75,-90.75 57.5,-75.66 55.29,-67.97 63.75,-54 67.41,-47.96 72.49,-42.91 78.23,-38.71"/>
<polygon fill="black" stroke="black" points="79.8,-41.86 86.41,-33.58 76.08,-35.93 79.8,-41.86"/>
<text text-anchor="start" x="75.75" y="-69.25" font-family="Courier New" font-size="10.00">has</text>
</g>
<!-- metric_time[base=year]&#45;&gt;extract_year -->
<g id="edge6" class="edge">
<title>metric_time[base=year]&#45;&gt;extract_year</title>
<path fill="none" stroke="black" d="M197.89,-109.97C200.88,-109.55 203.83,-109.14 206.75,-108.75 241.99,-103.98 336.47,-110.92 365.75,-90.75 380.89,-80.32 371.03,-66.24 384.75,-54 393.07,-46.58 403.13,-40.66 413.49,-35.97"/>
<polygon fill="black" stroke="black" points="414.6,-39.3 422.51,-32.26 411.93,-32.83 414.6,-39.3"/>
<text text-anchor="start" x="396.75" y="-69.25" font-family="Courier New" font-size="10.00">has</text>
</g>
<!-- metric_time[base=year]&#45;&gt;year -->
<g id="edge7" class="edge">
<title>metric_time[base=year]&#45;&gt;year</title>
<path fill="none" stroke="black" d="M102.96,-108.39C107.86,-89.56 116.38,-61.23 124.75,-54 154.96,-27.9 173.7,-44.3 212.75,-36 224.3,-33.54 236.81,-30.81 248.32,-28.27"/>
<polygon fill="black" stroke="black" points="248.94,-31.72 257.94,-26.14 247.42,-24.89 248.94,-31.72"/>
<text text-anchor="start" x="136.75" y="-69.25" font-family="Courier New" font-size="10.00">has</text>
</g>
<!-- time[base=quarter] -->
<g id="node8" class="node">
<title>time[base=quarter]</title>
<polygon fill="none" stroke="black" points="896,-144.75 731.5,-144.75 731.5,-108.75 896,-108.75 896,-144.75"/>
<text text-anchor="middle" x="813.75" y="-121.7" font-family="Courier New" font-size="14.00">time[base=quarter]</text>
</g>
<!-- time[base=quarter]&#45;&gt;extract_quarter -->
<g id="edge8" class="edge">
<title>time[base=quarter]&#45;&gt;extract_quarter</title>
<path fill="none" stroke="black" d="M867.61,-108.27C874.81,-103.69 881.25,-97.94 885.75,-90.75 893.7,-78.04 893.74,-61.43 891.54,-47.39"/>
<polygon fill="black" stroke="black" points="895.02,-46.93 889.6,-37.83 888.16,-48.33 895.02,-46.93"/>
<text text-anchor="start" x="904.78" y="-69.25" font-family="Courier New" font-size="10.00">has</text>
</g>
<!-- time[base=quarter]&#45;&gt;extract_year -->
<g id="edge9" class="edge">
<title>time[base=quarter]&#45;&gt;extract_year</title>
<path fill="none" stroke="black" d="M744.11,-108.29C733.29,-103.68 722.73,-97.93 713.75,-90.75 698.7,-78.72 706.79,-64.67 690.75,-54 679.39,-46.44 612.23,-36.22 556.14,-28.77"/>
<polygon fill="black" stroke="black" points="556.6,-25.3 546.23,-27.47 555.68,-32.24 556.6,-25.3"/>
<text text-anchor="start" x="725.75" y="-69.25" font-family="Courier New" font-size="10.00">has</text>
</g>
<!-- time[base=quarter]&#45;&gt;quarter -->
<g id="edge10" class="edge">
<title>time[base=quarter]&#45;&gt;quarter</title>
<path fill="none" stroke="black" d="M821.67,-108.46C827.62,-92.6 832.88,-69.3 820.75,-54 814.75,-46.43 767.45,-36.16 727.73,-28.7"/>
<polygon fill="black" stroke="black" points="728.46,-25.28 717.99,-26.9 727.19,-32.16 728.46,-25.28"/>
<text text-anchor="start" x="840.08" y="-69.25" font-family="Courier New" font-size="10.00">has</text>
</g>
<!-- time[base=quarter]&#45;&gt;year -->
<g id="edge11" class="edge">
<title>time[base=quarter]&#45;&gt;year</title>
<path fill="none" stroke="black" d="M731.13,-115.19C666.33,-106.63 586.06,-95.26 579.75,-90.75 564.8,-80.05 575.93,-64.37 560.75,-54 529.2,-32.45 427.6,-41.2 389.75,-36 370.86,-33.4 350.06,-29.96 332.34,-26.85"/>
<polygon fill="black" stroke="black" points="333.15,-23.44 322.69,-25.14 331.92,-30.33 333.15,-23.44"/>
<text text-anchor="start" x="591.75" y="-69.25" font-family="Courier New" font-size="10.00">has</text>
</g>
<!-- time[base=year] -->
<g id="node9" class="node">
<title>time[base=year]</title>
<polygon fill="none" stroke="black" points="355.62,-144.75 215.88,-144.75 215.88,-108.75 355.62,-108.75 355.62,-144.75"/>
<text text-anchor="middle" x="285.75" y="-121.7" font-family="Courier New" font-size="14.00">time[base=year]</text>
</g>
<!-- time[base=year]&#45;&gt;custom_year -->
<g id="edge12" class="edge">
<title>time[base=year]&#45;&gt;custom_year</title>
<path fill="none" stroke="black" d="M240.78,-108.43C229.9,-103.4 218.58,-97.44 208.75,-90.75 189.33,-77.53 188.04,-69.91 170.75,-54 166.8,-50.36 162.58,-46.57 158.41,-42.89"/>
<polygon fill="black" stroke="black" points="161.01,-40.51 151.18,-36.54 156.39,-45.77 161.01,-40.51"/>
<text text-anchor="start" x="220.75" y="-69.25" font-family="Courier New" font-size="10.00">has</text>
</g>
<!-- time[base=year]&#45;&gt;extract_year -->
<g id="edge13" class="edge">
<title>time[base=year]&#45;&gt;extract_year</title>
<path fill="none" stroke="black" d="M355.99,-120.97C381.66,-116.27 409.56,-107.37 430.75,-90.75 445.22,-79.4 439.87,-69.51 449.75,-54 451.63,-51.05 453.69,-48.05 455.81,-45.1"/>
<polygon fill="black" stroke="black" points="458.53,-47.31 461.74,-37.21 452.94,-43.1 458.53,-47.31"/>
<text text-anchor="start" x="461.75" y="-69.25" font-family="Courier New" font-size="10.00">has</text>
</g>
<!-- time[base=year]&#45;&gt;year -->
<g id="edge14" class="edge">
<title>time[base=year]&#45;&gt;year</title>
<path fill="none" stroke="black" d="M268.94,-108.57C264.8,-103.28 260.93,-97.14 258.75,-90.75 253.48,-75.29 252.96,-69.27 258.75,-54 260.28,-49.97 262.51,-46.1 265.08,-42.51"/>
<polygon fill="black" stroke="black" points="267.75,-44.77 271.48,-34.86 262.38,-40.28 267.75,-44.77"/>
<text text-anchor="start" x="270.75" y="-69.25" font-family="Courier New" font-size="10.00">has</text>
</g>
</g>
</svg>
