<?xml version="1.0" encoding="UTF-8" standalone="no"?>
<!DOCTYPE svg PUBLIC "-//W3C//DTD SVG 1.1//EN"
 "http://www.w3.org/Graphics/SVG/1.1/DTD/svg11.dtd">
<!-- Generated by graphviz version 2.49.3 (20211023.0002)
 -->
<!-- Pages: 1 -->
<svg width="444pt" height="827pt"
 viewBox="0.00 0.00 444.00 827.00" xmlns="http://www.w3.org/2000/svg" xmlns:xlink="http://www.w3.org/1999/xlink">
<g id="graph0" class="graph" transform="scale(1 1) rotate(0) translate(4 823)">
<polygon fill="white" stroke="transparent" points="-4,4 -4,-823 440,-823 440,4 -4,4"/>
<!-- rss_0 -->
<g id="node1" class="node">
<title>rss_0</title>
<polygon fill="none" stroke="black" points="207,-819 2,-819 2,-748 207,-748 207,-819"/>
<text text-anchor="start" x="11.5" y="-803.9" font-family="Courier,monospace" font-size="12.00">ReadSqlSourceNode</text>
<text text-anchor="start" x="11.5" y="-793.7" font-family="Courier,monospace" font-size="6.00">description</text>
<text text-anchor="start" x="53.5" y="-793.7" font-family="Courier,monospace" font-size="6.00">Read From DataSourceDataSet(DataSourceRe</text>
<text text-anchor="start" x="53.5" y="-786.7" font-family="Courier,monospace" font-size="6.00">ference(data_source_name=&#39;transactions&#39;)</text>
<text text-anchor="start" x="53.5" y="-779.7" font-family="Courier,monospace" font-size="6.00">)</text>
<text text-anchor="start" x="11.5" y="-770.7" font-family="Courier,monospace" font-size="6.00">node_id</text>
<text text-anchor="start" x="53.5" y="-770.7" font-family="Courier,monospace" font-size="6.00">rss_0</text>
<text text-anchor="start" x="11.5" y="-761.7" font-family="Courier,monospace" font-size="6.00">data_set</text>
<text text-anchor="start" x="53.5" y="-761.7" font-family="Courier,monospace" font-size="6.00">DataSourceDataSet(DataSourceReference(da</text>
<text text-anchor="start" x="53.5" y="-754.7" font-family="Courier,monospace" font-size="6.00">ta_source_name=&#39;transactions&#39;))</text>
</g>
<!-- ctr_0 -->
<g id="node2" class="node">
<title>ctr_0</title>
<polygon fill="none" stroke="black" points="193,-712 16,-712 16,-639 193,-639 193,-712"/>
<text text-anchor="start" x="25.5" y="-696.9" font-family="Courier,monospace" font-size="12.00">ConstrainTimeRangeNode</text>
<text text-anchor="start" x="25.5" y="-686.7" font-family="Courier,monospace" font-size="6.00">description</text>
<text text-anchor="start" x="93.5" y="-686.7" font-family="Courier,monospace" font-size="6.00">Constrain Time Range to</text>
<text text-anchor="start" x="93.5" y="-679.7" font-family="Courier,monospace" font-size="6.00">[2000&#45;01&#45;01T00:00:00,</text>
<text text-anchor="start" x="93.5" y="-672.7" font-family="Courier,monospace" font-size="6.00">2040&#45;12&#45;31T00:00:00]</text>
<text text-anchor="start" x="25.5" y="-663.7" font-family="Courier,monospace" font-size="6.00">node_id</text>
<text text-anchor="start" x="93.5" y="-663.7" font-family="Courier,monospace" font-size="6.00">ctr_0</text>
<text text-anchor="start" x="25.5" y="-654.7" font-family="Courier,monospace" font-size="6.00">time_range_start</text>
<text text-anchor="start" x="93.5" y="-654.7" font-family="Courier,monospace" font-size="6.00">2000&#45;01&#45;01T00:00:00</text>
<text text-anchor="start" x="25.5" y="-645.7" font-family="Courier,monospace" font-size="6.00">time_range_end</text>
<text text-anchor="start" x="93.5" y="-645.7" font-family="Courier,monospace" font-size="6.00">2040&#45;12&#45;31T00:00:00</text>
</g>
<!-- rss_0&#45;&gt;ctr_0 -->
<g id="edge1" class="edge">
<title>rss_0&#45;&gt;ctr_0</title>
<path fill="none" stroke="black" d="M104.5,-747.79C104.5,-739.64 104.5,-730.82 104.5,-722.26"/>
<polygon fill="black" stroke="black" points="108,-722.01 104.5,-712.01 101,-722.01 108,-722.01"/>
</g>
<!-- pfe_0 -->
<g id="node3" class="node">
<title>pfe_0</title>
<polygon fill="none" stroke="black" points="209,-603 0,-603 0,-507 209,-507 209,-603"/>
<text text-anchor="start" x="9.5" y="-588.4" font-family="Courier,monospace" font-size="12.00">FilterElementsNode</text>
<text text-anchor="start" x="9.5" y="-578.2" font-family="Courier,monospace" font-size="6.00">description</text>
<text text-anchor="start" x="55.5" y="-578.2" font-family="Courier,monospace" font-size="6.00">Pass Only Elements: &#160;&#160;[&#39;transactions&#39;,</text>
<text text-anchor="start" x="55.5" y="-571.2" font-family="Courier,monospace" font-size="6.00">&#39;ds&#39;, &#39;customer&#39;]</text>
<text text-anchor="start" x="9.5" y="-562.2" font-family="Courier,monospace" font-size="6.00">node_id</text>
<text text-anchor="start" x="55.5" y="-562.2" font-family="Courier,monospace" font-size="6.00">pfe_0</text>
<text text-anchor="start" x="9.5" y="-553.2" font-family="Courier,monospace" font-size="6.00">include_spec</text>
<text text-anchor="start" x="55.5" y="-553.2" font-family="Courier,monospace" font-size="6.00">MeasureSpec(element_name=&#39;transactions&#39;)</text>
<text text-anchor="start" x="9.5" y="-544.2" font-family="Courier,monospace" font-size="6.00">include_spec</text>
<text text-anchor="start" x="55.5" y="-544.2" font-family="Courier,monospace" font-size="6.00">TimeDimensionSpec(element_name=&#39;ds&#39;,</text>
<text text-anchor="start" x="55.5" y="-537.2" font-family="Courier,monospace" font-size="6.00">identifier_links=(),</text>
<text text-anchor="start" x="55.5" y="-530.2" font-family="Courier,monospace" font-size="6.00">time_granularity=TimeGranularity.DAY)</text>
<text text-anchor="start" x="9.5" y="-521.2" font-family="Courier,monospace" font-size="6.00">include_spec</text>
<text text-anchor="start" x="55.5" y="-521.2" font-family="Courier,monospace" font-size="6.00">LinklessIdentifierSpec(element_name=&#39;cus</text>
<text text-anchor="start" x="55.5" y="-514.2" font-family="Courier,monospace" font-size="6.00">tomer&#39;, identifier_links=())</text>
</g>
<!-- ctr_0&#45;&gt;pfe_0 -->
<g id="edge2" class="edge">
<title>ctr_0&#45;&gt;pfe_0</title>
<path fill="none" stroke="black" d="M104.5,-638.95C104.5,-630.91 104.5,-622.18 104.5,-613.5"/>
<polygon fill="black" stroke="black" points="108,-613.37 104.5,-603.37 101,-613.37 108,-613.37"/>
</g>
<!-- jso_0 -->
<g id="node6" class="node">
<title>jso_0</title>
<polygon fill="none" stroke="black" points="341.5,-471 93.5,-471 93.5,-386 341.5,-386 341.5,-471"/>
<text text-anchor="start" x="102.5" y="-455.9" font-family="Courier,monospace" font-size="12.00">JoinToBaseOutputNode</text>
<text text-anchor="start" x="102.5" y="-445.7" font-family="Courier,monospace" font-size="6.00">description</text>
<text text-anchor="start" x="187.5" y="-445.7" font-family="Courier,monospace" font-size="6.00">Join Standard Outputs</text>
<text text-anchor="start" x="102.5" y="-436.7" font-family="Courier,monospace" font-size="6.00">node_id</text>
<text text-anchor="start" x="187.5" y="-436.7" font-family="Courier,monospace" font-size="6.00">jso_0</text>
<text text-anchor="start" x="102.5" y="-427.7" font-family="Courier,monospace" font-size="6.00">join0_for_node_id_pfe_1</text>
<text text-anchor="start" x="187.5" y="-427.7" font-family="Courier,monospace" font-size="6.00">JoinDescription(join_node=FilterElements</text>
<text text-anchor="start" x="187.5" y="-420.7" font-family="Courier,monospace" font-size="6.00">Node(node_id=pfe_1), join_on_identifier=</text>
<text text-anchor="start" x="187.5" y="-413.7" font-family="Courier,monospace" font-size="6.00">LinklessIdentifierSpec(element_name=&#39;cus</text>
<text text-anchor="start" x="187.5" y="-406.7" font-family="Courier,monospace" font-size="6.00">tomer&#39;, identifier_links=()),</text>
<text text-anchor="start" x="187.5" y="-399.7" font-family="Courier,monospace" font-size="6.00">join_on_partition_dimensions=(),</text>
<text text-anchor="start" x="187.5" y="-392.7" font-family="Courier,monospace" font-size="6.00">join_on_partition_time_dimensions=())</text>
</g>
<!-- pfe_0&#45;&gt;jso_0 -->
<g id="edge4" class="edge">
<title>pfe_0&#45;&gt;jso_0</title>
<path fill="none" stroke="black" d="M147.22,-506.93C155.52,-497.79 164.24,-488.18 172.61,-478.96"/>
<polygon fill="black" stroke="black" points="175.41,-481.08 179.54,-471.32 170.23,-476.37 175.41,-481.08"/>
</g>
<!-- rss_2 -->
<g id="node4" class="node">
<title>rss_2</title>
<polygon fill="none" stroke="black" points="434,-707.5 229,-707.5 229,-643.5 434,-643.5 434,-707.5"/>
<text text-anchor="start" x="238.5" y="-692.9" font-family="Courier,monospace" font-size="12.00">ReadSqlSourceNode</text>
<text text-anchor="start" x="238.5" y="-682.7" font-family="Courier,monospace" font-size="6.00">description</text>
<text text-anchor="start" x="280.5" y="-682.7" font-family="Courier,monospace" font-size="6.00">Read From DataSourceDataSet(DataSourceRe</text>
<text text-anchor="start" x="280.5" y="-675.7" font-family="Courier,monospace" font-size="6.00">ference(data_source_name=&#39;customers&#39;))</text>
<text text-anchor="start" x="238.5" y="-666.7" font-family="Courier,monospace" font-size="6.00">node_id</text>
<text text-anchor="start" x="280.5" y="-666.7" font-family="Courier,monospace" font-size="6.00">rss_2</text>
<text text-anchor="start" x="238.5" y="-657.7" font-family="Courier,monospace" font-size="6.00">data_set</text>
<text text-anchor="start" x="280.5" y="-657.7" font-family="Courier,monospace" font-size="6.00">DataSourceDataSet(DataSourceReference(da</text>
<text text-anchor="start" x="280.5" y="-650.7" font-family="Courier,monospace" font-size="6.00">ta_source_name=&#39;customers&#39;))</text>
</g>
<!-- pfe_1 -->
<g id="node5" class="node">
<title>pfe_1</title>
<polygon fill="none" stroke="black" points="436,-595 227,-595 227,-515 436,-515 436,-595"/>
<text text-anchor="start" x="236.5" y="-580.4" font-family="Courier,monospace" font-size="12.00">FilterElementsNode</text>
<text text-anchor="start" x="236.5" y="-570.2" font-family="Courier,monospace" font-size="6.00">description</text>
<text text-anchor="start" x="282.5" y="-570.2" font-family="Courier,monospace" font-size="6.00">Pass Only Elements: &#160;&#160;[&#39;customer&#39;,</text>
<text text-anchor="start" x="282.5" y="-563.2" font-family="Courier,monospace" font-size="6.00">&#39;country&#39;]</text>
<text text-anchor="start" x="236.5" y="-554.2" font-family="Courier,monospace" font-size="6.00">node_id</text>
<text text-anchor="start" x="282.5" y="-554.2" font-family="Courier,monospace" font-size="6.00">pfe_1</text>
<text text-anchor="start" x="236.5" y="-545.2" font-family="Courier,monospace" font-size="6.00">include_spec</text>
<text text-anchor="start" x="282.5" y="-545.2" font-family="Courier,monospace" font-size="6.00">LinklessIdentifierSpec(element_name=&#39;cus</text>
<text text-anchor="start" x="282.5" y="-538.2" font-family="Courier,monospace" font-size="6.00">tomer&#39;, identifier_links=())</text>
<text text-anchor="start" x="236.5" y="-529.2" font-family="Courier,monospace" font-size="6.00">include_spec</text>
<text text-anchor="start" x="282.5" y="-529.2" font-family="Courier,monospace" font-size="6.00">IdentifierSpec(element_name=&#39;country&#39;,</text>
<text text-anchor="start" x="282.5" y="-522.2" font-family="Courier,monospace" font-size="6.00">identifier_links=())</text>
</g>
<!-- rss_2&#45;&gt;pfe_1 -->
<g id="edge3" class="edge">
<title>rss_2&#45;&gt;pfe_1</title>
<path fill="none" stroke="black" d="M331.5,-643.37C331.5,-631.79 331.5,-618.34 331.5,-605.52"/>
<polygon fill="black" stroke="black" points="335,-605.42 331.5,-595.42 328,-605.42 335,-605.42"/>
</g>
<!-- pfe_1&#45;&gt;jso_0 -->
<g id="edge5" class="edge">
<title>pfe_1&#45;&gt;jso_0</title>
<path fill="none" stroke="black" d="M295.74,-514.95C285.35,-503.6 273.86,-491.05 262.96,-479.14"/>
<polygon fill="black" stroke="black" points="265.23,-476.44 255.9,-471.43 260.07,-481.17 265.23,-476.44"/>
</g>
<!-- pfe_2 -->
<g id="node7" class="node">
<title>pfe_2</title>
<polygon fill="none" stroke="black" points="322,-350 113,-350 113,-240 322,-240 322,-350"/>
<text text-anchor="start" x="122.5" y="-335.4" font-family="Courier,monospace" font-size="12.00">FilterElementsNode</text>
<text text-anchor="start" x="122.5" y="-325.2" font-family="Courier,monospace" font-size="6.00">description</text>
<text text-anchor="start" x="168.5" y="-325.2" font-family="Courier,monospace" font-size="6.00">Pass Only Elements: &#160;&#160;[&#39;transactions&#39;,</text>
<text text-anchor="start" x="168.5" y="-318.2" font-family="Courier,monospace" font-size="6.00">&#39;ds&#39;, &#39;customer__country&#39;]</text>
<text text-anchor="start" x="122.5" y="-309.2" font-family="Courier,monospace" font-size="6.00">node_id</text>
<text text-anchor="start" x="168.5" y="-309.2" font-family="Courier,monospace" font-size="6.00">pfe_2</text>
<text text-anchor="start" x="122.5" y="-300.2" font-family="Courier,monospace" font-size="6.00">include_spec</text>
<text text-anchor="start" x="168.5" y="-300.2" font-family="Courier,monospace" font-size="6.00">MeasureSpec(element_name=&#39;transactions&#39;)</text>
<text text-anchor="start" x="122.5" y="-291.2" font-family="Courier,monospace" font-size="6.00">include_spec</text>
<text text-anchor="start" x="168.5" y="-291.2" font-family="Courier,monospace" font-size="6.00">TimeDimensionSpec(element_name=&#39;ds&#39;,</text>
<text text-anchor="start" x="168.5" y="-284.2" font-family="Courier,monospace" font-size="6.00">identifier_links=(),</text>
<text text-anchor="start" x="168.5" y="-277.2" font-family="Courier,monospace" font-size="6.00">time_granularity=TimeGranularity.DAY)</text>
<text text-anchor="start" x="122.5" y="-268.2" font-family="Courier,monospace" font-size="6.00">include_spec</text>
<text text-anchor="start" x="168.5" y="-268.2" font-family="Courier,monospace" font-size="6.00">IdentifierSpec(element_name=&#39;country&#39;, i</text>
<text text-anchor="start" x="168.5" y="-261.2" font-family="Courier,monospace" font-size="6.00">dentifier_links=(LinklessIdentifierSpec(</text>
<text text-anchor="start" x="168.5" y="-254.2" font-family="Courier,monospace" font-size="6.00">element_name=&#39;customer&#39;,</text>
<text text-anchor="start" x="168.5" y="-247.2" font-family="Courier,monospace" font-size="6.00">identifier_links=()),))</text>
</g>
<!-- jso_0&#45;&gt;pfe_2 -->
<g id="edge6" class="edge">
<title>jso_0&#45;&gt;pfe_2</title>
<path fill="none" stroke="black" d="M217.5,-385.89C217.5,-377.78 217.5,-369.1 217.5,-360.45"/>
<polygon fill="black" stroke="black" points="221,-360.34 217.5,-350.34 214,-360.34 221,-360.34"/>
</g>
<!-- am_0 -->
<g id="node8" class="node">
<title>am_0</title>
<polygon fill="none" stroke="black" points="302.5,-204 132.5,-204 132.5,-163 302.5,-163 302.5,-204"/>
<text text-anchor="start" x="141.5" y="-188.9" font-family="Courier,monospace" font-size="12.00">AggregateMeasuresNode</text>
<text text-anchor="start" x="141.5" y="-178.7" font-family="Courier,monospace" font-size="6.00">description</text>
<text text-anchor="start" x="205.5" y="-178.7" font-family="Courier,monospace" font-size="6.00">Aggregate Measures</text>
<text text-anchor="start" x="141.5" y="-169.7" font-family="Courier,monospace" font-size="6.00">node_id</text>
<text text-anchor="start" x="205.5" y="-169.7" font-family="Courier,monospace" font-size="6.00">am_0</text>
</g>
<!-- pfe_2&#45;&gt;am_0 -->
<g id="edge7" class="edge">
<title>pfe_2&#45;&gt;am_0</title>
<path fill="none" stroke="black" d="M217.5,-239.89C217.5,-231.08 217.5,-222.24 217.5,-214.29"/>
<polygon fill="black" stroke="black" points="221,-214.09 217.5,-204.09 214,-214.09 221,-214.09"/>
</g>
<!-- cm_0 -->
<g id="node9" class="node">
<title>cm_0</title>
<polygon fill="none" stroke="black" points="318,-127 117,-127 117,-77 318,-77 318,-127"/>
<text text-anchor="start" x="126.5" y="-112.4" font-family="Courier,monospace" font-size="12.00">ComputeMetricsNode</text>
<text text-anchor="start" x="126.5" y="-102.2" font-family="Courier,monospace" font-size="6.00">description</text>
<text text-anchor="start" x="168.5" y="-102.2" font-family="Courier,monospace" font-size="6.00">Compute Metrics via Expressions</text>
<text text-anchor="start" x="126.5" y="-93.2" font-family="Courier,monospace" font-size="6.00">node_id</text>
<text text-anchor="start" x="168.5" y="-93.2" font-family="Courier,monospace" font-size="6.00">cm_0</text>
<text text-anchor="start" x="126.5" y="-84.2" font-family="Courier,monospace" font-size="6.00">metric_spec</text>
<text text-anchor="start" x="168.5" y="-84.2" font-family="Courier,monospace" font-size="6.00">MetricSpec(element_name=&#39;transactions&#39;)</text>
</g>
<!-- am_0&#45;&gt;cm_0 -->
<g id="edge8" class="edge">
<title>am_0&#45;&gt;cm_0</title>
<path fill="none" stroke="black" d="M217.5,-162.85C217.5,-155.2 217.5,-146.2 217.5,-137.54"/>
<polygon fill="black" stroke="black" points="221,-137.26 217.5,-127.26 214,-137.26 221,-137.26"/>
</g>
<!-- wrd_0 -->
<g id="node10" class="node">
<title>wrd_0</title>
<polygon fill="none" stroke="black" points="320.5,-41 114.5,-41 114.5,0 320.5,0 320.5,-41"/>
<text text-anchor="start" x="123.5" y="-25.9" font-family="Courier,monospace" font-size="12.00">WriteToResultDataframeNode</text>
<text text-anchor="start" x="123.5" y="-15.7" font-family="Courier,monospace" font-size="6.00">description</text>
<text text-anchor="start" x="205.5" y="-15.7" font-family="Courier,monospace" font-size="6.00">Write to Dataframe</text>
<text text-anchor="start" x="123.5" y="-6.7" font-family="Courier,monospace" font-size="6.00">node_id</text>
<text text-anchor="start" x="205.5" y="-6.7" font-family="Courier,monospace" font-size="6.00">wrd_0</text>
</g>
<!-- cm_0&#45;&gt;wrd_0 -->
<g id="edge9" class="edge">
<title>cm_0&#45;&gt;wrd_0</title>
<path fill="none" stroke="black" d="M217.5,-76.72C217.5,-68.69 217.5,-59.67 217.5,-51.28"/>
<polygon fill="black" stroke="black" points="221,-51.11 217.5,-41.11 214,-51.11 221,-51.11"/>
</g>
</g>
</svg>
