<?xml version="1.0" encoding="UTF-8" standalone="no"?>
<!DOCTYPE svg PUBLIC "-//W3C//DTD SVG 1.1//EN"
 "http://www.w3.org/Graphics/SVG/1.1/DTD/svg11.dtd">
<!-- Generated by graphviz version 12.2.1 (20241206.2353)
 -->
<!-- Title: MutableSemanticGraph Pages: 1 -->
<svg width="1086pt" height="736pt"
 viewBox="0.00 0.00 1086.00 736.00" xmlns="http://www.w3.org/2000/svg" xmlns:xlink="http://www.w3.org/1999/xlink">
<g id="graph0" class="graph" transform="scale(1 1) rotate(0) translate(4 732)">
<title>MutableSemanticGraph</title>
<polygon fill="#181818" stroke="none" points="-4,4 -4,-732 1082,-732 1082,4 -4,4"/>
<g id="clust1" class="cluster">
<title>cluster_other_attribute</title>
<polygon fill="#181818" stroke="#000000" stroke-width="3" points="8,-141.25 8,-214 703,-214 703,-141.25 8,-141.25"/>
<text text-anchor="middle" x="355.5" y="-200.5" font-family="Courier New" font-size="10.00" fill="#d3d3d3">other_attribute</text>
</g>
<g id="clust2" class="cluster">
<title>cluster_model_entity</title>
<polygon fill="#181818" stroke="#000000" stroke-width="3" points="170,-414.25 170,-623.5 412,-623.5 412,-414.25 170,-414.25"/>
<text text-anchor="middle" x="291" y="-610" font-family="Courier New" font-size="10.00" fill="#d3d3d3">model_entity</text>
</g>
<g id="clust3" class="cluster">
<title>cluster_sm_0</title>
<polygon fill="#181818" stroke="#000000" stroke-width="3" points="420,-414.25 420,-487 550,-487 550,-414.25 420,-414.25"/>
<text text-anchor="middle" x="485" y="-473.5" font-family="Courier New" font-size="10.00" fill="#d3d3d3">sm_0</text>
</g>
<g id="clust4" class="cluster">
<title>cluster_sm_1</title>
<polygon fill="#181818" stroke="#000000" stroke-width="3" points="67,-277.75 67,-350.5 197,-350.5 197,-277.75 67,-277.75"/>
<text text-anchor="middle" x="132" y="-337" font-family="Courier New" font-size="10.00" fill="#d3d3d3">sm_1</text>
</g>
<g id="clust5" class="cluster">
<title>cluster_time_attribute</title>
<polygon fill="#181818" stroke="#000000" stroke-width="3" points="608,-8 608,-80.75 1070,-80.75 1070,-8 608,-8"/>
<text text-anchor="middle" x="839" y="-67.25" font-family="Courier New" font-size="10.00" fill="#d3d3d3">time_attribute</text>
</g>
<g id="clust6" class="cluster">
<title>cluster_time_base</title>
<polygon fill="#181818" stroke="#000000" stroke-width="3" points="792,-141.25 792,-214 938,-214 938,-141.25 792,-141.25"/>
<text text-anchor="middle" x="865" y="-200.5" font-family="Courier New" font-size="10.00" fill="#d3d3d3">time_base</text>
</g>
<g id="clust7" class="cluster">
<title>cluster_ds</title>
<polygon fill="#181818" stroke="#000000" stroke-width="3" points="804,-277.75 804,-350.5 926,-350.5 926,-277.75 804,-277.75"/>
<text text-anchor="middle" x="865" y="-337" font-family="Courier New" font-size="10.00" fill="#d3d3d3">ds</text>
</g>
<!-- Dim(dim_0) -->
<g id="node1" class="node">
<title>Dim(dim_0)</title>
<polygon fill="#303030" stroke="#ffa07a" points="115.5,-185.25 16.5,-185.25 16.5,-149.25 115.5,-149.25 115.5,-185.25"/>
<text text-anchor="start" x="28.5" y="-162.97" font-family="Courier New" font-size="12.00" fill="#d3d3d3">Dim(dim_0)</text>
</g>
<!-- DsiEntityKey(sm_0_primary_entity) -->
<g id="node2" class="node">
<title>DsiEntityKey(sm_0_primary_entity)</title>
<polygon fill="#303030" stroke="#ffa07a" points="694.75,-185.25 423.25,-185.25 423.25,-149.25 694.75,-149.25 694.75,-185.25"/>
<text text-anchor="start" x="435.25" y="-162.97" font-family="Courier New" font-size="12.00" fill="#d3d3d3">DsiEntityKey(sm_0_primary_entity)</text>
</g>
<!-- DsiEntityKey(sm_1_primary_entity) -->
<g id="node3" class="node">
<title>DsiEntityKey(sm_1_primary_entity)</title>
<polygon fill="#303030" stroke="#ffa07a" points="404.75,-185.25 133.25,-185.25 133.25,-149.25 404.75,-149.25 404.75,-185.25"/>
<text text-anchor="start" x="145.25" y="-162.97" font-family="Courier New" font-size="12.00" fill="#d3d3d3">DsiEntityKey(sm_1_primary_entity)</text>
</g>
<!-- Entity(sm_0_primary_entity) -->
<g id="node4" class="node">
<title>Entity(sm_0_primary_entity)</title>
<polygon fill="#303030" stroke="#87cefa" points="404.25,-594.75 177.75,-594.75 177.75,-558.75 404.25,-558.75 404.25,-594.75"/>
<text text-anchor="start" x="189.75" y="-572.48" font-family="Courier New" font-size="12.00" fill="#d3d3d3">Entity(sm_0_primary_entity)</text>
</g>
<!-- Entity(sm_1_primary_entity) -->
<g id="node5" class="node">
<title>Entity(sm_1_primary_entity)</title>
<polygon fill="#303030" stroke="#87cefa" points="404.25,-458.25 177.75,-458.25 177.75,-422.25 404.25,-422.25 404.25,-458.25"/>
<text text-anchor="start" x="189.75" y="-435.98" font-family="Courier New" font-size="12.00" fill="#d3d3d3">Entity(sm_1_primary_entity)</text>
</g>
<!-- Entity(sm_0_primary_entity)&#45;&gt;Entity(sm_1_primary_entity) -->
<g id="edge1" class="edge">
<title>Entity(sm_0_primary_entity)&#45;&gt;Entity(sm_1_primary_entity)</title>
<path fill="none" stroke="#d3d3d3" d="M291,-558.44C291,-536.05 291,-496.72 291,-469.85"/>
<polygon fill="#303030" stroke="#d3d3d3" points="294.5,-470.01 291,-460.01 287.5,-470.01 294.5,-470.01"/>
<text text-anchor="start" x="301" y="-521.8" font-family="Courier New" font-size="6.00" fill="#d3d3d3">Entity(sm_0_primary_entity)</text>
<text text-anchor="start" x="329.12" y="-514.3" font-family="Courier New" font-size="6.00" fill="#d3d3d3">(weight:1)&#45;&gt;</text>
<text text-anchor="start" x="301" y="-506.8" font-family="Courier New" font-size="6.00" fill="#d3d3d3">Entity(sm_1_primary_entity)</text>
</g>
<!-- JoinTo(sm_0) -->
<g id="node7" class="node">
<title>JoinTo(sm_0)</title>
<polygon fill="#303030" stroke="#d3d3d3" points="542,-458.25 428,-458.25 428,-422.25 542,-422.25 542,-458.25"/>
<text text-anchor="start" x="440" y="-435.98" font-family="Courier New" font-size="12.00" fill="#d3d3d3">JoinTo(sm_0)</text>
</g>
<!-- Entity(sm_0_primary_entity)&#45;&gt;JoinTo(sm_0) -->
<g id="edge2" class="edge">
<title>Entity(sm_0_primary_entity)&#45;&gt;JoinTo(sm_0)</title>
<path fill="none" stroke="#d3d3d3" d="M315.96,-558.44C350.21,-534.7 411.9,-491.93 450.53,-465.15"/>
<polygon fill="#303030" stroke="#d3d3d3" points="452.36,-468.14 458.58,-459.57 448.37,-462.39 452.36,-468.14"/>
<text text-anchor="start" x="456.37" y="-521.8" font-family="Courier New" font-size="6.00" fill="#d3d3d3">Entity(sm_0_primary_entity)</text>
<text text-anchor="start" x="484.49" y="-514.3" font-family="Courier New" font-size="6.00" fill="#d3d3d3">(weight:0)&#45;&gt;</text>
<text text-anchor="start" x="484.49" y="-506.8" font-family="Courier New" font-size="6.00" fill="#d3d3d3">JoinTo(sm_0)</text>
</g>
<!-- JoinTo(sm_1) -->
<g id="node8" class="node">
<title>JoinTo(sm_1)</title>
<polygon fill="#303030" stroke="#d3d3d3" points="189,-321.75 75,-321.75 75,-285.75 189,-285.75 189,-321.75"/>
<text text-anchor="start" x="87" y="-299.48" font-family="Courier New" font-size="12.00" fill="#d3d3d3">JoinTo(sm_1)</text>
</g>
<!-- Entity(sm_1_primary_entity)&#45;&gt;JoinTo(sm_1) -->
<g id="edge3" class="edge">
<title>Entity(sm_1_primary_entity)&#45;&gt;JoinTo(sm_1)</title>
<path fill="none" stroke="#d3d3d3" d="M270.54,-421.94C242.71,-398.4 192.77,-356.15 161.06,-329.33"/>
<polygon fill="#303030" stroke="#d3d3d3" points="163.69,-326.97 153.79,-323.18 159.16,-332.31 163.69,-326.97"/>
<text text-anchor="start" x="165.75" y="-385.3" font-family="Courier New" font-size="6.00" fill="#d3d3d3">Entity(sm_1_primary_entity)</text>
<text text-anchor="start" x="193.88" y="-377.8" font-family="Courier New" font-size="6.00" fill="#d3d3d3">(weight:0)&#45;&gt;</text>
<text text-anchor="start" x="193.88" y="-370.3" font-family="Courier New" font-size="6.00" fill="#d3d3d3">JoinTo(sm_1)</text>
</g>
<!-- GroupByAttributeRoot -->
<g id="node6" class="node">
<title>GroupByAttributeRoot</title>
<polygon fill="#303030" stroke="#ffd700" points="686,-728 512,-728 512,-692 686,-692 686,-728"/>
<text text-anchor="start" x="524" y="-705.73" font-family="Courier New" font-size="12.00" fill="#d3d3d3">GroupByAttributeRoot</text>
</g>
<!-- GroupByAttributeRoot&#45;&gt;DsiEntityKey(sm_0_primary_entity) -->
<g id="edge4" class="edge">
<title>GroupByAttributeRoot&#45;&gt;DsiEntityKey(sm_0_primary_entity)</title>
<path fill="none" stroke="#d3d3d3" d="M612.24,-691.73C653.8,-634.34 779,-461.5 779,-461.5 779,-461.5 634.22,-267.85 579.56,-194.75"/>
<polygon fill="#303030" stroke="#d3d3d3" points="582.46,-192.78 573.67,-186.87 576.85,-196.97 582.46,-192.78"/>
<text text-anchor="start" x="813.38" y="-445.8" font-family="Courier New" font-size="6.00" fill="#d3d3d3">GroupByAttributeRoot</text>
<text text-anchor="start" x="828.38" y="-438.3" font-family="Courier New" font-size="6.00" fill="#d3d3d3">(weight:0)&#45;&gt;</text>
<text text-anchor="start" x="789" y="-430.8" font-family="Courier New" font-size="6.00" fill="#d3d3d3">DsiEntityKey(sm_0_primary_entity)</text>
</g>
<!-- GroupByAttributeRoot&#45;&gt;DsiEntityKey(sm_1_primary_entity) -->
<g id="edge5" class="edge">
<title>GroupByAttributeRoot&#45;&gt;DsiEntityKey(sm_1_primary_entity)</title>
<path fill="none" stroke="#d3d3d3" d="M599,-691.73C599,-634.34 599,-461.5 599,-461.5 599,-461.5 378.27,-264.68 297.86,-192.98"/>
<polygon fill="#303030" stroke="#d3d3d3" points="300.57,-190.71 290.77,-186.66 295.91,-195.93 300.57,-190.71"/>
<text text-anchor="start" x="633.38" y="-445.8" font-family="Courier New" font-size="6.00" fill="#d3d3d3">GroupByAttributeRoot</text>
<text text-anchor="start" x="648.38" y="-438.3" font-family="Courier New" font-size="6.00" fill="#d3d3d3">(weight:0)&#45;&gt;</text>
<text text-anchor="start" x="609" y="-430.8" font-family="Courier New" font-size="6.00" fill="#d3d3d3">DsiEntityKey(sm_1_primary_entity)</text>
</g>
<!-- GroupByAttributeRoot&#45;&gt;Entity(sm_0_primary_entity) -->
<g id="edge6" class="edge">
<title>GroupByAttributeRoot&#45;&gt;Entity(sm_0_primary_entity)</title>
<path fill="none" stroke="#d3d3d3" d="M558.1,-691.57C502.37,-667.82 402.61,-625.31 342.05,-599.5"/>
<polygon fill="#303030" stroke="#d3d3d3" points="343.54,-596.34 332.97,-595.64 340.8,-602.78 343.54,-596.34"/>
<text text-anchor="start" x="486.88" y="-658.3" font-family="Courier New" font-size="6.00" fill="#d3d3d3">GroupByAttributeRoot</text>
<text text-anchor="start" x="501.88" y="-650.8" font-family="Courier New" font-size="6.00" fill="#d3d3d3">(weight:0)&#45;&gt;</text>
<text text-anchor="start" x="473.75" y="-643.3" font-family="Courier New" font-size="6.00" fill="#d3d3d3">Entity(sm_0_primary_entity)</text>
</g>
<!-- GroupByAttributeRoot&#45;&gt;Entity(sm_1_primary_entity) -->
<g id="edge7" class="edge">
<title>GroupByAttributeRoot&#45;&gt;Entity(sm_1_primary_entity)</title>
<path fill="none" stroke="#d3d3d3" d="M546.39,-691.52C429.67,-650.51 159.25,-555.5 159.25,-555.5 159.25,-555.5 222.97,-499.76 261.78,-465.81"/>
<polygon fill="#303030" stroke="#d3d3d3" points="263.76,-468.73 268.98,-459.51 259.15,-463.46 263.76,-468.73"/>
<text text-anchor="start" x="61.12" y="-582.3" font-family="Courier New" font-size="6.00" fill="#d3d3d3">GroupByAttributeRoot</text>
<text text-anchor="start" x="76.12" y="-574.8" font-family="Courier New" font-size="6.00" fill="#d3d3d3">(weight:0)&#45;&gt;</text>
<text text-anchor="start" x="48" y="-567.3" font-family="Courier New" font-size="6.00" fill="#d3d3d3">Entity(sm_1_primary_entity)</text>
</g>
<!-- TimeDim(ds) -->
<g id="node13" class="node">
<title>TimeDim(ds)</title>
<polygon fill="#303030" stroke="#d3d3d3" points="918.25,-321.75 811.75,-321.75 811.75,-285.75 918.25,-285.75 918.25,-321.75"/>
<text text-anchor="start" x="823.75" y="-299.48" font-family="Courier New" font-size="12.00" fill="#d3d3d3">TimeDim(ds)</text>
</g>
<!-- GroupByAttributeRoot&#45;&gt;TimeDim(ds) -->
<g id="edge8" class="edge">
<title>GroupByAttributeRoot&#45;&gt;TimeDim(ds)</title>
<path fill="none" stroke="#d3d3d3" d="M636.67,-691.54C727.48,-647.04 951,-537.5 951,-537.5 951,-537.5 898.73,-395.43 875.69,-332.81"/>
<polygon fill="#303030" stroke="#d3d3d3" points="879.01,-331.69 872.27,-323.51 872.44,-334.11 879.01,-331.69"/>
<text text-anchor="start" x="961" y="-521.8" font-family="Courier New" font-size="6.00" fill="#d3d3d3">GroupByAttributeRoot</text>
<text text-anchor="start" x="976" y="-514.3" font-family="Courier New" font-size="6.00" fill="#d3d3d3">(weight:0)&#45;&gt;</text>
<text text-anchor="start" x="977.88" y="-506.8" font-family="Courier New" font-size="6.00" fill="#d3d3d3">TimeDim(ds)</text>
</g>
<!-- JoinTo(sm_0)&#45;&gt;DsiEntityKey(sm_0_primary_entity) -->
<g id="edge11" class="edge">
<title>JoinTo(sm_0)&#45;&gt;DsiEntityKey(sm_0_primary_entity)</title>
<path fill="none" stroke="#d3d3d3" d="M482.78,-421.99C478.83,-389.49 471,-325 471,-325 471,-325 517.92,-240.88 543.24,-195.5"/>
<polygon fill="#303030" stroke="#d3d3d3" points="546.18,-197.41 548,-186.98 540.07,-194 546.18,-197.41"/>
<text text-anchor="start" x="520.38" y="-309.3" font-family="Courier New" font-size="6.00" fill="#d3d3d3">JoinTo(sm_0)</text>
<text text-anchor="start" x="520.38" y="-301.8" font-family="Courier New" font-size="6.00" fill="#d3d3d3">(weight:1)&#45;&gt;</text>
<text text-anchor="start" x="481" y="-294.3" font-family="Courier New" font-size="6.00" fill="#d3d3d3">DsiEntityKey(sm_0_primary_entity)</text>
</g>
<!-- JoinTo(sm_0)&#45;&gt;DsiEntityKey(sm_1_primary_entity) -->
<g id="edge12" class="edge">
<title>JoinTo(sm_0)&#45;&gt;DsiEntityKey(sm_1_primary_entity)</title>
<path fill="none" stroke="#d3d3d3" d="M479.14,-421.85C465.88,-380.23 434.75,-282.5 434.75,-282.5 434.75,-282.5 353.23,-225.82 304.53,-191.96"/>
<polygon fill="#303030" stroke="#d3d3d3" points="306.71,-189.21 296.51,-186.38 302.72,-194.96 306.71,-189.21"/>
<text text-anchor="start" x="340.38" y="-309.3" font-family="Courier New" font-size="6.00" fill="#d3d3d3">JoinTo(sm_0)</text>
<text text-anchor="start" x="340.38" y="-301.8" font-family="Courier New" font-size="6.00" fill="#d3d3d3">(weight:1)&#45;&gt;</text>
<text text-anchor="start" x="301" y="-294.3" font-family="Courier New" font-size="6.00" fill="#d3d3d3">DsiEntityKey(sm_1_primary_entity)</text>
</g>
<!-- JoinTo(sm_0)&#45;&gt;TimeDim(ds) -->
<g id="edge9" class="edge">
<title>JoinTo(sm_0)&#45;&gt;TimeDim(ds)</title>
<path fill="none" stroke="#d3d3d3" d="M534.29,-421.8C603.77,-397.21 730.36,-352.4 805.15,-325.93"/>
<polygon fill="#303030" stroke="#d3d3d3" points="806.11,-329.31 814.37,-322.67 803.78,-322.71 806.11,-329.31"/>
<text text-anchor="start" x="719.04" y="-385.3" font-family="Courier New" font-size="6.00" fill="#d3d3d3">JoinTo(sm_0)</text>
<text text-anchor="start" x="719.04" y="-377.8" font-family="Courier New" font-size="6.00" fill="#d3d3d3">(weight:1)&#45;&gt;</text>
<text text-anchor="start" x="720.91" y="-370.3" font-family="Courier New" font-size="6.00" fill="#d3d3d3">TimeDim(ds)</text>
</g>
<!-- JoinTo(sm_1)&#45;&gt;Dim(dim_0) -->
<g id="edge13" class="edge">
<title>JoinTo(sm_1)&#45;&gt;Dim(dim_0)</title>
<path fill="none" stroke="#d3d3d3" d="M123.51,-285.44C112.37,-262.74 92.7,-222.66 79.51,-195.77"/>
<polygon fill="#303030" stroke="#d3d3d3" points="82.67,-194.29 75.13,-186.85 76.39,-197.37 82.67,-194.29"/>
<text text-anchor="start" x="55" y="-248.8" font-family="Courier New" font-size="6.00" fill="#d3d3d3">JoinTo(sm_1)</text>
<text text-anchor="start" x="55" y="-241.3" font-family="Courier New" font-size="6.00" fill="#d3d3d3">(weight:1)&#45;&gt;</text>
<text text-anchor="start" x="58.75" y="-233.8" font-family="Courier New" font-size="6.00" fill="#d3d3d3">Dim(dim_0)</text>
</g>
<!-- JoinTo(sm_1)&#45;&gt;DsiEntityKey(sm_1_primary_entity) -->
<g id="edge14" class="edge">
<title>JoinTo(sm_1)&#45;&gt;DsiEntityKey(sm_1_primary_entity)</title>
<path fill="none" stroke="#d3d3d3" d="M149.63,-285.44C173.47,-262.04 216.14,-220.14 243.48,-193.3"/>
<polygon fill="#303030" stroke="#d3d3d3" points="245.67,-196.06 250.36,-186.55 240.77,-191.06 245.67,-196.06"/>
<text text-anchor="start" x="182.62" y="-248.8" font-family="Courier New" font-size="6.00" fill="#d3d3d3">JoinTo(sm_1)</text>
<text text-anchor="start" x="182.62" y="-241.3" font-family="Courier New" font-size="6.00" fill="#d3d3d3">(weight:1)&#45;&gt;</text>
<text text-anchor="start" x="143.25" y="-233.8" font-family="Courier New" font-size="6.00" fill="#d3d3d3">DsiEntityKey(sm_1_primary_entity)</text>
</g>
<!-- Time(custom_year) -->
<g id="node9" class="node">
<title>Time(custom_year)</title>
<polygon fill="#303030" stroke="#ffa07a" points="767.75,-52 616.25,-52 616.25,-16 767.75,-16 767.75,-52"/>
<text text-anchor="start" x="628.25" y="-29.73" font-family="Courier New" font-size="12.00" fill="#d3d3d3">Time(custom_year)</text>
</g>
<!-- Time(extract_year) -->
<g id="node10" class="node">
<title>Time(extract_year)</title>
<polygon fill="#303030" stroke="#ffa07a" points="944.5,-52 785.5,-52 785.5,-16 944.5,-16 944.5,-52"/>
<text text-anchor="start" x="797.5" y="-29.73" font-family="Courier New" font-size="12.00" fill="#d3d3d3">Time(extract_year)</text>
</g>
<!-- Time(year) -->
<g id="node11" class="node">
<title>Time(year)</title>
<polygon fill="#303030" stroke="#ffa07a" points="1061.5,-52 962.5,-52 962.5,-16 1061.5,-16 1061.5,-52"/>
<text text-anchor="start" x="974.5" y="-29.73" font-family="Courier New" font-size="12.00" fill="#d3d3d3">Time(year)</text>
</g>
<!-- TimeBase(YEAR) -->
<g id="node12" class="node">
<title>TimeBase(YEAR)</title>
<polygon fill="#303030" stroke="#d3d3d3" points="929.5,-185.25 800.5,-185.25 800.5,-149.25 929.5,-149.25 929.5,-185.25"/>
<text text-anchor="start" x="812.5" y="-162.97" font-family="Courier New" font-size="12.00" fill="#d3d3d3">TimeBase(YEAR)</text>
</g>
<!-- TimeBase(YEAR)&#45;&gt;Time(custom_year) -->
<g id="edge15" class="edge">
<title>TimeBase(YEAR)&#45;&gt;Time(custom_year)</title>
<path fill="none" stroke="#d3d3d3" d="M842.03,-148.82C811.7,-125.81 758.15,-85.18 723.9,-59.2"/>
<polygon fill="#303030" stroke="#d3d3d3" points="726.08,-56.46 716,-53.21 721.85,-62.04 726.08,-56.46"/>
<text text-anchor="start" x="792.88" y="-115.55" font-family="Courier New" font-size="6.00" fill="#d3d3d3">TimeBase(YEAR)</text>
<text text-anchor="start" x="796.62" y="-108.05" font-family="Courier New" font-size="6.00" fill="#d3d3d3">(weight:0)&#45;&gt;</text>
<text text-anchor="start" x="787.25" y="-100.55" font-family="Courier New" font-size="6.00" fill="#d3d3d3">Time(custom_year)</text>
</g>
<!-- TimeBase(YEAR)&#45;&gt;Time(extract_year) -->
<g id="edge16" class="edge">
<title>TimeBase(YEAR)&#45;&gt;Time(extract_year)</title>
<path fill="none" stroke="#d3d3d3" d="M865,-148.82C865,-127.03 865,-89.44 865,-63.45"/>
<polygon fill="#303030" stroke="#d3d3d3" points="868.5,-63.6 865,-53.6 861.5,-63.6 868.5,-63.6"/>
<text text-anchor="start" x="882.5" y="-115.55" font-family="Courier New" font-size="6.00" fill="#d3d3d3">TimeBase(YEAR)</text>
<text text-anchor="start" x="886.25" y="-108.05" font-family="Courier New" font-size="6.00" fill="#d3d3d3">(weight:0)&#45;&gt;</text>
<text text-anchor="start" x="875" y="-100.55" font-family="Courier New" font-size="6.00" fill="#d3d3d3">Time(extract_year)</text>
</g>
<!-- TimeBase(YEAR)&#45;&gt;Time(year) -->
<g id="edge17" class="edge">
<title>TimeBase(YEAR)&#45;&gt;Time(year)</title>
<path fill="none" stroke="#d3d3d3" d="M884.52,-148.82C910.14,-125.94 955.27,-85.65 984.38,-59.66"/>
<polygon fill="#303030" stroke="#d3d3d3" points="986.61,-62.36 991.74,-53.09 981.95,-57.14 986.61,-62.36"/>
<text text-anchor="start" x="991.21" y="-115.55" font-family="Courier New" font-size="6.00" fill="#d3d3d3">TimeBase(YEAR)</text>
<text text-anchor="start" x="994.96" y="-108.05" font-family="Courier New" font-size="6.00" fill="#d3d3d3">(weight:0)&#45;&gt;</text>
<text text-anchor="start" x="998.71" y="-100.55" font-family="Courier New" font-size="6.00" fill="#d3d3d3">Time(year)</text>
</g>
<!-- TimeDim(ds)&#45;&gt;TimeBase(YEAR) -->
<g id="edge10" class="edge">
<title>TimeDim(ds)&#45;&gt;TimeBase(YEAR)</title>
<path fill="none" stroke="#d3d3d3" d="M865,-285.44C865,-263.05 865,-223.72 865,-196.85"/>
<polygon fill="#303030" stroke="#d3d3d3" points="868.5,-197.01 865,-187.01 861.5,-197.01 868.5,-197.01"/>
<text text-anchor="start" x="880.62" y="-248.8" font-family="Courier New" font-size="6.00" fill="#d3d3d3">TimeDim(ds)</text>
<text text-anchor="start" x="878.75" y="-241.3" font-family="Courier New" font-size="6.00" fill="#d3d3d3">(weight:0)&#45;&gt;</text>
<text text-anchor="start" x="875" y="-233.8" font-family="Courier New" font-size="6.00" fill="#d3d3d3">TimeBase(YEAR)</text>
</g>
</g>
</svg>
