<?xml version="1.0" encoding="UTF-8" standalone="no"?>
<!DOCTYPE svg PUBLIC "-//W3C//DTD SVG 1.1//EN"
 "http://www.w3.org/Graphics/SVG/1.1/DTD/svg11.dtd">
<!-- Generated by graphviz version 12.2.1 (20241206.2353)
 -->
<!-- Pages: 1 -->
<svg width="1917pt" height="391pt"
 viewBox="0.00 0.00 1917.00 391.00" xmlns="http://www.w3.org/2000/svg" xmlns:xlink="http://www.w3.org/1999/xlink">
<g id="graph0" class="graph" transform="scale(1 1) rotate(0) translate(4 387)">
<polygon fill="#181818" stroke="none" points="-4,4 -4,-387 1913,-387 1913,4 -4,4"/>
<g id="clust1" class="cluster">
<title>cluster_other_attribute</title>
<polygon fill="#181818" stroke="#000000" stroke-width="3" points="1277.5,-152 1277.5,-375 1542.5,-375 1542.5,-152 1277.5,-152"/>
<text text-anchor="middle" x="1410" y="-361.5" font-family="Courier New" font-size="10.00" fill="#d3d3d3">other_attribute</text>
</g>
<g id="clust2" class="cluster">
<title>cluster_model_entity</title>
<polygon fill="#181818" stroke="#000000" stroke-width="3" points="373,-146 373,-277 638,-277 638,-146 373,-146"/>
<text text-anchor="middle" x="505.5" y="-263.5" font-family="Courier New" font-size="10.00" fill="#d3d3d3">model_entity</text>
</g>
<g id="clust3" class="cluster">
<title>cluster_time_entity</title>
<polygon fill="#181818" stroke="#000000" stroke-width="3" points="1303.75,-60 1303.75,-142 1516.25,-142 1516.25,-60 1303.75,-60"/>
<text text-anchor="middle" x="1410" y="-128.5" font-family="Courier New" font-size="10.00" fill="#d3d3d3">time_entity</text>
</g>
<g id="clust4" class="cluster">
<title>cluster_time_attribute</title>
<polygon fill="#181818" stroke="#000000" stroke-width="3" points="1726,-8 1726,-195 1901,-195 1901,-8 1726,-8"/>
<text text-anchor="middle" x="1813.5" y="-181.5" font-family="Courier New" font-size="10.00" fill="#d3d3d3">time_attribute</text>
</g>
<g id="clust5" class="cluster">
<title>cluster_sm_0</title>
<polygon fill="#181818" stroke="#000000" stroke-width="3" points="892.75,-119 892.75,-194 1022.75,-194 1022.75,-119 892.75,-119"/>
<text text-anchor="middle" x="957.75" y="-180.5" font-family="Courier New" font-size="10.00" fill="#d3d3d3">sm_0</text>
</g>
<g id="clust6" class="cluster">
<title>cluster_sm_1</title>
<polygon fill="#181818" stroke="#000000" stroke-width="3" points="892.75,-202 892.75,-277 1022.75,-277 1022.75,-202 892.75,-202"/>
<text text-anchor="middle" x="957.75" y="-263.5" font-family="Courier New" font-size="10.00" fill="#d3d3d3">sm_1</text>
</g>
<g id="clust7" class="cluster">
<title>cluster_metric_attribute</title>
<polygon fill="#181818" stroke="#000000" stroke-width="3" points="829,-38 829,-111 1086.5,-111 1086.5,-38 829,-38"/>
<text text-anchor="middle" x="957.75" y="-97.5" font-family="Courier New" font-size="10.00" fill="#d3d3d3">metric_attribute</text>
</g>
<!-- GroupByAttributeRoot -->
<g id="node1" class="node">
<title>GroupByAttributeRoot</title>
<polygon fill="#303030" stroke="#ffd700" points="174,-247 0,-247 0,-211 174,-211 174,-247"/>
<text text-anchor="start" x="12" y="-224.72" font-family="Courier New" font-size="12.00" fill="#d3d3d3">GroupByAttributeRoot</text>
</g>
<!-- edge_as_node_0 -->
<g id="node2" class="node">
<title>edge_as_node_0</title>
<polygon fill="none" stroke="none" points="1249.5,-357.25 1114.5,-357.25 1114.5,-334.75 1249.5,-334.75 1249.5,-357.25"/>
<text text-anchor="start" x="1114.5" y="-351.55" font-family="Courier New" font-size="6.00" fill="#d3d3d3">type: EntityRelationshipEdge</text>
<text text-anchor="start" x="1114.5" y="-344.05" font-family="Courier New" font-size="6.00" fill="#d3d3d3">tail: GroupByAttributeRoot</text>
<text text-anchor="start" x="1114.5" y="-336.55" font-family="Courier New" font-size="6.00" fill="#d3d3d3">head: EntityKey(sm_0_primary_entity)</text>
</g>
<!-- GroupByAttributeRoot&#45;&gt;edge_as_node_0 -->
<g id="edge1" class="edge">
<title>GroupByAttributeRoot&#45;&gt;edge_as_node_0</title>
<path fill="none" stroke="#d3d3d3" d="M174.3,-238.33C386.34,-260.98 925,-318.54 1114.67,-338.81"/>
</g>
<!-- edge_as_node_1 -->
<g id="node3" class="node">
<title>edge_as_node_1</title>
<polygon fill="none" stroke="none" points="1249.5,-234.25 1114.5,-234.25 1114.5,-211.75 1249.5,-211.75 1249.5,-234.25"/>
<text text-anchor="start" x="1114.5" y="-228.55" font-family="Courier New" font-size="6.00" fill="#d3d3d3">type: EntityRelationshipEdge</text>
<text text-anchor="start" x="1114.5" y="-221.05" font-family="Courier New" font-size="6.00" fill="#d3d3d3">tail: GroupByAttributeRoot</text>
<text text-anchor="start" x="1114.5" y="-213.55" font-family="Courier New" font-size="6.00" fill="#d3d3d3">head: EntityKey(sm_1_primary_entity)</text>
</g>
<!-- GroupByAttributeRoot&#45;&gt;edge_as_node_1 -->
<g id="edge3" class="edge">
<title>GroupByAttributeRoot&#45;&gt;edge_as_node_1</title>
<path fill="none" stroke="#d3d3d3" d="M174.3,-228.52C386.34,-227.36 925,-224.41 1114.67,-223.37"/>
</g>
<!-- edge_as_node_2 -->
<g id="node4" class="node">
<title>edge_as_node_2</title>
<polygon fill="none" stroke="none" points="345,-191.25 210,-191.25 210,-168.75 345,-168.75 345,-191.25"/>
<text text-anchor="start" x="210" y="-185.55" font-family="Courier New" font-size="6.00" fill="#d3d3d3">type: EntityRelationshipEdge</text>
<text text-anchor="start" x="210" y="-178.05" font-family="Courier New" font-size="6.00" fill="#d3d3d3">tail: GroupByAttributeRoot</text>
<text text-anchor="start" x="210" y="-170.55" font-family="Courier New" font-size="6.00" fill="#d3d3d3">head: DsiEntity(sm_0_primary_entity)</text>
</g>
<!-- GroupByAttributeRoot&#45;&gt;edge_as_node_2 -->
<g id="edge5" class="edge">
<title>GroupByAttributeRoot&#45;&gt;edge_as_node_2</title>
<path fill="none" stroke="#d3d3d3" d="M159,-210.55C184.04,-204.03 211.43,-196.92 233.45,-191.19"/>
</g>
<!-- edge_as_node_3 -->
<g id="node5" class="node">
<title>edge_as_node_3</title>
<polygon fill="none" stroke="none" points="345,-240.25 210,-240.25 210,-217.75 345,-217.75 345,-240.25"/>
<text text-anchor="start" x="210" y="-234.55" font-family="Courier New" font-size="6.00" fill="#d3d3d3">type: EntityRelationshipEdge</text>
<text text-anchor="start" x="210" y="-227.05" font-family="Courier New" font-size="6.00" fill="#d3d3d3">tail: GroupByAttributeRoot</text>
<text text-anchor="start" x="210" y="-219.55" font-family="Courier New" font-size="6.00" fill="#d3d3d3">head: DsiEntity(sm_1_primary_entity)</text>
</g>
<!-- GroupByAttributeRoot&#45;&gt;edge_as_node_3 -->
<g id="edge7" class="edge">
<title>GroupByAttributeRoot&#45;&gt;edge_as_node_3</title>
<path fill="none" stroke="#d3d3d3" d="M174.25,-229C186.27,-229 198.47,-229 210.05,-229"/>
</g>
<!-- edge_as_node_4 -->
<g id="node6" class="node">
<title>edge_as_node_4</title>
<polygon fill="none" stroke="none" points="1236.38,-49.25 1127.62,-49.25 1127.62,-26.75 1236.38,-26.75 1236.38,-49.25"/>
<text text-anchor="start" x="1127.62" y="-43.55" font-family="Courier New" font-size="6.00" fill="#d3d3d3">type: EntityRelationshipEdge</text>
<text text-anchor="start" x="1127.62" y="-36.05" font-family="Courier New" font-size="6.00" fill="#d3d3d3">tail: GroupByAttributeRoot</text>
<text text-anchor="start" x="1127.62" y="-28.55" font-family="Courier New" font-size="6.00" fill="#d3d3d3">head: TimeDimension(ds, year)</text>
</g>
<!-- GroupByAttributeRoot&#45;&gt;edge_as_node_4 -->
<g id="edge9" class="edge">
<title>GroupByAttributeRoot&#45;&gt;edge_as_node_4</title>
<path fill="none" stroke="#d3d3d3" d="M174.3,-213.77C391.41,-175.9 950.93,-78.3 1127.66,-47.48"/>
</g>
<!-- EntityKey(sm_0_primary_entity) -->
<g id="node19" class="node">
<title>EntityKey(sm_0_primary_entity)</title>
<polygon fill="#303030" stroke="#ffa07a" points="1534.5,-346.38 1285.5,-346.38 1285.5,-293.62 1534.5,-293.62 1534.5,-346.38"/>
<text text-anchor="start" x="1297.5" y="-326.98" font-family="Courier New" font-size="12.00" fill="#d3d3d3">EntityKey(sm_0_primary_entity)</text>
<text text-anchor="start" x="1293.5" y="-314.43" font-family="Courier New" font-size="6.00" fill="#d3d3d3">add_name: sm_0_primary_entity</text>
<text text-anchor="start" x="1293.5" y="-306.93" font-family="Courier New" font-size="6.00" fill="#d3d3d3">add_prop: ENTITY</text>
<text text-anchor="start" x="1293.5" y="-299.43" font-family="Courier New" font-size="6.00" fill="#d3d3d3">add_type: ENTITY</text>
</g>
<!-- edge_as_node_0&#45;&gt;EntityKey(sm_0_primary_entity) -->
<g id="edge2" class="edge">
<title>edge_as_node_0&#45;&gt;EntityKey(sm_0_primary_entity)</title>
<path fill="none" stroke="#d3d3d3" d="M1249.28,-338.37C1257.25,-337.46 1265.6,-336.5 1274.11,-335.52"/>
<polygon fill="#303030" stroke="#d3d3d3" points="1274.36,-339.01 1283.89,-334.39 1273.56,-332.06 1274.36,-339.01"/>
</g>
<!-- EntityKey(sm_1_primary_entity) -->
<g id="node20" class="node">
<title>EntityKey(sm_1_primary_entity)</title>
<polygon fill="#303030" stroke="#ffa07a" points="1534.5,-212.38 1285.5,-212.38 1285.5,-159.62 1534.5,-159.62 1534.5,-212.38"/>
<text text-anchor="start" x="1297.5" y="-192.97" font-family="Courier New" font-size="12.00" fill="#d3d3d3">EntityKey(sm_1_primary_entity)</text>
<text text-anchor="start" x="1293.5" y="-180.43" font-family="Courier New" font-size="6.00" fill="#d3d3d3">add_name: sm_1_primary_entity</text>
<text text-anchor="start" x="1293.5" y="-172.93" font-family="Courier New" font-size="6.00" fill="#d3d3d3">add_prop: ENTITY</text>
<text text-anchor="start" x="1293.5" y="-165.43" font-family="Courier New" font-size="6.00" fill="#d3d3d3">add_type: ENTITY</text>
</g>
<!-- edge_as_node_1&#45;&gt;EntityKey(sm_1_primary_entity) -->
<g id="edge4" class="edge">
<title>edge_as_node_1&#45;&gt;EntityKey(sm_1_primary_entity)</title>
<path fill="none" stroke="#d3d3d3" d="M1249.28,-212.15C1257.25,-210.84 1265.6,-209.48 1274.11,-208.08"/>
<polygon fill="#303030" stroke="#d3d3d3" points="1274.6,-211.55 1283.9,-206.48 1273.47,-204.64 1274.6,-211.55"/>
</g>
<!-- DsiEntity(sm_0_primary_entity) -->
<g id="node22" class="node">
<title>DsiEntity(sm_0_primary_entity)</title>
<polygon fill="#303030" stroke="#87cefa" points="630,-191.88 381,-191.88 381,-154.12 630,-154.12 630,-191.88"/>
<text text-anchor="start" x="393" y="-172.47" font-family="Courier New" font-size="12.00" fill="#d3d3d3">DsiEntity(sm_0_primary_entity)</text>
<text text-anchor="start" x="389" y="-159.93" font-family="Courier New" font-size="6.00" fill="#d3d3d3">add_name: sm_0_primary_entity</text>
</g>
<!-- edge_as_node_2&#45;&gt;DsiEntity(sm_0_primary_entity) -->
<g id="edge6" class="edge">
<title>edge_as_node_2&#45;&gt;DsiEntity(sm_0_primary_entity)</title>
<path fill="none" stroke="#d3d3d3" d="M344.78,-177.95C352.75,-177.7 361.1,-177.44 369.61,-177.18"/>
<polygon fill="#303030" stroke="#d3d3d3" points="369.49,-180.68 379.38,-176.88 369.28,-173.69 369.49,-180.68"/>
</g>
<!-- DsiEntity(sm_1_primary_entity) -->
<g id="node23" class="node">
<title>DsiEntity(sm_1_primary_entity)</title>
<polygon fill="#303030" stroke="#87cefa" points="630,-247.88 381,-247.88 381,-210.12 630,-210.12 630,-247.88"/>
<text text-anchor="start" x="393" y="-228.47" font-family="Courier New" font-size="12.00" fill="#d3d3d3">DsiEntity(sm_1_primary_entity)</text>
<text text-anchor="start" x="389" y="-215.93" font-family="Courier New" font-size="6.00" fill="#d3d3d3">add_name: sm_1_primary_entity</text>
</g>
<!-- edge_as_node_3&#45;&gt;DsiEntity(sm_1_primary_entity) -->
<g id="edge8" class="edge">
<title>edge_as_node_3&#45;&gt;DsiEntity(sm_1_primary_entity)</title>
<path fill="none" stroke="#d3d3d3" d="M344.78,-229C352.75,-229 361.1,-229 369.61,-229"/>
<polygon fill="#303030" stroke="#d3d3d3" points="369.38,-232.5 379.38,-229 369.38,-225.5 369.38,-232.5"/>
</g>
<!-- TimeDimension(ds, year) -->
<g id="node24" class="node">
<title>TimeDimension(ds, year)</title>
<polygon fill="#303030" stroke="#d3d3d3" points="1508.25,-113.62 1311.75,-113.62 1311.75,-68.38 1508.25,-68.38 1508.25,-113.62"/>
<text text-anchor="start" x="1323.75" y="-94.22" font-family="Courier New" font-size="12.00" fill="#d3d3d3">TimeDimension(ds, year)</text>
<text text-anchor="start" x="1319.75" y="-81.67" font-family="Courier New" font-size="6.00" fill="#d3d3d3">add_name: ds</text>
<text text-anchor="start" x="1319.75" y="-74.17" font-family="Courier New" font-size="6.00" fill="#d3d3d3">add_type: TIME_DIMENSION</text>
</g>
<!-- edge_as_node_4&#45;&gt;TimeDimension(ds, year) -->
<g id="edge10" class="edge">
<title>edge_as_node_4&#45;&gt;TimeDimension(ds, year)</title>
<path fill="none" stroke="#d3d3d3" d="M1230.93,-49.24C1251.27,-54.01 1275.87,-59.78 1300.21,-65.49"/>
<polygon fill="#303030" stroke="#d3d3d3" points="1299.35,-68.88 1309.89,-67.76 1300.95,-62.07 1299.35,-68.88"/>
</g>
<!-- edge_as_node_5 -->
<g id="node7" class="node">
<title>edge_as_node_5</title>
<polygon fill="none" stroke="none" points="1688.62,-158 1579.88,-158 1579.88,-128 1688.62,-128 1688.62,-158"/>
<text text-anchor="start" x="1579.88" y="-152.3" font-family="Courier New" font-size="6.00" fill="#d3d3d3">add_time_grain: year</text>
<text text-anchor="start" x="1579.88" y="-144.8" font-family="Courier New" font-size="6.00" fill="#d3d3d3">type: EntityAttributeEdge</text>
<text text-anchor="start" x="1579.88" y="-137.3" font-family="Courier New" font-size="6.00" fill="#d3d3d3">tail: TimeDimension(ds, year)</text>
<text text-anchor="start" x="1579.88" y="-129.8" font-family="Courier New" font-size="6.00" fill="#d3d3d3">head: Time(year)</text>
</g>
<!-- Time(year) -->
<g id="node27" class="node">
<title>Time(year)</title>
<polygon fill="#303030" stroke="#ffa07a" points="1863,-165.88 1764,-165.88 1764,-128.12 1863,-128.12 1863,-165.88"/>
<text text-anchor="start" x="1776" y="-146.47" font-family="Courier New" font-size="12.00" fill="#d3d3d3">Time(year)</text>
<text text-anchor="start" x="1772" y="-133.93" font-family="Courier New" font-size="6.00" fill="#d3d3d3">add_name: year</text>
</g>
<!-- edge_as_node_5&#45;&gt;Time(year) -->
<g id="edge12" class="edge">
<title>edge_as_node_5&#45;&gt;Time(year)</title>
<path fill="none" stroke="#d3d3d3" d="M1688.43,-144.2C1708.56,-144.65 1731.62,-145.17 1752.35,-145.64"/>
<polygon fill="#303030" stroke="#d3d3d3" points="1752,-149.14 1762.08,-145.86 1752.16,-142.14 1752,-149.14"/>
</g>
<!-- edge_as_node_6 -->
<g id="node8" class="node">
<title>edge_as_node_6</title>
<polygon fill="none" stroke="none" points="1698,-106 1570.5,-106 1570.5,-76 1698,-76 1698,-106"/>
<text text-anchor="start" x="1570.5" y="-100.3" font-family="Courier New" font-size="6.00" fill="#d3d3d3">add_prop: DERIVED_TIME_GRANULARITY</text>
<text text-anchor="start" x="1570.5" y="-92.8" font-family="Courier New" font-size="6.00" fill="#d3d3d3">type: EntityAttributeEdge</text>
<text text-anchor="start" x="1570.5" y="-85.3" font-family="Courier New" font-size="6.00" fill="#d3d3d3">tail: TimeDimension(ds, year)</text>
<text text-anchor="start" x="1570.5" y="-77.8" font-family="Courier New" font-size="6.00" fill="#d3d3d3">head: Time(extract_year)</text>
</g>
<!-- Time(extract_year) -->
<g id="node26" class="node">
<title>Time(extract_year)</title>
<polygon fill="#303030" stroke="#ffa07a" points="1893,-109.88 1734,-109.88 1734,-72.12 1893,-72.12 1893,-109.88"/>
<text text-anchor="start" x="1746" y="-90.47" font-family="Courier New" font-size="12.00" fill="#d3d3d3">Time(extract_year)</text>
<text text-anchor="start" x="1742" y="-77.92" font-family="Courier New" font-size="6.00" fill="#d3d3d3">add_name: extract_year</text>
</g>
<!-- edge_as_node_6&#45;&gt;Time(extract_year) -->
<g id="edge14" class="edge">
<title>edge_as_node_6&#45;&gt;Time(extract_year)</title>
<path fill="none" stroke="#d3d3d3" d="M1697.74,-91C1705.76,-91 1714.09,-91 1722.44,-91"/>
<polygon fill="#303030" stroke="#d3d3d3" points="1722.29,-94.5 1732.29,-91 1722.29,-87.5 1722.29,-94.5"/>
</g>
<!-- edge_as_node_7 -->
<g id="node9" class="node">
<title>edge_as_node_7</title>
<polygon fill="none" stroke="none" points="1698,-55.75 1570.5,-55.75 1570.5,-18.25 1698,-18.25 1698,-55.75"/>
<text text-anchor="start" x="1570.5" y="-50.05" font-family="Courier New" font-size="6.00" fill="#d3d3d3">add_prop: DERIVED_TIME_GRANULARITY</text>
<text text-anchor="start" x="1570.5" y="-42.55" font-family="Courier New" font-size="6.00" fill="#d3d3d3">add_time_grain: custom_year</text>
<text text-anchor="start" x="1570.5" y="-35.05" font-family="Courier New" font-size="6.00" fill="#d3d3d3">type: EntityAttributeEdge</text>
<text text-anchor="start" x="1570.5" y="-27.55" font-family="Courier New" font-size="6.00" fill="#d3d3d3">tail: TimeDimension(ds, year)</text>
<text text-anchor="start" x="1570.5" y="-20.05" font-family="Courier New" font-size="6.00" fill="#d3d3d3">head: Time(custom_year)</text>
</g>
<!-- Time(custom_year) -->
<g id="node25" class="node">
<title>Time(custom_year)</title>
<polygon fill="#303030" stroke="#ffa07a" points="1889.25,-53.88 1737.75,-53.88 1737.75,-16.12 1889.25,-16.12 1889.25,-53.88"/>
<text text-anchor="start" x="1749.75" y="-34.48" font-family="Courier New" font-size="12.00" fill="#d3d3d3">Time(custom_year)</text>
<text text-anchor="start" x="1745.75" y="-21.93" font-family="Courier New" font-size="6.00" fill="#d3d3d3">add_name: custom_year</text>
</g>
<!-- edge_as_node_7&#45;&gt;Time(custom_year) -->
<g id="edge16" class="edge">
<title>edge_as_node_7&#45;&gt;Time(custom_year)</title>
<path fill="none" stroke="#d3d3d3" d="M1697.74,-36.29C1706.98,-36.19 1716.64,-36.08 1726.26,-35.97"/>
<polygon fill="#303030" stroke="#d3d3d3" points="1726.04,-39.48 1736,-35.86 1725.96,-32.48 1726.04,-39.48"/>
</g>
<!-- edge_as_node_8 -->
<g id="node10" class="node">
<title>edge_as_node_8</title>
<polygon fill="none" stroke="none" points="1236.38,-105.25 1127.62,-105.25 1127.62,-82.75 1236.38,-82.75 1236.38,-105.25"/>
<text text-anchor="start" x="1127.62" y="-99.55" font-family="Courier New" font-size="6.00" fill="#d3d3d3">type: EntityRelationshipEdge</text>
<text text-anchor="start" x="1127.62" y="-92.05" font-family="Courier New" font-size="6.00" fill="#d3d3d3">tail: JoinTo(sm_0)</text>
<text text-anchor="start" x="1127.62" y="-84.55" font-family="Courier New" font-size="6.00" fill="#d3d3d3">head: TimeDimension(ds, year)</text>
</g>
<!-- edge_as_node_8&#45;&gt;TimeDimension(ds, year) -->
<g id="edge18" class="edge">
<title>edge_as_node_8&#45;&gt;TimeDimension(ds, year)</title>
<path fill="none" stroke="#d3d3d3" d="M1236.27,-93.29C1255.47,-93.04 1277.91,-92.74 1300.12,-92.45"/>
<polygon fill="#303030" stroke="#d3d3d3" points="1299.88,-95.95 1309.84,-92.32 1299.79,-88.95 1299.88,-95.95"/>
</g>
<!-- edge_as_node_9 -->
<g id="node11" class="node">
<title>edge_as_node_9</title>
<polygon fill="none" stroke="none" points="801,-240.25 666,-240.25 666,-217.75 801,-217.75 801,-240.25"/>
<text text-anchor="start" x="666" y="-234.55" font-family="Courier New" font-size="6.00" fill="#d3d3d3">type: JoinToModelEdge</text>
<text text-anchor="start" x="666" y="-227.05" font-family="Courier New" font-size="6.00" fill="#d3d3d3">tail: DsiEntity(sm_1_primary_entity)</text>
<text text-anchor="start" x="666" y="-219.55" font-family="Courier New" font-size="6.00" fill="#d3d3d3">head: JoinTo(sm_1)</text>
</g>
<!-- JoinTo(sm_1) -->
<g id="node29" class="node">
<title>JoinTo(sm_1)</title>
<polygon fill="#303030" stroke="#d3d3d3" points="1014.75,-247.88 900.75,-247.88 900.75,-210.12 1014.75,-210.12 1014.75,-247.88"/>
<text text-anchor="start" x="912.75" y="-228.47" font-family="Courier New" font-size="12.00" fill="#d3d3d3">JoinTo(sm_1)</text>
<text text-anchor="start" x="908.75" y="-215.93" font-family="Courier New" font-size="6.00" fill="#d3d3d3">add_model: sm_1</text>
</g>
<!-- edge_as_node_9&#45;&gt;JoinTo(sm_1) -->
<g id="edge20" class="edge">
<title>edge_as_node_9&#45;&gt;JoinTo(sm_1)</title>
<path fill="none" stroke="#d3d3d3" d="M800.88,-229C828.76,-229 861.15,-229 889.16,-229"/>
<polygon fill="#303030" stroke="#d3d3d3" points="888.95,-232.5 898.95,-229 888.95,-225.5 888.95,-232.5"/>
</g>
<!-- edge_as_node_10 -->
<g id="node12" class="node">
<title>edge_as_node_10</title>
<polygon fill="none" stroke="none" points="801,-152.5 666,-152.5 666,-107.5 801,-107.5 801,-152.5"/>
<text text-anchor="start" x="666" y="-146.8" font-family="Courier New" font-size="6.00" fill="#d3d3d3">add_name: sm_0_measure_0_metric</text>
<text text-anchor="start" x="666" y="-139.3" font-family="Courier New" font-size="6.00" fill="#d3d3d3">add_prop: METRIC</text>
<text text-anchor="start" x="666" y="-131.8" font-family="Courier New" font-size="6.00" fill="#d3d3d3">add_type: METRIC</text>
<text text-anchor="start" x="666" y="-124.3" font-family="Courier New" font-size="6.00" fill="#d3d3d3">type: EntityAttributeEdge</text>
<text text-anchor="start" x="666" y="-116.8" font-family="Courier New" font-size="6.00" fill="#d3d3d3">tail: DsiEntity(sm_1_primary_entity)</text>
<text text-anchor="start" x="666" y="-109.3" font-family="Courier New" font-size="6.00" fill="#d3d3d3">head: Metric(sm_0_measure_0_metric)</text>
</g>
<!-- Metric(sm_0_measure_0_metric) -->
<g id="node30" class="node">
<title>Metric(sm_0_measure_0_metric)</title>
<polygon fill="#303030" stroke="#ffa07a" points="1078.5,-82 837,-82 837,-46 1078.5,-46 1078.5,-82"/>
<text text-anchor="start" x="849" y="-59.73" font-family="Courier New" font-size="12.00" fill="#d3d3d3">Metric(sm_0_measure_0_metric)</text>
</g>
<!-- edge_as_node_10&#45;&gt;Metric(sm_0_measure_0_metric) -->
<g id="edge22" class="edge">
<title>edge_as_node_10&#45;&gt;Metric(sm_0_measure_0_metric)</title>
<path fill="none" stroke="#d3d3d3" d="M800.88,-110.29C826.96,-102.54 856.99,-93.62 883.69,-85.7"/>
<polygon fill="#303030" stroke="#d3d3d3" points="884.47,-89.11 893.06,-82.91 882.48,-82.4 884.47,-89.11"/>
</g>
<!-- edge_as_node_11 -->
<g id="node13" class="node">
<title>edge_as_node_11</title>
<polygon fill="none" stroke="none" points="801,-89.5 666,-89.5 666,-44.5 801,-44.5 801,-89.5"/>
<text text-anchor="start" x="666" y="-83.8" font-family="Courier New" font-size="6.00" fill="#d3d3d3">add_name: sm_0_measure_0_metric</text>
<text text-anchor="start" x="666" y="-76.3" font-family="Courier New" font-size="6.00" fill="#d3d3d3">add_prop: METRIC</text>
<text text-anchor="start" x="666" y="-68.8" font-family="Courier New" font-size="6.00" fill="#d3d3d3">add_type: METRIC</text>
<text text-anchor="start" x="666" y="-61.3" font-family="Courier New" font-size="6.00" fill="#d3d3d3">type: EntityAttributeEdge</text>
<text text-anchor="start" x="666" y="-53.8" font-family="Courier New" font-size="6.00" fill="#d3d3d3">tail: DsiEntity(sm_0_primary_entity)</text>
<text text-anchor="start" x="666" y="-46.3" font-family="Courier New" font-size="6.00" fill="#d3d3d3">head: Metric(sm_0_measure_0_metric)</text>
</g>
<!-- edge_as_node_11&#45;&gt;Metric(sm_0_measure_0_metric) -->
<g id="edge24" class="edge">
<title>edge_as_node_11&#45;&gt;Metric(sm_0_measure_0_metric)</title>
<path fill="none" stroke="#d3d3d3" d="M800.88,-66.1C808.71,-66 816.89,-65.89 825.23,-65.78"/>
<polygon fill="#303030" stroke="#d3d3d3" points="825.22,-69.28 835.17,-65.64 825.12,-62.28 825.22,-69.28"/>
</g>
<!-- edge_as_node_12 -->
<g id="node14" class="node">
<title>edge_as_node_12</title>
<polygon fill="none" stroke="none" points="1228.88,-275.25 1135.12,-275.25 1135.12,-252.75 1228.88,-252.75 1228.88,-275.25"/>
<text text-anchor="start" x="1135.12" y="-269.55" font-family="Courier New" font-size="6.00" fill="#d3d3d3">type: EntityAttributeEdge</text>
<text text-anchor="start" x="1135.12" y="-262.05" font-family="Courier New" font-size="6.00" fill="#d3d3d3">tail: JoinTo(sm_1)</text>
<text text-anchor="start" x="1135.12" y="-254.55" font-family="Courier New" font-size="6.00" fill="#d3d3d3">head: Dimension(dim_0)</text>
</g>
<!-- Dimension(dim_0) -->
<g id="node21" class="node">
<title>Dimension(dim_0)</title>
<polygon fill="#303030" stroke="#ffa07a" points="1482,-275.62 1338,-275.62 1338,-230.38 1482,-230.38 1482,-275.62"/>
<text text-anchor="start" x="1350" y="-256.23" font-family="Courier New" font-size="12.00" fill="#d3d3d3">Dimension(dim_0)</text>
<text text-anchor="start" x="1346" y="-243.68" font-family="Courier New" font-size="6.00" fill="#d3d3d3">add_name: dim_0</text>
<text text-anchor="start" x="1346" y="-236.18" font-family="Courier New" font-size="6.00" fill="#d3d3d3">add_type: DIMENSION</text>
</g>
<!-- edge_as_node_12&#45;&gt;Dimension(dim_0) -->
<g id="edge26" class="edge">
<title>edge_as_node_12&#45;&gt;Dimension(dim_0)</title>
<path fill="none" stroke="#d3d3d3" d="M1228.73,-261.77C1256.66,-260.41 1293.19,-258.64 1326.07,-257.04"/>
<polygon fill="#303030" stroke="#d3d3d3" points="1326.19,-260.53 1336.01,-256.55 1325.85,-253.54 1326.19,-260.53"/>
</g>
<!-- edge_as_node_13 -->
<g id="node15" class="node">
<title>edge_as_node_13</title>
<polygon fill="none" stroke="none" points="1249.5,-193.25 1114.5,-193.25 1114.5,-170.75 1249.5,-170.75 1249.5,-193.25"/>
<text text-anchor="start" x="1114.5" y="-187.55" font-family="Courier New" font-size="6.00" fill="#d3d3d3">type: EntityAttributeEdge</text>
<text text-anchor="start" x="1114.5" y="-180.05" font-family="Courier New" font-size="6.00" fill="#d3d3d3">tail: JoinTo(sm_1)</text>
<text text-anchor="start" x="1114.5" y="-172.55" font-family="Courier New" font-size="6.00" fill="#d3d3d3">head: EntityKey(sm_1_primary_entity)</text>
</g>
<!-- edge_as_node_13&#45;&gt;EntityKey(sm_1_primary_entity) -->
<g id="edge28" class="edge">
<title>edge_as_node_13&#45;&gt;EntityKey(sm_1_primary_entity)</title>
<path fill="none" stroke="#d3d3d3" d="M1249.28,-183.17C1257.25,-183.31 1265.6,-183.46 1274.11,-183.61"/>
<polygon fill="#303030" stroke="#d3d3d3" points="1273.82,-187.11 1283.88,-183.79 1273.94,-180.11 1273.82,-187.11"/>
</g>
<!-- edge_as_node_14 -->
<g id="node16" class="node">
<title>edge_as_node_14</title>
<polygon fill="none" stroke="none" points="1249.5,-152.25 1114.5,-152.25 1114.5,-129.75 1249.5,-129.75 1249.5,-152.25"/>
<text text-anchor="start" x="1114.5" y="-146.55" font-family="Courier New" font-size="6.00" fill="#d3d3d3">type: EntityAttributeEdge</text>
<text text-anchor="start" x="1114.5" y="-139.05" font-family="Courier New" font-size="6.00" fill="#d3d3d3">tail: JoinTo(sm_0)</text>
<text text-anchor="start" x="1114.5" y="-131.55" font-family="Courier New" font-size="6.00" fill="#d3d3d3">head: EntityKey(sm_1_primary_entity)</text>
</g>
<!-- edge_as_node_14&#45;&gt;EntityKey(sm_1_primary_entity) -->
<g id="edge30" class="edge">
<title>edge_as_node_14&#45;&gt;EntityKey(sm_1_primary_entity)</title>
<path fill="none" stroke="#d3d3d3" d="M1239.45,-152.24C1250.26,-154.39 1262,-156.73 1274.09,-159.14"/>
<polygon fill="#303030" stroke="#d3d3d3" points="1273.3,-162.55 1283.79,-161.07 1274.66,-155.68 1273.3,-162.55"/>
</g>
<!-- edge_as_node_15 -->
<g id="node17" class="node">
<title>edge_as_node_15</title>
<polygon fill="none" stroke="none" points="801,-193.25 666,-193.25 666,-170.75 801,-170.75 801,-193.25"/>
<text text-anchor="start" x="666" y="-187.55" font-family="Courier New" font-size="6.00" fill="#d3d3d3">type: JoinToModelEdge</text>
<text text-anchor="start" x="666" y="-180.05" font-family="Courier New" font-size="6.00" fill="#d3d3d3">tail: DsiEntity(sm_0_primary_entity)</text>
<text text-anchor="start" x="666" y="-172.55" font-family="Courier New" font-size="6.00" fill="#d3d3d3">head: JoinTo(sm_0)</text>
</g>
<!-- JoinTo(sm_0) -->
<g id="node28" class="node">
<title>JoinTo(sm_0)</title>
<polygon fill="#303030" stroke="#d3d3d3" points="1014.75,-164.88 900.75,-164.88 900.75,-127.12 1014.75,-127.12 1014.75,-164.88"/>
<text text-anchor="start" x="912.75" y="-145.47" font-family="Courier New" font-size="12.00" fill="#d3d3d3">JoinTo(sm_0)</text>
<text text-anchor="start" x="908.75" y="-132.93" font-family="Courier New" font-size="6.00" fill="#d3d3d3">add_model: sm_0</text>
</g>
<!-- edge_as_node_15&#45;&gt;JoinTo(sm_0) -->
<g id="edge32" class="edge">
<title>edge_as_node_15&#45;&gt;JoinTo(sm_0)</title>
<path fill="none" stroke="#d3d3d3" d="M800.88,-171.25C828.76,-166.73 861.15,-161.48 889.16,-156.95"/>
<polygon fill="#303030" stroke="#d3d3d3" points="889.66,-160.41 898.97,-155.36 888.54,-153.5 889.66,-160.41"/>
</g>
<!-- edge_as_node_16 -->
<g id="node18" class="node">
<title>edge_as_node_16</title>
<polygon fill="none" stroke="none" points="1249.5,-316.25 1114.5,-316.25 1114.5,-293.75 1249.5,-293.75 1249.5,-316.25"/>
<text text-anchor="start" x="1114.5" y="-310.55" font-family="Courier New" font-size="6.00" fill="#d3d3d3">type: EntityAttributeEdge</text>
<text text-anchor="start" x="1114.5" y="-303.05" font-family="Courier New" font-size="6.00" fill="#d3d3d3">tail: JoinTo(sm_0)</text>
<text text-anchor="start" x="1114.5" y="-295.55" font-family="Courier New" font-size="6.00" fill="#d3d3d3">head: EntityKey(sm_0_primary_entity)</text>
</g>
<!-- edge_as_node_16&#45;&gt;EntityKey(sm_0_primary_entity) -->
<g id="edge34" class="edge">
<title>edge_as_node_16&#45;&gt;EntityKey(sm_0_primary_entity)</title>
<path fill="none" stroke="#d3d3d3" d="M1249.28,-309.4C1257.25,-309.93 1265.6,-310.48 1274.11,-311.05"/>
<polygon fill="#303030" stroke="#d3d3d3" points="1273.67,-314.53 1283.88,-311.7 1274.14,-307.54 1273.67,-314.53"/>
</g>
<!-- DsiEntity(sm_0_primary_entity)&#45;&gt;edge_as_node_11 -->
<g id="edge23" class="edge">
<title>DsiEntity(sm_0_primary_entity)&#45;&gt;edge_as_node_11</title>
<path fill="none" stroke="#d3d3d3" d="M547.69,-153.68C586.27,-135.59 643.91,-108.55 684.54,-89.49"/>
</g>
<!-- DsiEntity(sm_0_primary_entity)&#45;&gt;edge_as_node_15 -->
<g id="edge31" class="edge">
<title>DsiEntity(sm_0_primary_entity)&#45;&gt;edge_as_node_15</title>
<path fill="none" stroke="#d3d3d3" d="M630.41,-177.93C642.64,-178.42 654.71,-178.9 666.02,-179.35"/>
</g>
<!-- DsiEntity(sm_1_primary_entity)&#45;&gt;edge_as_node_9 -->
<g id="edge19" class="edge">
<title>DsiEntity(sm_1_primary_entity)&#45;&gt;edge_as_node_9</title>
<path fill="none" stroke="#d3d3d3" d="M630.41,-229C642.64,-229 654.71,-229 666.02,-229"/>
</g>
<!-- DsiEntity(sm_1_primary_entity)&#45;&gt;edge_as_node_10 -->
<g id="edge21" class="edge">
<title>DsiEntity(sm_1_primary_entity)&#45;&gt;edge_as_node_10</title>
<path fill="none" stroke="#d3d3d3" d="M550.61,-209.68C588.12,-193.25 642.01,-169.64 681.39,-152.39"/>
</g>
<!-- TimeDimension(ds, year)&#45;&gt;edge_as_node_5 -->
<g id="edge11" class="edge">
<title>TimeDimension(ds, year)&#45;&gt;edge_as_node_5</title>
<path fill="none" stroke="#d3d3d3" d="M1508.48,-113.81C1533.09,-119.57 1558.61,-125.54 1580.1,-130.57"/>
</g>
<!-- TimeDimension(ds, year)&#45;&gt;edge_as_node_6 -->
<g id="edge13" class="edge">
<title>TimeDimension(ds, year)&#45;&gt;edge_as_node_6</title>
<path fill="none" stroke="#d3d3d3" d="M1508.48,-91C1529.59,-91 1551.37,-91 1570.7,-91"/>
</g>
<!-- TimeDimension(ds, year)&#45;&gt;edge_as_node_7 -->
<g id="edge15" class="edge">
<title>TimeDimension(ds, year)&#45;&gt;edge_as_node_7</title>
<path fill="none" stroke="#d3d3d3" d="M1505.9,-67.94C1527.84,-62.61 1550.65,-57.07 1570.8,-52.17"/>
</g>
<!-- JoinTo(sm_0)&#45;&gt;edge_as_node_8 -->
<g id="edge17" class="edge">
<title>JoinTo(sm_0)&#45;&gt;edge_as_node_8</title>
<path fill="none" stroke="#d3d3d3" d="M1015.12,-132.81C1051.51,-124.3 1098.35,-113.34 1132.97,-105.24"/>
</g>
<!-- JoinTo(sm_0)&#45;&gt;edge_as_node_14 -->
<g id="edge29" class="edge">
<title>JoinTo(sm_0)&#45;&gt;edge_as_node_14</title>
<path fill="none" stroke="#d3d3d3" d="M1015.12,-144.73C1045.47,-144.05 1083.08,-143.2 1114.82,-142.49"/>
</g>
<!-- JoinTo(sm_0)&#45;&gt;edge_as_node_16 -->
<g id="edge33" class="edge">
<title>JoinTo(sm_0)&#45;&gt;edge_as_node_16</title>
<path fill="none" stroke="#d3d3d3" d="M985.56,-165.18C1032.43,-198.71 1127.86,-266.98 1165.36,-293.81"/>
</g>
<!-- JoinTo(sm_1)&#45;&gt;edge_as_node_12 -->
<g id="edge25" class="edge">
<title>JoinTo(sm_1)&#45;&gt;edge_as_node_12</title>
<path fill="none" stroke="#d3d3d3" d="M1015.12,-237.88C1052.29,-243.73 1100.35,-251.3 1135.16,-256.78"/>
</g>
<!-- JoinTo(sm_1)&#45;&gt;edge_as_node_13 -->
<g id="edge27" class="edge">
<title>JoinTo(sm_1)&#45;&gt;edge_as_node_13</title>
<path fill="none" stroke="#d3d3d3" d="M1015.12,-217.08C1049.84,-209.74 1094.07,-200.38 1128.13,-193.18"/>
</g>
</g>
</svg>
