<?xml version="1.0" encoding="UTF-8" standalone="no"?>
<!DOCTYPE svg PUBLIC "-//W3C//DTD SVG 1.1//EN"
 "http://www.w3.org/Graphics/SVG/1.1/DTD/svg11.dtd">
<!-- Generated by graphviz version 12.2.1 (20241206.2353)
 -->
<!-- Pages: 1 -->
<svg width="1656pt" height="715pt"
 viewBox="0.00 0.00 1655.50 714.50" xmlns="http://www.w3.org/2000/svg" xmlns:xlink="http://www.w3.org/1999/xlink">
<g id="graph0" class="graph" transform="scale(1 1) rotate(0) translate(4 710.5)">
<polygon fill="#181818" stroke="none" points="-4,4 -4,-710.5 1651.5,-710.5 1651.5,4 -4,4"/>
<g id="clust1" class="cluster">
<title>cluster_sm_0</title>
<polygon fill="#181818" stroke="#000000" stroke-width="3" points="8,-235.5 8,-366.5 798.75,-366.5 798.75,-235.5 8,-235.5"/>
<text text-anchor="middle" x="403.38" y="-353" font-family="Courier New" font-size="10.00" fill="#d3d3d3">sm_0</text>
</g>
<g id="clust2" class="cluster">
<title>cluster_other_attribute</title>
<polygon fill="#181818" stroke="#000000" stroke-width="3" points="1001,-475.5 1001,-698.5 1288.5,-698.5 1288.5,-475.5 1001,-475.5"/>
<text text-anchor="middle" x="1144.75" y="-685" font-family="Courier New" font-size="10.00" fill="#d3d3d3">other_attribute</text>
</g>
<g id="clust3" class="cluster">
<title>cluster_model_entity</title>
<polygon fill="#181818" stroke="#000000" stroke-width="3" points="1023.5,-329.5 1023.5,-460.5 1266,-460.5 1266,-329.5 1023.5,-329.5"/>
<text text-anchor="middle" x="1144.75" y="-447" font-family="Courier New" font-size="10.00" fill="#d3d3d3">model_entity</text>
</g>
<g id="clust4" class="cluster">
<title>cluster_sm_1</title>
<polygon fill="#181818" stroke="#000000" stroke-width="3" points="653.75,-563.5 653.75,-694.5 798.75,-694.5 798.75,-563.5 653.75,-563.5"/>
<text text-anchor="middle" x="726.25" y="-681" font-family="Courier New" font-size="10.00" fill="#d3d3d3">sm_1</text>
</g>
<g id="clust5" class="cluster">
<title>cluster_time_dimension</title>
<polygon fill="#181818" stroke="#000000" stroke-width="3" points="1031,-13.5 1031,-165.5 1258.5,-165.5 1258.5,-13.5 1031,-13.5"/>
<text text-anchor="middle" x="1144.75" y="-152" font-family="Courier New" font-size="10.00" fill="#d3d3d3">time_dimension</text>
</g>
<g id="clust6" class="cluster">
<title>cluster_time_attribute</title>
<polygon fill="#181818" stroke="#000000" stroke-width="3" points="1472,-65.5 1472,-196.5 1639.5,-196.5 1639.5,-65.5 1472,-65.5"/>
<text text-anchor="middle" x="1555.75" y="-183" font-family="Courier New" font-size="10.00" fill="#d3d3d3">time_attribute</text>
</g>
<!-- Agg(sm_0, ds) -->
<g id="node1" class="node">
<title>Agg(sm_0, ds)</title>
<polygon fill="#303030" stroke="#d3d3d3" points="514.75,-280.5 393.25,-280.5 393.25,-244.5 514.75,-244.5 514.75,-280.5"/>
<text text-anchor="start" x="405.25" y="-258.23" font-family="Courier New" font-size="12.00" fill="#d3d3d3">Agg(sm_0, ds)</text>
</g>
<!-- edge_as_node_16 -->
<g id="node6" class="node">
<title>edge_as_node_16</title>
<polygon fill="none" stroke="none" points="625.75,-314 550.75,-314 550.75,-299 625.75,-299 625.75,-314"/>
<text text-anchor="start" x="550.75" y="-308.3" font-family="Courier New" font-size="6.00" fill="#d3d3d3">tail: Agg(sm_0, ds)</text>
<text text-anchor="start" x="550.75" y="-300.8" font-family="Courier New" font-size="6.00" fill="#d3d3d3">head: JoinFrom(sm_0)</text>
</g>
<!-- Agg(sm_0, ds)&#45;&gt;edge_as_node_16 -->
<g id="edge33" class="edge">
<title>Agg(sm_0, ds)&#45;&gt;edge_as_node_16</title>
<path fill="none" stroke="#d3d3d3" d="M510.32,-280.91C529.43,-287.26 549.78,-294.03 564.75,-299.01"/>
</g>
<!-- edge_as_node_17 -->
<g id="node7" class="node">
<title>edge_as_node_17</title>
<polygon fill="none" stroke="none" points="623.88,-270 552.62,-270 552.62,-255 623.88,-255 623.88,-270"/>
<text text-anchor="start" x="552.62" y="-264.3" font-family="Courier New" font-size="6.00" fill="#d3d3d3">tail: Agg(sm_0, ds)</text>
<text text-anchor="start" x="552.62" y="-256.8" font-family="Courier New" font-size="6.00" fill="#d3d3d3">head: JoinTo(sm_0)</text>
</g>
<!-- Agg(sm_0, ds)&#45;&gt;edge_as_node_17 -->
<g id="edge35" class="edge">
<title>Agg(sm_0, ds)&#45;&gt;edge_as_node_17</title>
<path fill="none" stroke="#d3d3d3" d="M514.93,-262.5C527.92,-262.5 541.23,-262.5 552.83,-262.5"/>
</g>
<!-- edge_as_node_18 -->
<g id="node34" class="node">
<title>edge_as_node_18</title>
<polygon fill="none" stroke="none" points="958,-88 841.75,-88 841.75,-73 958,-73 958,-88"/>
<text text-anchor="start" x="841.75" y="-82.3" font-family="Courier New" font-size="6.00" fill="#d3d3d3">tail: Agg(sm_0, ds)</text>
<text text-anchor="start" x="841.75" y="-74.8" font-family="Courier New" font-size="6.00" fill="#d3d3d3">head: MetricTimeDimension(YEAR)</text>
</g>
<!-- Agg(sm_0, ds)&#45;&gt;edge_as_node_18 -->
<g id="edge37" class="edge">
<title>Agg(sm_0, ds)&#45;&gt;edge_as_node_18</title>
<path fill="none" stroke="#d3d3d3" d="M499.21,-244.05C595.29,-204.83 816.37,-114.59 881.5,-88"/>
</g>
<!-- JoinFrom(sm_0) -->
<g id="node2" class="node">
<title>JoinFrom(sm_0)</title>
<polygon fill="#303030" stroke="#d3d3d3" points="790.75,-337.38 661.75,-337.38 661.75,-299.62 790.75,-299.62 790.75,-337.38"/>
<text text-anchor="start" x="673.75" y="-317.98" font-family="Courier New" font-size="12.00" fill="#d3d3d3">JoinFrom(sm_0)</text>
<text text-anchor="start" x="669.75" y="-305.43" font-family="Courier New" font-size="6.00" fill="#d3d3d3">add_model: sm_0</text>
</g>
<!-- edge_as_node_0 -->
<g id="node19" class="node">
<title>edge_as_node_0</title>
<polygon fill="none" stroke="none" points="973,-430 826.75,-430 826.75,-415 973,-415 973,-430"/>
<text text-anchor="start" x="826.75" y="-424.3" font-family="Courier New" font-size="6.00" fill="#d3d3d3">tail: JoinFrom(sm_0)</text>
<text text-anchor="start" x="826.75" y="-416.8" font-family="Courier New" font-size="6.00" fill="#d3d3d3">head: DsiEntityKey(sm_0_primary_entity)</text>
</g>
<!-- JoinFrom(sm_0)&#45;&gt;edge_as_node_0 -->
<g id="edge1" class="edge">
<title>JoinFrom(sm_0)&#45;&gt;edge_as_node_0</title>
<path fill="none" stroke="#d3d3d3" d="M759.13,-337.82C797.52,-361.08 860.12,-399.02 886.52,-415.01"/>
</g>
<!-- edge_as_node_1 -->
<g id="node20" class="node">
<title>edge_as_node_1</title>
<polygon fill="none" stroke="none" points="973,-562 826.75,-562 826.75,-547 973,-547 973,-562"/>
<text text-anchor="start" x="826.75" y="-556.3" font-family="Courier New" font-size="6.00" fill="#d3d3d3">tail: JoinFrom(sm_0)</text>
<text text-anchor="start" x="826.75" y="-548.8" font-family="Courier New" font-size="6.00" fill="#d3d3d3">head: DsiEntityKey(sm_1_primary_entity)</text>
</g>
<!-- JoinFrom(sm_0)&#45;&gt;edge_as_node_1 -->
<g id="edge3" class="edge">
<title>JoinFrom(sm_0)&#45;&gt;edge_as_node_1</title>
<path fill="none" stroke="#d3d3d3" d="M741.29,-337.81C777,-386.91 870.07,-514.89 893.47,-547.07"/>
</g>
<!-- edge_as_node_2 -->
<g id="node21" class="node">
<title>edge_as_node_2</title>
<polygon fill="none" stroke="none" points="943,-298 856.75,-298 856.75,-283 943,-283 943,-298"/>
<text text-anchor="start" x="856.75" y="-292.3" font-family="Courier New" font-size="6.00" fill="#d3d3d3">tail: JoinFrom(sm_0)</text>
<text text-anchor="start" x="856.75" y="-284.8" font-family="Courier New" font-size="6.00" fill="#d3d3d3">head: TimeDim(ds, year)</text>
</g>
<!-- JoinFrom(sm_0)&#45;&gt;edge_as_node_2 -->
<g id="edge5" class="edge">
<title>JoinFrom(sm_0)&#45;&gt;edge_as_node_2</title>
<path fill="none" stroke="#d3d3d3" d="M791.16,-308.07C813.08,-304.5 837.04,-300.59 856.79,-297.37"/>
</g>
<!-- edge_as_node_21 -->
<g id="node37" class="node">
<title>edge_as_node_21</title>
<polygon fill="none" stroke="none" points="961.75,-364 838,-364 838,-349 961.75,-349 961.75,-364"/>
<text text-anchor="start" x="838" y="-358.3" font-family="Courier New" font-size="6.00" fill="#d3d3d3">tail: JoinFrom(sm_0)</text>
<text text-anchor="start" x="838" y="-350.8" font-family="Courier New" font-size="6.00" fill="#d3d3d3">head: Entity(sm_0_primary_entity)</text>
</g>
<!-- JoinFrom(sm_0)&#45;&gt;edge_as_node_21 -->
<g id="edge43" class="edge">
<title>JoinFrom(sm_0)&#45;&gt;edge_as_node_21</title>
<path fill="none" stroke="#d3d3d3" d="M791.16,-332.65C816.32,-338.22 844.17,-344.39 865.25,-349.05"/>
</g>
<!-- edge_as_node_24 -->
<g id="node40" class="node">
<title>edge_as_node_24</title>
<polygon fill="none" stroke="none" points="961.75,-331 838,-331 838,-316 961.75,-316 961.75,-331"/>
<text text-anchor="start" x="838" y="-325.3" font-family="Courier New" font-size="6.00" fill="#d3d3d3">tail: JoinFrom(sm_0)</text>
<text text-anchor="start" x="838" y="-317.8" font-family="Courier New" font-size="6.00" fill="#d3d3d3">head: Entity(sm_0_primary_entity)</text>
</g>
<!-- JoinFrom(sm_0)&#45;&gt;edge_as_node_24 -->
<g id="edge49" class="edge">
<title>JoinFrom(sm_0)&#45;&gt;edge_as_node_24</title>
<path fill="none" stroke="#d3d3d3" d="M791.16,-320.36C806.5,-320.81 822.85,-321.29 838.05,-321.73"/>
</g>
<!-- edge_as_node_25 -->
<g id="node41" class="node">
<title>edge_as_node_25</title>
<polygon fill="none" stroke="none" points="961.75,-397 838,-397 838,-382 961.75,-382 961.75,-397"/>
<text text-anchor="start" x="838" y="-391.3" font-family="Courier New" font-size="6.00" fill="#d3d3d3">tail: JoinFrom(sm_0)</text>
<text text-anchor="start" x="838" y="-383.8" font-family="Courier New" font-size="6.00" fill="#d3d3d3">head: Entity(sm_1_primary_entity)</text>
</g>
<!-- JoinFrom(sm_0)&#45;&gt;edge_as_node_25 -->
<g id="edge51" class="edge">
<title>JoinFrom(sm_0)&#45;&gt;edge_as_node_25</title>
<path fill="none" stroke="#d3d3d3" d="M773.69,-337.71C809.04,-352.33 855.75,-371.66 880.94,-382.08"/>
</g>
<!-- JoinTo(sm_0) -->
<g id="node3" class="node">
<title>JoinTo(sm_0)</title>
<polygon fill="#303030" stroke="#d3d3d3" points="783.25,-281.38 669.25,-281.38 669.25,-243.62 783.25,-243.62 783.25,-281.38"/>
<text text-anchor="start" x="681.25" y="-261.98" font-family="Courier New" font-size="12.00" fill="#d3d3d3">JoinTo(sm_0)</text>
<text text-anchor="start" x="677.25" y="-249.43" font-family="Courier New" font-size="6.00" fill="#d3d3d3">add_model: sm_0</text>
</g>
<!-- edge_as_node_5 -->
<g id="node24" class="node">
<title>edge_as_node_5</title>
<polygon fill="none" stroke="none" points="973,-265 826.75,-265 826.75,-250 973,-250 973,-265"/>
<text text-anchor="start" x="826.75" y="-259.3" font-family="Courier New" font-size="6.00" fill="#d3d3d3">tail: JoinTo(sm_0)</text>
<text text-anchor="start" x="826.75" y="-251.8" font-family="Courier New" font-size="6.00" fill="#d3d3d3">head: DsiEntityKey(sm_0_primary_entity)</text>
</g>
<!-- JoinTo(sm_0)&#45;&gt;edge_as_node_5 -->
<g id="edge11" class="edge">
<title>JoinTo(sm_0)&#45;&gt;edge_as_node_5</title>
<path fill="none" stroke="#d3d3d3" d="M783.45,-260.86C797.33,-260.46 812.39,-260.02 826.91,-259.6"/>
</g>
<!-- edge_as_node_6 -->
<g id="node25" class="node">
<title>edge_as_node_6</title>
<polygon fill="none" stroke="none" points="973,-463 826.75,-463 826.75,-448 973,-448 973,-463"/>
<text text-anchor="start" x="826.75" y="-457.3" font-family="Courier New" font-size="6.00" fill="#d3d3d3">tail: JoinTo(sm_0)</text>
<text text-anchor="start" x="826.75" y="-449.8" font-family="Courier New" font-size="6.00" fill="#d3d3d3">head: DsiEntityKey(sm_1_primary_entity)</text>
</g>
<!-- JoinTo(sm_0)&#45;&gt;edge_as_node_6 -->
<g id="edge13" class="edge">
<title>JoinTo(sm_0)&#45;&gt;edge_as_node_6</title>
<path fill="none" stroke="#d3d3d3" d="M744.33,-281.71C781.47,-323.47 868.17,-420.97 892.45,-448.28"/>
</g>
<!-- edge_as_node_23 -->
<g id="node39" class="node">
<title>edge_as_node_23</title>
<polygon fill="none" stroke="none" points="943,-138 856.75,-138 856.75,-123 943,-123 943,-138"/>
<text text-anchor="start" x="856.75" y="-132.3" font-family="Courier New" font-size="6.00" fill="#d3d3d3">tail: JoinTo(sm_0)</text>
<text text-anchor="start" x="856.75" y="-124.8" font-family="Courier New" font-size="6.00" fill="#d3d3d3">head: TimeDim(ds, year)</text>
</g>
<!-- JoinTo(sm_0)&#45;&gt;edge_as_node_23 -->
<g id="edge47" class="edge">
<title>JoinTo(sm_0)&#45;&gt;edge_as_node_23</title>
<path fill="none" stroke="#d3d3d3" d="M752.21,-243.31C790.88,-213.56 863.53,-157.68 889.42,-137.77"/>
</g>
<!-- Measure(sm_0_measure_0) -->
<g id="node4" class="node">
<title>Measure(sm_0_measure_0)</title>
<polygon fill="#303030" stroke="#006400" points="212.5,-281.38 16,-281.38 16,-243.62 212.5,-243.62 212.5,-281.38"/>
<text text-anchor="start" x="28" y="-261.98" font-family="Courier New" font-size="12.00" fill="#d3d3d3">Measure(sm_0_measure_0)</text>
<text text-anchor="start" x="24" y="-249.43" font-family="Courier New" font-size="6.00" fill="#d3d3d3">add_model: sm_0</text>
</g>
<!-- edge_as_node_9 -->
<g id="node5" class="node">
<title>edge_as_node_9</title>
<polygon fill="none" stroke="none" points="357.25,-270 248.5,-270 248.5,-255 357.25,-255 357.25,-270"/>
<text text-anchor="start" x="248.5" y="-264.3" font-family="Courier New" font-size="6.00" fill="#d3d3d3">tail: Measure(sm_0_measure_0)</text>
<text text-anchor="start" x="248.5" y="-256.8" font-family="Courier New" font-size="6.00" fill="#d3d3d3">head: Agg(sm_0, ds)</text>
</g>
<!-- Measure(sm_0_measure_0)&#45;&gt;edge_as_node_9 -->
<g id="edge19" class="edge">
<title>Measure(sm_0_measure_0)&#45;&gt;edge_as_node_9</title>
<path fill="none" stroke="#d3d3d3" d="M212.94,-262.5C225.28,-262.5 237.53,-262.5 248.8,-262.5"/>
</g>
<!-- edge_as_node_9&#45;&gt;Agg(sm_0, ds) -->
<g id="edge20" class="edge">
<title>edge_as_node_9&#45;&gt;Agg(sm_0, ds)</title>
<path fill="none" stroke="#d3d3d3" d="M356.87,-262.5C364.87,-262.5 373.23,-262.5 381.54,-262.5"/>
<polygon fill="#303030" stroke="#d3d3d3" points="381.29,-266 391.29,-262.5 381.29,-259 381.29,-266"/>
</g>
<!-- edge_as_node_16&#45;&gt;JoinFrom(sm_0) -->
<g id="edge34" class="edge">
<title>edge_as_node_16&#45;&gt;JoinFrom(sm_0)</title>
<path fill="none" stroke="#d3d3d3" d="M625.7,-309.72C633.35,-310.39 641.7,-311.13 650.19,-311.88"/>
<polygon fill="#303030" stroke="#d3d3d3" points="649.62,-315.34 659.89,-312.73 650.24,-308.37 649.62,-315.34"/>
</g>
<!-- edge_as_node_17&#45;&gt;JoinTo(sm_0) -->
<g id="edge36" class="edge">
<title>edge_as_node_17&#45;&gt;JoinTo(sm_0)</title>
<path fill="none" stroke="#d3d3d3" d="M623.57,-262.5C634,-262.5 645.86,-262.5 657.69,-262.5"/>
<polygon fill="#303030" stroke="#d3d3d3" points="657.47,-266 667.47,-262.5 657.47,-259 657.47,-266"/>
</g>
<!-- Dim(dim_0) -->
<g id="node8" class="node">
<title>Dim(dim_0)</title>
<polygon fill="#303030" stroke="#ffa07a" points="1194.25,-670.12 1095.25,-670.12 1095.25,-624.88 1194.25,-624.88 1194.25,-670.12"/>
<text text-anchor="start" x="1107.25" y="-650.73" font-family="Courier New" font-size="12.00" fill="#d3d3d3">Dim(dim_0)</text>
<text text-anchor="start" x="1103.25" y="-638.17" font-family="Courier New" font-size="6.00" fill="#d3d3d3">add_name: dim_0</text>
<text text-anchor="start" x="1103.25" y="-630.67" font-family="Courier New" font-size="6.00" fill="#d3d3d3">add_type: DIMENSION</text>
</g>
<!-- DsiEntityKey(sm_0_primary_entity) -->
<g id="node9" class="node">
<title>DsiEntityKey(sm_0_primary_entity)</title>
<polygon fill="#303030" stroke="#ffa07a" points="1280.5,-535.88 1009,-535.88 1009,-483.12 1280.5,-483.12 1280.5,-535.88"/>
<text text-anchor="start" x="1021" y="-516.48" font-family="Courier New" font-size="12.00" fill="#d3d3d3">DsiEntityKey(sm_0_primary_entity)</text>
<text text-anchor="start" x="1017" y="-503.93" font-family="Courier New" font-size="6.00" fill="#d3d3d3">add_name: sm_0_primary_entity</text>
<text text-anchor="start" x="1017" y="-496.43" font-family="Courier New" font-size="6.00" fill="#d3d3d3">add_prop: ENTITY</text>
<text text-anchor="start" x="1017" y="-488.93" font-family="Courier New" font-size="6.00" fill="#d3d3d3">add_type: ENTITY</text>
</g>
<!-- DsiEntityKey(sm_1_primary_entity) -->
<g id="node10" class="node">
<title>DsiEntityKey(sm_1_primary_entity)</title>
<polygon fill="#303030" stroke="#ffa07a" points="1280.5,-606.88 1009,-606.88 1009,-554.12 1280.5,-554.12 1280.5,-606.88"/>
<text text-anchor="start" x="1021" y="-587.48" font-family="Courier New" font-size="12.00" fill="#d3d3d3">DsiEntityKey(sm_1_primary_entity)</text>
<text text-anchor="start" x="1017" y="-574.92" font-family="Courier New" font-size="6.00" fill="#d3d3d3">add_name: sm_1_primary_entity</text>
<text text-anchor="start" x="1017" y="-567.42" font-family="Courier New" font-size="6.00" fill="#d3d3d3">add_prop: ENTITY</text>
<text text-anchor="start" x="1017" y="-559.92" font-family="Courier New" font-size="6.00" fill="#d3d3d3">add_type: ENTITY</text>
</g>
<!-- Entity(sm_0_primary_entity) -->
<g id="node11" class="node">
<title>Entity(sm_0_primary_entity)</title>
<polygon fill="#303030" stroke="#87cefa" points="1258,-375.38 1031.5,-375.38 1031.5,-337.62 1258,-337.62 1258,-375.38"/>
<text text-anchor="start" x="1043.5" y="-355.98" font-family="Courier New" font-size="12.00" fill="#d3d3d3">Entity(sm_0_primary_entity)</text>
<text text-anchor="start" x="1039.5" y="-343.43" font-family="Courier New" font-size="6.00" fill="#d3d3d3">add_name: sm_0_primary_entity</text>
</g>
<!-- edge_as_node_19 -->
<g id="node35" class="node">
<title>edge_as_node_19</title>
<polygon fill="none" stroke="none" points="1442.12,-343 1318.38,-343 1318.38,-328 1442.12,-328 1442.12,-343"/>
<text text-anchor="start" x="1318.38" y="-337.3" font-family="Courier New" font-size="6.00" fill="#d3d3d3">tail: Entity(sm_0_primary_entity)</text>
<text text-anchor="start" x="1318.38" y="-329.8" font-family="Courier New" font-size="6.00" fill="#d3d3d3">head: JoinTo(sm_0)</text>
</g>
<!-- Entity(sm_0_primary_entity)&#45;&gt;edge_as_node_19 -->
<g id="edge39" class="edge">
<title>Entity(sm_0_primary_entity)&#45;&gt;edge_as_node_19</title>
<path fill="none" stroke="#d3d3d3" d="M1258.4,-346.37C1279.15,-344.5 1300.09,-342.62 1318.56,-340.96"/>
</g>
<!-- edge_as_node_27 -->
<g id="node43" class="node">
<title>edge_as_node_27</title>
<polygon fill="none" stroke="none" points="1442.12,-267 1318.38,-267 1318.38,-252 1442.12,-252 1442.12,-267"/>
<text text-anchor="start" x="1318.38" y="-261.3" font-family="Courier New" font-size="6.00" fill="#d3d3d3">tail: Entity(sm_0_primary_entity)</text>
<text text-anchor="start" x="1318.38" y="-253.8" font-family="Courier New" font-size="6.00" fill="#d3d3d3">head: JoinTo(sm_0)</text>
</g>
<!-- Entity(sm_0_primary_entity)&#45;&gt;edge_as_node_27 -->
<g id="edge55" class="edge">
<title>Entity(sm_0_primary_entity)&#45;&gt;edge_as_node_27</title>
<path fill="none" stroke="#d3d3d3" d="M1192.16,-337.22C1244.03,-315.67 1325.43,-281.86 1361.28,-266.97"/>
</g>
<!-- Entity(sm_1_primary_entity) -->
<g id="node12" class="node">
<title>Entity(sm_1_primary_entity)</title>
<polygon fill="#303030" stroke="#87cefa" points="1258,-431.38 1031.5,-431.38 1031.5,-393.62 1258,-393.62 1258,-431.38"/>
<text text-anchor="start" x="1043.5" y="-411.98" font-family="Courier New" font-size="12.00" fill="#d3d3d3">Entity(sm_1_primary_entity)</text>
<text text-anchor="start" x="1039.5" y="-399.43" font-family="Courier New" font-size="6.00" fill="#d3d3d3">add_name: sm_1_primary_entity</text>
</g>
<!-- edge_as_node_20 -->
<g id="node36" class="node">
<title>edge_as_node_20</title>
<polygon fill="none" stroke="none" points="1442.12,-689 1318.38,-689 1318.38,-674 1442.12,-674 1442.12,-689"/>
<text text-anchor="start" x="1318.38" y="-683.3" font-family="Courier New" font-size="6.00" fill="#d3d3d3">tail: Entity(sm_1_primary_entity)</text>
<text text-anchor="start" x="1318.38" y="-675.8" font-family="Courier New" font-size="6.00" fill="#d3d3d3">head: JoinTo(sm_1)</text>
</g>
<!-- Entity(sm_1_primary_entity)&#45;&gt;edge_as_node_20 -->
<g id="edge41" class="edge">
<title>Entity(sm_1_primary_entity)&#45;&gt;edge_as_node_20</title>
<path fill="none" stroke="#d3d3d3" d="M1162.54,-431.85C1209.81,-486.3 1342.51,-639.18 1372.97,-674.26"/>
</g>
<!-- edge_as_node_28 -->
<g id="node44" class="node">
<title>edge_as_node_28</title>
<polygon fill="none" stroke="none" points="1442.12,-499 1318.38,-499 1318.38,-484 1442.12,-484 1442.12,-499"/>
<text text-anchor="start" x="1318.38" y="-493.3" font-family="Courier New" font-size="6.00" fill="#d3d3d3">tail: Entity(sm_1_primary_entity)</text>
<text text-anchor="start" x="1318.38" y="-485.8" font-family="Courier New" font-size="6.00" fill="#d3d3d3">head: JoinTo(sm_1)</text>
</g>
<!-- Entity(sm_1_primary_entity)&#45;&gt;edge_as_node_28 -->
<g id="edge57" class="edge">
<title>Entity(sm_1_primary_entity)&#45;&gt;edge_as_node_28</title>
<path fill="none" stroke="#d3d3d3" d="M1202.87,-431.83C1252.69,-448.68 1322.31,-472.24 1357.32,-484.08"/>
</g>
<!-- JoinFrom(sm_1) -->
<g id="node13" class="node">
<title>JoinFrom(sm_1)</title>
<polygon fill="#303030" stroke="#d3d3d3" points="790.75,-609.38 661.75,-609.38 661.75,-571.62 790.75,-571.62 790.75,-609.38"/>
<text text-anchor="start" x="673.75" y="-589.98" font-family="Courier New" font-size="12.00" fill="#d3d3d3">JoinFrom(sm_1)</text>
<text text-anchor="start" x="669.75" y="-577.42" font-family="Courier New" font-size="6.00" fill="#d3d3d3">add_model: sm_1</text>
</g>
<!-- edge_as_node_3 -->
<g id="node22" class="node">
<title>edge_as_node_3</title>
<polygon fill="none" stroke="none" points="937.38,-661 862.38,-661 862.38,-646 937.38,-646 937.38,-661"/>
<text text-anchor="start" x="862.38" y="-655.3" font-family="Courier New" font-size="6.00" fill="#d3d3d3">tail: JoinFrom(sm_1)</text>
<text text-anchor="start" x="862.38" y="-647.8" font-family="Courier New" font-size="6.00" fill="#d3d3d3">head: Dim(dim_0)</text>
</g>
<!-- JoinFrom(sm_1)&#45;&gt;edge_as_node_3 -->
<g id="edge7" class="edge">
<title>JoinFrom(sm_1)&#45;&gt;edge_as_node_3</title>
<path fill="none" stroke="#d3d3d3" d="M779.68,-609.74C812.99,-621.98 854.27,-637.13 878.48,-646.01"/>
</g>
<!-- edge_as_node_4 -->
<g id="node23" class="node">
<title>edge_as_node_4</title>
<polygon fill="none" stroke="none" points="973,-595 826.75,-595 826.75,-580 973,-580 973,-595"/>
<text text-anchor="start" x="826.75" y="-589.3" font-family="Courier New" font-size="6.00" fill="#d3d3d3">tail: JoinFrom(sm_1)</text>
<text text-anchor="start" x="826.75" y="-581.8" font-family="Courier New" font-size="6.00" fill="#d3d3d3">head: DsiEntityKey(sm_1_primary_entity)</text>
</g>
<!-- JoinFrom(sm_1)&#45;&gt;edge_as_node_4 -->
<g id="edge9" class="edge">
<title>JoinFrom(sm_1)&#45;&gt;edge_as_node_4</title>
<path fill="none" stroke="#d3d3d3" d="M791.16,-589.38C802.78,-589.18 814.99,-588.97 826.83,-588.76"/>
</g>
<!-- edge_as_node_22 -->
<g id="node38" class="node">
<title>edge_as_node_22</title>
<polygon fill="none" stroke="none" points="961.75,-529 838,-529 838,-514 961.75,-514 961.75,-529"/>
<text text-anchor="start" x="838" y="-523.3" font-family="Courier New" font-size="6.00" fill="#d3d3d3">tail: JoinFrom(sm_1)</text>
<text text-anchor="start" x="838" y="-515.8" font-family="Courier New" font-size="6.00" fill="#d3d3d3">head: Entity(sm_1_primary_entity)</text>
</g>
<!-- JoinFrom(sm_1)&#45;&gt;edge_as_node_22 -->
<g id="edge45" class="edge">
<title>JoinFrom(sm_1)&#45;&gt;edge_as_node_22</title>
<path fill="none" stroke="#d3d3d3" d="M775.06,-571.28C809.97,-557.24 855.4,-538.98 880.39,-528.93"/>
</g>
<!-- edge_as_node_26 -->
<g id="node42" class="node">
<title>edge_as_node_26</title>
<polygon fill="none" stroke="none" points="961.75,-496 838,-496 838,-481 961.75,-481 961.75,-496"/>
<text text-anchor="start" x="838" y="-490.3" font-family="Courier New" font-size="6.00" fill="#d3d3d3">tail: JoinFrom(sm_1)</text>
<text text-anchor="start" x="838" y="-482.8" font-family="Courier New" font-size="6.00" fill="#d3d3d3">head: Entity(sm_1_primary_entity)</text>
</g>
<!-- JoinFrom(sm_1)&#45;&gt;edge_as_node_26 -->
<g id="edge53" class="edge">
<title>JoinFrom(sm_1)&#45;&gt;edge_as_node_26</title>
<path fill="none" stroke="#d3d3d3" d="M759.53,-571.31C797.98,-548.46 860.31,-511.42 886.58,-495.81"/>
</g>
<!-- JoinTo(sm_1) -->
<g id="node14" class="node">
<title>JoinTo(sm_1)</title>
<polygon fill="#303030" stroke="#d3d3d3" points="783.25,-665.38 669.25,-665.38 669.25,-627.62 783.25,-627.62 783.25,-665.38"/>
<text text-anchor="start" x="681.25" y="-645.98" font-family="Courier New" font-size="12.00" fill="#d3d3d3">JoinTo(sm_1)</text>
<text text-anchor="start" x="677.25" y="-633.42" font-family="Courier New" font-size="6.00" fill="#d3d3d3">add_model: sm_1</text>
</g>
<!-- edge_as_node_7 -->
<g id="node26" class="node">
<title>edge_as_node_7</title>
<polygon fill="none" stroke="none" points="933.62,-694 866.12,-694 866.12,-679 933.62,-679 933.62,-694"/>
<text text-anchor="start" x="866.12" y="-688.3" font-family="Courier New" font-size="6.00" fill="#d3d3d3">tail: JoinTo(sm_1)</text>
<text text-anchor="start" x="866.12" y="-680.8" font-family="Courier New" font-size="6.00" fill="#d3d3d3">head: Dim(dim_0)</text>
</g>
<!-- JoinTo(sm_1)&#45;&gt;edge_as_node_7 -->
<g id="edge15" class="edge">
<title>JoinTo(sm_1)&#45;&gt;edge_as_node_7</title>
<path fill="none" stroke="#d3d3d3" d="M783.45,-659.6C811.21,-666.07 843.69,-673.64 867.11,-679.1"/>
</g>
<!-- edge_as_node_8 -->
<g id="node27" class="node">
<title>edge_as_node_8</title>
<polygon fill="none" stroke="none" points="973,-628 826.75,-628 826.75,-613 973,-613 973,-628"/>
<text text-anchor="start" x="826.75" y="-622.3" font-family="Courier New" font-size="6.00" fill="#d3d3d3">tail: JoinTo(sm_1)</text>
<text text-anchor="start" x="826.75" y="-614.8" font-family="Courier New" font-size="6.00" fill="#d3d3d3">head: DsiEntityKey(sm_1_primary_entity)</text>
</g>
<!-- JoinTo(sm_1)&#45;&gt;edge_as_node_8 -->
<g id="edge17" class="edge">
<title>JoinTo(sm_1)&#45;&gt;edge_as_node_8</title>
<path fill="none" stroke="#d3d3d3" d="M783.45,-637.99C804.76,-634.76 828.85,-631.11 849.49,-627.98"/>
</g>
<!-- MetricTimeDimension(YEAR) -->
<g id="node15" class="node">
<title>MetricTimeDimension(YEAR)</title>
<polygon fill="#303030" stroke="#d3d3d3" points="1250.5,-73.88 1039,-73.88 1039,-21.12 1250.5,-21.12 1250.5,-73.88"/>
<text text-anchor="start" x="1051" y="-54.48" font-family="Courier New" font-size="12.00" fill="#d3d3d3">MetricTimeDimension(YEAR)</text>
<text text-anchor="start" x="1047" y="-41.92" font-family="Courier New" font-size="6.00" fill="#d3d3d3">add_name: metric_time</text>
<text text-anchor="start" x="1047" y="-34.42" font-family="Courier New" font-size="6.00" fill="#d3d3d3">add_prop: METRIC_TIME</text>
<text text-anchor="start" x="1047" y="-26.93" font-family="Courier New" font-size="6.00" fill="#d3d3d3">add_type: TIME_DIMENSION</text>
</g>
<!-- edge_as_node_10 -->
<g id="node28" class="node">
<title>edge_as_node_10</title>
<polygon fill="none" stroke="none" points="1444,-170.75 1316.5,-170.75 1316.5,-148.25 1444,-148.25 1444,-170.75"/>
<text text-anchor="start" x="1316.5" y="-165.05" font-family="Courier New" font-size="6.00" fill="#d3d3d3">add_prop: DERIVED_TIME_GRANULARITY</text>
<text text-anchor="start" x="1316.5" y="-157.55" font-family="Courier New" font-size="6.00" fill="#d3d3d3">tail: MetricTimeDimension(YEAR)</text>
<text text-anchor="start" x="1316.5" y="-150.05" font-family="Courier New" font-size="6.00" fill="#d3d3d3">head: Time(custom_year)</text>
</g>
<!-- MetricTimeDimension(YEAR)&#45;&gt;edge_as_node_10 -->
<g id="edge21" class="edge">
<title>MetricTimeDimension(YEAR)&#45;&gt;edge_as_node_10</title>
<path fill="none" stroke="#d3d3d3" d="M1201.68,-74.33C1250.92,-97.95 1320.2,-131.18 1355.92,-148.31"/>
</g>
<!-- edge_as_node_11 -->
<g id="node29" class="node">
<title>edge_as_node_11</title>
<polygon fill="none" stroke="none" points="1438.38,-15 1322.12,-15 1322.12,0 1438.38,0 1438.38,-15"/>
<text text-anchor="start" x="1322.12" y="-9.3" font-family="Courier New" font-size="6.00" fill="#d3d3d3">tail: MetricTimeDimension(YEAR)</text>
<text text-anchor="start" x="1322.12" y="-1.8" font-family="Courier New" font-size="6.00" fill="#d3d3d3">head: Time(year)</text>
</g>
<!-- MetricTimeDimension(YEAR)&#45;&gt;edge_as_node_11 -->
<g id="edge23" class="edge">
<title>MetricTimeDimension(YEAR)&#45;&gt;edge_as_node_11</title>
<path fill="none" stroke="#d3d3d3" d="M1250.89,-29.49C1280.79,-24.37 1311.71,-19.07 1335.71,-14.96"/>
</g>
<!-- edge_as_node_12 -->
<g id="node30" class="node">
<title>edge_as_node_12</title>
<polygon fill="none" stroke="none" points="1444,-55.75 1316.5,-55.75 1316.5,-33.25 1444,-33.25 1444,-55.75"/>
<text text-anchor="start" x="1316.5" y="-50.05" font-family="Courier New" font-size="6.00" fill="#d3d3d3">add_prop: DERIVED_TIME_GRANULARITY</text>
<text text-anchor="start" x="1316.5" y="-42.55" font-family="Courier New" font-size="6.00" fill="#d3d3d3">tail: MetricTimeDimension(YEAR)</text>
<text text-anchor="start" x="1316.5" y="-35.05" font-family="Courier New" font-size="6.00" fill="#d3d3d3">head: Time(year)</text>
</g>
<!-- MetricTimeDimension(YEAR)&#45;&gt;edge_as_node_12 -->
<g id="edge25" class="edge">
<title>MetricTimeDimension(YEAR)&#45;&gt;edge_as_node_12</title>
<path fill="none" stroke="#d3d3d3" d="M1250.89,-46.15C1273.4,-45.86 1296.5,-45.56 1316.78,-45.3"/>
</g>
<!-- TimeDim(ds, year) -->
<g id="node16" class="node">
<title>TimeDim(ds, year)</title>
<polygon fill="#303030" stroke="#d3d3d3" points="1220.5,-137.12 1069,-137.12 1069,-91.88 1220.5,-91.88 1220.5,-137.12"/>
<text text-anchor="start" x="1081" y="-117.72" font-family="Courier New" font-size="12.00" fill="#d3d3d3">TimeDim(ds, year)</text>
<text text-anchor="start" x="1077" y="-105.17" font-family="Courier New" font-size="6.00" fill="#d3d3d3">add_name: ds</text>
<text text-anchor="start" x="1077" y="-97.67" font-family="Courier New" font-size="6.00" fill="#d3d3d3">add_type: TIME_DIMENSION</text>
</g>
<!-- edge_as_node_13 -->
<g id="node31" class="node">
<title>edge_as_node_13</title>
<polygon fill="none" stroke="none" points="1444,-211.75 1316.5,-211.75 1316.5,-189.25 1444,-189.25 1444,-211.75"/>
<text text-anchor="start" x="1316.5" y="-206.05" font-family="Courier New" font-size="6.00" fill="#d3d3d3">add_prop: DERIVED_TIME_GRANULARITY</text>
<text text-anchor="start" x="1316.5" y="-198.55" font-family="Courier New" font-size="6.00" fill="#d3d3d3">tail: TimeDim(ds, year)</text>
<text text-anchor="start" x="1316.5" y="-191.05" font-family="Courier New" font-size="6.00" fill="#d3d3d3">head: Time(custom_year)</text>
</g>
<!-- TimeDim(ds, year)&#45;&gt;edge_as_node_13 -->
<g id="edge27" class="edge">
<title>TimeDim(ds, year)&#45;&gt;edge_as_node_13</title>
<path fill="none" stroke="#d3d3d3" d="M1208.32,-137.55C1253.85,-154.31 1313.49,-176.28 1348.95,-189.34"/>
</g>
<!-- edge_as_node_14 -->
<g id="node32" class="node">
<title>edge_as_node_14</title>
<polygon fill="none" stroke="none" points="1423.38,-89 1337.12,-89 1337.12,-74 1423.38,-74 1423.38,-89"/>
<text text-anchor="start" x="1337.12" y="-83.3" font-family="Courier New" font-size="6.00" fill="#d3d3d3">tail: TimeDim(ds, year)</text>
<text text-anchor="start" x="1337.12" y="-75.8" font-family="Courier New" font-size="6.00" fill="#d3d3d3">head: Time(year)</text>
</g>
<!-- TimeDim(ds, year)&#45;&gt;edge_as_node_14 -->
<g id="edge29" class="edge">
<title>TimeDim(ds, year)&#45;&gt;edge_as_node_14</title>
<path fill="none" stroke="#d3d3d3" d="M1220.92,-103.88C1259.45,-98.43 1304.93,-92 1337.23,-87.44"/>
</g>
<!-- edge_as_node_15 -->
<g id="node33" class="node">
<title>edge_as_node_15</title>
<polygon fill="none" stroke="none" points="1444,-129.75 1316.5,-129.75 1316.5,-107.25 1444,-107.25 1444,-129.75"/>
<text text-anchor="start" x="1316.5" y="-124.05" font-family="Courier New" font-size="6.00" fill="#d3d3d3">add_prop: DERIVED_TIME_GRANULARITY</text>
<text text-anchor="start" x="1316.5" y="-116.55" font-family="Courier New" font-size="6.00" fill="#d3d3d3">tail: TimeDim(ds, year)</text>
<text text-anchor="start" x="1316.5" y="-109.05" font-family="Courier New" font-size="6.00" fill="#d3d3d3">head: Time(year)</text>
</g>
<!-- TimeDim(ds, year)&#45;&gt;edge_as_node_15 -->
<g id="edge31" class="edge">
<title>TimeDim(ds, year)&#45;&gt;edge_as_node_15</title>
<path fill="none" stroke="#d3d3d3" d="M1220.92,-115.79C1251.85,-116.32 1287.26,-116.92 1316.73,-117.43"/>
</g>
<!-- Time(custom_year) -->
<g id="node17" class="node">
<title>Time(custom_year)</title>
<polygon fill="#303030" stroke="#ffa07a" points="1631.5,-167.38 1480,-167.38 1480,-129.62 1631.5,-129.62 1631.5,-167.38"/>
<text text-anchor="start" x="1492" y="-147.97" font-family="Courier New" font-size="12.00" fill="#d3d3d3">Time(custom_year)</text>
<text text-anchor="start" x="1488" y="-135.43" font-family="Courier New" font-size="6.00" fill="#d3d3d3">add_name: custom_year</text>
</g>
<!-- Time(year) -->
<g id="node18" class="node">
<title>Time(year)</title>
<polygon fill="#303030" stroke="#ffa07a" points="1605.25,-111.38 1506.25,-111.38 1506.25,-73.62 1605.25,-73.62 1605.25,-111.38"/>
<text text-anchor="start" x="1518.25" y="-91.97" font-family="Courier New" font-size="12.00" fill="#d3d3d3">Time(year)</text>
<text text-anchor="start" x="1514.25" y="-79.42" font-family="Courier New" font-size="6.00" fill="#d3d3d3">add_name: year</text>
</g>
<!-- edge_as_node_0&#45;&gt;DsiEntityKey(sm_0_primary_entity) -->
<g id="edge2" class="edge">
<title>edge_as_node_0&#45;&gt;DsiEntityKey(sm_0_primary_entity)</title>
<path fill="none" stroke="#d3d3d3" d="M921.58,-429.92C951.67,-440.69 1009.22,-461.31 1058.21,-478.86"/>
<polygon fill="#303030" stroke="#d3d3d3" points="1056.82,-482.08 1067.42,-482.16 1059.18,-475.49 1056.82,-482.08"/>
</g>
<!-- edge_as_node_1&#45;&gt;DsiEntityKey(sm_1_primary_entity) -->
<g id="edge4" class="edge">
<title>edge_as_node_1&#45;&gt;DsiEntityKey(sm_1_primary_entity)</title>
<path fill="none" stroke="#d3d3d3" d="M970.8,-561.99C979.37,-562.9 988.35,-563.86 997.54,-564.85"/>
<polygon fill="#303030" stroke="#d3d3d3" points="997.01,-568.31 1007.32,-565.9 997.75,-561.35 997.01,-568.31"/>
</g>
<!-- edge_as_node_2&#45;&gt;TimeDim(ds, year) -->
<g id="edge6" class="edge">
<title>edge_as_node_2&#45;&gt;TimeDim(ds, year)</title>
<path fill="none" stroke="#d3d3d3" d="M911,-283.16C943.32,-259.74 1045.24,-185.89 1102.92,-144.09"/>
<polygon fill="#303030" stroke="#d3d3d3" points="1104.85,-147.01 1110.89,-138.31 1100.74,-141.34 1104.85,-147.01"/>
</g>
<!-- edge_as_node_3&#45;&gt;Dim(dim_0) -->
<g id="edge8" class="edge">
<title>edge_as_node_3&#45;&gt;Dim(dim_0)</title>
<path fill="none" stroke="#d3d3d3" d="M937.24,-652.6C975.91,-651.65 1037.71,-650.12 1083.64,-648.98"/>
<polygon fill="#303030" stroke="#d3d3d3" points="1083.53,-652.49 1093.44,-648.74 1083.36,-645.49 1083.53,-652.49"/>
</g>
<!-- edge_as_node_4&#45;&gt;DsiEntityKey(sm_1_primary_entity) -->
<g id="edge10" class="edge">
<title>edge_as_node_4&#45;&gt;DsiEntityKey(sm_1_primary_entity)</title>
<path fill="none" stroke="#d3d3d3" d="M972.76,-585.43C980.73,-585.2 989.05,-584.96 997.54,-584.71"/>
<polygon fill="#303030" stroke="#d3d3d3" points="997.38,-588.22 1007.27,-584.43 997.17,-581.22 997.38,-588.22"/>
</g>
<!-- edge_as_node_5&#45;&gt;DsiEntityKey(sm_0_primary_entity) -->
<g id="edge12" class="edge">
<title>edge_as_node_5&#45;&gt;DsiEntityKey(sm_0_primary_entity)</title>
<path fill="none" stroke="#d3d3d3" d="M907.88,-264.77C937.37,-295.37 1052.54,-414.86 1110.31,-474.81"/>
<polygon fill="#303030" stroke="#d3d3d3" points="1107.56,-476.99 1117.02,-481.77 1112.6,-472.14 1107.56,-476.99"/>
</g>
<!-- edge_as_node_6&#45;&gt;DsiEntityKey(sm_1_primary_entity) -->
<g id="edge14" class="edge">
<title>edge_as_node_6&#45;&gt;DsiEntityKey(sm_1_primary_entity)</title>
<path fill="none" stroke="#d3d3d3" d="M915.34,-462.94C947.31,-479.4 1025.56,-519.67 1081.55,-548.49"/>
<polygon fill="#303030" stroke="#d3d3d3" points="1079.89,-551.57 1090.39,-553.04 1083.1,-545.35 1079.89,-551.57"/>
</g>
<!-- edge_as_node_7&#45;&gt;Dim(dim_0) -->
<g id="edge16" class="edge">
<title>edge_as_node_7&#45;&gt;Dim(dim_0)</title>
<path fill="none" stroke="#d3d3d3" d="M933.38,-681.28C971.79,-675.11 1036.48,-664.72 1084.01,-657.09"/>
<polygon fill="#303030" stroke="#d3d3d3" points="1084.27,-660.6 1093.59,-655.55 1083.16,-653.68 1084.27,-660.6"/>
</g>
<!-- edge_as_node_8&#45;&gt;DsiEntityKey(sm_1_primary_entity) -->
<g id="edge18" class="edge">
<title>edge_as_node_8&#45;&gt;DsiEntityKey(sm_1_primary_entity)</title>
<path fill="none" stroke="#d3d3d3" d="M946.27,-613.02C961.3,-610.55 978.91,-607.65 997.34,-604.61"/>
<polygon fill="#303030" stroke="#d3d3d3" points="997.78,-608.09 1007.08,-603.01 996.65,-601.18 997.78,-608.09"/>
</g>
<!-- edge_as_node_10&#45;&gt;Time(custom_year) -->
<g id="edge22" class="edge">
<title>edge_as_node_10&#45;&gt;Time(custom_year)</title>
<path fill="none" stroke="#d3d3d3" d="M1443.89,-155.53C1451.9,-155.02 1460.2,-154.49 1468.5,-153.97"/>
<polygon fill="#303030" stroke="#d3d3d3" points="1468.52,-157.47 1478.27,-153.35 1468.07,-150.49 1468.52,-157.47"/>
</g>
<!-- edge_as_node_11&#45;&gt;Time(year) -->
<g id="edge24" class="edge">
<title>edge_as_node_11&#45;&gt;Time(year)</title>
<path fill="none" stroke="#d3d3d3" d="M1396.34,-14.89C1420.38,-26.67 1468.42,-50.2 1505.32,-68.28"/>
<polygon fill="#303030" stroke="#d3d3d3" points="1503.53,-71.3 1514.05,-72.56 1506.61,-65.02 1503.53,-71.3"/>
</g>
<!-- edge_as_node_12&#45;&gt;Time(year) -->
<g id="edge26" class="edge">
<title>edge_as_node_12&#45;&gt;Time(year)</title>
<path fill="none" stroke="#d3d3d3" d="M1421.49,-55.63C1443.28,-61.66 1470.63,-69.23 1494.87,-75.93"/>
<polygon fill="#303030" stroke="#d3d3d3" points="1493.73,-79.25 1504.3,-78.54 1495.59,-72.5 1493.73,-79.25"/>
</g>
<!-- edge_as_node_13&#45;&gt;Time(custom_year) -->
<g id="edge28" class="edge">
<title>edge_as_node_13&#45;&gt;Time(custom_year)</title>
<path fill="none" stroke="#d3d3d3" d="M1418.47,-189.34C1436.28,-184.01 1458.27,-177.42 1479.35,-171.1"/>
<polygon fill="#303030" stroke="#d3d3d3" points="1480.24,-174.48 1488.82,-168.26 1478.23,-167.78 1480.24,-174.48"/>
</g>
<!-- edge_as_node_14&#45;&gt;Time(year) -->
<g id="edge30" class="edge">
<title>edge_as_node_14&#45;&gt;Time(year)</title>
<path fill="none" stroke="#d3d3d3" d="M1423.25,-84.16C1444.62,-85.52 1470.99,-87.19 1494.49,-88.68"/>
<polygon fill="#303030" stroke="#d3d3d3" points="1494.04,-92.16 1504.25,-89.3 1494.49,-85.17 1494.04,-92.16"/>
</g>
<!-- edge_as_node_15&#45;&gt;Time(year) -->
<g id="edge32" class="edge">
<title>edge_as_node_15&#45;&gt;Time(year)</title>
<path fill="none" stroke="#d3d3d3" d="M1443.89,-109.11C1460.45,-106.63 1478.28,-103.96 1494.71,-101.5"/>
<polygon fill="#303030" stroke="#d3d3d3" points="1494.95,-105 1504.32,-100.06 1493.91,-98.08 1494.95,-105"/>
</g>
<!-- edge_as_node_18&#45;&gt;MetricTimeDimension(YEAR) -->
<g id="edge38" class="edge">
<title>edge_as_node_18&#45;&gt;MetricTimeDimension(YEAR)</title>
<path fill="none" stroke="#d3d3d3" d="M955.99,-73.01C977.23,-70.13 1002.37,-66.71 1027.24,-63.33"/>
<polygon fill="#303030" stroke="#d3d3d3" points="1027.69,-66.8 1037.13,-61.99 1026.75,-59.86 1027.69,-66.8"/>
</g>
<!-- edge_as_node_19&#45;&gt;JoinTo(sm_0) -->
<g id="edge40" class="edge">
<title>edge_as_node_19&#45;&gt;JoinTo(sm_0)</title>
<path fill="none" stroke="#d3d3d3" d="M1318.41,-328.6C1195.82,-314.91 922.83,-284.44 794.89,-270.16"/>
<polygon fill="#303030" stroke="#d3d3d3" points="795.55,-266.71 785.22,-269.08 794.77,-273.67 795.55,-266.71"/>
</g>
<!-- edge_as_node_20&#45;&gt;JoinTo(sm_1) -->
<g id="edge42" class="edge">
<title>edge_as_node_20&#45;&gt;JoinTo(sm_1)</title>
<path fill="none" stroke="#d3d3d3" d="M1318.41,-678.19C1195.82,-671.63 922.83,-657.02 794.89,-650.17"/>
<polygon fill="#303030" stroke="#d3d3d3" points="795.4,-646.7 785.23,-649.66 795.02,-653.69 795.4,-646.7"/>
</g>
<!-- edge_as_node_21&#45;&gt;Entity(sm_0_primary_entity) -->
<g id="edge44" class="edge">
<title>edge_as_node_21&#45;&gt;Entity(sm_0_primary_entity)</title>
<path fill="none" stroke="#d3d3d3" d="M961.54,-356.5C979.44,-356.5 999.71,-356.5 1020.07,-356.5"/>
<polygon fill="#303030" stroke="#d3d3d3" points="1019.86,-360 1029.86,-356.5 1019.86,-353 1019.86,-360"/>
</g>
<!-- edge_as_node_22&#45;&gt;Entity(sm_1_primary_entity) -->
<g id="edge46" class="edge">
<title>edge_as_node_22&#45;&gt;Entity(sm_1_primary_entity)</title>
<path fill="none" stroke="#d3d3d3" d="M917.57,-514.01C952.71,-498.24 1035.59,-461.04 1090.67,-436.32"/>
<polygon fill="#303030" stroke="#d3d3d3" points="1091.88,-439.62 1099.57,-432.33 1089.01,-433.23 1091.88,-439.62"/>
</g>
<!-- edge_as_node_23&#45;&gt;TimeDim(ds, year) -->
<g id="edge48" class="edge">
<title>edge_as_node_23&#45;&gt;TimeDim(ds, year)</title>
<path fill="none" stroke="#d3d3d3" d="M942.9,-127.73C974.41,-125.66 1018.63,-122.74 1057.55,-120.18"/>
<polygon fill="#303030" stroke="#d3d3d3" points="1057.65,-123.68 1067.4,-119.53 1057.19,-116.69 1057.65,-123.68"/>
</g>
<!-- edge_as_node_24&#45;&gt;Entity(sm_0_primary_entity) -->
<g id="edge50" class="edge">
<title>edge_as_node_24&#45;&gt;Entity(sm_0_primary_entity)</title>
<path fill="none" stroke="#d3d3d3" d="M955.99,-330.99C975.14,-333.59 997.48,-336.63 1019.92,-339.67"/>
<polygon fill="#303030" stroke="#d3d3d3" points="1019.41,-343.14 1029.79,-341.02 1020.35,-336.2 1019.41,-343.14"/>
</g>
<!-- edge_as_node_25&#45;&gt;Entity(sm_1_primary_entity) -->
<g id="edge52" class="edge">
<title>edge_as_node_25&#45;&gt;Entity(sm_1_primary_entity)</title>
<path fill="none" stroke="#d3d3d3" d="M961.54,-395.24C979.44,-396.94 999.71,-398.86 1020.07,-400.79"/>
<polygon fill="#303030" stroke="#d3d3d3" points="1019.58,-404.26 1029.87,-401.72 1020.24,-397.29 1019.58,-404.26"/>
</g>
<!-- edge_as_node_26&#45;&gt;Entity(sm_1_primary_entity) -->
<g id="edge54" class="edge">
<title>edge_as_node_26&#45;&gt;Entity(sm_1_primary_entity)</title>
<path fill="none" stroke="#d3d3d3" d="M924.61,-481.07C958.24,-470.55 1021.25,-450.83 1071.1,-435.23"/>
<polygon fill="#303030" stroke="#d3d3d3" points="1071.9,-438.65 1080.4,-432.32 1069.81,-431.97 1071.9,-438.65"/>
</g>
<!-- edge_as_node_27&#45;&gt;JoinTo(sm_0) -->
<g id="edge56" class="edge">
<title>edge_as_node_27&#45;&gt;JoinTo(sm_0)</title>
<path fill="none" stroke="#d3d3d3" d="M1318.41,-259.78C1195.82,-260.35 922.83,-261.6 794.89,-262.19"/>
<polygon fill="#303030" stroke="#d3d3d3" points="795.21,-258.68 785.23,-262.23 795.24,-265.68 795.21,-258.68"/>
</g>
<!-- edge_as_node_28&#45;&gt;JoinTo(sm_1) -->
<g id="edge58" class="edge">
<title>edge_as_node_28&#45;&gt;JoinTo(sm_1)</title>
<path fill="none" stroke="#d3d3d3" d="M1348.84,-498.94C1248.59,-522.7 934.6,-597.12 794.69,-630.28"/>
<polygon fill="#303030" stroke="#d3d3d3" points="794.11,-626.82 785.19,-632.53 795.73,-633.63 794.11,-626.82"/>
</g>
</g>
</svg>
