<?xml version="1.0" encoding="UTF-8" standalone="no"?>
<!DOCTYPE svg PUBLIC "-//W3C//DTD SVG 1.1//EN"
 "http://www.w3.org/Graphics/SVG/1.1/DTD/svg11.dtd">
<!-- Generated by graphviz version 12.2.1 (20241206.2353)
 -->
<!-- Pages: 1 -->
<svg width="1779pt" height="781pt"
 viewBox="0.00 0.00 1779.25 780.50" xmlns="http://www.w3.org/2000/svg" xmlns:xlink="http://www.w3.org/1999/xlink">
<g id="graph0" class="graph" transform="scale(1 1) rotate(0) translate(4 776.5)">
<polygon fill="#181818" stroke="none" points="-4,4 -4,-776.5 1775.25,-776.5 1775.25,4 -4,4"/>
<g id="clust1" class="cluster">
<title>cluster_sm_1</title>
<polygon fill="#181818" stroke="#000000" stroke-width="3" points="1079.75,-632.25 1079.75,-763.25 1224.75,-763.25 1224.75,-632.25 1079.75,-632.25"/>
<text text-anchor="middle" x="1152.25" y="-749.75" font-family="Courier New" font-size="10.00" fill="#d3d3d3">sm_1</text>
</g>
<g id="clust2" class="cluster">
<title>cluster_other_attribute</title>
<polygon fill="#181818" stroke="#000000" stroke-width="3" points="1475.75,-401.25 1475.75,-695.25 1763.25,-695.25 1763.25,-401.25 1475.75,-401.25"/>
<text text-anchor="middle" x="1619.5" y="-681.75" font-family="Courier New" font-size="10.00" fill="#d3d3d3">other_attribute</text>
</g>
<g id="clust3" class="cluster">
<title>cluster_sm_0</title>
<polygon fill="#181818" stroke="#000000" stroke-width="3" points="8,-309.25 8,-440.25 828.75,-440.25 828.75,-309.25 8,-309.25"/>
<text text-anchor="middle" x="418.38" y="-426.75" font-family="Courier New" font-size="10.00" fill="#d3d3d3">sm_0</text>
</g>
<g id="clust4" class="cluster">
<title>cluster_model_entity</title>
<polygon fill="#181818" stroke="#000000" stroke-width="3" points="1031,-405.25 1031,-536.25 1273.5,-536.25 1273.5,-405.25 1031,-405.25"/>
<text text-anchor="middle" x="1152.25" y="-522.75" font-family="Courier New" font-size="10.00" fill="#d3d3d3">model_entity</text>
</g>
<g id="clust5" class="cluster">
<title>cluster_time_dimension</title>
<polygon fill="#181818" stroke="#000000" stroke-width="3" points="1038.5,-109.25 1038.5,-261.25 1266,-261.25 1266,-109.25 1038.5,-109.25"/>
<text text-anchor="middle" x="1152.25" y="-247.75" font-family="Courier New" font-size="10.00" fill="#d3d3d3">time_dimension</text>
</g>
<g id="clust6" class="cluster">
<title>cluster_time_attribute</title>
<polygon fill="#181818" stroke="#000000" stroke-width="3" points="1535.75,-66.25 1535.75,-197.25 1703.25,-197.25 1703.25,-66.25 1535.75,-66.25"/>
<text text-anchor="middle" x="1619.5" y="-183.75" font-family="Courier New" font-size="10.00" fill="#d3d3d3">time_attribute</text>
</g>
<!-- JoinTo(sm_1) -->
<g id="node1" class="node">
<title>JoinTo(sm_1)</title>
<polygon fill="#303030" stroke="#d3d3d3" points="1209.25,-734.12 1095.25,-734.12 1095.25,-696.38 1209.25,-696.38 1209.25,-734.12"/>
<text text-anchor="start" x="1107.25" y="-714.73" font-family="Courier New" font-size="12.00" fill="#d3d3d3">JoinTo(sm_1)</text>
<text text-anchor="start" x="1103.25" y="-702.17" font-family="Courier New" font-size="6.00" fill="#d3d3d3">add_model: sm_1</text>
</g>
<!-- edge_as_node_0 -->
<g id="node20" class="node">
<title>edge_as_node_0</title>
<polygon fill="none" stroke="none" points="1421.5,-772.5 1327.75,-772.5 1327.75,-750 1421.5,-750 1421.5,-772.5"/>
<text text-anchor="start" x="1327.75" y="-766.8" font-family="Courier New" font-size="6.00" fill="#d3d3d3">type: EntityAttributeEdge</text>
<text text-anchor="start" x="1327.75" y="-759.3" font-family="Courier New" font-size="6.00" fill="#d3d3d3">tail: JoinTo(sm_1)</text>
<text text-anchor="start" x="1327.75" y="-751.8" font-family="Courier New" font-size="6.00" fill="#d3d3d3">head: Dim(dim_0)</text>
</g>
<!-- JoinTo(sm_1)&#45;&gt;edge_as_node_0 -->
<g id="edge1" class="edge">
<title>JoinTo(sm_1)&#45;&gt;edge_as_node_0</title>
<path fill="none" stroke="#d3d3d3" d="M1209.72,-727.04C1246.44,-734.7 1293.71,-744.57 1328.05,-751.74"/>
</g>
<!-- edge_as_node_6 -->
<g id="node26" class="node">
<title>edge_as_node_6</title>
<polygon fill="none" stroke="none" points="1447.75,-731.5 1301.5,-731.5 1301.5,-709 1447.75,-709 1447.75,-731.5"/>
<text text-anchor="start" x="1301.5" y="-725.8" font-family="Courier New" font-size="6.00" fill="#d3d3d3">type: EntityAttributeEdge</text>
<text text-anchor="start" x="1301.5" y="-718.3" font-family="Courier New" font-size="6.00" fill="#d3d3d3">tail: JoinTo(sm_1)</text>
<text text-anchor="start" x="1301.5" y="-710.8" font-family="Courier New" font-size="6.00" fill="#d3d3d3">head: DsiEntityKey(sm_1_primary_entity)</text>
</g>
<!-- JoinTo(sm_1)&#45;&gt;edge_as_node_6 -->
<g id="edge13" class="edge">
<title>JoinTo(sm_1)&#45;&gt;edge_as_node_6</title>
<path fill="none" stroke="#d3d3d3" d="M1209.72,-716.53C1237.77,-717.17 1271.98,-717.94 1301.87,-718.62"/>
</g>
<!-- JoinFrom(sm_1) -->
<g id="node2" class="node">
<title>JoinFrom(sm_1)</title>
<polygon fill="#303030" stroke="#d3d3d3" points="1216.75,-678.12 1087.75,-678.12 1087.75,-640.38 1216.75,-640.38 1216.75,-678.12"/>
<text text-anchor="start" x="1099.75" y="-658.73" font-family="Courier New" font-size="12.00" fill="#d3d3d3">JoinFrom(sm_1)</text>
<text text-anchor="start" x="1095.75" y="-646.17" font-family="Courier New" font-size="6.00" fill="#d3d3d3">add_model: sm_1</text>
</g>
<!-- edge_as_node_1 -->
<g id="node21" class="node">
<title>edge_as_node_1</title>
<polygon fill="none" stroke="none" points="1421.5,-690.5 1327.75,-690.5 1327.75,-668 1421.5,-668 1421.5,-690.5"/>
<text text-anchor="start" x="1327.75" y="-684.8" font-family="Courier New" font-size="6.00" fill="#d3d3d3">type: EntityAttributeEdge</text>
<text text-anchor="start" x="1327.75" y="-677.3" font-family="Courier New" font-size="6.00" fill="#d3d3d3">tail: JoinFrom(sm_1)</text>
<text text-anchor="start" x="1327.75" y="-669.8" font-family="Courier New" font-size="6.00" fill="#d3d3d3">head: Dim(dim_0)</text>
</g>
<!-- JoinFrom(sm_1)&#45;&gt;edge_as_node_1 -->
<g id="edge3" class="edge">
<title>JoinFrom(sm_1)&#45;&gt;edge_as_node_1</title>
<path fill="none" stroke="#d3d3d3" d="M1216.99,-665.03C1252.46,-668.25 1295.78,-672.19 1327.87,-675.1"/>
</g>
<!-- edge_as_node_7 -->
<g id="node27" class="node">
<title>edge_as_node_7</title>
<polygon fill="none" stroke="none" points="1447.75,-608.5 1301.5,-608.5 1301.5,-586 1447.75,-586 1447.75,-608.5"/>
<text text-anchor="start" x="1301.5" y="-602.8" font-family="Courier New" font-size="6.00" fill="#d3d3d3">type: EntityAttributeEdge</text>
<text text-anchor="start" x="1301.5" y="-595.3" font-family="Courier New" font-size="6.00" fill="#d3d3d3">tail: JoinFrom(sm_1)</text>
<text text-anchor="start" x="1301.5" y="-587.8" font-family="Courier New" font-size="6.00" fill="#d3d3d3">head: DsiEntityKey(sm_1_primary_entity)</text>
</g>
<!-- JoinFrom(sm_1)&#45;&gt;edge_as_node_7 -->
<g id="edge15" class="edge">
<title>JoinFrom(sm_1)&#45;&gt;edge_as_node_7</title>
<path fill="none" stroke="#d3d3d3" d="M1216.99,-641.32C1254.75,-630.7 1301.41,-617.57 1333.93,-608.42"/>
</g>
<!-- edge_as_node_12 -->
<g id="node32" class="node">
<title>edge_as_node_12</title>
<polygon fill="none" stroke="none" points="1436.5,-530.5 1312.75,-530.5 1312.75,-508 1436.5,-508 1436.5,-530.5"/>
<text text-anchor="start" x="1312.75" y="-524.8" font-family="Courier New" font-size="6.00" fill="#d3d3d3">type: JoinFromModelEdge</text>
<text text-anchor="start" x="1312.75" y="-517.3" font-family="Courier New" font-size="6.00" fill="#d3d3d3">tail: JoinFrom(sm_1)</text>
<text text-anchor="start" x="1312.75" y="-509.8" font-family="Courier New" font-size="6.00" fill="#d3d3d3">head: Entity(sm_1_primary_entity)</text>
</g>
<!-- JoinFrom(sm_1)&#45;&gt;edge_as_node_12 -->
<g id="edge25" class="edge">
<title>JoinFrom(sm_1)&#45;&gt;edge_as_node_12</title>
<path fill="none" stroke="#d3d3d3" d="M1183.43,-640.08C1230.11,-610.42 1318.36,-554.36 1355.95,-530.48"/>
</g>
<!-- Dim(dim_0) -->
<g id="node3" class="node">
<title>Dim(dim_0)</title>
<polygon fill="#303030" stroke="#ffa07a" points="1669,-666.88 1570,-666.88 1570,-621.62 1669,-621.62 1669,-666.88"/>
<text text-anchor="start" x="1582" y="-647.48" font-family="Courier New" font-size="12.00" fill="#d3d3d3">Dim(dim_0)</text>
<text text-anchor="start" x="1578" y="-634.92" font-family="Courier New" font-size="6.00" fill="#d3d3d3">add_name: dim_0</text>
<text text-anchor="start" x="1578" y="-627.42" font-family="Courier New" font-size="6.00" fill="#d3d3d3">add_type: DIMENSION</text>
</g>
<!-- DsiEntityKey(sm_0_primary_entity) -->
<g id="node4" class="node">
<title>DsiEntityKey(sm_0_primary_entity)</title>
<polygon fill="#303030" stroke="#ffa07a" points="1755.25,-461.62 1483.75,-461.62 1483.75,-408.88 1755.25,-408.88 1755.25,-461.62"/>
<text text-anchor="start" x="1495.75" y="-442.23" font-family="Courier New" font-size="12.00" fill="#d3d3d3">DsiEntityKey(sm_0_primary_entity)</text>
<text text-anchor="start" x="1491.75" y="-429.68" font-family="Courier New" font-size="6.00" fill="#d3d3d3">add_name: sm_0_primary_entity</text>
<text text-anchor="start" x="1491.75" y="-422.18" font-family="Courier New" font-size="6.00" fill="#d3d3d3">add_prop: ENTITY</text>
<text text-anchor="start" x="1491.75" y="-414.68" font-family="Courier New" font-size="6.00" fill="#d3d3d3">add_type: ENTITY</text>
</g>
<!-- DsiEntityKey(sm_1_primary_entity) -->
<g id="node5" class="node">
<title>DsiEntityKey(sm_1_primary_entity)</title>
<polygon fill="#303030" stroke="#ffa07a" points="1755.25,-603.62 1483.75,-603.62 1483.75,-550.88 1755.25,-550.88 1755.25,-603.62"/>
<text text-anchor="start" x="1495.75" y="-584.23" font-family="Courier New" font-size="12.00" fill="#d3d3d3">DsiEntityKey(sm_1_primary_entity)</text>
<text text-anchor="start" x="1491.75" y="-571.67" font-family="Courier New" font-size="6.00" fill="#d3d3d3">add_name: sm_1_primary_entity</text>
<text text-anchor="start" x="1491.75" y="-564.17" font-family="Courier New" font-size="6.00" fill="#d3d3d3">add_prop: ENTITY</text>
<text text-anchor="start" x="1491.75" y="-556.67" font-family="Courier New" font-size="6.00" fill="#d3d3d3">add_type: ENTITY</text>
</g>
<!-- Metric(sm_0_measure_0_metric) -->
<g id="node6" class="node">
<title>Metric(sm_0_measure_0_metric)</title>
<polygon fill="#303030" stroke="#ffa07a" points="1740.25,-532.62 1498.75,-532.62 1498.75,-479.88 1740.25,-479.88 1740.25,-532.62"/>
<text text-anchor="start" x="1510.75" y="-513.23" font-family="Courier New" font-size="12.00" fill="#d3d3d3">Metric(sm_0_measure_0_metric)</text>
<text text-anchor="start" x="1506.75" y="-500.68" font-family="Courier New" font-size="6.00" fill="#d3d3d3">add_name: sm_0_measure_0_metric</text>
<text text-anchor="start" x="1506.75" y="-493.18" font-family="Courier New" font-size="6.00" fill="#d3d3d3">add_prop: METRIC</text>
<text text-anchor="start" x="1506.75" y="-485.68" font-family="Courier New" font-size="6.00" fill="#d3d3d3">add_type: METRIC</text>
</g>
<!-- JoinTo(sm_0) -->
<g id="node7" class="node">
<title>JoinTo(sm_0)</title>
<polygon fill="#303030" stroke="#d3d3d3" points="813.25,-355.12 699.25,-355.12 699.25,-317.38 813.25,-317.38 813.25,-355.12"/>
<text text-anchor="start" x="711.25" y="-335.73" font-family="Courier New" font-size="12.00" fill="#d3d3d3">JoinTo(sm_0)</text>
<text text-anchor="start" x="707.25" y="-323.18" font-family="Courier New" font-size="6.00" fill="#d3d3d3">add_model: sm_0</text>
</g>
<!-- edge_as_node_2 -->
<g id="node22" class="node">
<title>edge_as_node_2</title>
<polygon fill="none" stroke="none" points="1003,-273.5 856.75,-273.5 856.75,-251 1003,-251 1003,-273.5"/>
<text text-anchor="start" x="856.75" y="-267.8" font-family="Courier New" font-size="6.00" fill="#d3d3d3">type: EntityAttributeEdge</text>
<text text-anchor="start" x="856.75" y="-260.3" font-family="Courier New" font-size="6.00" fill="#d3d3d3">tail: JoinTo(sm_0)</text>
<text text-anchor="start" x="856.75" y="-252.8" font-family="Courier New" font-size="6.00" fill="#d3d3d3">head: DsiEntityKey(sm_0_primary_entity)</text>
</g>
<!-- JoinTo(sm_0)&#45;&gt;edge_as_node_2 -->
<g id="edge5" class="edge">
<title>JoinTo(sm_0)&#45;&gt;edge_as_node_2</title>
<path fill="none" stroke="#d3d3d3" d="M801.89,-317C834.07,-303.13 876.38,-284.89 903.1,-273.36"/>
</g>
<!-- edge_as_node_4 -->
<g id="node24" class="node">
<title>edge_as_node_4</title>
<polygon fill="none" stroke="none" points="1003,-547.5 856.75,-547.5 856.75,-525 1003,-525 1003,-547.5"/>
<text text-anchor="start" x="856.75" y="-541.8" font-family="Courier New" font-size="6.00" fill="#d3d3d3">type: EntityAttributeEdge</text>
<text text-anchor="start" x="856.75" y="-534.3" font-family="Courier New" font-size="6.00" fill="#d3d3d3">tail: JoinTo(sm_0)</text>
<text text-anchor="start" x="856.75" y="-526.8" font-family="Courier New" font-size="6.00" fill="#d3d3d3">head: DsiEntityKey(sm_1_primary_entity)</text>
</g>
<!-- JoinTo(sm_0)&#45;&gt;edge_as_node_4 -->
<g id="edge9" class="edge">
<title>JoinTo(sm_0)&#45;&gt;edge_as_node_4</title>
<path fill="none" stroke="#d3d3d3" d="M773.71,-355.43C809.11,-396.69 891.57,-492.77 919.46,-525.28"/>
</g>
<!-- edge_as_node_22 -->
<g id="node39" class="node">
<title>edge_as_node_22</title>
<polygon fill="none" stroke="none" points="982.38,-223.5 877.38,-223.5 877.38,-201 982.38,-201 982.38,-223.5"/>
<text text-anchor="start" x="877.38" y="-217.8" font-family="Courier New" font-size="6.00" fill="#d3d3d3">type: EntityRelationshipEdge</text>
<text text-anchor="start" x="877.38" y="-210.3" font-family="Courier New" font-size="6.00" fill="#d3d3d3">tail: JoinTo(sm_0)</text>
<text text-anchor="start" x="877.38" y="-202.8" font-family="Courier New" font-size="6.00" fill="#d3d3d3">head: TimeDim(ds, year)</text>
</g>
<!-- JoinTo(sm_0)&#45;&gt;edge_as_node_22 -->
<g id="edge45" class="edge">
<title>JoinTo(sm_0)&#45;&gt;edge_as_node_22</title>
<path fill="none" stroke="#d3d3d3" d="M784.07,-316.88C820.46,-290.58 884.28,-244.47 913.49,-223.36"/>
</g>
<!-- JoinFrom(sm_0) -->
<g id="node8" class="node">
<title>JoinFrom(sm_0)</title>
<polygon fill="#303030" stroke="#d3d3d3" points="820.75,-411.12 691.75,-411.12 691.75,-373.38 820.75,-373.38 820.75,-411.12"/>
<text text-anchor="start" x="703.75" y="-391.73" font-family="Courier New" font-size="12.00" fill="#d3d3d3">JoinFrom(sm_0)</text>
<text text-anchor="start" x="699.75" y="-379.18" font-family="Courier New" font-size="6.00" fill="#d3d3d3">add_model: sm_0</text>
</g>
<!-- edge_as_node_3 -->
<g id="node23" class="node">
<title>edge_as_node_3</title>
<polygon fill="none" stroke="none" points="1003,-596.5 856.75,-596.5 856.75,-574 1003,-574 1003,-596.5"/>
<text text-anchor="start" x="856.75" y="-590.8" font-family="Courier New" font-size="6.00" fill="#d3d3d3">type: EntityAttributeEdge</text>
<text text-anchor="start" x="856.75" y="-583.3" font-family="Courier New" font-size="6.00" fill="#d3d3d3">tail: JoinFrom(sm_0)</text>
<text text-anchor="start" x="856.75" y="-575.8" font-family="Courier New" font-size="6.00" fill="#d3d3d3">head: DsiEntityKey(sm_0_primary_entity)</text>
</g>
<!-- JoinFrom(sm_0)&#45;&gt;edge_as_node_3 -->
<g id="edge7" class="edge">
<title>JoinFrom(sm_0)&#45;&gt;edge_as_node_3</title>
<path fill="none" stroke="#d3d3d3" d="M774.33,-411.46C809.94,-451.51 891.12,-542.8 919.15,-574.31"/>
</g>
<!-- edge_as_node_5 -->
<g id="node25" class="node">
<title>edge_as_node_5</title>
<polygon fill="none" stroke="none" points="1003,-397.5 856.75,-397.5 856.75,-375 1003,-375 1003,-397.5"/>
<text text-anchor="start" x="856.75" y="-391.8" font-family="Courier New" font-size="6.00" fill="#d3d3d3">type: EntityAttributeEdge</text>
<text text-anchor="start" x="856.75" y="-384.3" font-family="Courier New" font-size="6.00" fill="#d3d3d3">tail: JoinFrom(sm_0)</text>
<text text-anchor="start" x="856.75" y="-376.8" font-family="Courier New" font-size="6.00" fill="#d3d3d3">head: DsiEntityKey(sm_1_primary_entity)</text>
</g>
<!-- JoinFrom(sm_0)&#45;&gt;edge_as_node_5 -->
<g id="edge11" class="edge">
<title>JoinFrom(sm_0)&#45;&gt;edge_as_node_5</title>
<path fill="none" stroke="#d3d3d3" d="M821.16,-390.02C832.78,-389.61 844.99,-389.18 856.83,-388.77"/>
</g>
<!-- edge_as_node_9 -->
<g id="node29" class="node">
<title>edge_as_node_9</title>
<polygon fill="none" stroke="none" points="991.75,-441.5 868,-441.5 868,-419 991.75,-419 991.75,-441.5"/>
<text text-anchor="start" x="868" y="-435.8" font-family="Courier New" font-size="6.00" fill="#d3d3d3">type: JoinFromModelEdge</text>
<text text-anchor="start" x="868" y="-428.3" font-family="Courier New" font-size="6.00" fill="#d3d3d3">tail: JoinFrom(sm_0)</text>
<text text-anchor="start" x="868" y="-420.8" font-family="Courier New" font-size="6.00" fill="#d3d3d3">head: Entity(sm_0_primary_entity)</text>
</g>
<!-- JoinFrom(sm_0)&#45;&gt;edge_as_node_9 -->
<g id="edge19" class="edge">
<title>JoinFrom(sm_0)&#45;&gt;edge_as_node_9</title>
<path fill="none" stroke="#d3d3d3" d="M821.16,-406.4C840.03,-410.58 860.41,-415.09 878.32,-419.06"/>
</g>
<!-- edge_as_node_10 -->
<g id="node30" class="node">
<title>edge_as_node_10</title>
<polygon fill="none" stroke="none" points="991.75,-491.5 868,-491.5 868,-469 991.75,-469 991.75,-491.5"/>
<text text-anchor="start" x="868" y="-485.8" font-family="Courier New" font-size="6.00" fill="#d3d3d3">type: JoinFromModelEdge</text>
<text text-anchor="start" x="868" y="-478.3" font-family="Courier New" font-size="6.00" fill="#d3d3d3">tail: JoinFrom(sm_0)</text>
<text text-anchor="start" x="868" y="-470.8" font-family="Courier New" font-size="6.00" fill="#d3d3d3">head: Entity(sm_1_primary_entity)</text>
</g>
<!-- JoinFrom(sm_0)&#45;&gt;edge_as_node_10 -->
<g id="edge21" class="edge">
<title>JoinFrom(sm_0)&#45;&gt;edge_as_node_10</title>
<path fill="none" stroke="#d3d3d3" d="M794.91,-411.56C829.25,-429.17 878.8,-454.57 907.02,-469.04"/>
</g>
<!-- edge_as_node_23 -->
<g id="node40" class="node">
<title>edge_as_node_23</title>
<polygon fill="none" stroke="none" points="976.75,-314.5 883,-314.5 883,-292 976.75,-292 976.75,-314.5"/>
<text text-anchor="start" x="883" y="-308.8" font-family="Courier New" font-size="6.00" fill="#d3d3d3">type: EntityAttributeEdge</text>
<text text-anchor="start" x="883" y="-301.3" font-family="Courier New" font-size="6.00" fill="#d3d3d3">tail: JoinFrom(sm_0)</text>
<text text-anchor="start" x="883" y="-293.8" font-family="Courier New" font-size="6.00" fill="#d3d3d3">head: TimeDim(ds, year)</text>
</g>
<!-- JoinFrom(sm_0)&#45;&gt;edge_as_node_23 -->
<g id="edge47" class="edge">
<title>JoinFrom(sm_0)&#45;&gt;edge_as_node_23</title>
<path fill="none" stroke="#d3d3d3" d="M794.49,-372.94C829,-355.04 879.12,-329.05 907.39,-314.39"/>
</g>
<!-- Agg(sm_0, ds) -->
<g id="node9" class="node">
<title>Agg(sm_0, ds)</title>
<polygon fill="#303030" stroke="#d3d3d3" points="514.75,-354.25 393.25,-354.25 393.25,-318.25 514.75,-318.25 514.75,-354.25"/>
<text text-anchor="start" x="405.25" y="-331.98" font-family="Courier New" font-size="12.00" fill="#d3d3d3">Agg(sm_0, ds)</text>
</g>
<!-- edge_as_node_17 -->
<g id="node11" class="node">
<title>edge_as_node_17</title>
<polygon fill="none" stroke="none" points="655.75,-395.5 550.75,-395.5 550.75,-373 655.75,-373 655.75,-395.5"/>
<text text-anchor="start" x="550.75" y="-389.8" font-family="Courier New" font-size="6.00" fill="#d3d3d3">type: EntityRelationshipEdge</text>
<text text-anchor="start" x="550.75" y="-382.3" font-family="Courier New" font-size="6.00" fill="#d3d3d3">tail: Agg(sm_0, ds)</text>
<text text-anchor="start" x="550.75" y="-374.8" font-family="Courier New" font-size="6.00" fill="#d3d3d3">head: JoinFrom(sm_0)</text>
</g>
<!-- Agg(sm_0, ds)&#45;&gt;edge_as_node_17 -->
<g id="edge35" class="edge">
<title>Agg(sm_0, ds)&#45;&gt;edge_as_node_17</title>
<path fill="none" stroke="#d3d3d3" d="M511.51,-354.67C530.49,-360.86 551.07,-367.57 567.83,-373.03"/>
</g>
<!-- edge_as_node_18 -->
<g id="node12" class="node">
<title>edge_as_node_18</title>
<polygon fill="none" stroke="none" points="655.75,-347.5 550.75,-347.5 550.75,-325 655.75,-325 655.75,-347.5"/>
<text text-anchor="start" x="550.75" y="-341.8" font-family="Courier New" font-size="6.00" fill="#d3d3d3">type: EntityRelationshipEdge</text>
<text text-anchor="start" x="550.75" y="-334.3" font-family="Courier New" font-size="6.00" fill="#d3d3d3">tail: Agg(sm_0, ds)</text>
<text text-anchor="start" x="550.75" y="-326.8" font-family="Courier New" font-size="6.00" fill="#d3d3d3">head: JoinTo(sm_0)</text>
</g>
<!-- Agg(sm_0, ds)&#45;&gt;edge_as_node_18 -->
<g id="edge37" class="edge">
<title>Agg(sm_0, ds)&#45;&gt;edge_as_node_18</title>
<path fill="none" stroke="#d3d3d3" d="M514.89,-336.25C526.84,-336.25 539.28,-336.25 550.9,-336.25"/>
</g>
<!-- edge_as_node_13 -->
<g id="node33" class="node">
<title>edge_as_node_13</title>
<polygon fill="none" stroke="none" points="988,-169.5 871.75,-169.5 871.75,-147 988,-147 988,-169.5"/>
<text text-anchor="start" x="871.75" y="-163.8" font-family="Courier New" font-size="6.00" fill="#d3d3d3">type: EntityRelationshipEdge</text>
<text text-anchor="start" x="871.75" y="-156.3" font-family="Courier New" font-size="6.00" fill="#d3d3d3">tail: Agg(sm_0, ds)</text>
<text text-anchor="start" x="871.75" y="-148.8" font-family="Courier New" font-size="6.00" fill="#d3d3d3">head: MetricTimeDimension(YEAR)</text>
</g>
<!-- Agg(sm_0, ds)&#45;&gt;edge_as_node_13 -->
<g id="edge27" class="edge">
<title>Agg(sm_0, ds)&#45;&gt;edge_as_node_13</title>
<path fill="none" stroke="#d3d3d3" d="M503.13,-317.87C601.57,-281.05 820.31,-199.23 900.05,-169.41"/>
</g>
<!-- Measure(sm_0_measure_0) -->
<g id="node10" class="node">
<title>Measure(sm_0_measure_0)</title>
<polygon fill="#303030" stroke="#006400" points="212.5,-355.12 16,-355.12 16,-317.38 212.5,-317.38 212.5,-355.12"/>
<text text-anchor="start" x="28" y="-335.73" font-family="Courier New" font-size="12.00" fill="#d3d3d3">Measure(sm_0_measure_0)</text>
<text text-anchor="start" x="24" y="-323.18" font-family="Courier New" font-size="6.00" fill="#d3d3d3">add_model: sm_0</text>
</g>
<!-- edge_as_node_19 -->
<g id="node13" class="node">
<title>edge_as_node_19</title>
<polygon fill="none" stroke="none" points="357.25,-347.5 248.5,-347.5 248.5,-325 357.25,-325 357.25,-347.5"/>
<text text-anchor="start" x="248.5" y="-341.8" font-family="Courier New" font-size="6.00" fill="#d3d3d3">type: EntityAttributeEdge</text>
<text text-anchor="start" x="248.5" y="-334.3" font-family="Courier New" font-size="6.00" fill="#d3d3d3">tail: Measure(sm_0_measure_0)</text>
<text text-anchor="start" x="248.5" y="-326.8" font-family="Courier New" font-size="6.00" fill="#d3d3d3">head: Agg(sm_0, ds)</text>
</g>
<!-- Measure(sm_0_measure_0)&#45;&gt;edge_as_node_19 -->
<g id="edge39" class="edge">
<title>Measure(sm_0_measure_0)&#45;&gt;edge_as_node_19</title>
<path fill="none" stroke="#d3d3d3" d="M212.94,-336.25C225.28,-336.25 237.53,-336.25 248.8,-336.25"/>
</g>
<!-- edge_as_node_17&#45;&gt;JoinFrom(sm_0) -->
<g id="edge36" class="edge">
<title>edge_as_node_17&#45;&gt;JoinFrom(sm_0)</title>
<path fill="none" stroke="#d3d3d3" d="M655.37,-386.96C663.31,-387.38 671.66,-387.82 680,-388.26"/>
<polygon fill="#303030" stroke="#d3d3d3" points="679.65,-391.75 689.82,-388.78 680.02,-384.76 679.65,-391.75"/>
</g>
<!-- edge_as_node_18&#45;&gt;JoinTo(sm_0) -->
<g id="edge38" class="edge">
<title>edge_as_node_18&#45;&gt;JoinTo(sm_0)</title>
<path fill="none" stroke="#d3d3d3" d="M655.37,-336.25C665.79,-336.25 676.89,-336.25 687.78,-336.25"/>
<polygon fill="#303030" stroke="#d3d3d3" points="687.48,-339.75 697.48,-336.25 687.48,-332.75 687.48,-339.75"/>
</g>
<!-- edge_as_node_19&#45;&gt;Agg(sm_0, ds) -->
<g id="edge40" class="edge">
<title>edge_as_node_19&#45;&gt;Agg(sm_0, ds)</title>
<path fill="none" stroke="#d3d3d3" d="M356.87,-336.25C364.87,-336.25 373.23,-336.25 381.54,-336.25"/>
<polygon fill="#303030" stroke="#d3d3d3" points="381.29,-339.75 391.29,-336.25 381.29,-332.75 381.29,-339.75"/>
</g>
<!-- Entity(sm_0_primary_entity) -->
<g id="node14" class="node">
<title>Entity(sm_0_primary_entity)</title>
<polygon fill="#303030" stroke="#87cefa" points="1265.5,-451.12 1039,-451.12 1039,-413.38 1265.5,-413.38 1265.5,-451.12"/>
<text text-anchor="start" x="1051" y="-431.73" font-family="Courier New" font-size="12.00" fill="#d3d3d3">Entity(sm_0_primary_entity)</text>
<text text-anchor="start" x="1047" y="-419.18" font-family="Courier New" font-size="6.00" fill="#d3d3d3">add_name: sm_0_primary_entity</text>
</g>
<!-- edge_as_node_8 -->
<g id="node28" class="node">
<title>edge_as_node_8</title>
<polygon fill="none" stroke="none" points="1436.5,-332.5 1312.75,-332.5 1312.75,-310 1436.5,-310 1436.5,-332.5"/>
<text text-anchor="start" x="1312.75" y="-326.8" font-family="Courier New" font-size="6.00" fill="#d3d3d3">type: JoinToModelEdge</text>
<text text-anchor="start" x="1312.75" y="-319.3" font-family="Courier New" font-size="6.00" fill="#d3d3d3">tail: Entity(sm_0_primary_entity)</text>
<text text-anchor="start" x="1312.75" y="-311.8" font-family="Courier New" font-size="6.00" fill="#d3d3d3">head: JoinTo(sm_0)</text>
</g>
<!-- Entity(sm_0_primary_entity)&#45;&gt;edge_as_node_8 -->
<g id="edge17" class="edge">
<title>Entity(sm_0_primary_entity)&#45;&gt;edge_as_node_8</title>
<path fill="none" stroke="#d3d3d3" d="M1191.64,-412.92C1237.88,-389.62 1314.01,-351.28 1351.44,-332.42"/>
</g>
<!-- edge_as_node_21 -->
<g id="node38" class="node">
<title>edge_as_node_21</title>
<polygon fill="none" stroke="none" points="1440.25,-373.5 1309,-373.5 1309,-351 1440.25,-351 1440.25,-373.5"/>
<text text-anchor="start" x="1309" y="-367.8" font-family="Courier New" font-size="6.00" fill="#d3d3d3">type: EntityAttributeEdge</text>
<text text-anchor="start" x="1309" y="-360.3" font-family="Courier New" font-size="6.00" fill="#d3d3d3">tail: Entity(sm_0_primary_entity)</text>
<text text-anchor="start" x="1309" y="-352.8" font-family="Courier New" font-size="6.00" fill="#d3d3d3">head: Metric(sm_0_measure_0_metric)</text>
</g>
<!-- Entity(sm_0_primary_entity)&#45;&gt;edge_as_node_21 -->
<g id="edge43" class="edge">
<title>Entity(sm_0_primary_entity)&#45;&gt;edge_as_node_21</title>
<path fill="none" stroke="#d3d3d3" d="M1214.05,-412.94C1254.06,-400.23 1305.01,-384.04 1338.44,-373.43"/>
</g>
<!-- Entity(sm_1_primary_entity) -->
<g id="node15" class="node">
<title>Entity(sm_1_primary_entity)</title>
<polygon fill="#303030" stroke="#87cefa" points="1265.5,-507.12 1039,-507.12 1039,-469.38 1265.5,-469.38 1265.5,-507.12"/>
<text text-anchor="start" x="1051" y="-487.73" font-family="Courier New" font-size="12.00" fill="#d3d3d3">Entity(sm_1_primary_entity)</text>
<text text-anchor="start" x="1047" y="-475.18" font-family="Courier New" font-size="6.00" fill="#d3d3d3">add_name: sm_1_primary_entity</text>
</g>
<!-- edge_as_node_11 -->
<g id="node31" class="node">
<title>edge_as_node_11</title>
<polygon fill="none" stroke="none" points="1436.5,-649.5 1312.75,-649.5 1312.75,-627 1436.5,-627 1436.5,-649.5"/>
<text text-anchor="start" x="1312.75" y="-643.8" font-family="Courier New" font-size="6.00" fill="#d3d3d3">type: JoinToModelEdge</text>
<text text-anchor="start" x="1312.75" y="-636.3" font-family="Courier New" font-size="6.00" fill="#d3d3d3">tail: Entity(sm_1_primary_entity)</text>
<text text-anchor="start" x="1312.75" y="-628.8" font-family="Courier New" font-size="6.00" fill="#d3d3d3">head: JoinTo(sm_1)</text>
</g>
<!-- Entity(sm_1_primary_entity)&#45;&gt;edge_as_node_11 -->
<g id="edge23" class="edge">
<title>Entity(sm_1_primary_entity)&#45;&gt;edge_as_node_11</title>
<path fill="none" stroke="#d3d3d3" d="M1181.61,-507.55C1228.34,-539.36 1320.06,-601.79 1357.32,-627.15"/>
</g>
<!-- edge_as_node_20 -->
<g id="node37" class="node">
<title>edge_as_node_20</title>
<polygon fill="none" stroke="none" points="1440.25,-414.5 1309,-414.5 1309,-392 1440.25,-392 1440.25,-414.5"/>
<text text-anchor="start" x="1309" y="-408.8" font-family="Courier New" font-size="6.00" fill="#d3d3d3">type: EntityAttributeEdge</text>
<text text-anchor="start" x="1309" y="-401.3" font-family="Courier New" font-size="6.00" fill="#d3d3d3">tail: Entity(sm_1_primary_entity)</text>
<text text-anchor="start" x="1309" y="-393.8" font-family="Courier New" font-size="6.00" fill="#d3d3d3">head: Metric(sm_0_measure_0_metric)</text>
</g>
<!-- Entity(sm_1_primary_entity)&#45;&gt;edge_as_node_20 -->
<g id="edge41" class="edge">
<title>Entity(sm_1_primary_entity)&#45;&gt;edge_as_node_20</title>
<path fill="none" stroke="#d3d3d3" d="M1203.26,-468.96C1246.94,-452.11 1308.83,-428.24 1344.74,-414.39"/>
</g>
<!-- MetricTimeDimension(YEAR) -->
<g id="node16" class="node">
<title>MetricTimeDimension(YEAR)</title>
<polygon fill="#303030" stroke="#d3d3d3" points="1258,-169.62 1046.5,-169.62 1046.5,-116.88 1258,-116.88 1258,-169.62"/>
<text text-anchor="start" x="1058.5" y="-150.22" font-family="Courier New" font-size="12.00" fill="#d3d3d3">MetricTimeDimension(YEAR)</text>
<text text-anchor="start" x="1054.5" y="-137.68" font-family="Courier New" font-size="6.00" fill="#d3d3d3">add_name: metric_time</text>
<text text-anchor="start" x="1054.5" y="-130.18" font-family="Courier New" font-size="6.00" fill="#d3d3d3">add_prop: METRIC_TIME</text>
<text text-anchor="start" x="1054.5" y="-122.67" font-family="Courier New" font-size="6.00" fill="#d3d3d3">add_type: TIME_DIMENSION</text>
</g>
<!-- edge_as_node_14 -->
<g id="node34" class="node">
<title>edge_as_node_14</title>
<polygon fill="none" stroke="none" points="1432.75,-22.5 1316.5,-22.5 1316.5,0 1432.75,0 1432.75,-22.5"/>
<text text-anchor="start" x="1316.5" y="-16.8" font-family="Courier New" font-size="6.00" fill="#d3d3d3">type: EntityAttributeEdge</text>
<text text-anchor="start" x="1316.5" y="-9.3" font-family="Courier New" font-size="6.00" fill="#d3d3d3">tail: MetricTimeDimension(YEAR)</text>
<text text-anchor="start" x="1316.5" y="-1.8" font-family="Courier New" font-size="6.00" fill="#d3d3d3">head: Time(year)</text>
</g>
<!-- MetricTimeDimension(YEAR)&#45;&gt;edge_as_node_14 -->
<g id="edge29" class="edge">
<title>MetricTimeDimension(YEAR)&#45;&gt;edge_as_node_14</title>
<path fill="none" stroke="#d3d3d3" d="M1198.11,-116.38C1246.31,-87.51 1320.61,-43 1354.99,-22.41"/>
</g>
<!-- edge_as_node_15 -->
<g id="node35" class="node">
<title>edge_as_node_15</title>
<polygon fill="none" stroke="none" points="1438.38,-70.25 1310.88,-70.25 1310.88,-40.25 1438.38,-40.25 1438.38,-70.25"/>
<text text-anchor="start" x="1310.88" y="-64.55" font-family="Courier New" font-size="6.00" fill="#d3d3d3">add_prop: DERIVED_TIME_GRANULARITY</text>
<text text-anchor="start" x="1310.88" y="-57.05" font-family="Courier New" font-size="6.00" fill="#d3d3d3">type: EntityAttributeEdge</text>
<text text-anchor="start" x="1310.88" y="-49.55" font-family="Courier New" font-size="6.00" fill="#d3d3d3">tail: MetricTimeDimension(YEAR)</text>
<text text-anchor="start" x="1310.88" y="-42.05" font-family="Courier New" font-size="6.00" fill="#d3d3d3">head: Time(year)</text>
</g>
<!-- MetricTimeDimension(YEAR)&#45;&gt;edge_as_node_15 -->
<g id="edge31" class="edge">
<title>MetricTimeDimension(YEAR)&#45;&gt;edge_as_node_15</title>
<path fill="none" stroke="#d3d3d3" d="M1220.27,-116.49C1258.38,-101.27 1304.69,-82.78 1336.38,-70.12"/>
</g>
<!-- edge_as_node_16 -->
<g id="node36" class="node">
<title>edge_as_node_16</title>
<polygon fill="none" stroke="none" points="1438.38,-158.25 1310.88,-158.25 1310.88,-128.25 1438.38,-128.25 1438.38,-158.25"/>
<text text-anchor="start" x="1310.88" y="-152.55" font-family="Courier New" font-size="6.00" fill="#d3d3d3">add_prop: DERIVED_TIME_GRANULARITY</text>
<text text-anchor="start" x="1310.88" y="-145.05" font-family="Courier New" font-size="6.00" fill="#d3d3d3">type: EntityAttributeEdge</text>
<text text-anchor="start" x="1310.88" y="-137.55" font-family="Courier New" font-size="6.00" fill="#d3d3d3">tail: MetricTimeDimension(YEAR)</text>
<text text-anchor="start" x="1310.88" y="-130.05" font-family="Courier New" font-size="6.00" fill="#d3d3d3">head: Time(custom_year)</text>
</g>
<!-- MetricTimeDimension(YEAR)&#45;&gt;edge_as_node_16 -->
<g id="edge33" class="edge">
<title>MetricTimeDimension(YEAR)&#45;&gt;edge_as_node_16</title>
<path fill="none" stroke="#d3d3d3" d="M1258.27,-143.25C1276.34,-143.25 1294.6,-143.25 1311.09,-143.25"/>
</g>
<!-- TimeDim(ds, year) -->
<g id="node17" class="node">
<title>TimeDim(ds, year)</title>
<polygon fill="#303030" stroke="#d3d3d3" points="1228,-232.88 1076.5,-232.88 1076.5,-187.62 1228,-187.62 1228,-232.88"/>
<text text-anchor="start" x="1088.5" y="-213.47" font-family="Courier New" font-size="12.00" fill="#d3d3d3">TimeDim(ds, year)</text>
<text text-anchor="start" x="1084.5" y="-200.93" font-family="Courier New" font-size="6.00" fill="#d3d3d3">add_name: ds</text>
<text text-anchor="start" x="1084.5" y="-193.43" font-family="Courier New" font-size="6.00" fill="#d3d3d3">add_type: TIME_DIMENSION</text>
</g>
<!-- edge_as_node_24 -->
<g id="node41" class="node">
<title>edge_as_node_24</title>
<polygon fill="none" stroke="none" points="1421.5,-110.5 1327.75,-110.5 1327.75,-88 1421.5,-88 1421.5,-110.5"/>
<text text-anchor="start" x="1327.75" y="-104.8" font-family="Courier New" font-size="6.00" fill="#d3d3d3">type: EntityAttributeEdge</text>
<text text-anchor="start" x="1327.75" y="-97.3" font-family="Courier New" font-size="6.00" fill="#d3d3d3">tail: TimeDim(ds, year)</text>
<text text-anchor="start" x="1327.75" y="-89.8" font-family="Courier New" font-size="6.00" fill="#d3d3d3">head: Time(year)</text>
</g>
<!-- TimeDim(ds, year)&#45;&gt;edge_as_node_24 -->
<g id="edge49" class="edge">
<title>TimeDim(ds, year)&#45;&gt;edge_as_node_24</title>
<path fill="none" stroke="#d3d3d3" d="M1198.91,-187.25C1245.56,-163.76 1316.03,-128.26 1351.53,-110.38"/>
</g>
<!-- edge_as_node_25 -->
<g id="node42" class="node">
<title>edge_as_node_25</title>
<polygon fill="none" stroke="none" points="1438.38,-206.25 1310.88,-206.25 1310.88,-176.25 1438.38,-176.25 1438.38,-206.25"/>
<text text-anchor="start" x="1310.88" y="-200.55" font-family="Courier New" font-size="6.00" fill="#d3d3d3">add_prop: DERIVED_TIME_GRANULARITY</text>
<text text-anchor="start" x="1310.88" y="-193.05" font-family="Courier New" font-size="6.00" fill="#d3d3d3">type: EntityAttributeEdge</text>
<text text-anchor="start" x="1310.88" y="-185.55" font-family="Courier New" font-size="6.00" fill="#d3d3d3">tail: TimeDim(ds, year)</text>
<text text-anchor="start" x="1310.88" y="-178.05" font-family="Courier New" font-size="6.00" fill="#d3d3d3">head: Time(year)</text>
</g>
<!-- TimeDim(ds, year)&#45;&gt;edge_as_node_25 -->
<g id="edge51" class="edge">
<title>TimeDim(ds, year)&#45;&gt;edge_as_node_25</title>
<path fill="none" stroke="#d3d3d3" d="M1228.47,-203.76C1255.41,-201.44 1285.45,-198.85 1311.18,-196.63"/>
</g>
<!-- edge_as_node_26 -->
<g id="node43" class="node">
<title>edge_as_node_26</title>
<polygon fill="none" stroke="none" points="1438.38,-254.25 1310.88,-254.25 1310.88,-224.25 1438.38,-224.25 1438.38,-254.25"/>
<text text-anchor="start" x="1310.88" y="-248.55" font-family="Courier New" font-size="6.00" fill="#d3d3d3">add_prop: DERIVED_TIME_GRANULARITY</text>
<text text-anchor="start" x="1310.88" y="-241.05" font-family="Courier New" font-size="6.00" fill="#d3d3d3">type: EntityAttributeEdge</text>
<text text-anchor="start" x="1310.88" y="-233.55" font-family="Courier New" font-size="6.00" fill="#d3d3d3">tail: TimeDim(ds, year)</text>
<text text-anchor="start" x="1310.88" y="-226.05" font-family="Courier New" font-size="6.00" fill="#d3d3d3">head: Time(custom_year)</text>
</g>
<!-- TimeDim(ds, year)&#45;&gt;edge_as_node_26 -->
<g id="edge53" class="edge">
<title>TimeDim(ds, year)&#45;&gt;edge_as_node_26</title>
<path fill="none" stroke="#d3d3d3" d="M1228.47,-220.15C1255.41,-223.69 1285.45,-227.65 1311.18,-231.03"/>
</g>
<!-- Time(custom_year) -->
<g id="node18" class="node">
<title>Time(custom_year)</title>
<polygon fill="#303030" stroke="#ffa07a" points="1695.25,-168.12 1543.75,-168.12 1543.75,-130.38 1695.25,-130.38 1695.25,-168.12"/>
<text text-anchor="start" x="1555.75" y="-148.72" font-family="Courier New" font-size="12.00" fill="#d3d3d3">Time(custom_year)</text>
<text text-anchor="start" x="1551.75" y="-136.18" font-family="Courier New" font-size="6.00" fill="#d3d3d3">add_name: custom_year</text>
</g>
<!-- Time(year) -->
<g id="node19" class="node">
<title>Time(year)</title>
<polygon fill="#303030" stroke="#ffa07a" points="1669,-112.12 1570,-112.12 1570,-74.38 1669,-74.38 1669,-112.12"/>
<text text-anchor="start" x="1582" y="-92.72" font-family="Courier New" font-size="12.00" fill="#d3d3d3">Time(year)</text>
<text text-anchor="start" x="1578" y="-80.17" font-family="Courier New" font-size="6.00" fill="#d3d3d3">add_name: year</text>
</g>
<!-- edge_as_node_0&#45;&gt;Dim(dim_0) -->
<g id="edge2" class="edge">
<title>edge_as_node_0&#45;&gt;Dim(dim_0)</title>
<path fill="none" stroke="#d3d3d3" d="M1398.91,-750.03C1435.79,-732.27 1508.74,-697.13 1560.42,-672.23"/>
<polygon fill="#303030" stroke="#d3d3d3" points="1561.92,-675.39 1569.41,-667.9 1558.89,-669.08 1561.92,-675.39"/>
</g>
<!-- edge_as_node_1&#45;&gt;Dim(dim_0) -->
<g id="edge4" class="edge">
<title>edge_as_node_1&#45;&gt;Dim(dim_0)</title>
<path fill="none" stroke="#d3d3d3" d="M1421.31,-672.67C1460.08,-667.08 1516,-659.02 1558.39,-652.91"/>
<polygon fill="#303030" stroke="#d3d3d3" points="1558.79,-656.39 1568.19,-651.5 1557.79,-649.46 1558.79,-656.39"/>
</g>
<!-- edge_as_node_2&#45;&gt;DsiEntityKey(sm_0_primary_entity) -->
<g id="edge6" class="edge">
<title>edge_as_node_2&#45;&gt;DsiEntityKey(sm_0_primary_entity)</title>
<path fill="none" stroke="#d3d3d3" d="M974.59,-273.47C1079.81,-299.86 1345.89,-366.61 1501.42,-405.63"/>
<polygon fill="#303030" stroke="#d3d3d3" points="1500.4,-408.98 1510.95,-408.02 1502.11,-402.19 1500.4,-408.98"/>
</g>
<!-- edge_as_node_3&#45;&gt;DsiEntityKey(sm_0_primary_entity) -->
<g id="edge8" class="edge">
<title>edge_as_node_3&#45;&gt;DsiEntityKey(sm_0_primary_entity)</title>
<path fill="none" stroke="#d3d3d3" d="M981.43,-574.04C1087.16,-551.04 1331.54,-497.89 1485.31,-464.44"/>
<polygon fill="#303030" stroke="#d3d3d3" points="1485.72,-467.93 1494.75,-462.39 1484.23,-461.09 1485.72,-467.93"/>
</g>
<!-- edge_as_node_4&#45;&gt;DsiEntityKey(sm_1_primary_entity) -->
<g id="edge10" class="edge">
<title>edge_as_node_4&#45;&gt;DsiEntityKey(sm_1_primary_entity)</title>
<path fill="none" stroke="#d3d3d3" d="M1002.7,-540.58C1113.8,-547.18 1327.92,-559.91 1472.28,-568.5"/>
<polygon fill="#303030" stroke="#d3d3d3" points="1471.72,-571.97 1481.91,-569.07 1472.14,-564.98 1471.72,-571.97"/>
</g>
<!-- edge_as_node_5&#45;&gt;DsiEntityKey(sm_1_primary_entity) -->
<g id="edge12" class="edge">
<title>edge_as_node_5&#45;&gt;DsiEntityKey(sm_1_primary_entity)</title>
<path fill="none" stroke="#d3d3d3" d="M970.44,-397.48C1074.9,-426.42 1355.86,-504.23 1511.69,-547.39"/>
<polygon fill="#303030" stroke="#d3d3d3" points="1510.66,-550.74 1521.23,-550.03 1512.53,-543.99 1510.66,-550.74"/>
</g>
<!-- edge_as_node_6&#45;&gt;DsiEntityKey(sm_1_primary_entity) -->
<g id="edge14" class="edge">
<title>edge_as_node_6&#45;&gt;DsiEntityKey(sm_1_primary_entity)</title>
<path fill="none" stroke="#d3d3d3" d="M1394.68,-709.03C1430.58,-687.89 1509.45,-641.46 1563.29,-609.75"/>
<polygon fill="#303030" stroke="#d3d3d3" points="1564.89,-612.87 1571.74,-604.78 1561.34,-606.84 1564.89,-612.87"/>
</g>
<!-- edge_as_node_7&#45;&gt;DsiEntityKey(sm_1_primary_entity) -->
<g id="edge16" class="edge">
<title>edge_as_node_7&#45;&gt;DsiEntityKey(sm_1_primary_entity)</title>
<path fill="none" stroke="#d3d3d3" d="M1447.51,-591.33C1455.48,-590.67 1463.8,-589.99 1472.29,-589.29"/>
<polygon fill="#303030" stroke="#d3d3d3" points="1472.35,-592.8 1482.02,-588.49 1471.77,-585.82 1472.35,-592.8"/>
</g>
<!-- edge_as_node_8&#45;&gt;JoinTo(sm_0) -->
<g id="edge18" class="edge">
<title>edge_as_node_8&#45;&gt;JoinTo(sm_0)</title>
<path fill="none" stroke="#d3d3d3" d="M1313.21,-322.74C1197.15,-325.56 946.38,-331.64 824.93,-334.58"/>
<polygon fill="#303030" stroke="#d3d3d3" points="825.02,-331.08 815.11,-334.82 825.19,-338.08 825.02,-331.08"/>
</g>
<!-- edge_as_node_9&#45;&gt;Entity(sm_0_primary_entity) -->
<g id="edge20" class="edge">
<title>edge_as_node_9&#45;&gt;Entity(sm_0_primary_entity)</title>
<path fill="none" stroke="#d3d3d3" d="M991.68,-430.8C1002.89,-430.9 1014.97,-431.01 1027.28,-431.12"/>
<polygon fill="#303030" stroke="#d3d3d3" points="1027.09,-434.62 1037.12,-431.21 1027.16,-427.62 1027.09,-434.62"/>
</g>
<!-- edge_as_node_10&#45;&gt;Entity(sm_1_primary_entity) -->
<g id="edge22" class="edge">
<title>edge_as_node_10&#45;&gt;Entity(sm_1_primary_entity)</title>
<path fill="none" stroke="#d3d3d3" d="M991.68,-482.46C1002.89,-482.86 1014.97,-483.3 1027.28,-483.75"/>
<polygon fill="#303030" stroke="#d3d3d3" points="1027,-487.24 1037.13,-484.11 1027.26,-480.25 1027,-487.24"/>
</g>
<!-- edge_as_node_11&#45;&gt;JoinTo(sm_1) -->
<g id="edge24" class="edge">
<title>edge_as_node_11&#45;&gt;JoinTo(sm_1)</title>
<path fill="none" stroke="#d3d3d3" d="M1341.52,-649.47C1309.63,-660.61 1259.81,-678.02 1219.42,-692.13"/>
<polygon fill="#303030" stroke="#d3d3d3" points="1218.29,-688.82 1210,-695.42 1220.6,-695.43 1218.29,-688.82"/>
</g>
<!-- edge_as_node_12&#45;&gt;Entity(sm_1_primary_entity) -->
<g id="edge26" class="edge">
<title>edge_as_node_12&#45;&gt;Entity(sm_1_primary_entity)</title>
<path fill="none" stroke="#d3d3d3" d="M1312.8,-510.69C1301.55,-509.11 1289.43,-507.41 1277.08,-505.67"/>
<polygon fill="#303030" stroke="#d3d3d3" points="1277.59,-502.21 1267.2,-504.28 1276.61,-509.14 1277.59,-502.21"/>
</g>
<!-- edge_as_node_13&#45;&gt;MetricTimeDimension(YEAR) -->
<g id="edge28" class="edge">
<title>edge_as_node_13&#45;&gt;MetricTimeDimension(YEAR)</title>
<path fill="none" stroke="#d3d3d3" d="M987.91,-154.37C1002.42,-153.38 1018.54,-152.28 1034.85,-151.17"/>
<polygon fill="#303030" stroke="#d3d3d3" points="1034.9,-154.68 1044.64,-150.51 1034.42,-147.69 1034.9,-154.68"/>
</g>
<!-- edge_as_node_14&#45;&gt;Time(year) -->
<g id="edge30" class="edge">
<title>edge_as_node_14&#45;&gt;Time(year)</title>
<path fill="none" stroke="#d3d3d3" d="M1408.89,-22.48C1447.46,-35.5 1511.77,-57.22 1559.01,-73.16"/>
<polygon fill="#303030" stroke="#d3d3d3" points="1557.69,-76.41 1568.28,-76.3 1559.93,-69.78 1557.69,-76.41"/>
</g>
<!-- edge_as_node_15&#45;&gt;Time(year) -->
<g id="edge32" class="edge">
<title>edge_as_node_15&#45;&gt;Time(year)</title>
<path fill="none" stroke="#d3d3d3" d="M1438.17,-65.04C1475.24,-70.84 1521.96,-78.15 1558.56,-83.87"/>
<polygon fill="#303030" stroke="#d3d3d3" points="1557.66,-87.27 1568.08,-85.36 1558.74,-80.36 1557.66,-87.27"/>
</g>
<!-- edge_as_node_16&#45;&gt;Time(custom_year) -->
<g id="edge34" class="edge">
<title>edge_as_node_16&#45;&gt;Time(custom_year)</title>
<path fill="none" stroke="#d3d3d3" d="M1438.17,-144.8C1466.84,-145.5 1501.28,-146.35 1532.35,-147.12"/>
<polygon fill="#303030" stroke="#d3d3d3" points="1532.03,-150.61 1542.11,-147.36 1532.2,-143.62 1532.03,-150.61"/>
</g>
<!-- edge_as_node_20&#45;&gt;Metric(sm_0_measure_0_metric) -->
<g id="edge42" class="edge">
<title>edge_as_node_20&#45;&gt;Metric(sm_0_measure_0_metric)</title>
<path fill="none" stroke="#d3d3d3" d="M1402.08,-414.47C1436.1,-428.9 1496.55,-454.53 1544.94,-475.05"/>
<polygon fill="#303030" stroke="#d3d3d3" points="1543.41,-478.21 1553.99,-478.89 1546.15,-471.76 1543.41,-478.21"/>
</g>
<!-- edge_as_node_21&#45;&gt;Metric(sm_0_measure_0_metric) -->
<g id="edge44" class="edge">
<title>edge_as_node_21&#45;&gt;Metric(sm_0_measure_0_metric)</title>
<path fill="none" stroke="#d3d3d3" d="M1394.28,-373.31C1430.04,-394.51 1509.49,-441.62 1563.54,-473.67"/>
<polygon fill="#303030" stroke="#d3d3d3" points="1561.63,-476.6 1572.02,-478.69 1565.2,-470.58 1561.63,-476.6"/>
</g>
<!-- edge_as_node_22&#45;&gt;TimeDim(ds, year) -->
<g id="edge46" class="edge">
<title>edge_as_node_22&#45;&gt;TimeDim(ds, year)</title>
<path fill="none" stroke="#d3d3d3" d="M982.27,-211.78C1006.86,-211.56 1036.98,-211.29 1064.94,-211.03"/>
<polygon fill="#303030" stroke="#d3d3d3" points="1064.87,-214.53 1074.84,-210.94 1064.81,-207.53 1064.87,-214.53"/>
</g>
<!-- edge_as_node_23&#45;&gt;TimeDim(ds, year) -->
<g id="edge48" class="edge">
<title>edge_as_node_23&#45;&gt;TimeDim(ds, year)</title>
<path fill="none" stroke="#d3d3d3" d="M957.46,-292.03C989.18,-278.64 1043.35,-255.79 1086.36,-237.63"/>
<polygon fill="#303030" stroke="#d3d3d3" points="1087.51,-240.95 1095.36,-233.84 1084.78,-234.5 1087.51,-240.95"/>
</g>
<!-- edge_as_node_24&#45;&gt;Time(year) -->
<g id="edge50" class="edge">
<title>edge_as_node_24&#45;&gt;Time(year)</title>
<path fill="none" stroke="#d3d3d3" d="M1421.31,-98.12C1460.08,-97.16 1516,-95.78 1558.39,-94.73"/>
<polygon fill="#303030" stroke="#d3d3d3" points="1558.26,-98.24 1568.18,-94.49 1558.09,-91.24 1558.26,-98.24"/>
</g>
<!-- edge_as_node_25&#45;&gt;Time(year) -->
<g id="edge52" class="edge">
<title>edge_as_node_25&#45;&gt;Time(year)</title>
<path fill="none" stroke="#d3d3d3" d="M1412.78,-176.26C1452.02,-160.42 1514.44,-135.24 1560.24,-116.76"/>
<polygon fill="#303030" stroke="#d3d3d3" points="1561.54,-120.01 1569.51,-113.02 1558.93,-113.51 1561.54,-120.01"/>
</g>
<!-- edge_as_node_26&#45;&gt;Time(custom_year) -->
<g id="edge54" class="edge">
<title>edge_as_node_26&#45;&gt;Time(custom_year)</title>
<path fill="none" stroke="#d3d3d3" d="M1416,-224.29C1454.14,-210.16 1511.89,-188.76 1555.98,-172.42"/>
<polygon fill="#303030" stroke="#d3d3d3" points="1557,-175.77 1565.16,-169.01 1554.57,-169.21 1557,-175.77"/>
</g>
</g>
</svg>
