<?xml version="1.0" encoding="UTF-8" standalone="no"?>
<!DOCTYPE svg PUBLIC "-//W3C//DTD SVG 1.1//EN"
 "http://www.w3.org/Graphics/SVG/1.1/DTD/svg11.dtd">
<!-- Generated by graphviz version 12.2.1 (20241206.2353)
 -->
<!-- Pages: 1 -->
<svg width="1917pt" height="515pt"
 viewBox="0.00 0.00 1917.00 515.00" xmlns="http://www.w3.org/2000/svg" xmlns:xlink="http://www.w3.org/1999/xlink">
<g id="graph0" class="graph" transform="scale(1 1) rotate(0) translate(4 511)">
<polygon fill="#181818" stroke="none" points="-4,4 -4,-511 1913,-511 1913,4 -4,4"/>
<g id="clust1" class="cluster">
<title>cluster_other_attribute</title>
<polygon fill="#181818" stroke="#000000" stroke-width="3" points="1277.5,-276 1277.5,-499 1542.5,-499 1542.5,-276 1277.5,-276"/>
<text text-anchor="middle" x="1410" y="-485.5" font-family="Courier New" font-size="10.00" fill="#d3d3d3">other_attribute</text>
</g>
<g id="clust2" class="cluster">
<title>cluster_model_entity</title>
<polygon fill="#181818" stroke="#000000" stroke-width="3" points="373,-183 373,-314 638,-314 638,-183 373,-183"/>
<text text-anchor="middle" x="505.5" y="-300.5" font-family="Courier New" font-size="10.00" fill="#d3d3d3">model_entity</text>
</g>
<g id="clust3" class="cluster">
<title>cluster_time_dimension</title>
<polygon fill="#181818" stroke="#000000" stroke-width="3" points="1296.25,-33 1296.25,-122 1523.75,-122 1523.75,-33 1296.25,-33"/>
<text text-anchor="middle" x="1410" y="-108.5" font-family="Courier New" font-size="10.00" fill="#d3d3d3">time_dimension</text>
</g>
<g id="clust4" class="cluster">
<title>cluster_time_entity</title>
<polygon fill="#181818" stroke="#000000" stroke-width="3" points="1303.75,-130 1303.75,-212 1516.25,-212 1516.25,-130 1303.75,-130"/>
<text text-anchor="middle" x="1410" y="-198.5" font-family="Courier New" font-size="10.00" fill="#d3d3d3">time_entity</text>
</g>
<g id="clust5" class="cluster">
<title>cluster_time_attribute</title>
<polygon fill="#181818" stroke="#000000" stroke-width="3" points="1726,-54 1726,-241 1901,-241 1901,-54 1726,-54"/>
<text text-anchor="middle" x="1813.5" y="-227.5" font-family="Courier New" font-size="10.00" fill="#d3d3d3">time_attribute</text>
</g>
<g id="clust6" class="cluster">
<title>cluster_sm_0</title>
<polygon fill="#181818" stroke="#000000" stroke-width="3" points="892.75,-206 892.75,-281 1022.75,-281 1022.75,-206 892.75,-206"/>
<text text-anchor="middle" x="957.75" y="-267.5" font-family="Courier New" font-size="10.00" fill="#d3d3d3">sm_0</text>
</g>
<g id="clust7" class="cluster">
<title>cluster_sm_1</title>
<polygon fill="#181818" stroke="#000000" stroke-width="3" points="892.75,-289 892.75,-364 1022.75,-364 1022.75,-289 892.75,-289"/>
<text text-anchor="middle" x="957.75" y="-350.5" font-family="Courier New" font-size="10.00" fill="#d3d3d3">sm_1</text>
</g>
<g id="clust8" class="cluster">
<title>cluster_metric_attribute</title>
<polygon fill="#181818" stroke="#000000" stroke-width="3" points="829,-125 829,-198 1086.5,-198 1086.5,-125 829,-125"/>
<text text-anchor="middle" x="957.75" y="-184.5" font-family="Courier New" font-size="10.00" fill="#d3d3d3">metric_attribute</text>
</g>
<!-- GroupByAttributeRoot -->
<g id="node1" class="node">
<title>GroupByAttributeRoot</title>
<polygon fill="#303030" stroke="#ffd700" points="174,-260 0,-260 0,-224 174,-224 174,-260"/>
<text text-anchor="start" x="12" y="-237.72" font-family="Courier New" font-size="12.00" fill="#d3d3d3">GroupByAttributeRoot</text>
</g>
<!-- edge_as_node_0 -->
<g id="node2" class="node">
<title>edge_as_node_0</title>
<polygon fill="none" stroke="none" points="1249.5,-425.25 1114.5,-425.25 1114.5,-402.75 1249.5,-402.75 1249.5,-425.25"/>
<text text-anchor="start" x="1114.5" y="-419.55" font-family="Courier New" font-size="6.00" fill="#d3d3d3">type: EntityRelationshipEdge</text>
<text text-anchor="start" x="1114.5" y="-412.05" font-family="Courier New" font-size="6.00" fill="#d3d3d3">tail: GroupByAttributeRoot</text>
<text text-anchor="start" x="1114.5" y="-404.55" font-family="Courier New" font-size="6.00" fill="#d3d3d3">head: EntityKey(sm_0_primary_entity)</text>
</g>
<!-- GroupByAttributeRoot&#45;&gt;edge_as_node_0 -->
<g id="edge1" class="edge">
<title>GroupByAttributeRoot&#45;&gt;edge_as_node_0</title>
<path fill="none" stroke="#d3d3d3" d="M174.3,-255.71C386.34,-289.02 925,-373.63 1114.67,-403.42"/>
</g>
<!-- edge_as_node_1 -->
<g id="node3" class="node">
<title>edge_as_node_1</title>
<polygon fill="none" stroke="none" points="1249.5,-343.25 1114.5,-343.25 1114.5,-320.75 1249.5,-320.75 1249.5,-343.25"/>
<text text-anchor="start" x="1114.5" y="-337.55" font-family="Courier New" font-size="6.00" fill="#d3d3d3">type: EntityRelationshipEdge</text>
<text text-anchor="start" x="1114.5" y="-330.05" font-family="Courier New" font-size="6.00" fill="#d3d3d3">tail: GroupByAttributeRoot</text>
<text text-anchor="start" x="1114.5" y="-322.55" font-family="Courier New" font-size="6.00" fill="#d3d3d3">head: EntityKey(sm_1_primary_entity)</text>
</g>
<!-- GroupByAttributeRoot&#45;&gt;edge_as_node_1 -->
<g id="edge3" class="edge">
<title>GroupByAttributeRoot&#45;&gt;edge_as_node_1</title>
<path fill="none" stroke="#d3d3d3" d="M174.3,-249.18C386.34,-266.6 925,-310.88 1114.67,-326.47"/>
</g>
<!-- edge_as_node_2 -->
<g id="node4" class="node">
<title>edge_as_node_2</title>
<polygon fill="none" stroke="none" points="345,-225.25 210,-225.25 210,-202.75 345,-202.75 345,-225.25"/>
<text text-anchor="start" x="210" y="-219.55" font-family="Courier New" font-size="6.00" fill="#d3d3d3">type: EntityRelationshipEdge</text>
<text text-anchor="start" x="210" y="-212.05" font-family="Courier New" font-size="6.00" fill="#d3d3d3">tail: GroupByAttributeRoot</text>
<text text-anchor="start" x="210" y="-204.55" font-family="Courier New" font-size="6.00" fill="#d3d3d3">head: DsiEntity(sm_0_primary_entity)</text>
</g>
<!-- GroupByAttributeRoot&#45;&gt;edge_as_node_2 -->
<g id="edge5" class="edge">
<title>GroupByAttributeRoot&#45;&gt;edge_as_node_2</title>
<path fill="none" stroke="#d3d3d3" d="M174.25,-229.19C186.27,-227.4 198.47,-225.59 210.05,-223.87"/>
</g>
<!-- edge_as_node_3 -->
<g id="node5" class="node">
<title>edge_as_node_3</title>
<polygon fill="none" stroke="none" points="345,-270.25 210,-270.25 210,-247.75 345,-247.75 345,-270.25"/>
<text text-anchor="start" x="210" y="-264.55" font-family="Courier New" font-size="6.00" fill="#d3d3d3">type: EntityRelationshipEdge</text>
<text text-anchor="start" x="210" y="-257.05" font-family="Courier New" font-size="6.00" fill="#d3d3d3">tail: GroupByAttributeRoot</text>
<text text-anchor="start" x="210" y="-249.55" font-family="Courier New" font-size="6.00" fill="#d3d3d3">head: DsiEntity(sm_1_primary_entity)</text>
</g>
<!-- GroupByAttributeRoot&#45;&gt;edge_as_node_3 -->
<g id="edge7" class="edge">
<title>GroupByAttributeRoot&#45;&gt;edge_as_node_3</title>
<path fill="none" stroke="#d3d3d3" d="M174.25,-249.78C186.27,-250.86 198.47,-251.96 210.05,-253.01"/>
</g>
<!-- edge_as_node_4 -->
<g id="node6" class="node">
<title>edge_as_node_4</title>
<polygon fill="none" stroke="none" points="1240.12,-78.25 1123.88,-78.25 1123.88,-55.75 1240.12,-55.75 1240.12,-78.25"/>
<text text-anchor="start" x="1123.88" y="-72.55" font-family="Courier New" font-size="6.00" fill="#d3d3d3">type: EntityRelationshipEdge</text>
<text text-anchor="start" x="1123.88" y="-65.05" font-family="Courier New" font-size="6.00" fill="#d3d3d3">tail: GroupByAttributeRoot</text>
<text text-anchor="start" x="1123.88" y="-57.55" font-family="Courier New" font-size="6.00" fill="#d3d3d3">head: MetricTimeDimension(YEAR)</text>
</g>
<!-- GroupByAttributeRoot&#45;&gt;edge_as_node_4 -->
<g id="edge9" class="edge">
<title>GroupByAttributeRoot&#45;&gt;edge_as_node_4</title>
<path fill="none" stroke="#d3d3d3" d="M174.3,-228.05C389.89,-193.59 943.11,-105.18 1123.89,-76.29"/>
</g>
<!-- edge_as_node_5 -->
<g id="node7" class="node">
<title>edge_as_node_5</title>
<polygon fill="none" stroke="none" points="1236.38,-143.25 1127.62,-143.25 1127.62,-120.75 1236.38,-120.75 1236.38,-143.25"/>
<text text-anchor="start" x="1127.62" y="-137.55" font-family="Courier New" font-size="6.00" fill="#d3d3d3">type: EntityRelationshipEdge</text>
<text text-anchor="start" x="1127.62" y="-130.05" font-family="Courier New" font-size="6.00" fill="#d3d3d3">tail: GroupByAttributeRoot</text>
<text text-anchor="start" x="1127.62" y="-122.55" font-family="Courier New" font-size="6.00" fill="#d3d3d3">head: TimeDimension(ds, year)</text>
</g>
<!-- GroupByAttributeRoot&#45;&gt;edge_as_node_5 -->
<g id="edge11" class="edge">
<title>GroupByAttributeRoot&#45;&gt;edge_as_node_5</title>
<path fill="none" stroke="#d3d3d3" d="M174.3,-233.23C391.41,-211.42 950.93,-155.21 1127.66,-137.46"/>
</g>
<!-- EntityKey(sm_0_primary_entity) -->
<g id="node23" class="node">
<title>EntityKey(sm_0_primary_entity)</title>
<polygon fill="#303030" stroke="#ffa07a" points="1534.5,-407.38 1285.5,-407.38 1285.5,-354.62 1534.5,-354.62 1534.5,-407.38"/>
<text text-anchor="start" x="1297.5" y="-387.98" font-family="Courier New" font-size="12.00" fill="#d3d3d3">EntityKey(sm_0_primary_entity)</text>
<text text-anchor="start" x="1293.5" y="-375.43" font-family="Courier New" font-size="6.00" fill="#d3d3d3">add_name: sm_0_primary_entity</text>
<text text-anchor="start" x="1293.5" y="-367.93" font-family="Courier New" font-size="6.00" fill="#d3d3d3">add_prop: ENTITY</text>
<text text-anchor="start" x="1293.5" y="-360.43" font-family="Courier New" font-size="6.00" fill="#d3d3d3">add_type: ENTITY</text>
</g>
<!-- edge_as_node_0&#45;&gt;EntityKey(sm_0_primary_entity) -->
<g id="edge2" class="edge">
<title>edge_as_node_0&#45;&gt;EntityKey(sm_0_primary_entity)</title>
<path fill="none" stroke="#d3d3d3" d="M1249.28,-404.32C1257.25,-403.16 1265.6,-401.94 1274.11,-400.7"/>
<polygon fill="#303030" stroke="#d3d3d3" points="1274.51,-404.18 1283.9,-399.27 1273.5,-397.25 1274.51,-404.18"/>
</g>
<!-- EntityKey(sm_1_primary_entity) -->
<g id="node24" class="node">
<title>EntityKey(sm_1_primary_entity)</title>
<polygon fill="#303030" stroke="#ffa07a" points="1534.5,-336.38 1285.5,-336.38 1285.5,-283.62 1534.5,-283.62 1534.5,-336.38"/>
<text text-anchor="start" x="1297.5" y="-316.98" font-family="Courier New" font-size="12.00" fill="#d3d3d3">EntityKey(sm_1_primary_entity)</text>
<text text-anchor="start" x="1293.5" y="-304.43" font-family="Courier New" font-size="6.00" fill="#d3d3d3">add_name: sm_1_primary_entity</text>
<text text-anchor="start" x="1293.5" y="-296.93" font-family="Courier New" font-size="6.00" fill="#d3d3d3">add_prop: ENTITY</text>
<text text-anchor="start" x="1293.5" y="-289.43" font-family="Courier New" font-size="6.00" fill="#d3d3d3">add_type: ENTITY</text>
</g>
<!-- edge_as_node_1&#45;&gt;EntityKey(sm_1_primary_entity) -->
<g id="edge4" class="edge">
<title>edge_as_node_1&#45;&gt;EntityKey(sm_1_primary_entity)</title>
<path fill="none" stroke="#d3d3d3" d="M1249.28,-325.55C1257.25,-324.77 1265.6,-323.96 1274.11,-323.13"/>
<polygon fill="#303030" stroke="#d3d3d3" points="1274.27,-326.63 1283.89,-322.18 1273.6,-319.66 1274.27,-326.63"/>
</g>
<!-- DsiEntity(sm_0_primary_entity) -->
<g id="node26" class="node">
<title>DsiEntity(sm_0_primary_entity)</title>
<polygon fill="#303030" stroke="#87cefa" points="630,-228.88 381,-228.88 381,-191.12 630,-191.12 630,-228.88"/>
<text text-anchor="start" x="393" y="-209.47" font-family="Courier New" font-size="12.00" fill="#d3d3d3">DsiEntity(sm_0_primary_entity)</text>
<text text-anchor="start" x="389" y="-196.93" font-family="Courier New" font-size="6.00" fill="#d3d3d3">add_name: sm_0_primary_entity</text>
</g>
<!-- edge_as_node_2&#45;&gt;DsiEntity(sm_0_primary_entity) -->
<g id="edge6" class="edge">
<title>edge_as_node_2&#45;&gt;DsiEntity(sm_0_primary_entity)</title>
<path fill="none" stroke="#d3d3d3" d="M344.78,-212.83C352.75,-212.69 361.1,-212.54 369.61,-212.39"/>
<polygon fill="#303030" stroke="#d3d3d3" points="369.44,-215.89 379.38,-212.21 369.32,-208.89 369.44,-215.89"/>
</g>
<!-- DsiEntity(sm_1_primary_entity) -->
<g id="node27" class="node">
<title>DsiEntity(sm_1_primary_entity)</title>
<polygon fill="#303030" stroke="#87cefa" points="630,-284.88 381,-284.88 381,-247.12 630,-247.12 630,-284.88"/>
<text text-anchor="start" x="393" y="-265.48" font-family="Courier New" font-size="12.00" fill="#d3d3d3">DsiEntity(sm_1_primary_entity)</text>
<text text-anchor="start" x="389" y="-252.93" font-family="Courier New" font-size="6.00" fill="#d3d3d3">add_name: sm_1_primary_entity</text>
</g>
<!-- edge_as_node_3&#45;&gt;DsiEntity(sm_1_primary_entity) -->
<g id="edge8" class="edge">
<title>edge_as_node_3&#45;&gt;DsiEntity(sm_1_primary_entity)</title>
<path fill="none" stroke="#d3d3d3" d="M344.78,-261.05C352.75,-261.3 361.1,-261.56 369.61,-261.82"/>
<polygon fill="#303030" stroke="#d3d3d3" points="369.28,-265.31 379.38,-262.12 369.49,-258.32 369.28,-265.31"/>
</g>
<!-- MetricTimeDimension(YEAR) -->
<g id="node28" class="node">
<title>MetricTimeDimension(YEAR)</title>
<polygon fill="#303030" stroke="#d3d3d3" points="1515.75,-93.38 1304.25,-93.38 1304.25,-40.62 1515.75,-40.62 1515.75,-93.38"/>
<text text-anchor="start" x="1316.25" y="-73.97" font-family="Courier New" font-size="12.00" fill="#d3d3d3">MetricTimeDimension(YEAR)</text>
<text text-anchor="start" x="1312.25" y="-61.42" font-family="Courier New" font-size="6.00" fill="#d3d3d3">add_name: metric_time</text>
<text text-anchor="start" x="1312.25" y="-53.92" font-family="Courier New" font-size="6.00" fill="#d3d3d3">add_prop: METRIC_TIME</text>
<text text-anchor="start" x="1312.25" y="-46.42" font-family="Courier New" font-size="6.00" fill="#d3d3d3">add_type: TIME_DIMENSION</text>
</g>
<!-- edge_as_node_4&#45;&gt;MetricTimeDimension(YEAR) -->
<g id="edge10" class="edge">
<title>edge_as_node_4&#45;&gt;MetricTimeDimension(YEAR)</title>
<path fill="none" stroke="#d3d3d3" d="M1240.03,-67C1256.16,-67 1274.34,-67 1292.63,-67"/>
<polygon fill="#303030" stroke="#d3d3d3" points="1292.5,-70.5 1302.5,-67 1292.5,-63.5 1292.5,-70.5"/>
</g>
<!-- TimeDimension(ds, year) -->
<g id="node29" class="node">
<title>TimeDimension(ds, year)</title>
<polygon fill="#303030" stroke="#d3d3d3" points="1508.25,-183.62 1311.75,-183.62 1311.75,-138.38 1508.25,-138.38 1508.25,-183.62"/>
<text text-anchor="start" x="1323.75" y="-164.22" font-family="Courier New" font-size="12.00" fill="#d3d3d3">TimeDimension(ds, year)</text>
<text text-anchor="start" x="1319.75" y="-151.68" font-family="Courier New" font-size="6.00" fill="#d3d3d3">add_name: ds</text>
<text text-anchor="start" x="1319.75" y="-144.18" font-family="Courier New" font-size="6.00" fill="#d3d3d3">add_type: TIME_DIMENSION</text>
</g>
<!-- edge_as_node_5&#45;&gt;TimeDimension(ds, year) -->
<g id="edge12" class="edge">
<title>edge_as_node_5&#45;&gt;TimeDimension(ds, year)</title>
<path fill="none" stroke="#d3d3d3" d="M1236.27,-138.84C1255.47,-141.3 1277.91,-144.18 1300.12,-147.03"/>
<polygon fill="#303030" stroke="#d3d3d3" points="1299.48,-150.48 1309.85,-148.28 1300.37,-143.53 1299.48,-150.48"/>
</g>
<!-- edge_as_node_6 -->
<g id="node8" class="node">
<title>edge_as_node_6</title>
<polygon fill="none" stroke="none" points="1688.62,-174 1579.88,-174 1579.88,-144 1688.62,-144 1688.62,-174"/>
<text text-anchor="start" x="1579.88" y="-168.3" font-family="Courier New" font-size="6.00" fill="#d3d3d3">add_time_grain: year</text>
<text text-anchor="start" x="1579.88" y="-160.8" font-family="Courier New" font-size="6.00" fill="#d3d3d3">type: EntityAttributeEdge</text>
<text text-anchor="start" x="1579.88" y="-153.3" font-family="Courier New" font-size="6.00" fill="#d3d3d3">tail: TimeDimension(ds, year)</text>
<text text-anchor="start" x="1579.88" y="-145.8" font-family="Courier New" font-size="6.00" fill="#d3d3d3">head: Time(year)</text>
</g>
<!-- Time(year) -->
<g id="node32" class="node">
<title>Time(year)</title>
<polygon fill="#303030" stroke="#ffa07a" points="1863,-155.88 1764,-155.88 1764,-118.12 1863,-118.12 1863,-155.88"/>
<text text-anchor="start" x="1776" y="-136.47" font-family="Courier New" font-size="12.00" fill="#d3d3d3">Time(year)</text>
<text text-anchor="start" x="1772" y="-123.92" font-family="Courier New" font-size="6.00" fill="#d3d3d3">add_name: year</text>
</g>
<!-- edge_as_node_6&#45;&gt;Time(year) -->
<g id="edge14" class="edge">
<title>edge_as_node_6&#45;&gt;Time(year)</title>
<path fill="none" stroke="#d3d3d3" d="M1688.43,-152.4C1708.56,-149.9 1731.62,-147.04 1752.35,-144.47"/>
<polygon fill="#303030" stroke="#d3d3d3" points="1752.6,-147.96 1762.09,-143.26 1751.74,-141.02 1752.6,-147.96"/>
</g>
<!-- edge_as_node_7 -->
<g id="node9" class="node">
<title>edge_as_node_7</title>
<polygon fill="none" stroke="none" points="1698,-78 1570.5,-78 1570.5,-48 1698,-48 1698,-78"/>
<text text-anchor="start" x="1570.5" y="-72.3" font-family="Courier New" font-size="6.00" fill="#d3d3d3">add_prop: DERIVED_TIME_GRANULARITY</text>
<text text-anchor="start" x="1570.5" y="-64.8" font-family="Courier New" font-size="6.00" fill="#d3d3d3">type: EntityAttributeEdge</text>
<text text-anchor="start" x="1570.5" y="-57.3" font-family="Courier New" font-size="6.00" fill="#d3d3d3">tail: TimeDimension(ds, year)</text>
<text text-anchor="start" x="1570.5" y="-49.8" font-family="Courier New" font-size="6.00" fill="#d3d3d3">head: Time(extract_year)</text>
</g>
<!-- Time(extract_year) -->
<g id="node31" class="node">
<title>Time(extract_year)</title>
<polygon fill="#303030" stroke="#ffa07a" points="1893,-99.88 1734,-99.88 1734,-62.12 1893,-62.12 1893,-99.88"/>
<text text-anchor="start" x="1746" y="-80.47" font-family="Courier New" font-size="12.00" fill="#d3d3d3">Time(extract_year)</text>
<text text-anchor="start" x="1742" y="-67.92" font-family="Courier New" font-size="6.00" fill="#d3d3d3">add_name: extract_year</text>
</g>
<!-- edge_as_node_7&#45;&gt;Time(extract_year) -->
<g id="edge16" class="edge">
<title>edge_as_node_7&#45;&gt;Time(extract_year)</title>
<path fill="none" stroke="#d3d3d3" d="M1697.74,-69.35C1705.76,-70.16 1714.09,-71.01 1722.44,-71.85"/>
<polygon fill="#303030" stroke="#d3d3d3" points="1721.99,-75.33 1732.3,-72.86 1722.7,-68.36 1721.99,-75.33"/>
</g>
<!-- edge_as_node_8 -->
<g id="node10" class="node">
<title>edge_as_node_8</title>
<polygon fill="none" stroke="none" points="1698,-285.75 1570.5,-285.75 1570.5,-248.25 1698,-248.25 1698,-285.75"/>
<text text-anchor="start" x="1570.5" y="-280.05" font-family="Courier New" font-size="6.00" fill="#d3d3d3">add_prop: DERIVED_TIME_GRANULARITY</text>
<text text-anchor="start" x="1570.5" y="-272.55" font-family="Courier New" font-size="6.00" fill="#d3d3d3">add_time_grain: custom_year</text>
<text text-anchor="start" x="1570.5" y="-265.05" font-family="Courier New" font-size="6.00" fill="#d3d3d3">type: EntityAttributeEdge</text>
<text text-anchor="start" x="1570.5" y="-257.55" font-family="Courier New" font-size="6.00" fill="#d3d3d3">tail: TimeDimension(ds, year)</text>
<text text-anchor="start" x="1570.5" y="-250.05" font-family="Courier New" font-size="6.00" fill="#d3d3d3">head: Time(custom_year)</text>
</g>
<!-- Time(custom_year) -->
<g id="node30" class="node">
<title>Time(custom_year)</title>
<polygon fill="#303030" stroke="#ffa07a" points="1889.25,-211.88 1737.75,-211.88 1737.75,-174.12 1889.25,-174.12 1889.25,-211.88"/>
<text text-anchor="start" x="1749.75" y="-192.47" font-family="Courier New" font-size="12.00" fill="#d3d3d3">Time(custom_year)</text>
<text text-anchor="start" x="1745.75" y="-179.93" font-family="Courier New" font-size="6.00" fill="#d3d3d3">add_name: custom_year</text>
</g>
<!-- edge_as_node_8&#45;&gt;Time(custom_year) -->
<g id="edge18" class="edge">
<title>edge_as_node_8&#45;&gt;Time(custom_year)</title>
<path fill="none" stroke="#d3d3d3" d="M1679.98,-248.33C1702.94,-238.74 1731.15,-226.96 1755.64,-216.74"/>
<polygon fill="#303030" stroke="#d3d3d3" points="1756.96,-219.98 1764.84,-212.9 1754.27,-213.52 1756.96,-219.98"/>
</g>
<!-- edge_as_node_9 -->
<g id="node11" class="node">
<title>edge_as_node_9</title>
<polygon fill="none" stroke="none" points="1236.38,-190.25 1127.62,-190.25 1127.62,-167.75 1236.38,-167.75 1236.38,-190.25"/>
<text text-anchor="start" x="1127.62" y="-184.55" font-family="Courier New" font-size="6.00" fill="#d3d3d3">type: EntityRelationshipEdge</text>
<text text-anchor="start" x="1127.62" y="-177.05" font-family="Courier New" font-size="6.00" fill="#d3d3d3">tail: JoinTo(sm_0)</text>
<text text-anchor="start" x="1127.62" y="-169.55" font-family="Courier New" font-size="6.00" fill="#d3d3d3">head: TimeDimension(ds, year)</text>
</g>
<!-- edge_as_node_9&#45;&gt;TimeDimension(ds, year) -->
<g id="edge20" class="edge">
<title>edge_as_node_9&#45;&gt;TimeDimension(ds, year)</title>
<path fill="none" stroke="#d3d3d3" d="M1236.27,-174.76C1255.47,-173.23 1277.91,-171.44 1300.12,-169.67"/>
<polygon fill="#303030" stroke="#d3d3d3" points="1300.15,-173.18 1309.84,-168.9 1299.59,-166.2 1300.15,-173.18"/>
</g>
<!-- edge_as_node_10 -->
<g id="node12" class="node">
<title>edge_as_node_10</title>
<polygon fill="none" stroke="none" points="1698,-229.75 1570.5,-229.75 1570.5,-192.25 1698,-192.25 1698,-229.75"/>
<text text-anchor="start" x="1570.5" y="-224.05" font-family="Courier New" font-size="6.00" fill="#d3d3d3">add_prop: DERIVED_TIME_GRANULARITY</text>
<text text-anchor="start" x="1570.5" y="-216.55" font-family="Courier New" font-size="6.00" fill="#d3d3d3">add_time_grain: custom_year</text>
<text text-anchor="start" x="1570.5" y="-209.05" font-family="Courier New" font-size="6.00" fill="#d3d3d3">type: EntityAttributeEdge</text>
<text text-anchor="start" x="1570.5" y="-201.55" font-family="Courier New" font-size="6.00" fill="#d3d3d3">tail: MetricTimeDimension(YEAR)</text>
<text text-anchor="start" x="1570.5" y="-194.05" font-family="Courier New" font-size="6.00" fill="#d3d3d3">head: Time(custom_year)</text>
</g>
<!-- edge_as_node_10&#45;&gt;Time(custom_year) -->
<g id="edge22" class="edge">
<title>edge_as_node_10&#45;&gt;Time(custom_year)</title>
<path fill="none" stroke="#d3d3d3" d="M1697.74,-204.65C1706.98,-203.72 1716.64,-202.73 1726.26,-201.76"/>
<polygon fill="#303030" stroke="#d3d3d3" points="1726.41,-205.26 1736,-200.77 1725.7,-198.3 1726.41,-205.26"/>
</g>
<!-- edge_as_node_11 -->
<g id="node13" class="node">
<title>edge_as_node_11</title>
<polygon fill="none" stroke="none" points="1698,-30 1570.5,-30 1570.5,0 1698,0 1698,-30"/>
<text text-anchor="start" x="1570.5" y="-24.3" font-family="Courier New" font-size="6.00" fill="#d3d3d3">add_prop: DERIVED_TIME_GRANULARITY</text>
<text text-anchor="start" x="1570.5" y="-16.8" font-family="Courier New" font-size="6.00" fill="#d3d3d3">type: EntityAttributeEdge</text>
<text text-anchor="start" x="1570.5" y="-9.3" font-family="Courier New" font-size="6.00" fill="#d3d3d3">tail: MetricTimeDimension(YEAR)</text>
<text text-anchor="start" x="1570.5" y="-1.8" font-family="Courier New" font-size="6.00" fill="#d3d3d3">head: Time(extract_year)</text>
</g>
<!-- edge_as_node_11&#45;&gt;Time(extract_year) -->
<g id="edge24" class="edge">
<title>edge_as_node_11&#45;&gt;Time(extract_year)</title>
<path fill="none" stroke="#d3d3d3" d="M1675.47,-29.98C1697.45,-38.16 1725.15,-48.48 1749.89,-57.69"/>
<polygon fill="#303030" stroke="#d3d3d3" points="1748.64,-60.96 1759.23,-61.16 1751.08,-54.4 1748.64,-60.96"/>
</g>
<!-- edge_as_node_12 -->
<g id="node14" class="node">
<title>edge_as_node_12</title>
<polygon fill="none" stroke="none" points="1692.38,-126 1576.12,-126 1576.12,-96 1692.38,-96 1692.38,-126"/>
<text text-anchor="start" x="1576.12" y="-120.3" font-family="Courier New" font-size="6.00" fill="#d3d3d3">add_time_grain: year</text>
<text text-anchor="start" x="1576.12" y="-112.8" font-family="Courier New" font-size="6.00" fill="#d3d3d3">type: EntityAttributeEdge</text>
<text text-anchor="start" x="1576.12" y="-105.3" font-family="Courier New" font-size="6.00" fill="#d3d3d3">tail: MetricTimeDimension(YEAR)</text>
<text text-anchor="start" x="1576.12" y="-97.8" font-family="Courier New" font-size="6.00" fill="#d3d3d3">head: Time(year)</text>
</g>
<!-- edge_as_node_12&#45;&gt;Time(year) -->
<g id="edge26" class="edge">
<title>edge_as_node_12&#45;&gt;Time(year)</title>
<path fill="none" stroke="#d3d3d3" d="M1692.31,-119.37C1711.51,-122.19 1732.99,-125.34 1752.42,-128.19"/>
<polygon fill="#303030" stroke="#d3d3d3" points="1751.69,-131.62 1762.09,-129.61 1752.71,-124.69 1751.69,-131.62"/>
</g>
<!-- edge_as_node_13 -->
<g id="node15" class="node">
<title>edge_as_node_13</title>
<polygon fill="none" stroke="none" points="801,-325.25 666,-325.25 666,-302.75 801,-302.75 801,-325.25"/>
<text text-anchor="start" x="666" y="-319.55" font-family="Courier New" font-size="6.00" fill="#d3d3d3">type: JoinToModelEdge</text>
<text text-anchor="start" x="666" y="-312.05" font-family="Courier New" font-size="6.00" fill="#d3d3d3">tail: DsiEntity(sm_1_primary_entity)</text>
<text text-anchor="start" x="666" y="-304.55" font-family="Courier New" font-size="6.00" fill="#d3d3d3">head: JoinTo(sm_1)</text>
</g>
<!-- JoinTo(sm_1) -->
<g id="node34" class="node">
<title>JoinTo(sm_1)</title>
<polygon fill="#303030" stroke="#d3d3d3" points="1014.75,-334.88 900.75,-334.88 900.75,-297.12 1014.75,-297.12 1014.75,-334.88"/>
<text text-anchor="start" x="912.75" y="-315.48" font-family="Courier New" font-size="12.00" fill="#d3d3d3">JoinTo(sm_1)</text>
<text text-anchor="start" x="908.75" y="-302.93" font-family="Courier New" font-size="6.00" fill="#d3d3d3">add_model: sm_1</text>
</g>
<!-- edge_as_node_13&#45;&gt;JoinTo(sm_1) -->
<g id="edge28" class="edge">
<title>edge_as_node_13&#45;&gt;JoinTo(sm_1)</title>
<path fill="none" stroke="#d3d3d3" d="M800.88,-314.6C828.76,-314.85 861.15,-315.14 889.16,-315.39"/>
<polygon fill="#303030" stroke="#d3d3d3" points="888.92,-318.89 898.95,-315.48 888.98,-311.89 888.92,-318.89"/>
</g>
<!-- edge_as_node_14 -->
<g id="node16" class="node">
<title>edge_as_node_14</title>
<polygon fill="none" stroke="none" points="801,-241.5 666,-241.5 666,-196.5 801,-196.5 801,-241.5"/>
<text text-anchor="start" x="666" y="-235.8" font-family="Courier New" font-size="6.00" fill="#d3d3d3">add_name: sm_0_measure_0_metric</text>
<text text-anchor="start" x="666" y="-228.3" font-family="Courier New" font-size="6.00" fill="#d3d3d3">add_prop: METRIC</text>
<text text-anchor="start" x="666" y="-220.8" font-family="Courier New" font-size="6.00" fill="#d3d3d3">add_type: METRIC</text>
<text text-anchor="start" x="666" y="-213.3" font-family="Courier New" font-size="6.00" fill="#d3d3d3">type: EntityAttributeEdge</text>
<text text-anchor="start" x="666" y="-205.8" font-family="Courier New" font-size="6.00" fill="#d3d3d3">tail: DsiEntity(sm_1_primary_entity)</text>
<text text-anchor="start" x="666" y="-198.3" font-family="Courier New" font-size="6.00" fill="#d3d3d3">head: Metric(sm_0_measure_0_metric)</text>
</g>
<!-- Metric(sm_0_measure_0_metric) -->
<g id="node35" class="node">
<title>Metric(sm_0_measure_0_metric)</title>
<polygon fill="#303030" stroke="#ffa07a" points="1078.5,-169 837,-169 837,-133 1078.5,-133 1078.5,-169"/>
<text text-anchor="start" x="849" y="-146.72" font-family="Courier New" font-size="12.00" fill="#d3d3d3">Metric(sm_0_measure_0_metric)</text>
</g>
<!-- edge_as_node_14&#45;&gt;Metric(sm_0_measure_0_metric) -->
<g id="edge30" class="edge">
<title>edge_as_node_14&#45;&gt;Metric(sm_0_measure_0_metric)</title>
<path fill="none" stroke="#d3d3d3" d="M800.88,-198.69C827.52,-190.54 858.29,-181.13 885.41,-172.83"/>
<polygon fill="#303030" stroke="#d3d3d3" points="886.41,-176.18 894.94,-169.91 884.36,-169.49 886.41,-176.18"/>
</g>
<!-- edge_as_node_15 -->
<g id="node17" class="node">
<title>edge_as_node_15</title>
<polygon fill="none" stroke="none" points="801,-178.5 666,-178.5 666,-133.5 801,-133.5 801,-178.5"/>
<text text-anchor="start" x="666" y="-172.8" font-family="Courier New" font-size="6.00" fill="#d3d3d3">add_name: sm_0_measure_0_metric</text>
<text text-anchor="start" x="666" y="-165.3" font-family="Courier New" font-size="6.00" fill="#d3d3d3">add_prop: METRIC</text>
<text text-anchor="start" x="666" y="-157.8" font-family="Courier New" font-size="6.00" fill="#d3d3d3">add_type: METRIC</text>
<text text-anchor="start" x="666" y="-150.3" font-family="Courier New" font-size="6.00" fill="#d3d3d3">type: EntityAttributeEdge</text>
<text text-anchor="start" x="666" y="-142.8" font-family="Courier New" font-size="6.00" fill="#d3d3d3">tail: DsiEntity(sm_0_primary_entity)</text>
<text text-anchor="start" x="666" y="-135.3" font-family="Courier New" font-size="6.00" fill="#d3d3d3">head: Metric(sm_0_measure_0_metric)</text>
</g>
<!-- edge_as_node_15&#45;&gt;Metric(sm_0_measure_0_metric) -->
<g id="edge32" class="edge">
<title>edge_as_node_15&#45;&gt;Metric(sm_0_measure_0_metric)</title>
<path fill="none" stroke="#d3d3d3" d="M800.88,-154.51C808.71,-154.33 816.89,-154.15 825.23,-153.96"/>
<polygon fill="#303030" stroke="#d3d3d3" points="825.25,-157.46 835.17,-153.74 825.09,-150.46 825.25,-157.46"/>
</g>
<!-- edge_as_node_16 -->
<g id="node18" class="node">
<title>edge_as_node_16</title>
<polygon fill="none" stroke="none" points="1228.88,-466.25 1135.12,-466.25 1135.12,-443.75 1228.88,-443.75 1228.88,-466.25"/>
<text text-anchor="start" x="1135.12" y="-460.55" font-family="Courier New" font-size="6.00" fill="#d3d3d3">type: EntityAttributeEdge</text>
<text text-anchor="start" x="1135.12" y="-453.05" font-family="Courier New" font-size="6.00" fill="#d3d3d3">tail: JoinTo(sm_1)</text>
<text text-anchor="start" x="1135.12" y="-445.55" font-family="Courier New" font-size="6.00" fill="#d3d3d3">head: Dimension(dim_0)</text>
</g>
<!-- Dimension(dim_0) -->
<g id="node25" class="node">
<title>Dimension(dim_0)</title>
<polygon fill="#303030" stroke="#ffa07a" points="1482,-470.62 1338,-470.62 1338,-425.38 1482,-425.38 1482,-470.62"/>
<text text-anchor="start" x="1350" y="-451.23" font-family="Courier New" font-size="12.00" fill="#d3d3d3">Dimension(dim_0)</text>
<text text-anchor="start" x="1346" y="-438.68" font-family="Courier New" font-size="6.00" fill="#d3d3d3">add_name: dim_0</text>
<text text-anchor="start" x="1346" y="-431.18" font-family="Courier New" font-size="6.00" fill="#d3d3d3">add_type: DIMENSION</text>
</g>
<!-- edge_as_node_16&#45;&gt;Dimension(dim_0) -->
<g id="edge34" class="edge">
<title>edge_as_node_16&#45;&gt;Dimension(dim_0)</title>
<path fill="none" stroke="#d3d3d3" d="M1228.73,-453.58C1256.66,-452.72 1293.19,-451.59 1326.07,-450.57"/>
<polygon fill="#303030" stroke="#d3d3d3" points="1326.12,-454.07 1336.01,-450.26 1325.9,-447.07 1326.12,-454.07"/>
</g>
<!-- edge_as_node_17 -->
<g id="node19" class="node">
<title>edge_as_node_17</title>
<polygon fill="none" stroke="none" points="1249.5,-302.25 1114.5,-302.25 1114.5,-279.75 1249.5,-279.75 1249.5,-302.25"/>
<text text-anchor="start" x="1114.5" y="-296.55" font-family="Courier New" font-size="6.00" fill="#d3d3d3">type: EntityAttributeEdge</text>
<text text-anchor="start" x="1114.5" y="-289.05" font-family="Courier New" font-size="6.00" fill="#d3d3d3">tail: JoinTo(sm_1)</text>
<text text-anchor="start" x="1114.5" y="-281.55" font-family="Courier New" font-size="6.00" fill="#d3d3d3">head: EntityKey(sm_1_primary_entity)</text>
</g>
<!-- edge_as_node_17&#45;&gt;EntityKey(sm_1_primary_entity) -->
<g id="edge36" class="edge">
<title>edge_as_node_17&#45;&gt;EntityKey(sm_1_primary_entity)</title>
<path fill="none" stroke="#d3d3d3" d="M1249.28,-296.57C1257.25,-297.24 1265.6,-297.94 1274.11,-298.66"/>
<polygon fill="#303030" stroke="#d3d3d3" points="1273.63,-302.13 1283.89,-299.48 1274.21,-295.16 1273.63,-302.13"/>
</g>
<!-- edge_as_node_18 -->
<g id="node20" class="node">
<title>edge_as_node_18</title>
<polygon fill="none" stroke="none" points="1249.5,-250.25 1114.5,-250.25 1114.5,-227.75 1249.5,-227.75 1249.5,-250.25"/>
<text text-anchor="start" x="1114.5" y="-244.55" font-family="Courier New" font-size="6.00" fill="#d3d3d3">type: EntityAttributeEdge</text>
<text text-anchor="start" x="1114.5" y="-237.05" font-family="Courier New" font-size="6.00" fill="#d3d3d3">tail: JoinTo(sm_0)</text>
<text text-anchor="start" x="1114.5" y="-229.55" font-family="Courier New" font-size="6.00" fill="#d3d3d3">head: EntityKey(sm_1_primary_entity)</text>
</g>
<!-- edge_as_node_18&#45;&gt;EntityKey(sm_1_primary_entity) -->
<g id="edge38" class="edge">
<title>edge_as_node_18&#45;&gt;EntityKey(sm_1_primary_entity)</title>
<path fill="none" stroke="#d3d3d3" d="M1218.56,-250.17C1244.02,-258.17 1279.59,-269.35 1313.11,-279.87"/>
<polygon fill="#303030" stroke="#d3d3d3" points="1311.87,-283.15 1322.46,-282.81 1313.96,-276.47 1311.87,-283.15"/>
</g>
<!-- edge_as_node_19 -->
<g id="node21" class="node">
<title>edge_as_node_19</title>
<polygon fill="none" stroke="none" points="801,-282.25 666,-282.25 666,-259.75 801,-259.75 801,-282.25"/>
<text text-anchor="start" x="666" y="-276.55" font-family="Courier New" font-size="6.00" fill="#d3d3d3">type: JoinToModelEdge</text>
<text text-anchor="start" x="666" y="-269.05" font-family="Courier New" font-size="6.00" fill="#d3d3d3">tail: DsiEntity(sm_0_primary_entity)</text>
<text text-anchor="start" x="666" y="-261.55" font-family="Courier New" font-size="6.00" fill="#d3d3d3">head: JoinTo(sm_0)</text>
</g>
<!-- JoinTo(sm_0) -->
<g id="node33" class="node">
<title>JoinTo(sm_0)</title>
<polygon fill="#303030" stroke="#d3d3d3" points="1014.75,-251.88 900.75,-251.88 900.75,-214.12 1014.75,-214.12 1014.75,-251.88"/>
<text text-anchor="start" x="912.75" y="-232.47" font-family="Courier New" font-size="12.00" fill="#d3d3d3">JoinTo(sm_0)</text>
<text text-anchor="start" x="908.75" y="-219.93" font-family="Courier New" font-size="6.00" fill="#d3d3d3">add_model: sm_0</text>
</g>
<!-- edge_as_node_19&#45;&gt;JoinTo(sm_0) -->
<g id="edge40" class="edge">
<title>edge_as_node_19&#45;&gt;JoinTo(sm_0)</title>
<path fill="none" stroke="#d3d3d3" d="M800.28,-259.75C828.42,-254.94 861.24,-249.33 889.53,-244.49"/>
<polygon fill="#303030" stroke="#d3d3d3" points="889.78,-248 899.04,-242.87 888.6,-241.1 889.78,-248"/>
</g>
<!-- edge_as_node_20 -->
<g id="node22" class="node">
<title>edge_as_node_20</title>
<polygon fill="none" stroke="none" points="1249.5,-384.25 1114.5,-384.25 1114.5,-361.75 1249.5,-361.75 1249.5,-384.25"/>
<text text-anchor="start" x="1114.5" y="-378.55" font-family="Courier New" font-size="6.00" fill="#d3d3d3">type: EntityAttributeEdge</text>
<text text-anchor="start" x="1114.5" y="-371.05" font-family="Courier New" font-size="6.00" fill="#d3d3d3">tail: JoinTo(sm_0)</text>
<text text-anchor="start" x="1114.5" y="-363.55" font-family="Courier New" font-size="6.00" fill="#d3d3d3">head: EntityKey(sm_0_primary_entity)</text>
</g>
<!-- edge_as_node_20&#45;&gt;EntityKey(sm_0_primary_entity) -->
<g id="edge42" class="edge">
<title>edge_as_node_20&#45;&gt;EntityKey(sm_0_primary_entity)</title>
<path fill="none" stroke="#d3d3d3" d="M1249.28,-375.35C1257.25,-375.63 1265.6,-375.92 1274.11,-376.23"/>
<polygon fill="#303030" stroke="#d3d3d3" points="1273.76,-379.71 1283.88,-376.57 1274.01,-372.72 1273.76,-379.71"/>
</g>
<!-- DsiEntity(sm_0_primary_entity)&#45;&gt;edge_as_node_15 -->
<g id="edge31" class="edge">
<title>DsiEntity(sm_0_primary_entity)&#45;&gt;edge_as_node_15</title>
<path fill="none" stroke="#d3d3d3" d="M587.45,-190.66C613.29,-184.48 641.57,-177.73 666.23,-171.83"/>
</g>
<!-- DsiEntity(sm_0_primary_entity)&#45;&gt;edge_as_node_19 -->
<g id="edge39" class="edge">
<title>DsiEntity(sm_0_primary_entity)&#45;&gt;edge_as_node_19</title>
<path fill="none" stroke="#d3d3d3" d="M578.01,-229.3C615.25,-239.35 659.48,-251.29 691.05,-259.81"/>
</g>
<!-- DsiEntity(sm_1_primary_entity)&#45;&gt;edge_as_node_13 -->
<g id="edge27" class="edge">
<title>DsiEntity(sm_1_primary_entity)&#45;&gt;edge_as_node_13</title>
<path fill="none" stroke="#d3d3d3" d="M597.45,-285.32C625.41,-291.26 655.25,-297.59 679.75,-302.8"/>
</g>
<!-- DsiEntity(sm_1_primary_entity)&#45;&gt;edge_as_node_14 -->
<g id="edge29" class="edge">
<title>DsiEntity(sm_1_primary_entity)&#45;&gt;edge_as_node_14</title>
<path fill="none" stroke="#d3d3d3" d="M599.4,-246.68C621.8,-242.02 645.29,-237.14 666.2,-232.79"/>
</g>
<!-- MetricTimeDimension(YEAR)&#45;&gt;edge_as_node_10 -->
<g id="edge21" class="edge">
<title>MetricTimeDimension(YEAR)&#45;&gt;edge_as_node_10</title>
<path fill="none" stroke="#d3d3d3" d="M1452.28,-93.75C1496.6,-122.46 1565.83,-167.32 1604.55,-192.41"/>
</g>
<!-- MetricTimeDimension(YEAR)&#45;&gt;edge_as_node_11 -->
<g id="edge23" class="edge">
<title>MetricTimeDimension(YEAR)&#45;&gt;edge_as_node_11</title>
<path fill="none" stroke="#d3d3d3" d="M1515.94,-42.45C1534.6,-38.08 1553.49,-33.66 1570.5,-29.68"/>
</g>
<!-- MetricTimeDimension(YEAR)&#45;&gt;edge_as_node_12 -->
<g id="edge25" class="edge">
<title>MetricTimeDimension(YEAR)&#45;&gt;edge_as_node_12</title>
<path fill="none" stroke="#d3d3d3" d="M1515.94,-87.78C1536.73,-91.89 1557.82,-96.07 1576.26,-99.72"/>
</g>
<!-- TimeDimension(ds, year)&#45;&gt;edge_as_node_6 -->
<g id="edge13" class="edge">
<title>TimeDimension(ds, year)&#45;&gt;edge_as_node_6</title>
<path fill="none" stroke="#d3d3d3" d="M1508.48,-160.12C1533.09,-159.9 1558.61,-159.67 1580.1,-159.48"/>
</g>
<!-- TimeDimension(ds, year)&#45;&gt;edge_as_node_7 -->
<g id="edge15" class="edge">
<title>TimeDimension(ds, year)&#45;&gt;edge_as_node_7</title>
<path fill="none" stroke="#d3d3d3" d="M1463.39,-137.9C1505.48,-119.34 1563.35,-93.82 1599.51,-77.88"/>
</g>
<!-- TimeDimension(ds, year)&#45;&gt;edge_as_node_8 -->
<g id="edge17" class="edge">
<title>TimeDimension(ds, year)&#45;&gt;edge_as_node_8</title>
<path fill="none" stroke="#d3d3d3" d="M1459.22,-184C1499.57,-203.24 1556.4,-230.35 1594,-248.28"/>
</g>
<!-- JoinTo(sm_0)&#45;&gt;edge_as_node_9 -->
<g id="edge19" class="edge">
<title>JoinTo(sm_0)&#45;&gt;edge_as_node_9</title>
<path fill="none" stroke="#d3d3d3" d="M1015.12,-219.3C1052.16,-210.3 1100.01,-198.68 1134.8,-190.23"/>
</g>
<!-- JoinTo(sm_0)&#45;&gt;edge_as_node_18 -->
<g id="edge37" class="edge">
<title>JoinTo(sm_0)&#45;&gt;edge_as_node_18</title>
<path fill="none" stroke="#d3d3d3" d="M1015.12,-234.52C1045.47,-235.34 1083.08,-236.36 1114.82,-237.21"/>
</g>
<!-- JoinTo(sm_0)&#45;&gt;edge_as_node_20 -->
<g id="edge41" class="edge">
<title>JoinTo(sm_0)&#45;&gt;edge_as_node_20</title>
<path fill="none" stroke="#d3d3d3" d="M989.19,-252.17C1036.27,-281.83 1125.26,-337.89 1163.17,-361.77"/>
</g>
<!-- JoinTo(sm_1)&#45;&gt;edge_as_node_16 -->
<g id="edge33" class="edge">
<title>JoinTo(sm_1)&#45;&gt;edge_as_node_16</title>
<path fill="none" stroke="#d3d3d3" d="M989.65,-335.33C1036.89,-364.87 1125.52,-420.3 1163.26,-443.9"/>
</g>
<!-- JoinTo(sm_1)&#45;&gt;edge_as_node_17 -->
<g id="edge35" class="edge">
<title>JoinTo(sm_1)&#45;&gt;edge_as_node_17</title>
<path fill="none" stroke="#d3d3d3" d="M1015.12,-309.66C1045.47,-306.25 1083.08,-302.01 1114.82,-298.44"/>
</g>
</g>
</svg>
