<?xml version="1.0" encoding="UTF-8" standalone="no"?>
<!DOCTYPE svg PUBLIC "-//W3C//DTD SVG 1.1//EN"
 "http://www.w3.org/Graphics/SVG/1.1/DTD/svg11.dtd">
<!-- Generated by graphviz version 12.2.1 (20241206.2353)
 -->
<!-- Title: MutableSemanticGraph Pages: 1 -->
<svg width="1212pt" height="736pt"
 viewBox="0.00 0.00 1212.25 736.00" xmlns="http://www.w3.org/2000/svg" xmlns:xlink="http://www.w3.org/1999/xlink">
<g id="graph0" class="graph" transform="scale(1 1) rotate(0) translate(4 732)">
<title>MutableSemanticGraph</title>
<polygon fill="#181818" stroke="none" points="-4,4 -4,-732 1208.25,-732 1208.25,4 -4,4"/>
<g id="clust1" class="cluster">
<title>cluster_other_attribute</title>
<polygon fill="#181818" stroke="#000000" stroke-width="3" points="8,-141.25 8,-214 703,-214 703,-141.25 8,-141.25"/>
<text text-anchor="middle" x="355.5" y="-200.5" font-family="Courier New" font-size="10.00" fill="#d3d3d3">other_attribute</text>
</g>
<g id="clust2" class="cluster">
<title>cluster_model_entity</title>
<polygon fill="#181818" stroke="#000000" stroke-width="3" points="245,-414.25 245,-623.5 487,-623.5 487,-414.25 245,-414.25"/>
<text text-anchor="middle" x="366" y="-610" font-family="Courier New" font-size="10.00" fill="#d3d3d3">model_entity</text>
</g>
<g id="clust3" class="cluster">
<title>cluster_sm_0</title>
<polygon fill="#181818" stroke="#000000" stroke-width="3" points="495,-414.25 495,-487 625,-487 625,-414.25 495,-414.25"/>
<text text-anchor="middle" x="560" y="-473.5" font-family="Courier New" font-size="10.00" fill="#d3d3d3">sm_0</text>
</g>
<g id="clust4" class="cluster">
<title>cluster_sm_1</title>
<polygon fill="#181818" stroke="#000000" stroke-width="3" points="156,-277.75 156,-350.5 286,-350.5 286,-277.75 156,-277.75"/>
<text text-anchor="middle" x="221" y="-337" font-family="Courier New" font-size="10.00" fill="#d3d3d3">sm_1</text>
</g>
<g id="clust5" class="cluster">
<title>cluster_metric_time_base</title>
<polygon fill="#181818" stroke="#000000" stroke-width="3" points="865,-141.25 865,-214 1047,-214 1047,-141.25 865,-141.25"/>
<text text-anchor="middle" x="956" y="-200.5" font-family="Courier New" font-size="10.00" fill="#d3d3d3">metric_time_base</text>
</g>
<g id="clust6" class="cluster">
<title>cluster_time_attribute</title>
<polygon fill="#181818" stroke="#000000" stroke-width="3" points="625,-8 625,-80.75 1087,-80.75 1087,-8 625,-8"/>
<text text-anchor="middle" x="856" y="-67.25" font-family="Courier New" font-size="10.00" fill="#d3d3d3">time_attribute</text>
</g>
<g id="clust7" class="cluster">
<title>cluster_time_base</title>
<polygon fill="#181818" stroke="#000000" stroke-width="3" points="711,-141.25 711,-214 857,-214 857,-141.25 711,-141.25"/>
<text text-anchor="middle" x="784" y="-200.5" font-family="Courier New" font-size="10.00" fill="#d3d3d3">time_base</text>
</g>
<g id="clust8" class="cluster">
<title>cluster_ds</title>
<polygon fill="#181818" stroke="#000000" stroke-width="3" points="719,-277.75 719,-350.5 841,-350.5 841,-277.75 719,-277.75"/>
<text text-anchor="middle" x="780" y="-337" font-family="Courier New" font-size="10.00" fill="#d3d3d3">ds</text>
</g>
<!-- Dim(dim_0) -->
<g id="node1" class="node">
<title>Dim(dim_0)</title>
<polygon fill="#303030" stroke="#ffa07a" points="115.5,-185.25 16.5,-185.25 16.5,-149.25 115.5,-149.25 115.5,-185.25"/>
<text text-anchor="start" x="28.5" y="-162.97" font-family="Courier New" font-size="12.00" fill="#d3d3d3">Dim(dim_0)</text>
</g>
<!-- DsiEntityKey(sm_0_primary_entity) -->
<g id="node2" class="node">
<title>DsiEntityKey(sm_0_primary_entity)</title>
<polygon fill="#303030" stroke="#ffa07a" points="694.75,-185.25 423.25,-185.25 423.25,-149.25 694.75,-149.25 694.75,-185.25"/>
<text text-anchor="start" x="435.25" y="-162.97" font-family="Courier New" font-size="12.00" fill="#d3d3d3">DsiEntityKey(sm_0_primary_entity)</text>
</g>
<!-- DsiEntityKey(sm_1_primary_entity) -->
<g id="node3" class="node">
<title>DsiEntityKey(sm_1_primary_entity)</title>
<polygon fill="#303030" stroke="#ffa07a" points="404.75,-185.25 133.25,-185.25 133.25,-149.25 404.75,-149.25 404.75,-185.25"/>
<text text-anchor="start" x="145.25" y="-162.97" font-family="Courier New" font-size="12.00" fill="#d3d3d3">DsiEntityKey(sm_1_primary_entity)</text>
</g>
<!-- Entity(sm_0_primary_entity) -->
<g id="node4" class="node">
<title>Entity(sm_0_primary_entity)</title>
<polygon fill="#303030" stroke="#87cefa" points="479.25,-594.75 252.75,-594.75 252.75,-558.75 479.25,-558.75 479.25,-594.75"/>
<text text-anchor="start" x="264.75" y="-572.48" font-family="Courier New" font-size="12.00" fill="#d3d3d3">Entity(sm_0_primary_entity)</text>
</g>
<!-- Entity(sm_1_primary_entity) -->
<g id="node5" class="node">
<title>Entity(sm_1_primary_entity)</title>
<polygon fill="#303030" stroke="#87cefa" points="479.25,-458.25 252.75,-458.25 252.75,-422.25 479.25,-422.25 479.25,-458.25"/>
<text text-anchor="start" x="264.75" y="-435.98" font-family="Courier New" font-size="12.00" fill="#d3d3d3">Entity(sm_1_primary_entity)</text>
</g>
<!-- Entity(sm_0_primary_entity)&#45;&gt;Entity(sm_1_primary_entity) -->
<g id="edge1" class="edge">
<title>Entity(sm_0_primary_entity)&#45;&gt;Entity(sm_1_primary_entity)</title>
<path fill="none" stroke="#d3d3d3" d="M366,-558.44C366,-536.05 366,-496.72 366,-469.85"/>
<polygon fill="#303030" stroke="#d3d3d3" points="369.5,-470.01 366,-460.01 362.5,-470.01 369.5,-470.01"/>
<text text-anchor="start" x="376" y="-521.8" font-family="Courier New" font-size="6.00" fill="#d3d3d3">Entity(sm_0_primary_entity)</text>
<text text-anchor="start" x="404.12" y="-514.3" font-family="Courier New" font-size="6.00" fill="#d3d3d3">(weight:1)&#45;&gt;</text>
<text text-anchor="start" x="376" y="-506.8" font-family="Courier New" font-size="6.00" fill="#d3d3d3">Entity(sm_1_primary_entity)</text>
</g>
<!-- JoinTo(sm_0) -->
<g id="node7" class="node">
<title>JoinTo(sm_0)</title>
<polygon fill="#303030" stroke="#d3d3d3" points="617,-458.25 503,-458.25 503,-422.25 617,-422.25 617,-458.25"/>
<text text-anchor="start" x="515" y="-435.98" font-family="Courier New" font-size="12.00" fill="#d3d3d3">JoinTo(sm_0)</text>
</g>
<!-- Entity(sm_0_primary_entity)&#45;&gt;JoinTo(sm_0) -->
<g id="edge2" class="edge">
<title>Entity(sm_0_primary_entity)&#45;&gt;JoinTo(sm_0)</title>
<path fill="none" stroke="#d3d3d3" d="M390.96,-558.44C425.21,-534.7 486.9,-491.93 525.53,-465.15"/>
<polygon fill="#303030" stroke="#d3d3d3" points="527.36,-468.14 533.58,-459.57 523.37,-462.39 527.36,-468.14"/>
<text text-anchor="start" x="531.37" y="-521.8" font-family="Courier New" font-size="6.00" fill="#d3d3d3">Entity(sm_0_primary_entity)</text>
<text text-anchor="start" x="559.49" y="-514.3" font-family="Courier New" font-size="6.00" fill="#d3d3d3">(weight:0)&#45;&gt;</text>
<text text-anchor="start" x="559.49" y="-506.8" font-family="Courier New" font-size="6.00" fill="#d3d3d3">JoinTo(sm_0)</text>
</g>
<!-- JoinTo(sm_1) -->
<g id="node8" class="node">
<title>JoinTo(sm_1)</title>
<polygon fill="#303030" stroke="#d3d3d3" points="278,-321.75 164,-321.75 164,-285.75 278,-285.75 278,-321.75"/>
<text text-anchor="start" x="176" y="-299.48" font-family="Courier New" font-size="12.00" fill="#d3d3d3">JoinTo(sm_1)</text>
</g>
<!-- Entity(sm_1_primary_entity)&#45;&gt;JoinTo(sm_1) -->
<g id="edge3" class="edge">
<title>Entity(sm_1_primary_entity)&#45;&gt;JoinTo(sm_1)</title>
<path fill="none" stroke="#d3d3d3" d="M347.34,-421.94C322.11,-398.54 276.95,-356.64 248.01,-329.8"/>
<polygon fill="#303030" stroke="#d3d3d3" points="250.41,-327.26 240.7,-323.02 245.65,-332.39 250.41,-327.26"/>
<text text-anchor="start" x="254.75" y="-385.3" font-family="Courier New" font-size="6.00" fill="#d3d3d3">Entity(sm_1_primary_entity)</text>
<text text-anchor="start" x="282.88" y="-377.8" font-family="Courier New" font-size="6.00" fill="#d3d3d3">(weight:0)&#45;&gt;</text>
<text text-anchor="start" x="282.88" y="-370.3" font-family="Courier New" font-size="6.00" fill="#d3d3d3">JoinTo(sm_1)</text>
</g>
<!-- GroupByAttributeRoot -->
<g id="node6" class="node">
<title>GroupByAttributeRoot</title>
<polygon fill="#303030" stroke="#ffd700" points="453,-728 279,-728 279,-692 453,-692 453,-728"/>
<text text-anchor="start" x="291" y="-705.73" font-family="Courier New" font-size="12.00" fill="#d3d3d3">GroupByAttributeRoot</text>
</g>
<!-- GroupByAttributeRoot&#45;&gt;Entity(sm_0_primary_entity) -->
<g id="edge4" class="edge">
<title>GroupByAttributeRoot&#45;&gt;Entity(sm_0_primary_entity)</title>
<path fill="none" stroke="#d3d3d3" d="M366,-691.57C366,-669.78 366,-632.19 366,-606.2"/>
<polygon fill="#303030" stroke="#d3d3d3" points="369.5,-606.35 366,-596.35 362.5,-606.35 369.5,-606.35"/>
<text text-anchor="start" x="389.12" y="-658.3" font-family="Courier New" font-size="6.00" fill="#d3d3d3">GroupByAttributeRoot</text>
<text text-anchor="start" x="404.12" y="-650.8" font-family="Courier New" font-size="6.00" fill="#d3d3d3">(weight:0)&#45;&gt;</text>
<text text-anchor="start" x="376" y="-643.3" font-family="Courier New" font-size="6.00" fill="#d3d3d3">Entity(sm_0_primary_entity)</text>
</g>
<!-- GroupByAttributeRoot&#45;&gt;Entity(sm_1_primary_entity) -->
<g id="edge5" class="edge">
<title>GroupByAttributeRoot&#45;&gt;Entity(sm_1_primary_entity)</title>
<path fill="none" stroke="#d3d3d3" d="M350.37,-691.67C315.47,-650.74 234.25,-555.5 234.25,-555.5 234.25,-555.5 297.97,-499.76 336.78,-465.81"/>
<polygon fill="#303030" stroke="#d3d3d3" points="338.76,-468.73 343.98,-459.51 334.15,-463.46 338.76,-468.73"/>
<text text-anchor="start" x="136.12" y="-582.3" font-family="Courier New" font-size="6.00" fill="#d3d3d3">GroupByAttributeRoot</text>
<text text-anchor="start" x="151.12" y="-574.8" font-family="Courier New" font-size="6.00" fill="#d3d3d3">(weight:0)&#45;&gt;</text>
<text text-anchor="start" x="123" y="-567.3" font-family="Courier New" font-size="6.00" fill="#d3d3d3">Entity(sm_1_primary_entity)</text>
</g>
<!-- MetricTimeDim(YEAR) -->
<g id="node9" class="node">
<title>MetricTimeDim(YEAR)</title>
<polygon fill="#303030" stroke="#d3d3d3" points="1039.25,-185.25 872.75,-185.25 872.75,-149.25 1039.25,-149.25 1039.25,-185.25"/>
<text text-anchor="start" x="884.75" y="-162.97" font-family="Courier New" font-size="12.00" fill="#d3d3d3">MetricTimeDim(YEAR)</text>
</g>
<!-- GroupByAttributeRoot&#45;&gt;MetricTimeDim(YEAR) -->
<g id="edge6" class="edge">
<title>GroupByAttributeRoot&#45;&gt;MetricTimeDim(YEAR)</title>
<path fill="none" stroke="#d3d3d3" d="M406.74,-691.53C533.74,-633.93 914,-461.5 914,-461.5 914,-461.5 941.08,-271.79 951.75,-197.02"/>
<polygon fill="#303030" stroke="#d3d3d3" points="955.21,-197.55 953.16,-187.16 948.28,-196.56 955.21,-197.55"/>
<text text-anchor="start" x="924" y="-445.8" font-family="Courier New" font-size="6.00" fill="#d3d3d3">GroupByAttributeRoot</text>
<text text-anchor="start" x="939" y="-438.3" font-family="Courier New" font-size="6.00" fill="#d3d3d3">(weight:0)&#45;&gt;</text>
<text text-anchor="start" x="925.88" y="-430.8" font-family="Courier New" font-size="6.00" fill="#d3d3d3">MetricTimeDim(YEAR)</text>
</g>
<!-- JoinTo(sm_0)&#45;&gt;DsiEntityKey(sm_0_primary_entity) -->
<g id="edge9" class="edge">
<title>JoinTo(sm_0)&#45;&gt;DsiEntityKey(sm_0_primary_entity)</title>
<path fill="none" stroke="#d3d3d3" d="M560,-421.99C560,-389.49 560,-325 560,-325 560,-325 559.48,-242.64 559.19,-196.94"/>
<polygon fill="#303030" stroke="#d3d3d3" points="562.69,-197.15 559.13,-187.17 555.69,-197.19 562.69,-197.15"/>
<text text-anchor="start" x="609.38" y="-309.3" font-family="Courier New" font-size="6.00" fill="#d3d3d3">JoinTo(sm_0)</text>
<text text-anchor="start" x="609.38" y="-301.8" font-family="Courier New" font-size="6.00" fill="#d3d3d3">(weight:0)&#45;&gt;</text>
<text text-anchor="start" x="570" y="-294.3" font-family="Courier New" font-size="6.00" fill="#d3d3d3">DsiEntityKey(sm_0_primary_entity)</text>
</g>
<!-- JoinTo(sm_0)&#45;&gt;DsiEntityKey(sm_1_primary_entity) -->
<g id="edge10" class="edge">
<title>JoinTo(sm_0)&#45;&gt;DsiEntityKey(sm_1_primary_entity)</title>
<path fill="none" stroke="#d3d3d3" d="M531.48,-421.99C480.72,-389.49 380,-325 380,-325 380,-325 320.31,-240.17 288.47,-194.93"/>
<polygon fill="#303030" stroke="#d3d3d3" points="291.44,-193.06 282.82,-186.89 285.71,-197.08 291.44,-193.06"/>
<text text-anchor="start" x="429.38" y="-309.3" font-family="Courier New" font-size="6.00" fill="#d3d3d3">JoinTo(sm_0)</text>
<text text-anchor="start" x="429.38" y="-301.8" font-family="Courier New" font-size="6.00" fill="#d3d3d3">(weight:0)&#45;&gt;</text>
<text text-anchor="start" x="390" y="-294.3" font-family="Courier New" font-size="6.00" fill="#d3d3d3">DsiEntityKey(sm_1_primary_entity)</text>
</g>
<!-- TimeDim(ds) -->
<g id="node14" class="node">
<title>TimeDim(ds)</title>
<polygon fill="#303030" stroke="#d3d3d3" points="833.25,-321.75 726.75,-321.75 726.75,-285.75 833.25,-285.75 833.25,-321.75"/>
<text text-anchor="start" x="738.75" y="-299.48" font-family="Courier New" font-size="12.00" fill="#d3d3d3">TimeDim(ds)</text>
</g>
<!-- JoinTo(sm_0)&#45;&gt;TimeDim(ds) -->
<g id="edge7" class="edge">
<title>JoinTo(sm_0)&#45;&gt;TimeDim(ds)</title>
<path fill="none" stroke="#d3d3d3" d="M588.31,-421.94C627.39,-398.05 697.99,-354.89 741.74,-328.14"/>
<polygon fill="#303030" stroke="#d3d3d3" points="743.45,-331.2 750.16,-322.99 739.8,-325.22 743.45,-331.2"/>
<text text-anchor="start" x="702.61" y="-385.3" font-family="Courier New" font-size="6.00" fill="#d3d3d3">JoinTo(sm_0)</text>
<text text-anchor="start" x="702.61" y="-377.8" font-family="Courier New" font-size="6.00" fill="#d3d3d3">(weight:1)&#45;&gt;</text>
<text text-anchor="start" x="704.48" y="-370.3" font-family="Courier New" font-size="6.00" fill="#d3d3d3">TimeDim(ds)</text>
</g>
<!-- JoinTo(sm_1)&#45;&gt;Dim(dim_0) -->
<g id="edge11" class="edge">
<title>JoinTo(sm_1)&#45;&gt;Dim(dim_0)</title>
<path fill="none" stroke="#d3d3d3" d="M201.05,-285.44C173.97,-261.94 125.39,-219.78 94.47,-192.96"/>
<polygon fill="#303030" stroke="#d3d3d3" points="96.86,-190.39 87.01,-186.48 92.27,-195.68 96.86,-190.39"/>
<text text-anchor="start" x="163" y="-248.8" font-family="Courier New" font-size="6.00" fill="#d3d3d3">JoinTo(sm_1)</text>
<text text-anchor="start" x="163" y="-241.3" font-family="Courier New" font-size="6.00" fill="#d3d3d3">(weight:0)&#45;&gt;</text>
<text text-anchor="start" x="166.75" y="-233.8" font-family="Courier New" font-size="6.00" fill="#d3d3d3">Dim(dim_0)</text>
</g>
<!-- JoinTo(sm_1)&#45;&gt;DsiEntityKey(sm_1_primary_entity) -->
<g id="edge12" class="edge">
<title>JoinTo(sm_1)&#45;&gt;DsiEntityKey(sm_1_primary_entity)</title>
<path fill="none" stroke="#d3d3d3" d="M227.18,-285.44C235.24,-262.84 249.46,-223.01 259.05,-196.13"/>
<polygon fill="#303030" stroke="#d3d3d3" points="262.27,-197.51 262.34,-186.92 255.68,-195.16 262.27,-197.51"/>
<text text-anchor="start" x="271.62" y="-248.8" font-family="Courier New" font-size="6.00" fill="#d3d3d3">JoinTo(sm_1)</text>
<text text-anchor="start" x="271.62" y="-241.3" font-family="Courier New" font-size="6.00" fill="#d3d3d3">(weight:0)&#45;&gt;</text>
<text text-anchor="start" x="232.25" y="-233.8" font-family="Courier New" font-size="6.00" fill="#d3d3d3">DsiEntityKey(sm_1_primary_entity)</text>
</g>
<!-- Time(custom_year) -->
<g id="node10" class="node">
<title>Time(custom_year)</title>
<polygon fill="#303030" stroke="#ffa07a" points="784.75,-52 633.25,-52 633.25,-16 784.75,-16 784.75,-52"/>
<text text-anchor="start" x="645.25" y="-29.73" font-family="Courier New" font-size="12.00" fill="#d3d3d3">Time(custom_year)</text>
</g>
<!-- MetricTimeDim(YEAR)&#45;&gt;Time(custom_year) -->
<g id="edge13" class="edge">
<title>MetricTimeDim(YEAR)&#45;&gt;Time(custom_year)</title>
<path fill="none" stroke="#d3d3d3" d="M923.2,-148.82C878.97,-125.32 800.16,-83.44 751.45,-57.56"/>
<polygon fill="#303030" stroke="#d3d3d3" points="753.35,-54.6 742.88,-53 750.07,-60.79 753.35,-54.6"/>
<text text-anchor="start" x="712.75" y="-115.55" font-family="Courier New" font-size="6.00" fill="#d3d3d3">MetricTimeDim(YEAR)</text>
<text text-anchor="start" x="725.88" y="-108.05" font-family="Courier New" font-size="6.00" fill="#d3d3d3">(weight:0)&#45;&gt;</text>
<text text-anchor="start" x="716.5" y="-100.55" font-family="Courier New" font-size="6.00" fill="#d3d3d3">Time(custom_year)</text>
</g>
<!-- Time(extract_year) -->
<g id="node11" class="node">
<title>Time(extract_year)</title>
<polygon fill="#303030" stroke="#ffa07a" points="961.5,-52 802.5,-52 802.5,-16 961.5,-16 961.5,-52"/>
<text text-anchor="start" x="814.5" y="-29.73" font-family="Courier New" font-size="12.00" fill="#d3d3d3">Time(extract_year)</text>
</g>
<!-- MetricTimeDim(YEAR)&#45;&gt;Time(extract_year) -->
<g id="edge14" class="edge">
<title>MetricTimeDim(YEAR)&#45;&gt;Time(extract_year)</title>
<path fill="none" stroke="#d3d3d3" d="M946.17,-148.82C933.66,-126.63 911.92,-88.07 897.25,-62.05"/>
<polygon fill="#303030" stroke="#d3d3d3" points="900.34,-60.39 892.38,-53.4 894.24,-63.83 900.34,-60.39"/>
<text text-anchor="start" x="935.75" y="-115.55" font-family="Courier New" font-size="6.00" fill="#d3d3d3">MetricTimeDim(YEAR)</text>
<text text-anchor="start" x="948.88" y="-108.05" font-family="Courier New" font-size="6.00" fill="#d3d3d3">(weight:0)&#45;&gt;</text>
<text text-anchor="start" x="937.62" y="-100.55" font-family="Courier New" font-size="6.00" fill="#d3d3d3">Time(extract_year)</text>
</g>
<!-- Time(year) -->
<g id="node12" class="node">
<title>Time(year)</title>
<polygon fill="#303030" stroke="#ffa07a" points="1078.5,-52 979.5,-52 979.5,-16 1078.5,-16 1078.5,-52"/>
<text text-anchor="start" x="991.5" y="-29.73" font-family="Courier New" font-size="12.00" fill="#d3d3d3">Time(year)</text>
</g>
<!-- MetricTimeDim(YEAR)&#45;&gt;Time(year) -->
<g id="edge15" class="edge">
<title>MetricTimeDim(YEAR)&#45;&gt;Time(year)</title>
<path fill="none" stroke="#d3d3d3" d="M965.69,-148.82C978.03,-126.63 999.48,-88.07 1013.96,-62.05"/>
<polygon fill="#303030" stroke="#d3d3d3" points="1016.96,-63.85 1018.76,-53.41 1010.84,-60.44 1016.96,-63.85"/>
<text text-anchor="start" x="1123" y="-115.55" font-family="Courier New" font-size="6.00" fill="#d3d3d3">MetricTimeDim(YEAR)</text>
<text text-anchor="start" x="1136.12" y="-108.05" font-family="Courier New" font-size="6.00" fill="#d3d3d3">(weight:0)&#45;&gt;</text>
<text text-anchor="start" x="1139.88" y="-100.55" font-family="Courier New" font-size="6.00" fill="#d3d3d3">Time(year)</text>
</g>
<!-- TimeBase(YEAR) -->
<g id="node13" class="node">
<title>TimeBase(YEAR)</title>
<polygon fill="#303030" stroke="#d3d3d3" points="848.5,-185.25 719.5,-185.25 719.5,-149.25 848.5,-149.25 848.5,-185.25"/>
<text text-anchor="start" x="731.5" y="-162.97" font-family="Courier New" font-size="12.00" fill="#d3d3d3">TimeBase(YEAR)</text>
</g>
<!-- TimeBase(YEAR)&#45;&gt;Time(custom_year) -->
<g id="edge16" class="edge">
<title>TimeBase(YEAR)&#45;&gt;Time(custom_year)</title>
<path fill="none" stroke="#d3d3d3" d="M774.04,-148.82C761.36,-126.63 739.33,-88.07 724.46,-62.05"/>
<polygon fill="#303030" stroke="#d3d3d3" points="727.51,-60.34 719.51,-53.4 721.44,-63.82 727.51,-60.34"/>
<text text-anchor="start" x="609.88" y="-115.55" font-family="Courier New" font-size="6.00" fill="#d3d3d3">TimeBase(YEAR)</text>
<text text-anchor="start" x="613.62" y="-108.05" font-family="Courier New" font-size="6.00" fill="#d3d3d3">(weight:0)&#45;&gt;</text>
<text text-anchor="start" x="604.25" y="-100.55" font-family="Courier New" font-size="6.00" fill="#d3d3d3">Time(custom_year)</text>
</g>
<!-- TimeBase(YEAR)&#45;&gt;Time(extract_year) -->
<g id="edge17" class="edge">
<title>TimeBase(YEAR)&#45;&gt;Time(extract_year)</title>
<path fill="none" stroke="#d3d3d3" d="M797.01,-148.82C813.8,-126.34 843.14,-87.04 862.58,-61.02"/>
<polygon fill="#303030" stroke="#d3d3d3" points="865.16,-63.4 868.34,-53.3 859.55,-59.22 865.16,-63.4"/>
<text text-anchor="start" x="832" y="-115.55" font-family="Courier New" font-size="6.00" fill="#d3d3d3">TimeBase(YEAR)</text>
<text text-anchor="start" x="835.75" y="-108.05" font-family="Courier New" font-size="6.00" fill="#d3d3d3">(weight:0)&#45;&gt;</text>
<text text-anchor="start" x="824.5" y="-100.55" font-family="Courier New" font-size="6.00" fill="#d3d3d3">Time(extract_year)</text>
</g>
<!-- TimeBase(YEAR)&#45;&gt;Time(year) -->
<g id="edge18" class="edge">
<title>TimeBase(YEAR)&#45;&gt;Time(year)</title>
<path fill="none" stroke="#d3d3d3" d="M816.53,-148.82C860.31,-125.37 938.25,-83.61 986.59,-57.72"/>
<polygon fill="#303030" stroke="#d3d3d3" points="988.23,-60.81 995.39,-53.01 984.92,-54.64 988.23,-60.81"/>
<text text-anchor="start" x="1032.28" y="-115.55" font-family="Courier New" font-size="6.00" fill="#d3d3d3">TimeBase(YEAR)</text>
<text text-anchor="start" x="1036.03" y="-108.05" font-family="Courier New" font-size="6.00" fill="#d3d3d3">(weight:0)&#45;&gt;</text>
<text text-anchor="start" x="1039.78" y="-100.55" font-family="Courier New" font-size="6.00" fill="#d3d3d3">Time(year)</text>
</g>
<!-- TimeDim(ds)&#45;&gt;TimeBase(YEAR) -->
<g id="edge8" class="edge">
<title>TimeDim(ds)&#45;&gt;TimeBase(YEAR)</title>
<path fill="none" stroke="#d3d3d3" d="M780.51,-285.44C781.18,-263.05 782.35,-223.72 783.15,-196.85"/>
<polygon fill="#303030" stroke="#d3d3d3" points="786.64,-197.1 783.44,-187 779.65,-196.9 786.64,-197.1"/>
<text text-anchor="start" x="797.98" y="-248.8" font-family="Courier New" font-size="6.00" fill="#d3d3d3">TimeDim(ds)</text>
<text text-anchor="start" x="796.11" y="-241.3" font-family="Courier New" font-size="6.00" fill="#d3d3d3">(weight:0)&#45;&gt;</text>
<text text-anchor="start" x="792.36" y="-233.8" font-family="Courier New" font-size="6.00" fill="#d3d3d3">TimeBase(YEAR)</text>
</g>
</g>
</svg>
