<?xml version="1.0" encoding="UTF-8" standalone="no"?>
<!DOCTYPE svg PUBLIC "-//W3C//DTD SVG 1.1//EN"
 "http://www.w3.org/Graphics/SVG/1.1/DTD/svg11.dtd">
<!-- Generated by graphviz version 12.2.1 (20241206.2353)
 -->
<!-- Pages: 1 -->
<svg width="1880pt" height="391pt"
 viewBox="0.00 0.00 1879.50 391.00" xmlns="http://www.w3.org/2000/svg" xmlns:xlink="http://www.w3.org/1999/xlink">
<g id="graph0" class="graph" transform="scale(1 1) rotate(0) translate(4 387)">
<polygon fill="#181818" stroke="none" points="-4,4 -4,-387 1875.5,-387 1875.5,4 -4,4"/>
<g id="clust1" class="cluster">
<title>cluster_other_attribute</title>
<polygon fill="#181818" stroke="#000000" stroke-width="3" points="1240,-152 1240,-375 1505,-375 1505,-152 1240,-152"/>
<text text-anchor="middle" x="1372.5" y="-361.5" font-family="Courier New" font-size="10.00" fill="#d3d3d3">other_attribute</text>
</g>
<g id="clust2" class="cluster">
<title>cluster_model_entity</title>
<polygon fill="#181818" stroke="#000000" stroke-width="3" points="361.75,-146 361.75,-277 604.25,-277 604.25,-146 361.75,-146"/>
<text text-anchor="middle" x="483" y="-263.5" font-family="Courier New" font-size="10.00" fill="#d3d3d3">model_entity</text>
</g>
<g id="clust3" class="cluster">
<title>cluster_time_entity</title>
<polygon fill="#181818" stroke="#000000" stroke-width="3" points="1266.25,-60 1266.25,-142 1478.75,-142 1478.75,-60 1266.25,-60"/>
<text text-anchor="middle" x="1372.5" y="-128.5" font-family="Courier New" font-size="10.00" fill="#d3d3d3">time_entity</text>
</g>
<g id="clust4" class="cluster">
<title>cluster_time_attribute</title>
<polygon fill="#181818" stroke="#000000" stroke-width="3" points="1688.5,-8 1688.5,-195 1863.5,-195 1863.5,-8 1688.5,-8"/>
<text text-anchor="middle" x="1776" y="-181.5" font-family="Courier New" font-size="10.00" fill="#d3d3d3">time_attribute</text>
</g>
<g id="clust5" class="cluster">
<title>cluster_sm_0</title>
<polygon fill="#181818" stroke="#000000" stroke-width="3" points="855.25,-119 855.25,-194 985.25,-194 985.25,-119 855.25,-119"/>
<text text-anchor="middle" x="920.25" y="-180.5" font-family="Courier New" font-size="10.00" fill="#d3d3d3">sm_0</text>
</g>
<g id="clust6" class="cluster">
<title>cluster_sm_1</title>
<polygon fill="#181818" stroke="#000000" stroke-width="3" points="855.25,-202 855.25,-277 985.25,-277 985.25,-202 855.25,-202"/>
<text text-anchor="middle" x="920.25" y="-263.5" font-family="Courier New" font-size="10.00" fill="#d3d3d3">sm_1</text>
</g>
<g id="clust7" class="cluster">
<title>cluster_metric_attribute</title>
<polygon fill="#181818" stroke="#000000" stroke-width="3" points="791.5,-38 791.5,-111 1049,-111 1049,-38 791.5,-38"/>
<text text-anchor="middle" x="920.25" y="-97.5" font-family="Courier New" font-size="10.00" fill="#d3d3d3">metric_attribute</text>
</g>
<!-- GroupByAttributeRoot -->
<g id="node1" class="node">
<title>GroupByAttributeRoot</title>
<polygon fill="#303030" stroke="#ffd700" points="174,-247 0,-247 0,-211 174,-211 174,-247"/>
<text text-anchor="start" x="12" y="-224.72" font-family="Courier New" font-size="12.00" fill="#d3d3d3">GroupByAttributeRoot</text>
</g>
<!-- edge_as_node_0 -->
<g id="node2" class="node">
<title>edge_as_node_0</title>
<polygon fill="none" stroke="none" points="1212,-357.25 1077,-357.25 1077,-334.75 1212,-334.75 1212,-357.25"/>
<text text-anchor="start" x="1077" y="-351.55" font-family="Courier New" font-size="6.00" fill="#d3d3d3">type: EntityRelationshipEdge</text>
<text text-anchor="start" x="1077" y="-344.05" font-family="Courier New" font-size="6.00" fill="#d3d3d3">tail: GroupByAttributeRoot</text>
<text text-anchor="start" x="1077" y="-336.55" font-family="Courier New" font-size="6.00" fill="#d3d3d3">head: EntityKey(sm_0_primary_entity)</text>
</g>
<!-- GroupByAttributeRoot&#45;&gt;edge_as_node_0 -->
<g id="edge1" class="edge">
<title>GroupByAttributeRoot&#45;&gt;edge_as_node_0</title>
<path fill="none" stroke="#d3d3d3" d="M174.44,-238.67C380.42,-261.46 892.64,-318.13 1077.02,-338.53"/>
</g>
<!-- edge_as_node_1 -->
<g id="node3" class="node">
<title>edge_as_node_1</title>
<polygon fill="none" stroke="none" points="1212,-234.25 1077,-234.25 1077,-211.75 1212,-211.75 1212,-234.25"/>
<text text-anchor="start" x="1077" y="-228.55" font-family="Courier New" font-size="6.00" fill="#d3d3d3">type: EntityRelationshipEdge</text>
<text text-anchor="start" x="1077" y="-221.05" font-family="Courier New" font-size="6.00" fill="#d3d3d3">tail: GroupByAttributeRoot</text>
<text text-anchor="start" x="1077" y="-213.55" font-family="Courier New" font-size="6.00" fill="#d3d3d3">head: EntityKey(sm_1_primary_entity)</text>
</g>
<!-- GroupByAttributeRoot&#45;&gt;edge_as_node_1 -->
<g id="edge3" class="edge">
<title>GroupByAttributeRoot&#45;&gt;edge_as_node_1</title>
<path fill="none" stroke="#d3d3d3" d="M174.44,-228.5C380.42,-227.34 892.64,-224.43 1077.02,-223.38"/>
</g>
<!-- edge_as_node_2 -->
<g id="node4" class="node">
<title>edge_as_node_2</title>
<polygon fill="none" stroke="none" points="333.75,-191.25 210,-191.25 210,-168.75 333.75,-168.75 333.75,-191.25"/>
<text text-anchor="start" x="210" y="-185.55" font-family="Courier New" font-size="6.00" fill="#d3d3d3">type: EntityRelationshipEdge</text>
<text text-anchor="start" x="210" y="-178.05" font-family="Courier New" font-size="6.00" fill="#d3d3d3">tail: GroupByAttributeRoot</text>
<text text-anchor="start" x="210" y="-170.55" font-family="Courier New" font-size="6.00" fill="#d3d3d3">head: Entity(sm_0_primary_entity)</text>
</g>
<!-- GroupByAttributeRoot&#45;&gt;edge_as_node_2 -->
<g id="edge5" class="edge">
<title>GroupByAttributeRoot&#45;&gt;edge_as_node_2</title>
<path fill="none" stroke="#d3d3d3" d="M156.88,-210.55C181.18,-204.03 207.74,-196.92 229.11,-191.19"/>
</g>
<!-- edge_as_node_3 -->
<g id="node5" class="node">
<title>edge_as_node_3</title>
<polygon fill="none" stroke="none" points="333.75,-240.25 210,-240.25 210,-217.75 333.75,-217.75 333.75,-240.25"/>
<text text-anchor="start" x="210" y="-234.55" font-family="Courier New" font-size="6.00" fill="#d3d3d3">type: EntityRelationshipEdge</text>
<text text-anchor="start" x="210" y="-227.05" font-family="Courier New" font-size="6.00" fill="#d3d3d3">tail: GroupByAttributeRoot</text>
<text text-anchor="start" x="210" y="-219.55" font-family="Courier New" font-size="6.00" fill="#d3d3d3">head: Entity(sm_1_primary_entity)</text>
</g>
<!-- GroupByAttributeRoot&#45;&gt;edge_as_node_3 -->
<g id="edge7" class="edge">
<title>GroupByAttributeRoot&#45;&gt;edge_as_node_3</title>
<path fill="none" stroke="#d3d3d3" d="M174.35,-229C186.47,-229 198.7,-229 210.2,-229"/>
</g>
<!-- edge_as_node_4 -->
<g id="node6" class="node">
<title>edge_as_node_4</title>
<polygon fill="none" stroke="none" points="1198.88,-49.25 1090.12,-49.25 1090.12,-26.75 1198.88,-26.75 1198.88,-49.25"/>
<text text-anchor="start" x="1090.12" y="-43.55" font-family="Courier New" font-size="6.00" fill="#d3d3d3">type: EntityRelationshipEdge</text>
<text text-anchor="start" x="1090.12" y="-36.05" font-family="Courier New" font-size="6.00" fill="#d3d3d3">tail: GroupByAttributeRoot</text>
<text text-anchor="start" x="1090.12" y="-28.55" font-family="Courier New" font-size="6.00" fill="#d3d3d3">head: TimeDimension(ds, year)</text>
</g>
<!-- GroupByAttributeRoot&#45;&gt;edge_as_node_4 -->
<g id="edge9" class="edge">
<title>GroupByAttributeRoot&#45;&gt;edge_as_node_4</title>
<path fill="none" stroke="#d3d3d3" d="M174.44,-213.21C385.62,-175.07 918.68,-78.79 1090.34,-47.78"/>
</g>
<!-- EntityKey(sm_0_primary_entity) -->
<g id="node19" class="node">
<title>EntityKey(sm_0_primary_entity)</title>
<polygon fill="#303030" stroke="#ffa07a" points="1497,-346.38 1248,-346.38 1248,-293.62 1497,-293.62 1497,-346.38"/>
<text text-anchor="start" x="1260" y="-326.98" font-family="Courier New" font-size="12.00" fill="#d3d3d3">EntityKey(sm_0_primary_entity)</text>
<text text-anchor="start" x="1256" y="-314.43" font-family="Courier New" font-size="6.00" fill="#d3d3d3">add_name: sm_0_primary_entity</text>
<text text-anchor="start" x="1256" y="-306.93" font-family="Courier New" font-size="6.00" fill="#d3d3d3">add_prop: ENTITY</text>
<text text-anchor="start" x="1256" y="-299.43" font-family="Courier New" font-size="6.00" fill="#d3d3d3">add_type: ENTITY</text>
</g>
<!-- edge_as_node_0&#45;&gt;EntityKey(sm_0_primary_entity) -->
<g id="edge2" class="edge">
<title>edge_as_node_0&#45;&gt;EntityKey(sm_0_primary_entity)</title>
<path fill="none" stroke="#d3d3d3" d="M1211.78,-338.37C1219.75,-337.46 1228.1,-336.5 1236.61,-335.52"/>
<polygon fill="#303030" stroke="#d3d3d3" points="1236.86,-339.01 1246.39,-334.39 1236.06,-332.06 1236.86,-339.01"/>
</g>
<!-- EntityKey(sm_1_primary_entity) -->
<g id="node20" class="node">
<title>EntityKey(sm_1_primary_entity)</title>
<polygon fill="#303030" stroke="#ffa07a" points="1497,-212.38 1248,-212.38 1248,-159.62 1497,-159.62 1497,-212.38"/>
<text text-anchor="start" x="1260" y="-192.97" font-family="Courier New" font-size="12.00" fill="#d3d3d3">EntityKey(sm_1_primary_entity)</text>
<text text-anchor="start" x="1256" y="-180.43" font-family="Courier New" font-size="6.00" fill="#d3d3d3">add_name: sm_1_primary_entity</text>
<text text-anchor="start" x="1256" y="-172.93" font-family="Courier New" font-size="6.00" fill="#d3d3d3">add_prop: ENTITY</text>
<text text-anchor="start" x="1256" y="-165.43" font-family="Courier New" font-size="6.00" fill="#d3d3d3">add_type: ENTITY</text>
</g>
<!-- edge_as_node_1&#45;&gt;EntityKey(sm_1_primary_entity) -->
<g id="edge4" class="edge">
<title>edge_as_node_1&#45;&gt;EntityKey(sm_1_primary_entity)</title>
<path fill="none" stroke="#d3d3d3" d="M1211.78,-212.15C1219.75,-210.84 1228.1,-209.48 1236.61,-208.08"/>
<polygon fill="#303030" stroke="#d3d3d3" points="1237.1,-211.55 1246.4,-206.48 1235.97,-204.64 1237.1,-211.55"/>
</g>
<!-- Entity(sm_0_primary_entity) -->
<g id="node22" class="node">
<title>Entity(sm_0_primary_entity)</title>
<polygon fill="#303030" stroke="#87cefa" points="596.25,-191.88 369.75,-191.88 369.75,-154.12 596.25,-154.12 596.25,-191.88"/>
<text text-anchor="start" x="381.75" y="-172.47" font-family="Courier New" font-size="12.00" fill="#d3d3d3">Entity(sm_0_primary_entity)</text>
<text text-anchor="start" x="377.75" y="-159.93" font-family="Courier New" font-size="6.00" fill="#d3d3d3">add_name: sm_0_primary_entity</text>
</g>
<!-- edge_as_node_2&#45;&gt;Entity(sm_0_primary_entity) -->
<g id="edge6" class="edge">
<title>edge_as_node_2&#45;&gt;Entity(sm_0_primary_entity)</title>
<path fill="none" stroke="#d3d3d3" d="M333.64,-177.97C341.44,-177.71 349.63,-177.43 357.99,-177.15"/>
<polygon fill="#303030" stroke="#d3d3d3" points="358.09,-180.65 367.96,-176.82 357.85,-173.65 358.09,-180.65"/>
</g>
<!-- Entity(sm_1_primary_entity) -->
<g id="node23" class="node">
<title>Entity(sm_1_primary_entity)</title>
<polygon fill="#303030" stroke="#87cefa" points="596.25,-247.88 369.75,-247.88 369.75,-210.12 596.25,-210.12 596.25,-247.88"/>
<text text-anchor="start" x="381.75" y="-228.47" font-family="Courier New" font-size="12.00" fill="#d3d3d3">Entity(sm_1_primary_entity)</text>
<text text-anchor="start" x="377.75" y="-215.93" font-family="Courier New" font-size="6.00" fill="#d3d3d3">add_name: sm_1_primary_entity</text>
</g>
<!-- edge_as_node_3&#45;&gt;Entity(sm_1_primary_entity) -->
<g id="edge8" class="edge">
<title>edge_as_node_3&#45;&gt;Entity(sm_1_primary_entity)</title>
<path fill="none" stroke="#d3d3d3" d="M333.64,-229C341.44,-229 349.63,-229 357.99,-229"/>
<polygon fill="#303030" stroke="#d3d3d3" points="357.96,-232.5 367.96,-229 357.96,-225.5 357.96,-232.5"/>
</g>
<!-- TimeDimension(ds, year) -->
<g id="node24" class="node">
<title>TimeDimension(ds, year)</title>
<polygon fill="#303030" stroke="#d3d3d3" points="1470.75,-113.62 1274.25,-113.62 1274.25,-68.38 1470.75,-68.38 1470.75,-113.62"/>
<text text-anchor="start" x="1286.25" y="-94.22" font-family="Courier New" font-size="12.00" fill="#d3d3d3">TimeDimension(ds, year)</text>
<text text-anchor="start" x="1282.25" y="-81.67" font-family="Courier New" font-size="6.00" fill="#d3d3d3">add_name: ds</text>
<text text-anchor="start" x="1282.25" y="-74.17" font-family="Courier New" font-size="6.00" fill="#d3d3d3">add_type: TIME_DIMENSION</text>
</g>
<!-- edge_as_node_4&#45;&gt;TimeDimension(ds, year) -->
<g id="edge10" class="edge">
<title>edge_as_node_4&#45;&gt;TimeDimension(ds, year)</title>
<path fill="none" stroke="#d3d3d3" d="M1193.43,-49.24C1213.77,-54.01 1238.37,-59.78 1262.71,-65.49"/>
<polygon fill="#303030" stroke="#d3d3d3" points="1261.85,-68.88 1272.39,-67.76 1263.45,-62.07 1261.85,-68.88"/>
</g>
<!-- edge_as_node_5 -->
<g id="node7" class="node">
<title>edge_as_node_5</title>
<polygon fill="none" stroke="none" points="1651.12,-152.25 1542.38,-152.25 1542.38,-129.75 1651.12,-129.75 1651.12,-152.25"/>
<text text-anchor="start" x="1542.38" y="-146.55" font-family="Courier New" font-size="6.00" fill="#d3d3d3">type: EntityAttributeEdge</text>
<text text-anchor="start" x="1542.38" y="-139.05" font-family="Courier New" font-size="6.00" fill="#d3d3d3">tail: TimeDimension(ds, year)</text>
<text text-anchor="start" x="1542.38" y="-131.55" font-family="Courier New" font-size="6.00" fill="#d3d3d3">head: Time(year)</text>
</g>
<!-- Time(year) -->
<g id="node27" class="node">
<title>Time(year)</title>
<polygon fill="#303030" stroke="#ffa07a" points="1825.5,-165.88 1726.5,-165.88 1726.5,-128.12 1825.5,-128.12 1825.5,-165.88"/>
<text text-anchor="start" x="1738.5" y="-146.47" font-family="Courier New" font-size="12.00" fill="#d3d3d3">Time(year)</text>
<text text-anchor="start" x="1734.5" y="-133.93" font-family="Courier New" font-size="6.00" fill="#d3d3d3">add_name: year</text>
</g>
<!-- edge_as_node_5&#45;&gt;Time(year) -->
<g id="edge12" class="edge">
<title>edge_as_node_5&#45;&gt;Time(year)</title>
<path fill="none" stroke="#d3d3d3" d="M1650.93,-142.8C1671.06,-143.48 1694.12,-144.26 1714.85,-144.96"/>
<polygon fill="#303030" stroke="#d3d3d3" points="1714.47,-148.45 1724.58,-145.29 1714.7,-141.46 1714.47,-148.45"/>
</g>
<!-- edge_as_node_6 -->
<g id="node8" class="node">
<title>edge_as_node_6</title>
<polygon fill="none" stroke="none" points="1660.5,-106 1533,-106 1533,-76 1660.5,-76 1660.5,-106"/>
<text text-anchor="start" x="1533" y="-100.3" font-family="Courier New" font-size="6.00" fill="#d3d3d3">add_prop: DERIVED_TIME_GRANULARITY</text>
<text text-anchor="start" x="1533" y="-92.8" font-family="Courier New" font-size="6.00" fill="#d3d3d3">type: EntityAttributeEdge</text>
<text text-anchor="start" x="1533" y="-85.3" font-family="Courier New" font-size="6.00" fill="#d3d3d3">tail: TimeDimension(ds, year)</text>
<text text-anchor="start" x="1533" y="-77.8" font-family="Courier New" font-size="6.00" fill="#d3d3d3">head: Time(extract_year)</text>
</g>
<!-- Time(extract_year) -->
<g id="node26" class="node">
<title>Time(extract_year)</title>
<polygon fill="#303030" stroke="#ffa07a" points="1855.5,-109.88 1696.5,-109.88 1696.5,-72.12 1855.5,-72.12 1855.5,-109.88"/>
<text text-anchor="start" x="1708.5" y="-90.47" font-family="Courier New" font-size="12.00" fill="#d3d3d3">Time(extract_year)</text>
<text text-anchor="start" x="1704.5" y="-77.92" font-family="Courier New" font-size="6.00" fill="#d3d3d3">add_name: extract_year</text>
</g>
<!-- edge_as_node_6&#45;&gt;Time(extract_year) -->
<g id="edge14" class="edge">
<title>edge_as_node_6&#45;&gt;Time(extract_year)</title>
<path fill="none" stroke="#d3d3d3" d="M1660.24,-91C1668.26,-91 1676.59,-91 1684.94,-91"/>
<polygon fill="#303030" stroke="#d3d3d3" points="1684.79,-94.5 1694.79,-91 1684.79,-87.5 1684.79,-94.5"/>
</g>
<!-- edge_as_node_7 -->
<g id="node9" class="node">
<title>edge_as_node_7</title>
<polygon fill="none" stroke="none" points="1660.5,-54 1533,-54 1533,-24 1660.5,-24 1660.5,-54"/>
<text text-anchor="start" x="1533" y="-48.3" font-family="Courier New" font-size="6.00" fill="#d3d3d3">add_prop: DERIVED_TIME_GRANULARITY</text>
<text text-anchor="start" x="1533" y="-40.8" font-family="Courier New" font-size="6.00" fill="#d3d3d3">type: EntityAttributeEdge</text>
<text text-anchor="start" x="1533" y="-33.3" font-family="Courier New" font-size="6.00" fill="#d3d3d3">tail: TimeDimension(ds, year)</text>
<text text-anchor="start" x="1533" y="-25.8" font-family="Courier New" font-size="6.00" fill="#d3d3d3">head: Time(custom_year)</text>
</g>
<!-- Time(custom_year) -->
<g id="node25" class="node">
<title>Time(custom_year)</title>
<polygon fill="#303030" stroke="#ffa07a" points="1851.75,-53.88 1700.25,-53.88 1700.25,-16.12 1851.75,-16.12 1851.75,-53.88"/>
<text text-anchor="start" x="1712.25" y="-34.48" font-family="Courier New" font-size="12.00" fill="#d3d3d3">Time(custom_year)</text>
<text text-anchor="start" x="1708.25" y="-21.93" font-family="Courier New" font-size="6.00" fill="#d3d3d3">add_name: custom_year</text>
</g>
<!-- edge_as_node_7&#45;&gt;Time(custom_year) -->
<g id="edge16" class="edge">
<title>edge_as_node_7&#45;&gt;Time(custom_year)</title>
<path fill="none" stroke="#d3d3d3" d="M1660.24,-37.59C1669.48,-37.38 1679.14,-37.16 1688.76,-36.95"/>
<polygon fill="#303030" stroke="#d3d3d3" points="1688.58,-40.45 1698.5,-36.73 1688.42,-33.45 1688.58,-40.45"/>
</g>
<!-- edge_as_node_8 -->
<g id="node10" class="node">
<title>edge_as_node_8</title>
<polygon fill="none" stroke="none" points="1198.88,-105.25 1090.12,-105.25 1090.12,-82.75 1198.88,-82.75 1198.88,-105.25"/>
<text text-anchor="start" x="1090.12" y="-99.55" font-family="Courier New" font-size="6.00" fill="#d3d3d3">type: EntityRelationshipEdge</text>
<text text-anchor="start" x="1090.12" y="-92.05" font-family="Courier New" font-size="6.00" fill="#d3d3d3">tail: JoinTo(sm_0)</text>
<text text-anchor="start" x="1090.12" y="-84.55" font-family="Courier New" font-size="6.00" fill="#d3d3d3">head: TimeDimension(ds, year)</text>
</g>
<!-- edge_as_node_8&#45;&gt;TimeDimension(ds, year) -->
<g id="edge18" class="edge">
<title>edge_as_node_8&#45;&gt;TimeDimension(ds, year)</title>
<path fill="none" stroke="#d3d3d3" d="M1198.77,-93.29C1217.97,-93.04 1240.41,-92.74 1262.62,-92.45"/>
<polygon fill="#303030" stroke="#d3d3d3" points="1262.38,-95.95 1272.34,-92.32 1262.29,-88.95 1262.38,-95.95"/>
</g>
<!-- edge_as_node_9 -->
<g id="node11" class="node">
<title>edge_as_node_9</title>
<polygon fill="none" stroke="none" points="759.75,-240.25 636,-240.25 636,-217.75 759.75,-217.75 759.75,-240.25"/>
<text text-anchor="start" x="636" y="-234.55" font-family="Courier New" font-size="6.00" fill="#d3d3d3">type: JoinToModelEdge</text>
<text text-anchor="start" x="636" y="-227.05" font-family="Courier New" font-size="6.00" fill="#d3d3d3">tail: Entity(sm_1_primary_entity)</text>
<text text-anchor="start" x="636" y="-219.55" font-family="Courier New" font-size="6.00" fill="#d3d3d3">head: JoinTo(sm_1)</text>
</g>
<!-- JoinTo(sm_1) -->
<g id="node29" class="node">
<title>JoinTo(sm_1)</title>
<polygon fill="#303030" stroke="#d3d3d3" points="977.25,-247.88 863.25,-247.88 863.25,-210.12 977.25,-210.12 977.25,-247.88"/>
<text text-anchor="start" x="875.25" y="-228.47" font-family="Courier New" font-size="12.00" fill="#d3d3d3">JoinTo(sm_1)</text>
<text text-anchor="start" x="871.25" y="-215.93" font-family="Courier New" font-size="6.00" fill="#d3d3d3">add_model: sm_1</text>
</g>
<!-- edge_as_node_9&#45;&gt;JoinTo(sm_1) -->
<g id="edge20" class="edge">
<title>edge_as_node_9&#45;&gt;JoinTo(sm_1)</title>
<path fill="none" stroke="#d3d3d3" d="M759.68,-229C788.13,-229 822.13,-229 851.42,-229"/>
<polygon fill="#303030" stroke="#d3d3d3" points="851.29,-232.5 861.29,-229 851.29,-225.5 851.29,-232.5"/>
</g>
<!-- edge_as_node_10 -->
<g id="node12" class="node">
<title>edge_as_node_10</title>
<polygon fill="none" stroke="none" points="763.5,-152.5 632.25,-152.5 632.25,-107.5 763.5,-107.5 763.5,-152.5"/>
<text text-anchor="start" x="632.25" y="-146.8" font-family="Courier New" font-size="6.00" fill="#d3d3d3">add_name: sm_0_measure_0_metric</text>
<text text-anchor="start" x="632.25" y="-139.3" font-family="Courier New" font-size="6.00" fill="#d3d3d3">add_prop: METRIC</text>
<text text-anchor="start" x="632.25" y="-131.8" font-family="Courier New" font-size="6.00" fill="#d3d3d3">add_type: METRIC</text>
<text text-anchor="start" x="632.25" y="-124.3" font-family="Courier New" font-size="6.00" fill="#d3d3d3">type: EntityAttributeEdge</text>
<text text-anchor="start" x="632.25" y="-116.8" font-family="Courier New" font-size="6.00" fill="#d3d3d3">tail: Entity(sm_1_primary_entity)</text>
<text text-anchor="start" x="632.25" y="-109.3" font-family="Courier New" font-size="6.00" fill="#d3d3d3">head: Metric(sm_0_measure_0_metric)</text>
</g>
<!-- Metric(sm_0_measure_0_metric) -->
<g id="node30" class="node">
<title>Metric(sm_0_measure_0_metric)</title>
<polygon fill="#303030" stroke="#ffa07a" points="1041,-82 799.5,-82 799.5,-46 1041,-46 1041,-82"/>
<text text-anchor="start" x="811.5" y="-59.73" font-family="Courier New" font-size="12.00" fill="#d3d3d3">Metric(sm_0_measure_0_metric)</text>
</g>
<!-- edge_as_node_10&#45;&gt;Metric(sm_0_measure_0_metric) -->
<g id="edge22" class="edge">
<title>edge_as_node_10&#45;&gt;Metric(sm_0_measure_0_metric)</title>
<path fill="none" stroke="#d3d3d3" d="M763.21,-110.73C789.34,-102.91 819.65,-93.83 846.58,-85.77"/>
<polygon fill="#303030" stroke="#d3d3d3" points="847.46,-89.15 856.04,-82.93 845.46,-82.45 847.46,-89.15"/>
</g>
<!-- edge_as_node_11 -->
<g id="node13" class="node">
<title>edge_as_node_11</title>
<polygon fill="none" stroke="none" points="763.5,-89.5 632.25,-89.5 632.25,-44.5 763.5,-44.5 763.5,-89.5"/>
<text text-anchor="start" x="632.25" y="-83.8" font-family="Courier New" font-size="6.00" fill="#d3d3d3">add_name: sm_0_measure_0_metric</text>
<text text-anchor="start" x="632.25" y="-76.3" font-family="Courier New" font-size="6.00" fill="#d3d3d3">add_prop: METRIC</text>
<text text-anchor="start" x="632.25" y="-68.8" font-family="Courier New" font-size="6.00" fill="#d3d3d3">add_type: METRIC</text>
<text text-anchor="start" x="632.25" y="-61.3" font-family="Courier New" font-size="6.00" fill="#d3d3d3">type: EntityAttributeEdge</text>
<text text-anchor="start" x="632.25" y="-53.8" font-family="Courier New" font-size="6.00" fill="#d3d3d3">tail: Entity(sm_0_primary_entity)</text>
<text text-anchor="start" x="632.25" y="-46.3" font-family="Courier New" font-size="6.00" fill="#d3d3d3">head: Metric(sm_0_measure_0_metric)</text>
</g>
<!-- edge_as_node_11&#45;&gt;Metric(sm_0_measure_0_metric) -->
<g id="edge24" class="edge">
<title>edge_as_node_11&#45;&gt;Metric(sm_0_measure_0_metric)</title>
<path fill="none" stroke="#d3d3d3" d="M763.21,-66.12C771.16,-66.02 779.5,-65.9 788.01,-65.79"/>
<polygon fill="#303030" stroke="#d3d3d3" points="787.82,-69.29 797.77,-65.65 787.72,-62.29 787.82,-69.29"/>
</g>
<!-- edge_as_node_12 -->
<g id="node14" class="node">
<title>edge_as_node_12</title>
<polygon fill="none" stroke="none" points="1191.38,-275.25 1097.62,-275.25 1097.62,-252.75 1191.38,-252.75 1191.38,-275.25"/>
<text text-anchor="start" x="1097.62" y="-269.55" font-family="Courier New" font-size="6.00" fill="#d3d3d3">type: EntityAttributeEdge</text>
<text text-anchor="start" x="1097.62" y="-262.05" font-family="Courier New" font-size="6.00" fill="#d3d3d3">tail: JoinTo(sm_1)</text>
<text text-anchor="start" x="1097.62" y="-254.55" font-family="Courier New" font-size="6.00" fill="#d3d3d3">head: Dimension(dim_0)</text>
</g>
<!-- Dimension(dim_0) -->
<g id="node21" class="node">
<title>Dimension(dim_0)</title>
<polygon fill="#303030" stroke="#ffa07a" points="1444.5,-275.62 1300.5,-275.62 1300.5,-230.38 1444.5,-230.38 1444.5,-275.62"/>
<text text-anchor="start" x="1312.5" y="-256.23" font-family="Courier New" font-size="12.00" fill="#d3d3d3">Dimension(dim_0)</text>
<text text-anchor="start" x="1308.5" y="-243.68" font-family="Courier New" font-size="6.00" fill="#d3d3d3">add_name: dim_0</text>
<text text-anchor="start" x="1308.5" y="-236.18" font-family="Courier New" font-size="6.00" fill="#d3d3d3">add_type: DIMENSION</text>
</g>
<!-- edge_as_node_12&#45;&gt;Dimension(dim_0) -->
<g id="edge26" class="edge">
<title>edge_as_node_12&#45;&gt;Dimension(dim_0)</title>
<path fill="none" stroke="#d3d3d3" d="M1191.23,-261.77C1219.16,-260.41 1255.69,-258.64 1288.57,-257.04"/>
<polygon fill="#303030" stroke="#d3d3d3" points="1288.69,-260.53 1298.51,-256.55 1288.35,-253.54 1288.69,-260.53"/>
</g>
<!-- edge_as_node_13 -->
<g id="node15" class="node">
<title>edge_as_node_13</title>
<polygon fill="none" stroke="none" points="1212,-193.25 1077,-193.25 1077,-170.75 1212,-170.75 1212,-193.25"/>
<text text-anchor="start" x="1077" y="-187.55" font-family="Courier New" font-size="6.00" fill="#d3d3d3">type: EntityAttributeEdge</text>
<text text-anchor="start" x="1077" y="-180.05" font-family="Courier New" font-size="6.00" fill="#d3d3d3">tail: JoinTo(sm_1)</text>
<text text-anchor="start" x="1077" y="-172.55" font-family="Courier New" font-size="6.00" fill="#d3d3d3">head: EntityKey(sm_1_primary_entity)</text>
</g>
<!-- edge_as_node_13&#45;&gt;EntityKey(sm_1_primary_entity) -->
<g id="edge28" class="edge">
<title>edge_as_node_13&#45;&gt;EntityKey(sm_1_primary_entity)</title>
<path fill="none" stroke="#d3d3d3" d="M1211.78,-183.17C1219.75,-183.31 1228.1,-183.46 1236.61,-183.61"/>
<polygon fill="#303030" stroke="#d3d3d3" points="1236.32,-187.11 1246.38,-183.79 1236.44,-180.11 1236.32,-187.11"/>
</g>
<!-- edge_as_node_14 -->
<g id="node16" class="node">
<title>edge_as_node_14</title>
<polygon fill="none" stroke="none" points="1212,-152.25 1077,-152.25 1077,-129.75 1212,-129.75 1212,-152.25"/>
<text text-anchor="start" x="1077" y="-146.55" font-family="Courier New" font-size="6.00" fill="#d3d3d3">type: EntityAttributeEdge</text>
<text text-anchor="start" x="1077" y="-139.05" font-family="Courier New" font-size="6.00" fill="#d3d3d3">tail: JoinTo(sm_0)</text>
<text text-anchor="start" x="1077" y="-131.55" font-family="Courier New" font-size="6.00" fill="#d3d3d3">head: EntityKey(sm_1_primary_entity)</text>
</g>
<!-- edge_as_node_14&#45;&gt;EntityKey(sm_1_primary_entity) -->
<g id="edge30" class="edge">
<title>edge_as_node_14&#45;&gt;EntityKey(sm_1_primary_entity)</title>
<path fill="none" stroke="#d3d3d3" d="M1201.95,-152.24C1212.76,-154.39 1224.5,-156.73 1236.59,-159.14"/>
<polygon fill="#303030" stroke="#d3d3d3" points="1235.8,-162.55 1246.29,-161.07 1237.16,-155.68 1235.8,-162.55"/>
</g>
<!-- edge_as_node_15 -->
<g id="node17" class="node">
<title>edge_as_node_15</title>
<polygon fill="none" stroke="none" points="759.75,-193.25 636,-193.25 636,-170.75 759.75,-170.75 759.75,-193.25"/>
<text text-anchor="start" x="636" y="-187.55" font-family="Courier New" font-size="6.00" fill="#d3d3d3">type: JoinToModelEdge</text>
<text text-anchor="start" x="636" y="-180.05" font-family="Courier New" font-size="6.00" fill="#d3d3d3">tail: Entity(sm_0_primary_entity)</text>
<text text-anchor="start" x="636" y="-172.55" font-family="Courier New" font-size="6.00" fill="#d3d3d3">head: JoinTo(sm_0)</text>
</g>
<!-- JoinTo(sm_0) -->
<g id="node28" class="node">
<title>JoinTo(sm_0)</title>
<polygon fill="#303030" stroke="#d3d3d3" points="977.25,-164.88 863.25,-164.88 863.25,-127.12 977.25,-127.12 977.25,-164.88"/>
<text text-anchor="start" x="875.25" y="-145.47" font-family="Courier New" font-size="12.00" fill="#d3d3d3">JoinTo(sm_0)</text>
<text text-anchor="start" x="871.25" y="-132.93" font-family="Courier New" font-size="6.00" fill="#d3d3d3">add_model: sm_0</text>
</g>
<!-- edge_as_node_15&#45;&gt;JoinTo(sm_0) -->
<g id="edge32" class="edge">
<title>edge_as_node_15&#45;&gt;JoinTo(sm_0)</title>
<path fill="none" stroke="#d3d3d3" d="M759.68,-172.07C788.26,-167.4 822.43,-161.82 851.8,-157.02"/>
<polygon fill="#303030" stroke="#d3d3d3" points="852.01,-160.53 861.31,-155.46 850.88,-153.62 852.01,-160.53"/>
</g>
<!-- edge_as_node_16 -->
<g id="node18" class="node">
<title>edge_as_node_16</title>
<polygon fill="none" stroke="none" points="1212,-316.25 1077,-316.25 1077,-293.75 1212,-293.75 1212,-316.25"/>
<text text-anchor="start" x="1077" y="-310.55" font-family="Courier New" font-size="6.00" fill="#d3d3d3">type: EntityAttributeEdge</text>
<text text-anchor="start" x="1077" y="-303.05" font-family="Courier New" font-size="6.00" fill="#d3d3d3">tail: JoinTo(sm_0)</text>
<text text-anchor="start" x="1077" y="-295.55" font-family="Courier New" font-size="6.00" fill="#d3d3d3">head: EntityKey(sm_0_primary_entity)</text>
</g>
<!-- edge_as_node_16&#45;&gt;EntityKey(sm_0_primary_entity) -->
<g id="edge34" class="edge">
<title>edge_as_node_16&#45;&gt;EntityKey(sm_0_primary_entity)</title>
<path fill="none" stroke="#d3d3d3" d="M1211.78,-309.4C1219.75,-309.93 1228.1,-310.48 1236.61,-311.05"/>
<polygon fill="#303030" stroke="#d3d3d3" points="1236.17,-314.53 1246.38,-311.7 1236.64,-307.54 1236.17,-314.53"/>
</g>
<!-- Entity(sm_0_primary_entity)&#45;&gt;edge_as_node_11 -->
<g id="edge23" class="edge">
<title>Entity(sm_0_primary_entity)&#45;&gt;edge_as_node_11</title>
<path fill="none" stroke="#d3d3d3" d="M522.55,-153.8C558.97,-135.67 613.6,-108.47 651.97,-89.36"/>
</g>
<!-- Entity(sm_0_primary_entity)&#45;&gt;edge_as_node_15 -->
<g id="edge31" class="edge">
<title>Entity(sm_0_primary_entity)&#45;&gt;edge_as_node_15</title>
<path fill="none" stroke="#d3d3d3" d="M596.67,-177.76C610.23,-178.34 623.66,-178.9 636.07,-179.43"/>
</g>
<!-- Entity(sm_1_primary_entity)&#45;&gt;edge_as_node_9 -->
<g id="edge19" class="edge">
<title>Entity(sm_1_primary_entity)&#45;&gt;edge_as_node_9</title>
<path fill="none" stroke="#d3d3d3" d="M596.67,-229C610.23,-229 623.66,-229 636.07,-229"/>
</g>
<!-- Entity(sm_1_primary_entity)&#45;&gt;edge_as_node_10 -->
<g id="edge21" class="edge">
<title>Entity(sm_1_primary_entity)&#45;&gt;edge_as_node_10</title>
<path fill="none" stroke="#d3d3d3" d="M525.55,-209.68C560.88,-193.25 611.64,-169.64 648.73,-152.39"/>
</g>
<!-- TimeDimension(ds, year)&#45;&gt;edge_as_node_5 -->
<g id="edge11" class="edge">
<title>TimeDimension(ds, year)&#45;&gt;edge_as_node_5</title>
<path fill="none" stroke="#d3d3d3" d="M1470.98,-112.93C1496.87,-118.76 1523.77,-124.81 1545.93,-129.79"/>
</g>
<!-- TimeDimension(ds, year)&#45;&gt;edge_as_node_6 -->
<g id="edge13" class="edge">
<title>TimeDimension(ds, year)&#45;&gt;edge_as_node_6</title>
<path fill="none" stroke="#d3d3d3" d="M1470.98,-91C1492.09,-91 1513.87,-91 1533.2,-91"/>
</g>
<!-- TimeDimension(ds, year)&#45;&gt;edge_as_node_7 -->
<g id="edge15" class="edge">
<title>TimeDimension(ds, year)&#45;&gt;edge_as_node_7</title>
<path fill="none" stroke="#d3d3d3" d="M1470.98,-68.19C1492.09,-63.25 1513.87,-58.16 1533.2,-53.63"/>
</g>
<!-- JoinTo(sm_0)&#45;&gt;edge_as_node_8 -->
<g id="edge17" class="edge">
<title>JoinTo(sm_0)&#45;&gt;edge_as_node_8</title>
<path fill="none" stroke="#d3d3d3" d="M977.62,-132.81C1014.01,-124.3 1060.85,-113.34 1095.47,-105.24"/>
</g>
<!-- JoinTo(sm_0)&#45;&gt;edge_as_node_14 -->
<g id="edge29" class="edge">
<title>JoinTo(sm_0)&#45;&gt;edge_as_node_14</title>
<path fill="none" stroke="#d3d3d3" d="M977.62,-144.73C1007.97,-144.05 1045.58,-143.2 1077.32,-142.49"/>
</g>
<!-- JoinTo(sm_0)&#45;&gt;edge_as_node_16 -->
<g id="edge33" class="edge">
<title>JoinTo(sm_0)&#45;&gt;edge_as_node_16</title>
<path fill="none" stroke="#d3d3d3" d="M948.06,-165.18C994.93,-198.71 1090.36,-266.98 1127.86,-293.81"/>
</g>
<!-- JoinTo(sm_1)&#45;&gt;edge_as_node_12 -->
<g id="edge25" class="edge">
<title>JoinTo(sm_1)&#45;&gt;edge_as_node_12</title>
<path fill="none" stroke="#d3d3d3" d="M977.62,-237.88C1014.79,-243.73 1062.85,-251.3 1097.66,-256.78"/>
</g>
<!-- JoinTo(sm_1)&#45;&gt;edge_as_node_13 -->
<g id="edge27" class="edge">
<title>JoinTo(sm_1)&#45;&gt;edge_as_node_13</title>
<path fill="none" stroke="#d3d3d3" d="M977.62,-217.08C1012.34,-209.74 1056.57,-200.38 1090.63,-193.18"/>
</g>
</g>
</svg>
