<?xml version="1.0" encoding="UTF-8" standalone="no"?>
<!DOCTYPE svg PUBLIC "-//W3C//DTD SVG 1.1//EN"
 "http://www.w3.org/Graphics/SVG/1.1/DTD/svg11.dtd">
<!-- Generated by graphviz version 12.2.1 (20241206.2353)
 -->
<!-- Title: MutableSemanticGraph Pages: 1 -->
<svg width="1566pt" height="848pt"
 viewBox="0.00 0.00 1566.25 848.00" xmlns="http://www.w3.org/2000/svg" xmlns:xlink="http://www.w3.org/1999/xlink">
<g id="graph0" class="graph" transform="scale(1 1) rotate(0) translate(4 844)">
<title>MutableSemanticGraph</title>
<polygon fill="#181818" stroke="none" points="-4,4 -4,-844 1562.25,-844 1562.25,4 -4,4"/>
<g id="clust1" class="cluster">
<title>cluster_sm_0</title>
<polygon fill="#181818" stroke="#000000" stroke-width="3" points="544,-470 544,-832 822,-832 822,-470 544,-470"/>
<text text-anchor="middle" x="683" y="-818.5" font-family="Courier New" font-size="10.00" fill="#d3d3d3">sm_0</text>
</g>
<g id="clust2" class="cluster">
<title>cluster_other_attribute</title>
<polygon fill="#181818" stroke="#000000" stroke-width="3" points="440,-316 440,-409.5 1135,-409.5 1135,-316 440,-316"/>
<text text-anchor="middle" x="787.5" y="-396" font-family="Courier New" font-size="10.00" fill="#d3d3d3">other_attribute</text>
</g>
<g id="clust3" class="cluster">
<title>cluster_model_entity</title>
<polygon fill="#181818" stroke="#000000" stroke-width="3" points="8,-316 8,-563.5 250,-563.5 250,-316 8,-316"/>
<text text-anchor="middle" x="129" y="-550" font-family="Courier New" font-size="10.00" fill="#d3d3d3">model_entity</text>
</g>
<g id="clust4" class="cluster">
<title>cluster_sm_1</title>
<polygon fill="#181818" stroke="#000000" stroke-width="3" points="258,-470 258,-563.5 536,-563.5 536,-470 258,-470"/>
<text text-anchor="middle" x="397" y="-550" font-family="Courier New" font-size="10.00" fill="#d3d3d3">sm_1</text>
</g>
<g id="clust5" class="cluster">
<title>cluster_metric_time_base</title>
<polygon fill="#181818" stroke="#000000" stroke-width="3" points="1218,-162 1218,-255.5 1400,-255.5 1400,-162 1218,-162"/>
<text text-anchor="middle" x="1309" y="-242" font-family="Courier New" font-size="10.00" fill="#d3d3d3">metric_time_base</text>
</g>
<g id="clust6" class="cluster">
<title>cluster_time_attribute</title>
<polygon fill="#181818" stroke="#000000" stroke-width="3" points="979,-8 979,-101.5 1441,-101.5 1441,-8 979,-8"/>
<text text-anchor="middle" x="1210" y="-88" font-family="Courier New" font-size="10.00" fill="#d3d3d3">time_attribute</text>
</g>
<g id="clust7" class="cluster">
<title>cluster_time_base</title>
<polygon fill="#181818" stroke="#000000" stroke-width="3" points="1064,-162 1064,-255.5 1210,-255.5 1210,-162 1064,-162"/>
<text text-anchor="middle" x="1137" y="-242" font-family="Courier New" font-size="10.00" fill="#d3d3d3">time_base</text>
</g>
<g id="clust8" class="cluster">
<title>cluster_ds</title>
<polygon fill="#181818" stroke="#000000" stroke-width="3" points="1143,-316 1143,-409.5 1265,-409.5 1265,-316 1143,-316"/>
<text text-anchor="middle" x="1204" y="-396" font-family="Courier New" font-size="10.00" fill="#d3d3d3">ds</text>
</g>
<!-- Agg(sm_0, ds) -->
<g id="node1" class="node">
<title>Agg(sm_0, ds)</title>
<polygon fill="#303030" stroke="#d3d3d3" points="786.75,-668 665.25,-668 665.25,-632 786.75,-632 786.75,-668"/>
<text text-anchor="start" x="677.25" y="-645.73" font-family="Courier New" font-size="12.00" fill="#d3d3d3">Agg(sm_0, ds)</text>
</g>
<!-- JoinFrom(sm_0) -->
<g id="node2" class="node">
<title>JoinFrom(sm_0)</title>
<polygon fill="#303030" stroke="#d3d3d3" points="681.5,-514 552.5,-514 552.5,-478 681.5,-478 681.5,-514"/>
<text text-anchor="start" x="564.5" y="-491.73" font-family="Courier New" font-size="12.00" fill="#d3d3d3">JoinFrom(sm_0)</text>
</g>
<!-- Agg(sm_0, ds)&#45;&gt;JoinFrom(sm_0) -->
<g id="edge2" class="edge">
<title>Agg(sm_0, ds)&#45;&gt;JoinFrom(sm_0)</title>
<path fill="none" stroke="#d3d3d3" d="M713.5,-631.56C694.52,-605.11 658.32,-554.62 636.06,-523.58"/>
<polygon fill="#303030" stroke="#d3d3d3" points="638.91,-521.55 630.24,-515.46 633.22,-525.63 638.91,-521.55"/>
<text text-anchor="start" x="668.38" y="-598.3" font-family="Courier New" font-size="6.00" fill="#d3d3d3">Agg(sm_0, ds)</text>
<text text-anchor="start" x="670.25" y="-590.8" font-family="Courier New" font-size="6.00" fill="#d3d3d3">(weight:0)&#45;&gt;</text>
<text text-anchor="start" x="666.5" y="-583.3" font-family="Courier New" font-size="6.00" fill="#d3d3d3">JoinFrom(sm_0)</text>
</g>
<!-- JoinTo(sm_0) -->
<g id="node3" class="node">
<title>JoinTo(sm_0)</title>
<polygon fill="#303030" stroke="#d3d3d3" points="814,-514 700,-514 700,-478 814,-478 814,-514"/>
<text text-anchor="start" x="712" y="-491.73" font-family="Courier New" font-size="12.00" fill="#d3d3d3">JoinTo(sm_0)</text>
</g>
<!-- Agg(sm_0, ds)&#45;&gt;JoinTo(sm_0) -->
<g id="edge3" class="edge">
<title>Agg(sm_0, ds)&#45;&gt;JoinTo(sm_0)</title>
<path fill="none" stroke="#d3d3d3" d="M729.56,-631.56C734.86,-605.56 744.89,-556.37 751.25,-525.21"/>
<polygon fill="#303030" stroke="#d3d3d3" points="754.61,-526.21 753.18,-515.72 747.76,-524.81 754.61,-526.21"/>
<text text-anchor="start" x="751.5" y="-598.3" font-family="Courier New" font-size="6.00" fill="#d3d3d3">Agg(sm_0, ds)</text>
<text text-anchor="start" x="753.38" y="-590.8" font-family="Courier New" font-size="6.00" fill="#d3d3d3">(weight:0)&#45;&gt;</text>
<text text-anchor="start" x="753.38" y="-583.3" font-family="Courier New" font-size="6.00" fill="#d3d3d3">JoinTo(sm_0)</text>
</g>
<!-- MetricTimeDim(YEAR) -->
<g id="node12" class="node">
<title>MetricTimeDim(YEAR)</title>
<polygon fill="#303030" stroke="#d3d3d3" points="1392.25,-206 1225.75,-206 1225.75,-170 1392.25,-170 1392.25,-206"/>
<text text-anchor="start" x="1237.75" y="-183.72" font-family="Courier New" font-size="12.00" fill="#d3d3d3">MetricTimeDim(YEAR)</text>
</g>
<!-- Agg(sm_0, ds)&#45;&gt;MetricTimeDim(YEAR) -->
<g id="edge4" class="edge">
<title>Agg(sm_0, ds)&#45;&gt;MetricTimeDim(YEAR)</title>
<path fill="none" stroke="#d3d3d3" d="M780.65,-631.52C921.88,-583.78 1288,-460 1288,-460 1288,-460 1301.3,-287.76 1306.73,-217.4"/>
<polygon fill="#303030" stroke="#d3d3d3" points="1310.19,-218.02 1307.47,-207.78 1303.21,-217.48 1310.19,-218.02"/>
<text text-anchor="start" x="1309.25" y="-444.3" font-family="Courier New" font-size="6.00" fill="#d3d3d3">Agg(sm_0, ds)</text>
<text text-anchor="start" x="1311.12" y="-436.8" font-family="Courier New" font-size="6.00" fill="#d3d3d3">(weight:1)&#45;&gt;</text>
<text text-anchor="start" x="1298" y="-429.3" font-family="Courier New" font-size="6.00" fill="#d3d3d3">MetricTimeDim(YEAR)</text>
</g>
<!-- Entity(sm_0_primary_entity) -->
<g id="node8" class="node">
<title>Entity(sm_0_primary_entity)</title>
<polygon fill="#303030" stroke="#87cefa" points="242.25,-514 15.75,-514 15.75,-478 242.25,-478 242.25,-514"/>
<text text-anchor="start" x="27.75" y="-491.73" font-family="Courier New" font-size="12.00" fill="#d3d3d3">Entity(sm_0_primary_entity)</text>
</g>
<!-- JoinFrom(sm_0)&#45;&gt;Entity(sm_0_primary_entity) -->
<g id="edge7" class="edge">
<title>JoinFrom(sm_0)&#45;&gt;Entity(sm_0_primary_entity)</title>
<path fill="none" stroke="#d3d3d3" d="M555.11,-514.47C480.21,-536.82 364,-571.5 364,-571.5 364,-571.5 266.74,-540.25 197.36,-517.96"/>
<polygon fill="#303030" stroke="#d3d3d3" points="198.52,-514.66 187.93,-514.93 196.38,-521.32 198.52,-514.66"/>
<text text-anchor="start" x="337.75" y="-598.3" font-family="Courier New" font-size="6.00" fill="#d3d3d3">JoinFrom(sm_0)</text>
<text text-anchor="start" x="341.5" y="-590.8" font-family="Courier New" font-size="6.00" fill="#d3d3d3">(weight:1)&#45;&gt;</text>
<text text-anchor="start" x="313.38" y="-583.3" font-family="Courier New" font-size="6.00" fill="#d3d3d3">Entity(sm_0_primary_entity)</text>
</g>
<!-- Entity(sm_1_primary_entity) -->
<g id="node9" class="node">
<title>Entity(sm_1_primary_entity)</title>
<polygon fill="#303030" stroke="#87cefa" points="242.25,-360 15.75,-360 15.75,-324 242.25,-324 242.25,-360"/>
<text text-anchor="start" x="27.75" y="-337.73" font-family="Courier New" font-size="12.00" fill="#d3d3d3">Entity(sm_1_primary_entity)</text>
</g>
<!-- JoinFrom(sm_0)&#45;&gt;Entity(sm_1_primary_entity) -->
<g id="edge8" class="edge">
<title>JoinFrom(sm_0)&#45;&gt;Entity(sm_1_primary_entity)</title>
<path fill="none" stroke="#d3d3d3" d="M561.02,-477.56C470.62,-449.41 292.86,-394.04 195.91,-363.84"/>
<polygon fill="#303030" stroke="#d3d3d3" points="197.11,-360.55 186.52,-360.92 195.03,-367.23 197.11,-360.55"/>
<text text-anchor="start" x="497.12" y="-444.3" font-family="Courier New" font-size="6.00" fill="#d3d3d3">JoinFrom(sm_0)</text>
<text text-anchor="start" x="500.88" y="-436.8" font-family="Courier New" font-size="6.00" fill="#d3d3d3">(weight:1)&#45;&gt;</text>
<text text-anchor="start" x="472.75" y="-429.3" font-family="Courier New" font-size="6.00" fill="#d3d3d3">Entity(sm_1_primary_entity)</text>
</g>
<!-- DsiEntityKey(sm_0_primary_entity) -->
<g id="node6" class="node">
<title>DsiEntityKey(sm_0_primary_entity)</title>
<polygon fill="#303030" stroke="#ffa07a" points="1126.75,-360 855.25,-360 855.25,-324 1126.75,-324 1126.75,-360"/>
<text text-anchor="start" x="867.25" y="-337.73" font-family="Courier New" font-size="12.00" fill="#d3d3d3">DsiEntityKey(sm_0_primary_entity)</text>
</g>
<!-- JoinTo(sm_0)&#45;&gt;DsiEntityKey(sm_0_primary_entity) -->
<g id="edge12" class="edge">
<title>JoinTo(sm_0)&#45;&gt;DsiEntityKey(sm_0_primary_entity)</title>
<path fill="none" stroke="#d3d3d3" d="M783.84,-477.56C825.87,-450.26 907.28,-397.38 954.57,-366.67"/>
<polygon fill="#303030" stroke="#d3d3d3" points="956.36,-369.67 962.84,-361.29 952.55,-363.8 956.36,-369.67"/>
<text text-anchor="start" x="1040.38" y="-444.3" font-family="Courier New" font-size="6.00" fill="#d3d3d3">JoinTo(sm_0)</text>
<text text-anchor="start" x="1040.38" y="-436.8" font-family="Courier New" font-size="6.00" fill="#d3d3d3">(weight:0)&#45;&gt;</text>
<text text-anchor="start" x="1001" y="-429.3" font-family="Courier New" font-size="6.00" fill="#d3d3d3">DsiEntityKey(sm_0_primary_entity)</text>
</g>
<!-- DsiEntityKey(sm_1_primary_entity) -->
<g id="node7" class="node">
<title>DsiEntityKey(sm_1_primary_entity)</title>
<polygon fill="#303030" stroke="#ffa07a" points="836.75,-360 565.25,-360 565.25,-324 836.75,-324 836.75,-360"/>
<text text-anchor="start" x="577.25" y="-337.73" font-family="Courier New" font-size="12.00" fill="#d3d3d3">DsiEntityKey(sm_1_primary_entity)</text>
</g>
<!-- JoinTo(sm_0)&#45;&gt;DsiEntityKey(sm_1_primary_entity) -->
<g id="edge13" class="edge">
<title>JoinTo(sm_0)&#45;&gt;DsiEntityKey(sm_1_primary_entity)</title>
<path fill="none" stroke="#d3d3d3" d="M750.58,-477.56C740.96,-451.45 722.71,-401.93 711.24,-370.8"/>
<polygon fill="#303030" stroke="#d3d3d3" points="714.61,-369.83 707.87,-361.65 708.05,-372.25 714.61,-369.83"/>
<text text-anchor="start" x="892.38" y="-444.3" font-family="Courier New" font-size="6.00" fill="#d3d3d3">JoinTo(sm_0)</text>
<text text-anchor="start" x="892.38" y="-436.8" font-family="Courier New" font-size="6.00" fill="#d3d3d3">(weight:0)&#45;&gt;</text>
<text text-anchor="start" x="853" y="-429.3" font-family="Courier New" font-size="6.00" fill="#d3d3d3">DsiEntityKey(sm_1_primary_entity)</text>
</g>
<!-- TimeDim(ds) -->
<g id="node17" class="node">
<title>TimeDim(ds)</title>
<polygon fill="#303030" stroke="#d3d3d3" points="1257.25,-360 1150.75,-360 1150.75,-324 1257.25,-324 1257.25,-360"/>
<text text-anchor="start" x="1162.75" y="-337.73" font-family="Courier New" font-size="12.00" fill="#d3d3d3">TimeDim(ds)</text>
</g>
<!-- JoinTo(sm_0)&#45;&gt;TimeDim(ds) -->
<g id="edge10" class="edge">
<title>JoinTo(sm_0)&#45;&gt;TimeDim(ds)</title>
<path fill="none" stroke="#d3d3d3" d="M808.28,-477.56C890.83,-449.49 1052.92,-394.37 1141.89,-364.12"/>
<polygon fill="#303030" stroke="#d3d3d3" points="1142.86,-367.49 1151.2,-360.95 1140.61,-360.86 1142.86,-367.49"/>
<text text-anchor="start" x="1171.88" y="-444.3" font-family="Courier New" font-size="6.00" fill="#d3d3d3">JoinTo(sm_0)</text>
<text text-anchor="start" x="1171.88" y="-436.8" font-family="Courier New" font-size="6.00" fill="#d3d3d3">(weight:1)&#45;&gt;</text>
<text text-anchor="start" x="1173.76" y="-429.3" font-family="Courier New" font-size="6.00" fill="#d3d3d3">TimeDim(ds)</text>
</g>
<!-- Measure(sm_0_measure_0) -->
<g id="node4" class="node">
<title>Measure(sm_0_measure_0)</title>
<polygon fill="#303030" stroke="#006400" points="806.25,-782.5 609.75,-782.5 609.75,-746.5 806.25,-746.5 806.25,-782.5"/>
<text text-anchor="start" x="621.75" y="-760.23" font-family="Courier New" font-size="12.00" fill="#d3d3d3">Measure(sm_0_measure_0)</text>
</g>
<!-- Measure(sm_0_measure_0)&#45;&gt;Agg(sm_0, ds) -->
<g id="edge16" class="edge">
<title>Measure(sm_0_measure_0)&#45;&gt;Agg(sm_0, ds)</title>
<path fill="none" stroke="#d3d3d3" d="M710.73,-746.41C713.58,-728.66 718.07,-700.56 721.45,-679.44"/>
<polygon fill="#303030" stroke="#d3d3d3" points="724.88,-680.17 723,-669.74 717.97,-679.06 724.88,-680.17"/>
<text text-anchor="start" x="730.18" y="-712.8" font-family="Courier New" font-size="6.00" fill="#d3d3d3">Measure(sm_0_measure_0)</text>
<text text-anchor="start" x="750.8" y="-705.3" font-family="Courier New" font-size="6.00" fill="#d3d3d3">(weight:0)&#45;&gt;</text>
<text text-anchor="start" x="748.93" y="-697.8" font-family="Courier New" font-size="6.00" fill="#d3d3d3">Agg(sm_0, ds)</text>
</g>
<!-- Dim(dim_0) -->
<g id="node5" class="node">
<title>Dim(dim_0)</title>
<polygon fill="#303030" stroke="#ffa07a" points="547.5,-360 448.5,-360 448.5,-324 547.5,-324 547.5,-360"/>
<text text-anchor="start" x="460.5" y="-337.73" font-family="Courier New" font-size="12.00" fill="#d3d3d3">Dim(dim_0)</text>
</g>
<!-- Entity(sm_0_primary_entity)&#45;&gt;JoinTo(sm_0) -->
<g id="edge5" class="edge">
<title>Entity(sm_0_primary_entity)&#45;&gt;JoinTo(sm_0)</title>
<path fill="none" stroke="#d3d3d3" d="M222.45,-514.47C335.54,-536.82 511,-571.5 511,-571.5 511,-571.5 615.9,-539.31 688.7,-516.96"/>
<polygon fill="#303030" stroke="#d3d3d3" points="689.65,-520.33 698.19,-514.05 687.6,-513.64 689.65,-520.33"/>
<text text-anchor="start" x="460.38" y="-598.3" font-family="Courier New" font-size="6.00" fill="#d3d3d3">Entity(sm_0_primary_entity)</text>
<text text-anchor="start" x="488.5" y="-590.8" font-family="Courier New" font-size="6.00" fill="#d3d3d3">(weight:0)&#45;&gt;</text>
<text text-anchor="start" x="488.5" y="-583.3" font-family="Courier New" font-size="6.00" fill="#d3d3d3">JoinTo(sm_0)</text>
</g>
<!-- Entity(sm_0_primary_entity)&#45;&gt;Entity(sm_1_primary_entity) -->
<g id="edge1" class="edge">
<title>Entity(sm_0_primary_entity)&#45;&gt;Entity(sm_1_primary_entity)</title>
<path fill="none" stroke="#d3d3d3" d="M129,-477.56C129,-451.68 129,-402.8 129,-371.62"/>
<polygon fill="#303030" stroke="#d3d3d3" points="132.5,-371.75 129,-361.75 125.5,-371.75 132.5,-371.75"/>
<text text-anchor="start" x="44.75" y="-444.3" font-family="Courier New" font-size="6.00" fill="#d3d3d3">Entity(sm_0_primary_entity)</text>
<text text-anchor="start" x="72.88" y="-436.8" font-family="Courier New" font-size="6.00" fill="#d3d3d3">(weight:1)&#45;&gt;</text>
<text text-anchor="start" x="44.75" y="-429.3" font-family="Courier New" font-size="6.00" fill="#d3d3d3">Entity(sm_1_primary_entity)</text>
</g>
<!-- JoinTo(sm_1) -->
<g id="node11" class="node">
<title>JoinTo(sm_1)</title>
<polygon fill="#303030" stroke="#d3d3d3" points="528,-514 414,-514 414,-478 528,-478 528,-514"/>
<text text-anchor="start" x="426" y="-491.73" font-family="Courier New" font-size="12.00" fill="#d3d3d3">JoinTo(sm_1)</text>
</g>
<!-- Entity(sm_1_primary_entity)&#45;&gt;JoinTo(sm_1) -->
<g id="edge6" class="edge">
<title>Entity(sm_1_primary_entity)&#45;&gt;JoinTo(sm_1)</title>
<path fill="none" stroke="#d3d3d3" d="M168.3,-360.47C230.8,-388.24 352.75,-442.45 421.25,-472.89"/>
<polygon fill="#303030" stroke="#d3d3d3" points="419.83,-476.09 430.39,-476.95 422.67,-469.69 419.83,-476.09"/>
<text text-anchor="start" x="332.75" y="-444.3" font-family="Courier New" font-size="6.00" fill="#d3d3d3">Entity(sm_1_primary_entity)</text>
<text text-anchor="start" x="360.88" y="-436.8" font-family="Courier New" font-size="6.00" fill="#d3d3d3">(weight:0)&#45;&gt;</text>
<text text-anchor="start" x="360.88" y="-429.3" font-family="Courier New" font-size="6.00" fill="#d3d3d3">JoinTo(sm_1)</text>
</g>
<!-- JoinFrom(sm_1) -->
<g id="node10" class="node">
<title>JoinFrom(sm_1)</title>
<polygon fill="#303030" stroke="#d3d3d3" points="395.5,-514 266.5,-514 266.5,-478 395.5,-478 395.5,-514"/>
<text text-anchor="start" x="278.5" y="-491.73" font-family="Courier New" font-size="12.00" fill="#d3d3d3">JoinFrom(sm_1)</text>
</g>
<!-- JoinFrom(sm_1)&#45;&gt;Entity(sm_1_primary_entity) -->
<g id="edge9" class="edge">
<title>JoinFrom(sm_1)&#45;&gt;Entity(sm_1_primary_entity)</title>
<path fill="none" stroke="#d3d3d3" d="M307.83,-477.56C271.77,-450.43 202.15,-398.04 161.22,-367.25"/>
<polygon fill="#303030" stroke="#d3d3d3" points="163.52,-364.59 153.42,-361.38 159.31,-370.19 163.52,-364.59"/>
<text text-anchor="start" x="213.12" y="-444.3" font-family="Courier New" font-size="6.00" fill="#d3d3d3">JoinFrom(sm_1)</text>
<text text-anchor="start" x="216.88" y="-436.8" font-family="Courier New" font-size="6.00" fill="#d3d3d3">(weight:1)&#45;&gt;</text>
<text text-anchor="start" x="188.75" y="-429.3" font-family="Courier New" font-size="6.00" fill="#d3d3d3">Entity(sm_1_primary_entity)</text>
</g>
<!-- JoinTo(sm_1)&#45;&gt;Dim(dim_0) -->
<g id="edge14" class="edge">
<title>JoinTo(sm_1)&#45;&gt;Dim(dim_0)</title>
<path fill="none" stroke="#d3d3d3" d="M474.1,-477.56C478.72,-451.56 487.45,-402.37 492.99,-371.21"/>
<polygon fill="#303030" stroke="#d3d3d3" points="496.37,-372.18 494.67,-361.72 489.48,-370.96 496.37,-372.18"/>
<text text-anchor="start" x="598" y="-444.3" font-family="Courier New" font-size="6.00" fill="#d3d3d3">JoinTo(sm_1)</text>
<text text-anchor="start" x="598" y="-436.8" font-family="Courier New" font-size="6.00" fill="#d3d3d3">(weight:0)&#45;&gt;</text>
<text text-anchor="start" x="601.75" y="-429.3" font-family="Courier New" font-size="6.00" fill="#d3d3d3">Dim(dim_0)</text>
</g>
<!-- JoinTo(sm_1)&#45;&gt;DsiEntityKey(sm_1_primary_entity) -->
<g id="edge15" class="edge">
<title>JoinTo(sm_1)&#45;&gt;DsiEntityKey(sm_1_primary_entity)</title>
<path fill="none" stroke="#d3d3d3" d="M497.38,-477.56C538.69,-450.26 618.71,-397.38 665.19,-366.67"/>
<polygon fill="#303030" stroke="#d3d3d3" points="666.89,-369.73 673.31,-361.3 663.04,-363.89 666.89,-369.73"/>
<text text-anchor="start" x="721.86" y="-444.3" font-family="Courier New" font-size="6.00" fill="#d3d3d3">JoinTo(sm_1)</text>
<text text-anchor="start" x="721.86" y="-436.8" font-family="Courier New" font-size="6.00" fill="#d3d3d3">(weight:0)&#45;&gt;</text>
<text text-anchor="start" x="682.49" y="-429.3" font-family="Courier New" font-size="6.00" fill="#d3d3d3">DsiEntityKey(sm_1_primary_entity)</text>
</g>
<!-- Time(custom_year) -->
<g id="node13" class="node">
<title>Time(custom_year)</title>
<polygon fill="#303030" stroke="#ffa07a" points="1138.75,-52 987.25,-52 987.25,-16 1138.75,-16 1138.75,-52"/>
<text text-anchor="start" x="999.25" y="-29.73" font-family="Courier New" font-size="12.00" fill="#d3d3d3">Time(custom_year)</text>
</g>
<!-- MetricTimeDim(YEAR)&#45;&gt;Time(custom_year) -->
<g id="edge17" class="edge">
<title>MetricTimeDim(YEAR)&#45;&gt;Time(custom_year)</title>
<path fill="none" stroke="#d3d3d3" d="M1280.78,-169.56C1236.5,-142.21 1150.65,-89.16 1100.99,-58.47"/>
<polygon fill="#303030" stroke="#d3d3d3" points="1102.9,-55.54 1092.56,-53.26 1099.22,-61.5 1102.9,-55.54"/>
<text text-anchor="start" x="1068.75" y="-136.3" font-family="Courier New" font-size="6.00" fill="#d3d3d3">MetricTimeDim(YEAR)</text>
<text text-anchor="start" x="1081.88" y="-128.8" font-family="Courier New" font-size="6.00" fill="#d3d3d3">(weight:0)&#45;&gt;</text>
<text text-anchor="start" x="1072.5" y="-121.3" font-family="Courier New" font-size="6.00" fill="#d3d3d3">Time(custom_year)</text>
</g>
<!-- Time(extract_year) -->
<g id="node14" class="node">
<title>Time(extract_year)</title>
<polygon fill="#303030" stroke="#ffa07a" points="1315.5,-52 1156.5,-52 1156.5,-16 1315.5,-16 1315.5,-52"/>
<text text-anchor="start" x="1168.5" y="-29.73" font-family="Courier New" font-size="12.00" fill="#d3d3d3">Time(extract_year)</text>
</g>
<!-- MetricTimeDim(YEAR)&#45;&gt;Time(extract_year) -->
<g id="edge18" class="edge">
<title>MetricTimeDim(YEAR)&#45;&gt;Time(extract_year)</title>
<path fill="none" stroke="#d3d3d3" d="M1300.63,-169.56C1288.03,-143.34 1264.09,-93.5 1249.15,-62.39"/>
<polygon fill="#303030" stroke="#d3d3d3" points="1252.42,-61.1 1244.93,-53.6 1246.11,-64.13 1252.42,-61.1"/>
<text text-anchor="start" x="1289.75" y="-136.3" font-family="Courier New" font-size="6.00" fill="#d3d3d3">MetricTimeDim(YEAR)</text>
<text text-anchor="start" x="1302.88" y="-128.8" font-family="Courier New" font-size="6.00" fill="#d3d3d3">(weight:0)&#45;&gt;</text>
<text text-anchor="start" x="1291.62" y="-121.3" font-family="Courier New" font-size="6.00" fill="#d3d3d3">Time(extract_year)</text>
</g>
<!-- Time(year) -->
<g id="node15" class="node">
<title>Time(year)</title>
<polygon fill="#303030" stroke="#ffa07a" points="1432.5,-52 1333.5,-52 1333.5,-16 1432.5,-16 1432.5,-52"/>
<text text-anchor="start" x="1345.5" y="-29.73" font-family="Courier New" font-size="12.00" fill="#d3d3d3">Time(year)</text>
</g>
<!-- MetricTimeDim(YEAR)&#45;&gt;Time(year) -->
<g id="edge19" class="edge">
<title>MetricTimeDim(YEAR)&#45;&gt;Time(year)</title>
<path fill="none" stroke="#d3d3d3" d="M1317.49,-169.56C1330.26,-143.34 1354.52,-93.5 1369.67,-62.39"/>
<polygon fill="#303030" stroke="#d3d3d3" points="1372.72,-64.12 1373.95,-53.59 1366.42,-61.05 1372.72,-64.12"/>
<text text-anchor="start" x="1477" y="-136.3" font-family="Courier New" font-size="6.00" fill="#d3d3d3">MetricTimeDim(YEAR)</text>
<text text-anchor="start" x="1490.12" y="-128.8" font-family="Courier New" font-size="6.00" fill="#d3d3d3">(weight:0)&#45;&gt;</text>
<text text-anchor="start" x="1493.88" y="-121.3" font-family="Courier New" font-size="6.00" fill="#d3d3d3">Time(year)</text>
</g>
<!-- TimeBase(YEAR) -->
<g id="node16" class="node">
<title>TimeBase(YEAR)</title>
<polygon fill="#303030" stroke="#d3d3d3" points="1201.5,-206 1072.5,-206 1072.5,-170 1201.5,-170 1201.5,-206"/>
<text text-anchor="start" x="1084.5" y="-183.72" font-family="Courier New" font-size="12.00" fill="#d3d3d3">TimeBase(YEAR)</text>
</g>
<!-- TimeBase(YEAR)&#45;&gt;Time(custom_year) -->
<g id="edge20" class="edge">
<title>TimeBase(YEAR)&#45;&gt;Time(custom_year)</title>
<path fill="none" stroke="#d3d3d3" d="M1128.51,-169.56C1115.74,-143.34 1091.48,-93.5 1076.33,-62.39"/>
<polygon fill="#303030" stroke="#d3d3d3" points="1079.58,-61.05 1072.05,-53.59 1073.28,-64.12 1079.58,-61.05"/>
<text text-anchor="start" x="963.88" y="-136.3" font-family="Courier New" font-size="6.00" fill="#d3d3d3">TimeBase(YEAR)</text>
<text text-anchor="start" x="967.62" y="-128.8" font-family="Courier New" font-size="6.00" fill="#d3d3d3">(weight:0)&#45;&gt;</text>
<text text-anchor="start" x="958.25" y="-121.3" font-family="Courier New" font-size="6.00" fill="#d3d3d3">Time(custom_year)</text>
</g>
<!-- TimeBase(YEAR)&#45;&gt;Time(extract_year) -->
<g id="edge21" class="edge">
<title>TimeBase(YEAR)&#45;&gt;Time(extract_year)</title>
<path fill="none" stroke="#d3d3d3" d="M1148.36,-169.56C1165.59,-143.11 1198.47,-92.62 1218.69,-61.58"/>
<polygon fill="#303030" stroke="#d3d3d3" points="1221.42,-63.79 1223.95,-53.5 1215.56,-59.97 1221.42,-63.79"/>
<text text-anchor="start" x="1190" y="-136.3" font-family="Courier New" font-size="6.00" fill="#d3d3d3">TimeBase(YEAR)</text>
<text text-anchor="start" x="1193.75" y="-128.8" font-family="Courier New" font-size="6.00" fill="#d3d3d3">(weight:0)&#45;&gt;</text>
<text text-anchor="start" x="1182.5" y="-121.3" font-family="Courier New" font-size="6.00" fill="#d3d3d3">Time(extract_year)</text>
</g>
<!-- TimeBase(YEAR)&#45;&gt;Time(year) -->
<g id="edge22" class="edge">
<title>TimeBase(YEAR)&#45;&gt;Time(year)</title>
<path fill="none" stroke="#d3d3d3" d="M1165.22,-169.56C1209.5,-142.21 1295.35,-89.16 1345.01,-58.47"/>
<polygon fill="#303030" stroke="#d3d3d3" points="1346.78,-61.5 1353.44,-53.26 1343.1,-55.54 1346.78,-61.5"/>
<text text-anchor="start" x="1385.22" y="-136.3" font-family="Courier New" font-size="6.00" fill="#d3d3d3">TimeBase(YEAR)</text>
<text text-anchor="start" x="1388.97" y="-128.8" font-family="Courier New" font-size="6.00" fill="#d3d3d3">(weight:0)&#45;&gt;</text>
<text text-anchor="start" x="1392.72" y="-121.3" font-family="Courier New" font-size="6.00" fill="#d3d3d3">Time(year)</text>
</g>
<!-- TimeDim(ds)&#45;&gt;TimeBase(YEAR) -->
<g id="edge11" class="edge">
<title>TimeDim(ds)&#45;&gt;TimeBase(YEAR)</title>
<path fill="none" stroke="#d3d3d3" d="M1196.31,-323.56C1184.75,-297.34 1162.78,-247.5 1149.07,-216.39"/>
<polygon fill="#303030" stroke="#d3d3d3" points="1152.44,-215.36 1145.21,-207.62 1146.04,-218.18 1152.44,-215.36"/>
<text text-anchor="start" x="1203.43" y="-290.3" font-family="Courier New" font-size="6.00" fill="#d3d3d3">TimeDim(ds)</text>
<text text-anchor="start" x="1201.56" y="-282.8" font-family="Courier New" font-size="6.00" fill="#d3d3d3">(weight:0)&#45;&gt;</text>
<text text-anchor="start" x="1197.81" y="-275.3" font-family="Courier New" font-size="6.00" fill="#d3d3d3">TimeBase(YEAR)</text>
</g>
</g>
</svg>
