<?xml version="1.0" encoding="UTF-8" standalone="no"?>
<!DOCTYPE svg PUBLIC "-//W3C//DTD SVG 1.1//EN"
 "http://www.w3.org/Graphics/SVG/1.1/DTD/svg11.dtd">
<!-- Generated by graphviz version 12.2.1 (20241206.2353)
 -->
<!-- Pages: 1 -->
<svg width="1901pt" height="751pt"
 viewBox="0.00 0.00 1900.50 751.25" xmlns="http://www.w3.org/2000/svg" xmlns:xlink="http://www.w3.org/1999/xlink">
<g id="graph0" class="graph" transform="scale(1 1) rotate(0) translate(4 747.25)">
<polygon fill="#181818" stroke="none" points="-4,4 -4,-747.25 1896.5,-747.25 1896.5,4 -4,4"/>
<g id="clust1" class="cluster">
<title>cluster_sm_1</title>
<polygon fill="#181818" stroke="#000000" stroke-width="3" points="683.75,-585 683.75,-716 828.75,-716 828.75,-585 683.75,-585"/>
<text text-anchor="middle" x="756.25" y="-702.5" font-family="Courier New" font-size="10.00" fill="#d3d3d3">sm_1</text>
</g>
<g id="clust2" class="cluster">
<title>cluster_other_attribute</title>
<polygon fill="#181818" stroke="#000000" stroke-width="3" points="1019.75,-497 1019.75,-720 1284.75,-720 1284.75,-497 1019.75,-497"/>
<text text-anchor="middle" x="1152.25" y="-706.5" font-family="Courier New" font-size="10.00" fill="#d3d3d3">other_attribute</text>
</g>
<g id="clust3" class="cluster">
<title>cluster_sm_0</title>
<polygon fill="#181818" stroke="#000000" stroke-width="3" points="8,-295 8,-426 828.75,-426 828.75,-295 8,-295"/>
<text text-anchor="middle" x="418.38" y="-412.5" font-family="Courier New" font-size="10.00" fill="#d3d3d3">sm_0</text>
</g>
<g id="clust4" class="cluster">
<title>cluster_model_entity</title>
<polygon fill="#181818" stroke="#000000" stroke-width="3" points="1019.75,-321 1019.75,-452 1284.75,-452 1284.75,-321 1019.75,-321"/>
<text text-anchor="middle" x="1152.25" y="-438.5" font-family="Courier New" font-size="10.00" fill="#d3d3d3">model_entity</text>
</g>
<g id="clust5" class="cluster">
<title>cluster_time_dimension</title>
<polygon fill="#181818" stroke="#000000" stroke-width="3" points="1038.5,-81 1038.5,-170 1266,-170 1266,-81 1038.5,-81"/>
<text text-anchor="middle" x="1152.25" y="-156.5" font-family="Courier New" font-size="10.00" fill="#d3d3d3">time_dimension</text>
</g>
<g id="clust6" class="cluster">
<title>cluster_time_attribute</title>
<polygon fill="#181818" stroke="#000000" stroke-width="3" points="1517,-83 1517,-270 1692,-270 1692,-83 1517,-83"/>
<text text-anchor="middle" x="1604.5" y="-256.5" font-family="Courier New" font-size="10.00" fill="#d3d3d3">time_attribute</text>
</g>
<g id="clust7" class="cluster">
<title>cluster_time_entity</title>
<polygon fill="#181818" stroke="#000000" stroke-width="3" points="1046,-178 1046,-260 1258.5,-260 1258.5,-178 1046,-178"/>
<text text-anchor="middle" x="1152.25" y="-246.5" font-family="Courier New" font-size="10.00" fill="#d3d3d3">time_entity</text>
</g>
<g id="clust8" class="cluster">
<title>cluster_metric_attribute</title>
<polygon fill="#181818" stroke="#000000" stroke-width="3" points="1475.75,-341 1475.75,-414 1733.25,-414 1733.25,-341 1475.75,-341"/>
<text text-anchor="middle" x="1604.5" y="-400.5" font-family="Courier New" font-size="10.00" fill="#d3d3d3">metric_attribute</text>
</g>
<!-- JoinTo(sm_1) -->
<g id="node1" class="node">
<title>JoinTo(sm_1)</title>
<polygon fill="#303030" stroke="#d3d3d3" points="813.25,-686.88 699.25,-686.88 699.25,-649.12 813.25,-649.12 813.25,-686.88"/>
<text text-anchor="start" x="711.25" y="-667.48" font-family="Courier New" font-size="12.00" fill="#d3d3d3">JoinTo(sm_1)</text>
<text text-anchor="start" x="707.25" y="-654.92" font-family="Courier New" font-size="6.00" fill="#d3d3d3">add_model: sm_1</text>
</g>
<!-- edge_as_node_0 -->
<g id="node21" class="node">
<title>edge_as_node_0</title>
<polygon fill="none" stroke="none" points="971.12,-743.25 877.38,-743.25 877.38,-720.75 971.12,-720.75 971.12,-743.25"/>
<text text-anchor="start" x="877.38" y="-737.55" font-family="Courier New" font-size="6.00" fill="#d3d3d3">type: EntityAttributeEdge</text>
<text text-anchor="start" x="877.38" y="-730.05" font-family="Courier New" font-size="6.00" fill="#d3d3d3">tail: JoinTo(sm_1)</text>
<text text-anchor="start" x="877.38" y="-722.55" font-family="Courier New" font-size="6.00" fill="#d3d3d3">head: Dimension(dim_0)</text>
</g>
<!-- JoinTo(sm_1)&#45;&gt;edge_as_node_0 -->
<g id="edge1" class="edge">
<title>JoinTo(sm_1)&#45;&gt;edge_as_node_0</title>
<path fill="none" stroke="#d3d3d3" d="M807.06,-687.2C835.51,-698.17 870.21,-711.55 894.24,-720.81"/>
</g>
<!-- edge_as_node_6 -->
<g id="node27" class="node">
<title>edge_as_node_6</title>
<polygon fill="none" stroke="none" points="991.75,-661.25 856.75,-661.25 856.75,-638.75 991.75,-638.75 991.75,-661.25"/>
<text text-anchor="start" x="856.75" y="-655.55" font-family="Courier New" font-size="6.00" fill="#d3d3d3">type: EntityAttributeEdge</text>
<text text-anchor="start" x="856.75" y="-648.05" font-family="Courier New" font-size="6.00" fill="#d3d3d3">tail: JoinTo(sm_1)</text>
<text text-anchor="start" x="856.75" y="-640.55" font-family="Courier New" font-size="6.00" fill="#d3d3d3">head: EntityKey(sm_1_primary_entity)</text>
</g>
<!-- JoinTo(sm_1)&#45;&gt;edge_as_node_6 -->
<g id="edge13" class="edge">
<title>JoinTo(sm_1)&#45;&gt;edge_as_node_6</title>
<path fill="none" stroke="#d3d3d3" d="M813.45,-661.91C827.37,-660.4 842.42,-658.76 856.78,-657.21"/>
</g>
<!-- JoinFrom(sm_1) -->
<g id="node2" class="node">
<title>JoinFrom(sm_1)</title>
<polygon fill="#303030" stroke="#d3d3d3" points="820.75,-630.88 691.75,-630.88 691.75,-593.12 820.75,-593.12 820.75,-630.88"/>
<text text-anchor="start" x="703.75" y="-611.48" font-family="Courier New" font-size="12.00" fill="#d3d3d3">JoinFrom(sm_1)</text>
<text text-anchor="start" x="699.75" y="-598.92" font-family="Courier New" font-size="6.00" fill="#d3d3d3">add_model: sm_1</text>
</g>
<!-- edge_as_node_1 -->
<g id="node22" class="node">
<title>edge_as_node_1</title>
<polygon fill="none" stroke="none" points="971.12,-702.25 877.38,-702.25 877.38,-679.75 971.12,-679.75 971.12,-702.25"/>
<text text-anchor="start" x="877.38" y="-696.55" font-family="Courier New" font-size="6.00" fill="#d3d3d3">type: EntityAttributeEdge</text>
<text text-anchor="start" x="877.38" y="-689.05" font-family="Courier New" font-size="6.00" fill="#d3d3d3">tail: JoinFrom(sm_1)</text>
<text text-anchor="start" x="877.38" y="-681.55" font-family="Courier New" font-size="6.00" fill="#d3d3d3">head: Dimension(dim_0)</text>
</g>
<!-- JoinFrom(sm_1)&#45;&gt;edge_as_node_1 -->
<g id="edge3" class="edge">
<title>JoinFrom(sm_1)&#45;&gt;edge_as_node_1</title>
<path fill="none" stroke="#d3d3d3" d="M797.86,-631.33C829.92,-646.58 873.51,-667.33 899.95,-679.91"/>
</g>
<!-- edge_as_node_7 -->
<g id="node28" class="node">
<title>edge_as_node_7</title>
<polygon fill="none" stroke="none" points="991.75,-620.25 856.75,-620.25 856.75,-597.75 991.75,-597.75 991.75,-620.25"/>
<text text-anchor="start" x="856.75" y="-614.55" font-family="Courier New" font-size="6.00" fill="#d3d3d3">type: EntityAttributeEdge</text>
<text text-anchor="start" x="856.75" y="-607.05" font-family="Courier New" font-size="6.00" fill="#d3d3d3">tail: JoinFrom(sm_1)</text>
<text text-anchor="start" x="856.75" y="-599.55" font-family="Courier New" font-size="6.00" fill="#d3d3d3">head: EntityKey(sm_1_primary_entity)</text>
</g>
<!-- JoinFrom(sm_1)&#45;&gt;edge_as_node_7 -->
<g id="edge15" class="edge">
<title>JoinFrom(sm_1)&#45;&gt;edge_as_node_7</title>
<path fill="none" stroke="#d3d3d3" d="M820.96,-610.85C832.75,-610.64 845.09,-610.41 856.96,-610.2"/>
</g>
<!-- edge_as_node_12 -->
<g id="node33" class="node">
<title>edge_as_node_12</title>
<polygon fill="none" stroke="none" points="991.75,-415.25 856.75,-415.25 856.75,-392.75 991.75,-392.75 991.75,-415.25"/>
<text text-anchor="start" x="856.75" y="-409.55" font-family="Courier New" font-size="6.00" fill="#d3d3d3">type: JoinFromModelEdge</text>
<text text-anchor="start" x="856.75" y="-402.05" font-family="Courier New" font-size="6.00" fill="#d3d3d3">tail: JoinFrom(sm_1)</text>
<text text-anchor="start" x="856.75" y="-394.55" font-family="Courier New" font-size="6.00" fill="#d3d3d3">head: DsiEntity(sm_1_primary_entity)</text>
</g>
<!-- JoinFrom(sm_1)&#45;&gt;edge_as_node_12 -->
<g id="edge25" class="edge">
<title>JoinFrom(sm_1)&#45;&gt;edge_as_node_12</title>
<path fill="none" stroke="#d3d3d3" d="M772.57,-592.8C806.6,-550.16 887.6,-448.67 914.44,-415.04"/>
</g>
<!-- Dimension(dim_0) -->
<g id="node3" class="node">
<title>Dimension(dim_0)</title>
<polygon fill="#303030" stroke="#ffa07a" points="1224.25,-691.62 1080.25,-691.62 1080.25,-646.38 1224.25,-646.38 1224.25,-691.62"/>
<text text-anchor="start" x="1092.25" y="-672.23" font-family="Courier New" font-size="12.00" fill="#d3d3d3">Dimension(dim_0)</text>
<text text-anchor="start" x="1088.25" y="-659.67" font-family="Courier New" font-size="6.00" fill="#d3d3d3">add_name: dim_0</text>
<text text-anchor="start" x="1088.25" y="-652.17" font-family="Courier New" font-size="6.00" fill="#d3d3d3">add_type: DIMENSION</text>
</g>
<!-- EntityKey(sm_0_primary_entity) -->
<g id="node4" class="node">
<title>EntityKey(sm_0_primary_entity)</title>
<polygon fill="#303030" stroke="#ffa07a" points="1276.75,-557.38 1027.75,-557.38 1027.75,-504.62 1276.75,-504.62 1276.75,-557.38"/>
<text text-anchor="start" x="1039.75" y="-537.98" font-family="Courier New" font-size="12.00" fill="#d3d3d3">EntityKey(sm_0_primary_entity)</text>
<text text-anchor="start" x="1035.75" y="-525.42" font-family="Courier New" font-size="6.00" fill="#d3d3d3">add_name: sm_0_primary_entity</text>
<text text-anchor="start" x="1035.75" y="-517.92" font-family="Courier New" font-size="6.00" fill="#d3d3d3">add_prop: ENTITY</text>
<text text-anchor="start" x="1035.75" y="-510.43" font-family="Courier New" font-size="6.00" fill="#d3d3d3">add_type: ENTITY</text>
</g>
<!-- EntityKey(sm_1_primary_entity) -->
<g id="node5" class="node">
<title>EntityKey(sm_1_primary_entity)</title>
<polygon fill="#303030" stroke="#ffa07a" points="1276.75,-628.38 1027.75,-628.38 1027.75,-575.62 1276.75,-575.62 1276.75,-628.38"/>
<text text-anchor="start" x="1039.75" y="-608.98" font-family="Courier New" font-size="12.00" fill="#d3d3d3">EntityKey(sm_1_primary_entity)</text>
<text text-anchor="start" x="1035.75" y="-596.42" font-family="Courier New" font-size="6.00" fill="#d3d3d3">add_name: sm_1_primary_entity</text>
<text text-anchor="start" x="1035.75" y="-588.92" font-family="Courier New" font-size="6.00" fill="#d3d3d3">add_prop: ENTITY</text>
<text text-anchor="start" x="1035.75" y="-581.42" font-family="Courier New" font-size="6.00" fill="#d3d3d3">add_type: ENTITY</text>
</g>
<!-- JoinTo(sm_0) -->
<g id="node6" class="node">
<title>JoinTo(sm_0)</title>
<polygon fill="#303030" stroke="#d3d3d3" points="813.25,-396.88 699.25,-396.88 699.25,-359.12 813.25,-359.12 813.25,-396.88"/>
<text text-anchor="start" x="711.25" y="-377.48" font-family="Courier New" font-size="12.00" fill="#d3d3d3">JoinTo(sm_0)</text>
<text text-anchor="start" x="707.25" y="-364.93" font-family="Courier New" font-size="6.00" fill="#d3d3d3">add_model: sm_0</text>
</g>
<!-- edge_as_node_2 -->
<g id="node23" class="node">
<title>edge_as_node_2</title>
<polygon fill="none" stroke="none" points="991.75,-497.25 856.75,-497.25 856.75,-474.75 991.75,-474.75 991.75,-497.25"/>
<text text-anchor="start" x="856.75" y="-491.55" font-family="Courier New" font-size="6.00" fill="#d3d3d3">type: EntityAttributeEdge</text>
<text text-anchor="start" x="856.75" y="-484.05" font-family="Courier New" font-size="6.00" fill="#d3d3d3">tail: JoinTo(sm_0)</text>
<text text-anchor="start" x="856.75" y="-476.55" font-family="Courier New" font-size="6.00" fill="#d3d3d3">head: EntityKey(sm_0_primary_entity)</text>
</g>
<!-- JoinTo(sm_0)&#45;&gt;edge_as_node_2 -->
<g id="edge5" class="edge">
<title>JoinTo(sm_0)&#45;&gt;edge_as_node_2</title>
<path fill="none" stroke="#d3d3d3" d="M786.93,-397.31C821.62,-419.88 877.86,-456.47 906.03,-474.8"/>
</g>
<!-- edge_as_node_4 -->
<g id="node25" class="node">
<title>edge_as_node_4</title>
<polygon fill="none" stroke="none" points="991.75,-579.25 856.75,-579.25 856.75,-556.75 991.75,-556.75 991.75,-579.25"/>
<text text-anchor="start" x="856.75" y="-573.55" font-family="Courier New" font-size="6.00" fill="#d3d3d3">type: EntityAttributeEdge</text>
<text text-anchor="start" x="856.75" y="-566.05" font-family="Courier New" font-size="6.00" fill="#d3d3d3">tail: JoinTo(sm_0)</text>
<text text-anchor="start" x="856.75" y="-558.55" font-family="Courier New" font-size="6.00" fill="#d3d3d3">head: EntityKey(sm_1_primary_entity)</text>
</g>
<!-- JoinTo(sm_0)&#45;&gt;edge_as_node_4 -->
<g id="edge9" class="edge">
<title>JoinTo(sm_0)&#45;&gt;edge_as_node_4</title>
<path fill="none" stroke="#d3d3d3" d="M774.08,-397.26C808.53,-436.7 886.16,-525.54 913.5,-556.84"/>
</g>
<!-- edge_as_node_20 -->
<g id="node38" class="node">
<title>edge_as_node_20</title>
<polygon fill="none" stroke="none" points="978.62,-255.25 869.88,-255.25 869.88,-232.75 978.62,-232.75 978.62,-255.25"/>
<text text-anchor="start" x="869.88" y="-249.55" font-family="Courier New" font-size="6.00" fill="#d3d3d3">type: EntityRelationshipEdge</text>
<text text-anchor="start" x="869.88" y="-242.05" font-family="Courier New" font-size="6.00" fill="#d3d3d3">tail: JoinTo(sm_0)</text>
<text text-anchor="start" x="869.88" y="-234.55" font-family="Courier New" font-size="6.00" fill="#d3d3d3">head: TimeDimension(ds, year)</text>
</g>
<!-- JoinTo(sm_0)&#45;&gt;edge_as_node_20 -->
<g id="edge41" class="edge">
<title>JoinTo(sm_0)&#45;&gt;edge_as_node_20</title>
<path fill="none" stroke="#d3d3d3" d="M781.03,-358.8C816.36,-330.29 881.53,-277.68 909.7,-254.94"/>
</g>
<!-- JoinFrom(sm_0) -->
<g id="node7" class="node">
<title>JoinFrom(sm_0)</title>
<polygon fill="#303030" stroke="#d3d3d3" points="820.75,-340.88 691.75,-340.88 691.75,-303.12 820.75,-303.12 820.75,-340.88"/>
<text text-anchor="start" x="703.75" y="-321.48" font-family="Courier New" font-size="12.00" fill="#d3d3d3">JoinFrom(sm_0)</text>
<text text-anchor="start" x="699.75" y="-308.93" font-family="Courier New" font-size="6.00" fill="#d3d3d3">add_model: sm_0</text>
</g>
<!-- edge_as_node_3 -->
<g id="node24" class="node">
<title>edge_as_node_3</title>
<polygon fill="none" stroke="none" points="991.75,-456.25 856.75,-456.25 856.75,-433.75 991.75,-433.75 991.75,-456.25"/>
<text text-anchor="start" x="856.75" y="-450.55" font-family="Courier New" font-size="6.00" fill="#d3d3d3">type: EntityAttributeEdge</text>
<text text-anchor="start" x="856.75" y="-443.05" font-family="Courier New" font-size="6.00" fill="#d3d3d3">tail: JoinFrom(sm_0)</text>
<text text-anchor="start" x="856.75" y="-435.55" font-family="Courier New" font-size="6.00" fill="#d3d3d3">head: EntityKey(sm_0_primary_entity)</text>
</g>
<!-- JoinFrom(sm_0)&#45;&gt;edge_as_node_3 -->
<g id="edge7" class="edge">
<title>JoinFrom(sm_0)&#45;&gt;edge_as_node_3</title>
<path fill="none" stroke="#d3d3d3" d="M783.19,-341.22C818.39,-367.3 880.12,-413.04 908.37,-433.98"/>
</g>
<!-- edge_as_node_5 -->
<g id="node26" class="node">
<title>edge_as_node_5</title>
<polygon fill="none" stroke="none" points="991.75,-538.25 856.75,-538.25 856.75,-515.75 991.75,-515.75 991.75,-538.25"/>
<text text-anchor="start" x="856.75" y="-532.55" font-family="Courier New" font-size="6.00" fill="#d3d3d3">type: EntityAttributeEdge</text>
<text text-anchor="start" x="856.75" y="-525.05" font-family="Courier New" font-size="6.00" fill="#d3d3d3">tail: JoinFrom(sm_0)</text>
<text text-anchor="start" x="856.75" y="-517.55" font-family="Courier New" font-size="6.00" fill="#d3d3d3">head: EntityKey(sm_1_primary_entity)</text>
</g>
<!-- JoinFrom(sm_0)&#45;&gt;edge_as_node_5 -->
<g id="edge11" class="edge">
<title>JoinFrom(sm_0)&#45;&gt;edge_as_node_5</title>
<path fill="none" stroke="#d3d3d3" d="M772.87,-341.29C807.09,-383.55 887.76,-483.17 914.48,-516.17"/>
</g>
<!-- edge_as_node_9 -->
<g id="node30" class="node">
<title>edge_as_node_9</title>
<polygon fill="none" stroke="none" points="991.75,-333.25 856.75,-333.25 856.75,-310.75 991.75,-310.75 991.75,-333.25"/>
<text text-anchor="start" x="856.75" y="-327.55" font-family="Courier New" font-size="6.00" fill="#d3d3d3">type: JoinFromModelEdge</text>
<text text-anchor="start" x="856.75" y="-320.05" font-family="Courier New" font-size="6.00" fill="#d3d3d3">tail: JoinFrom(sm_0)</text>
<text text-anchor="start" x="856.75" y="-312.55" font-family="Courier New" font-size="6.00" fill="#d3d3d3">head: DsiEntity(sm_0_primary_entity)</text>
</g>
<!-- JoinFrom(sm_0)&#45;&gt;edge_as_node_9 -->
<g id="edge19" class="edge">
<title>JoinFrom(sm_0)&#45;&gt;edge_as_node_9</title>
<path fill="none" stroke="#d3d3d3" d="M820.96,-322C832.75,-322 845.09,-322 856.96,-322"/>
</g>
<!-- edge_as_node_10 -->
<g id="node31" class="node">
<title>edge_as_node_10</title>
<polygon fill="none" stroke="none" points="991.75,-374.25 856.75,-374.25 856.75,-351.75 991.75,-351.75 991.75,-374.25"/>
<text text-anchor="start" x="856.75" y="-368.55" font-family="Courier New" font-size="6.00" fill="#d3d3d3">type: JoinFromModelEdge</text>
<text text-anchor="start" x="856.75" y="-361.05" font-family="Courier New" font-size="6.00" fill="#d3d3d3">tail: JoinFrom(sm_0)</text>
<text text-anchor="start" x="856.75" y="-353.55" font-family="Courier New" font-size="6.00" fill="#d3d3d3">head: DsiEntity(sm_1_primary_entity)</text>
</g>
<!-- JoinFrom(sm_0)&#45;&gt;edge_as_node_10 -->
<g id="edge21" class="edge">
<title>JoinFrom(sm_0)&#45;&gt;edge_as_node_10</title>
<path fill="none" stroke="#d3d3d3" d="M820.96,-337.73C839.88,-342.41 860.22,-347.43 877.75,-351.76"/>
</g>
<!-- edge_as_node_13 -->
<g id="node34" class="node">
<title>edge_as_node_13</title>
<polygon fill="none" stroke="none" points="982.38,-149.25 866.12,-149.25 866.12,-126.75 982.38,-126.75 982.38,-149.25"/>
<text text-anchor="start" x="866.12" y="-143.55" font-family="Courier New" font-size="6.00" fill="#d3d3d3">type: EntityRelationshipEdge</text>
<text text-anchor="start" x="866.12" y="-136.05" font-family="Courier New" font-size="6.00" fill="#d3d3d3">tail: JoinFrom(sm_0)</text>
<text text-anchor="start" x="866.12" y="-128.55" font-family="Courier New" font-size="6.00" fill="#d3d3d3">head: MetricTimeDimension(YEAR)</text>
</g>
<!-- JoinFrom(sm_0)&#45;&gt;edge_as_node_13 -->
<g id="edge27" class="edge">
<title>JoinFrom(sm_0)&#45;&gt;edge_as_node_13</title>
<path fill="none" stroke="#d3d3d3" d="M774.7,-302.66C809.33,-264.27 885.75,-179.56 913.19,-149.15"/>
</g>
<!-- edge_as_node_21 -->
<g id="node39" class="node">
<title>edge_as_node_21</title>
<polygon fill="none" stroke="none" points="978.62,-214.25 869.88,-214.25 869.88,-191.75 978.62,-191.75 978.62,-214.25"/>
<text text-anchor="start" x="869.88" y="-208.55" font-family="Courier New" font-size="6.00" fill="#d3d3d3">type: EntityAttributeEdge</text>
<text text-anchor="start" x="869.88" y="-201.05" font-family="Courier New" font-size="6.00" fill="#d3d3d3">tail: JoinFrom(sm_0)</text>
<text text-anchor="start" x="869.88" y="-193.55" font-family="Courier New" font-size="6.00" fill="#d3d3d3">head: TimeDimension(ds, year)</text>
</g>
<!-- JoinFrom(sm_0)&#45;&gt;edge_as_node_21 -->
<g id="edge43" class="edge">
<title>JoinFrom(sm_0)&#45;&gt;edge_as_node_21</title>
<path fill="none" stroke="#d3d3d3" d="M783.92,-302.88C818.93,-277.78 879.26,-234.54 907.64,-214.19"/>
</g>
<!-- Agg(sm_0, ds) -->
<g id="node8" class="node">
<title>Agg(sm_0, ds)</title>
<polygon fill="#303030" stroke="#d3d3d3" points="514.75,-340 393.25,-340 393.25,-304 514.75,-304 514.75,-340"/>
<text text-anchor="start" x="405.25" y="-317.73" font-family="Courier New" font-size="12.00" fill="#d3d3d3">Agg(sm_0, ds)</text>
</g>
<!-- edge_as_node_17 -->
<g id="node10" class="node">
<title>edge_as_node_17</title>
<polygon fill="none" stroke="none" points="655.75,-333.25 550.75,-333.25 550.75,-310.75 655.75,-310.75 655.75,-333.25"/>
<text text-anchor="start" x="550.75" y="-327.55" font-family="Courier New" font-size="6.00" fill="#d3d3d3">type: EntityRelationshipEdge</text>
<text text-anchor="start" x="550.75" y="-320.05" font-family="Courier New" font-size="6.00" fill="#d3d3d3">tail: Agg(sm_0, ds)</text>
<text text-anchor="start" x="550.75" y="-312.55" font-family="Courier New" font-size="6.00" fill="#d3d3d3">head: JoinFrom(sm_0)</text>
</g>
<!-- Agg(sm_0, ds)&#45;&gt;edge_as_node_17 -->
<g id="edge35" class="edge">
<title>Agg(sm_0, ds)&#45;&gt;edge_as_node_17</title>
<path fill="none" stroke="#d3d3d3" d="M514.89,-322C526.84,-322 539.28,-322 550.9,-322"/>
</g>
<!-- edge_as_node_18 -->
<g id="node11" class="node">
<title>edge_as_node_18</title>
<polygon fill="none" stroke="none" points="655.75,-381.25 550.75,-381.25 550.75,-358.75 655.75,-358.75 655.75,-381.25"/>
<text text-anchor="start" x="550.75" y="-375.55" font-family="Courier New" font-size="6.00" fill="#d3d3d3">type: EntityRelationshipEdge</text>
<text text-anchor="start" x="550.75" y="-368.05" font-family="Courier New" font-size="6.00" fill="#d3d3d3">tail: Agg(sm_0, ds)</text>
<text text-anchor="start" x="550.75" y="-360.55" font-family="Courier New" font-size="6.00" fill="#d3d3d3">head: JoinTo(sm_0)</text>
</g>
<!-- Agg(sm_0, ds)&#45;&gt;edge_as_node_18 -->
<g id="edge37" class="edge">
<title>Agg(sm_0, ds)&#45;&gt;edge_as_node_18</title>
<path fill="none" stroke="#d3d3d3" d="M511.51,-340.42C530.49,-346.61 551.07,-353.32 567.83,-358.78"/>
</g>
<!-- Measure(sm_0_measure_0) -->
<g id="node9" class="node">
<title>Measure(sm_0_measure_0)</title>
<polygon fill="#303030" stroke="#006400" points="212.5,-340.88 16,-340.88 16,-303.12 212.5,-303.12 212.5,-340.88"/>
<text text-anchor="start" x="28" y="-321.48" font-family="Courier New" font-size="12.00" fill="#d3d3d3">Measure(sm_0_measure_0)</text>
<text text-anchor="start" x="24" y="-308.93" font-family="Courier New" font-size="6.00" fill="#d3d3d3">add_model: sm_0</text>
</g>
<!-- edge_as_node_19 -->
<g id="node12" class="node">
<title>edge_as_node_19</title>
<polygon fill="none" stroke="none" points="357.25,-333.25 248.5,-333.25 248.5,-310.75 357.25,-310.75 357.25,-333.25"/>
<text text-anchor="start" x="248.5" y="-327.55" font-family="Courier New" font-size="6.00" fill="#d3d3d3">type: EntityAttributeEdge</text>
<text text-anchor="start" x="248.5" y="-320.05" font-family="Courier New" font-size="6.00" fill="#d3d3d3">tail: Measure(sm_0_measure_0)</text>
<text text-anchor="start" x="248.5" y="-312.55" font-family="Courier New" font-size="6.00" fill="#d3d3d3">head: Agg(sm_0, ds)</text>
</g>
<!-- Measure(sm_0_measure_0)&#45;&gt;edge_as_node_19 -->
<g id="edge39" class="edge">
<title>Measure(sm_0_measure_0)&#45;&gt;edge_as_node_19</title>
<path fill="none" stroke="#d3d3d3" d="M212.94,-322C225.28,-322 237.53,-322 248.8,-322"/>
</g>
<!-- edge_as_node_17&#45;&gt;JoinFrom(sm_0) -->
<g id="edge36" class="edge">
<title>edge_as_node_17&#45;&gt;JoinFrom(sm_0)</title>
<path fill="none" stroke="#d3d3d3" d="M655.37,-322C663.31,-322 671.66,-322 680,-322"/>
<polygon fill="#303030" stroke="#d3d3d3" points="679.82,-325.5 689.82,-322 679.82,-318.5 679.82,-325.5"/>
</g>
<!-- edge_as_node_18&#45;&gt;JoinTo(sm_0) -->
<g id="edge38" class="edge">
<title>edge_as_node_18&#45;&gt;JoinTo(sm_0)</title>
<path fill="none" stroke="#d3d3d3" d="M655.37,-372.71C665.79,-373.26 676.89,-373.85 687.78,-374.43"/>
<polygon fill="#303030" stroke="#d3d3d3" points="687.31,-377.91 697.48,-374.94 687.68,-370.92 687.31,-377.91"/>
</g>
<!-- edge_as_node_19&#45;&gt;Agg(sm_0, ds) -->
<g id="edge40" class="edge">
<title>edge_as_node_19&#45;&gt;Agg(sm_0, ds)</title>
<path fill="none" stroke="#d3d3d3" d="M356.87,-322C364.87,-322 373.23,-322 381.54,-322"/>
<polygon fill="#303030" stroke="#d3d3d3" points="381.29,-325.5 391.29,-322 381.29,-318.5 381.29,-325.5"/>
</g>
<!-- DsiEntity(sm_0_primary_entity) -->
<g id="node13" class="node">
<title>DsiEntity(sm_0_primary_entity)</title>
<polygon fill="#303030" stroke="#87cefa" points="1276.75,-366.88 1027.75,-366.88 1027.75,-329.12 1276.75,-329.12 1276.75,-366.88"/>
<text text-anchor="start" x="1039.75" y="-347.48" font-family="Courier New" font-size="12.00" fill="#d3d3d3">DsiEntity(sm_0_primary_entity)</text>
<text text-anchor="start" x="1035.75" y="-334.93" font-family="Courier New" font-size="6.00" fill="#d3d3d3">add_name: sm_0_primary_entity</text>
</g>
<!-- edge_as_node_8 -->
<g id="node29" class="node">
<title>edge_as_node_8</title>
<polygon fill="none" stroke="none" points="1447.75,-326.25 1312.75,-326.25 1312.75,-303.75 1447.75,-303.75 1447.75,-326.25"/>
<text text-anchor="start" x="1312.75" y="-320.55" font-family="Courier New" font-size="6.00" fill="#d3d3d3">type: JoinToModelEdge</text>
<text text-anchor="start" x="1312.75" y="-313.05" font-family="Courier New" font-size="6.00" fill="#d3d3d3">tail: DsiEntity(sm_0_primary_entity)</text>
<text text-anchor="start" x="1312.75" y="-305.55" font-family="Courier New" font-size="6.00" fill="#d3d3d3">head: JoinTo(sm_0)</text>
</g>
<!-- DsiEntity(sm_0_primary_entity)&#45;&gt;edge_as_node_8 -->
<g id="edge17" class="edge">
<title>DsiEntity(sm_0_primary_entity)&#45;&gt;edge_as_node_8</title>
<path fill="none" stroke="#d3d3d3" d="M1277.16,-329.91C1289.39,-328.12 1301.46,-326.36 1312.77,-324.71"/>
</g>
<!-- edge_as_node_27 -->
<g id="node45" class="node">
<title>edge_as_node_27</title>
<polygon fill="none" stroke="none" points="1447.75,-389.5 1312.75,-389.5 1312.75,-344.5 1447.75,-344.5 1447.75,-389.5"/>
<text text-anchor="start" x="1312.75" y="-383.8" font-family="Courier New" font-size="6.00" fill="#d3d3d3">add_name: sm_0_measure_0_metric</text>
<text text-anchor="start" x="1312.75" y="-376.3" font-family="Courier New" font-size="6.00" fill="#d3d3d3">add_prop: METRIC</text>
<text text-anchor="start" x="1312.75" y="-368.8" font-family="Courier New" font-size="6.00" fill="#d3d3d3">add_type: METRIC</text>
<text text-anchor="start" x="1312.75" y="-361.3" font-family="Courier New" font-size="6.00" fill="#d3d3d3">type: EntityAttributeEdge</text>
<text text-anchor="start" x="1312.75" y="-353.8" font-family="Courier New" font-size="6.00" fill="#d3d3d3">tail: DsiEntity(sm_0_primary_entity)</text>
<text text-anchor="start" x="1312.75" y="-346.3" font-family="Courier New" font-size="6.00" fill="#d3d3d3">head: Metric(sm_0_measure_0_metric)</text>
</g>
<!-- DsiEntity(sm_0_primary_entity)&#45;&gt;edge_as_node_27 -->
<g id="edge55" class="edge">
<title>DsiEntity(sm_0_primary_entity)&#45;&gt;edge_as_node_27</title>
<path fill="none" stroke="#d3d3d3" d="M1277.16,-358.42C1289.39,-359.45 1301.46,-360.46 1312.77,-361.41"/>
</g>
<!-- DsiEntity(sm_1_primary_entity) -->
<g id="node14" class="node">
<title>DsiEntity(sm_1_primary_entity)</title>
<polygon fill="#303030" stroke="#87cefa" points="1276.75,-422.88 1027.75,-422.88 1027.75,-385.12 1276.75,-385.12 1276.75,-422.88"/>
<text text-anchor="start" x="1039.75" y="-403.48" font-family="Courier New" font-size="12.00" fill="#d3d3d3">DsiEntity(sm_1_primary_entity)</text>
<text text-anchor="start" x="1035.75" y="-390.93" font-family="Courier New" font-size="6.00" fill="#d3d3d3">add_name: sm_1_primary_entity</text>
</g>
<!-- edge_as_node_11 -->
<g id="node32" class="node">
<title>edge_as_node_11</title>
<polygon fill="none" stroke="none" points="1447.75,-637.25 1312.75,-637.25 1312.75,-614.75 1447.75,-614.75 1447.75,-637.25"/>
<text text-anchor="start" x="1312.75" y="-631.55" font-family="Courier New" font-size="6.00" fill="#d3d3d3">type: JoinToModelEdge</text>
<text text-anchor="start" x="1312.75" y="-624.05" font-family="Courier New" font-size="6.00" fill="#d3d3d3">tail: DsiEntity(sm_1_primary_entity)</text>
<text text-anchor="start" x="1312.75" y="-616.55" font-family="Courier New" font-size="6.00" fill="#d3d3d3">head: JoinTo(sm_1)</text>
</g>
<!-- DsiEntity(sm_1_primary_entity)&#45;&gt;edge_as_node_11 -->
<g id="edge23" class="edge">
<title>DsiEntity(sm_1_primary_entity)&#45;&gt;edge_as_node_11</title>
<path fill="none" stroke="#d3d3d3" d="M1172.91,-423.31C1218.77,-468.36 1331.65,-579.24 1367.87,-614.82"/>
</g>
<!-- edge_as_node_26 -->
<g id="node44" class="node">
<title>edge_as_node_26</title>
<polygon fill="none" stroke="none" points="1447.75,-452.5 1312.75,-452.5 1312.75,-407.5 1447.75,-407.5 1447.75,-452.5"/>
<text text-anchor="start" x="1312.75" y="-446.8" font-family="Courier New" font-size="6.00" fill="#d3d3d3">add_name: sm_0_measure_0_metric</text>
<text text-anchor="start" x="1312.75" y="-439.3" font-family="Courier New" font-size="6.00" fill="#d3d3d3">add_prop: METRIC</text>
<text text-anchor="start" x="1312.75" y="-431.8" font-family="Courier New" font-size="6.00" fill="#d3d3d3">add_type: METRIC</text>
<text text-anchor="start" x="1312.75" y="-424.3" font-family="Courier New" font-size="6.00" fill="#d3d3d3">type: EntityAttributeEdge</text>
<text text-anchor="start" x="1312.75" y="-416.8" font-family="Courier New" font-size="6.00" fill="#d3d3d3">tail: DsiEntity(sm_1_primary_entity)</text>
<text text-anchor="start" x="1312.75" y="-409.3" font-family="Courier New" font-size="6.00" fill="#d3d3d3">head: Metric(sm_0_measure_0_metric)</text>
</g>
<!-- DsiEntity(sm_1_primary_entity)&#45;&gt;edge_as_node_26 -->
<g id="edge53" class="edge">
<title>DsiEntity(sm_1_primary_entity)&#45;&gt;edge_as_node_26</title>
<path fill="none" stroke="#d3d3d3" d="M1277.16,-418.26C1289.39,-419.66 1301.46,-421.05 1312.77,-422.35"/>
</g>
<!-- MetricTimeDimension(YEAR) -->
<g id="node15" class="node">
<title>MetricTimeDimension(YEAR)</title>
<polygon fill="#303030" stroke="#d3d3d3" points="1258,-141.38 1046.5,-141.38 1046.5,-88.62 1258,-88.62 1258,-141.38"/>
<text text-anchor="start" x="1058.5" y="-121.97" font-family="Courier New" font-size="12.00" fill="#d3d3d3">MetricTimeDimension(YEAR)</text>
<text text-anchor="start" x="1054.5" y="-109.42" font-family="Courier New" font-size="6.00" fill="#d3d3d3">add_name: metric_time</text>
<text text-anchor="start" x="1054.5" y="-101.92" font-family="Courier New" font-size="6.00" fill="#d3d3d3">add_prop: METRIC_TIME</text>
<text text-anchor="start" x="1054.5" y="-94.42" font-family="Courier New" font-size="6.00" fill="#d3d3d3">add_type: TIME_DIMENSION</text>
</g>
<!-- edge_as_node_14 -->
<g id="node35" class="node">
<title>edge_as_node_14</title>
<polygon fill="none" stroke="none" points="1438.38,-30 1322.12,-30 1322.12,0 1438.38,0 1438.38,-30"/>
<text text-anchor="start" x="1322.12" y="-24.3" font-family="Courier New" font-size="6.00" fill="#d3d3d3">add_time_grain: year</text>
<text text-anchor="start" x="1322.12" y="-16.8" font-family="Courier New" font-size="6.00" fill="#d3d3d3">type: EntityAttributeEdge</text>
<text text-anchor="start" x="1322.12" y="-9.3" font-family="Courier New" font-size="6.00" fill="#d3d3d3">tail: MetricTimeDimension(YEAR)</text>
<text text-anchor="start" x="1322.12" y="-1.8" font-family="Courier New" font-size="6.00" fill="#d3d3d3">head: Time(year)</text>
</g>
<!-- MetricTimeDimension(YEAR)&#45;&gt;edge_as_node_14 -->
<g id="edge29" class="edge">
<title>MetricTimeDimension(YEAR)&#45;&gt;edge_as_node_14</title>
<path fill="none" stroke="#d3d3d3" d="M1213.81,-88.2C1256.05,-69.52 1310.83,-45.27 1345.53,-29.92"/>
</g>
<!-- edge_as_node_15 -->
<g id="node36" class="node">
<title>edge_as_node_15</title>
<polygon fill="none" stroke="none" points="1444,-238 1316.5,-238 1316.5,-208 1444,-208 1444,-238"/>
<text text-anchor="start" x="1316.5" y="-232.3" font-family="Courier New" font-size="6.00" fill="#d3d3d3">add_prop: DERIVED_TIME_GRANULARITY</text>
<text text-anchor="start" x="1316.5" y="-224.8" font-family="Courier New" font-size="6.00" fill="#d3d3d3">type: EntityAttributeEdge</text>
<text text-anchor="start" x="1316.5" y="-217.3" font-family="Courier New" font-size="6.00" fill="#d3d3d3">tail: MetricTimeDimension(YEAR)</text>
<text text-anchor="start" x="1316.5" y="-209.8" font-family="Courier New" font-size="6.00" fill="#d3d3d3">head: Time(extract_year)</text>
</g>
<!-- MetricTimeDimension(YEAR)&#45;&gt;edge_as_node_15 -->
<g id="edge31" class="edge">
<title>MetricTimeDimension(YEAR)&#45;&gt;edge_as_node_15</title>
<path fill="none" stroke="#d3d3d3" d="M1209.41,-141.84C1253.2,-162.76 1312.4,-191.05 1348.09,-208.11"/>
</g>
<!-- edge_as_node_16 -->
<g id="node37" class="node">
<title>edge_as_node_16</title>
<polygon fill="none" stroke="none" points="1444,-133.75 1316.5,-133.75 1316.5,-96.25 1444,-96.25 1444,-133.75"/>
<text text-anchor="start" x="1316.5" y="-128.05" font-family="Courier New" font-size="6.00" fill="#d3d3d3">add_prop: DERIVED_TIME_GRANULARITY</text>
<text text-anchor="start" x="1316.5" y="-120.55" font-family="Courier New" font-size="6.00" fill="#d3d3d3">add_time_grain: custom_year</text>
<text text-anchor="start" x="1316.5" y="-113.05" font-family="Courier New" font-size="6.00" fill="#d3d3d3">type: EntityAttributeEdge</text>
<text text-anchor="start" x="1316.5" y="-105.55" font-family="Courier New" font-size="6.00" fill="#d3d3d3">tail: MetricTimeDimension(YEAR)</text>
<text text-anchor="start" x="1316.5" y="-98.05" font-family="Courier New" font-size="6.00" fill="#d3d3d3">head: Time(custom_year)</text>
</g>
<!-- MetricTimeDimension(YEAR)&#45;&gt;edge_as_node_16 -->
<g id="edge33" class="edge">
<title>MetricTimeDimension(YEAR)&#45;&gt;edge_as_node_16</title>
<path fill="none" stroke="#d3d3d3" d="M1258.31,-115C1278.25,-115 1298.53,-115 1316.63,-115"/>
</g>
<!-- Time(custom_year) -->
<g id="node16" class="node">
<title>Time(custom_year)</title>
<polygon fill="#303030" stroke="#ffa07a" points="1680.25,-184.88 1528.75,-184.88 1528.75,-147.12 1680.25,-147.12 1680.25,-184.88"/>
<text text-anchor="start" x="1540.75" y="-165.47" font-family="Courier New" font-size="12.00" fill="#d3d3d3">Time(custom_year)</text>
<text text-anchor="start" x="1536.75" y="-152.93" font-family="Courier New" font-size="6.00" fill="#d3d3d3">add_name: custom_year</text>
</g>
<!-- Time(extract_year) -->
<g id="node17" class="node">
<title>Time(extract_year)</title>
<polygon fill="#303030" stroke="#ffa07a" points="1684,-240.88 1525,-240.88 1525,-203.12 1684,-203.12 1684,-240.88"/>
<text text-anchor="start" x="1537" y="-221.47" font-family="Courier New" font-size="12.00" fill="#d3d3d3">Time(extract_year)</text>
<text text-anchor="start" x="1533" y="-208.93" font-family="Courier New" font-size="6.00" fill="#d3d3d3">add_name: extract_year</text>
</g>
<!-- Time(year) -->
<g id="node18" class="node">
<title>Time(year)</title>
<polygon fill="#303030" stroke="#ffa07a" points="1654,-128.88 1555,-128.88 1555,-91.12 1654,-91.12 1654,-128.88"/>
<text text-anchor="start" x="1567" y="-109.47" font-family="Courier New" font-size="12.00" fill="#d3d3d3">Time(year)</text>
<text text-anchor="start" x="1563" y="-96.92" font-family="Courier New" font-size="6.00" fill="#d3d3d3">add_name: year</text>
</g>
<!-- TimeDimension(ds, year) -->
<g id="node19" class="node">
<title>TimeDimension(ds, year)</title>
<polygon fill="#303030" stroke="#d3d3d3" points="1250.5,-231.62 1054,-231.62 1054,-186.38 1250.5,-186.38 1250.5,-231.62"/>
<text text-anchor="start" x="1066" y="-212.22" font-family="Courier New" font-size="12.00" fill="#d3d3d3">TimeDimension(ds, year)</text>
<text text-anchor="start" x="1062" y="-199.68" font-family="Courier New" font-size="6.00" fill="#d3d3d3">add_name: ds</text>
<text text-anchor="start" x="1062" y="-192.18" font-family="Courier New" font-size="6.00" fill="#d3d3d3">add_type: TIME_DIMENSION</text>
</g>
<!-- edge_as_node_22 -->
<g id="node40" class="node">
<title>edge_as_node_22</title>
<polygon fill="none" stroke="none" points="1434.62,-78 1325.88,-78 1325.88,-48 1434.62,-48 1434.62,-78"/>
<text text-anchor="start" x="1325.88" y="-72.3" font-family="Courier New" font-size="6.00" fill="#d3d3d3">add_time_grain: year</text>
<text text-anchor="start" x="1325.88" y="-64.8" font-family="Courier New" font-size="6.00" fill="#d3d3d3">type: EntityAttributeEdge</text>
<text text-anchor="start" x="1325.88" y="-57.3" font-family="Courier New" font-size="6.00" fill="#d3d3d3">tail: TimeDimension(ds, year)</text>
<text text-anchor="start" x="1325.88" y="-49.8" font-family="Courier New" font-size="6.00" fill="#d3d3d3">head: Time(year)</text>
</g>
<!-- TimeDimension(ds, year)&#45;&gt;edge_as_node_22 -->
<g id="edge45" class="edge">
<title>TimeDimension(ds, year)&#45;&gt;edge_as_node_22</title>
<path fill="none" stroke="#d3d3d3" d="M1188.81,-186.03C1235.67,-155.75 1316.78,-103.36 1356.29,-77.83"/>
</g>
<!-- edge_as_node_23 -->
<g id="node41" class="node">
<title>edge_as_node_23</title>
<polygon fill="none" stroke="none" points="1444,-286 1316.5,-286 1316.5,-256 1444,-256 1444,-286"/>
<text text-anchor="start" x="1316.5" y="-280.3" font-family="Courier New" font-size="6.00" fill="#d3d3d3">add_prop: DERIVED_TIME_GRANULARITY</text>
<text text-anchor="start" x="1316.5" y="-272.8" font-family="Courier New" font-size="6.00" fill="#d3d3d3">type: EntityAttributeEdge</text>
<text text-anchor="start" x="1316.5" y="-265.3" font-family="Courier New" font-size="6.00" fill="#d3d3d3">tail: TimeDimension(ds, year)</text>
<text text-anchor="start" x="1316.5" y="-257.8" font-family="Courier New" font-size="6.00" fill="#d3d3d3">head: Time(extract_year)</text>
</g>
<!-- TimeDimension(ds, year)&#45;&gt;edge_as_node_23 -->
<g id="edge47" class="edge">
<title>TimeDimension(ds, year)&#45;&gt;edge_as_node_23</title>
<path fill="none" stroke="#d3d3d3" d="M1237.4,-232.09C1266.65,-240.11 1298.65,-248.89 1324.84,-256.07"/>
</g>
<!-- edge_as_node_24 -->
<g id="node42" class="node">
<title>edge_as_node_24</title>
<polygon fill="none" stroke="none" points="1444,-189.75 1316.5,-189.75 1316.5,-152.25 1444,-152.25 1444,-189.75"/>
<text text-anchor="start" x="1316.5" y="-184.05" font-family="Courier New" font-size="6.00" fill="#d3d3d3">add_prop: DERIVED_TIME_GRANULARITY</text>
<text text-anchor="start" x="1316.5" y="-176.55" font-family="Courier New" font-size="6.00" fill="#d3d3d3">add_time_grain: custom_year</text>
<text text-anchor="start" x="1316.5" y="-169.05" font-family="Courier New" font-size="6.00" fill="#d3d3d3">type: EntityAttributeEdge</text>
<text text-anchor="start" x="1316.5" y="-161.55" font-family="Courier New" font-size="6.00" fill="#d3d3d3">tail: TimeDimension(ds, year)</text>
<text text-anchor="start" x="1316.5" y="-154.05" font-family="Courier New" font-size="6.00" fill="#d3d3d3">head: Time(custom_year)</text>
</g>
<!-- TimeDimension(ds, year)&#45;&gt;edge_as_node_24 -->
<g id="edge49" class="edge">
<title>TimeDimension(ds, year)&#45;&gt;edge_as_node_24</title>
<path fill="none" stroke="#d3d3d3" d="M1250.73,-192.61C1273.07,-188.85 1296.24,-184.96 1316.65,-181.53"/>
</g>
<!-- Metric(sm_0_measure_0_metric) -->
<g id="node20" class="node">
<title>Metric(sm_0_measure_0_metric)</title>
<polygon fill="#303030" stroke="#ffa07a" points="1725.25,-385 1483.75,-385 1483.75,-349 1725.25,-349 1725.25,-385"/>
<text text-anchor="start" x="1495.75" y="-362.73" font-family="Courier New" font-size="12.00" fill="#d3d3d3">Metric(sm_0_measure_0_metric)</text>
</g>
<!-- edge_as_node_25 -->
<g id="node43" class="node">
<title>edge_as_node_25</title>
<polygon fill="none" stroke="none" points="1892.5,-180.25 1761.25,-180.25 1761.25,-157.75 1892.5,-157.75 1892.5,-180.25"/>
<text text-anchor="start" x="1761.25" y="-174.55" font-family="Courier New" font-size="6.00" fill="#d3d3d3">type: MetricDefinitionEdge</text>
<text text-anchor="start" x="1761.25" y="-167.05" font-family="Courier New" font-size="6.00" fill="#d3d3d3">tail: Metric(sm_0_measure_0_metric)</text>
<text text-anchor="start" x="1761.25" y="-159.55" font-family="Courier New" font-size="6.00" fill="#d3d3d3">head: Measure(sm_0_measure_0)</text>
</g>
<!-- Metric(sm_0_measure_0_metric)&#45;&gt;edge_as_node_25 -->
<g id="edge51" class="edge">
<title>Metric(sm_0_measure_0_metric)&#45;&gt;edge_as_node_25</title>
<path fill="none" stroke="#d3d3d3" d="M1625.84,-348.73C1670.7,-308.42 1777.03,-212.88 1813.42,-180.19"/>
</g>
<!-- edge_as_node_0&#45;&gt;Dimension(dim_0) -->
<g id="edge2" class="edge">
<title>edge_as_node_0&#45;&gt;Dimension(dim_0)</title>
<path fill="none" stroke="#d3d3d3" d="M965.39,-720.81C994.13,-712.8 1033.83,-701.73 1069.16,-691.88"/>
<polygon fill="#303030" stroke="#d3d3d3" points="1069.82,-695.33 1078.51,-689.28 1067.94,-688.59 1069.82,-695.33"/>
</g>
<!-- edge_as_node_1&#45;&gt;Dimension(dim_0) -->
<g id="edge4" class="edge">
<title>edge_as_node_1&#45;&gt;Dimension(dim_0)</title>
<path fill="none" stroke="#d3d3d3" d="M970.98,-686.55C998.91,-683.83 1035.44,-680.27 1068.32,-677.07"/>
<polygon fill="#303030" stroke="#d3d3d3" points="1068.65,-680.56 1078.26,-676.1 1067.97,-673.59 1068.65,-680.56"/>
</g>
<!-- edge_as_node_2&#45;&gt;EntityKey(sm_0_primary_entity) -->
<g id="edge6" class="edge">
<title>edge_as_node_2&#45;&gt;EntityKey(sm_0_primary_entity)</title>
<path fill="none" stroke="#d3d3d3" d="M981.7,-497.24C992.51,-499.39 1004.25,-501.73 1016.34,-504.14"/>
<polygon fill="#303030" stroke="#d3d3d3" points="1015.55,-507.55 1026.04,-506.07 1016.91,-500.68 1015.55,-507.55"/>
</g>
<!-- edge_as_node_3&#45;&gt;EntityKey(sm_0_primary_entity) -->
<g id="edge8" class="edge">
<title>edge_as_node_3&#45;&gt;EntityKey(sm_0_primary_entity)</title>
<path fill="none" stroke="#d3d3d3" d="M954.8,-456.24C984.01,-467.36 1030.04,-484.88 1070.21,-500.16"/>
<polygon fill="#303030" stroke="#d3d3d3" points="1068.81,-503.37 1079.4,-503.66 1071.3,-496.83 1068.81,-503.37"/>
</g>
<!-- edge_as_node_4&#45;&gt;EntityKey(sm_1_primary_entity) -->
<g id="edge10" class="edge">
<title>edge_as_node_4&#45;&gt;EntityKey(sm_1_primary_entity)</title>
<path fill="none" stroke="#d3d3d3" d="M991.53,-577.97C999.5,-579.17 1007.85,-580.43 1016.36,-581.71"/>
<polygon fill="#303030" stroke="#d3d3d3" points="1015.74,-585.15 1026.15,-583.18 1016.78,-578.23 1015.74,-585.15"/>
</g>
<!-- edge_as_node_5&#45;&gt;EntityKey(sm_1_primary_entity) -->
<g id="edge12" class="edge">
<title>edge_as_node_5&#45;&gt;EntityKey(sm_1_primary_entity)</title>
<path fill="none" stroke="#d3d3d3" d="M959.08,-538.23C985.76,-547.08 1024.25,-559.85 1059.79,-571.65"/>
<polygon fill="#303030" stroke="#d3d3d3" points="1058.68,-574.97 1069.28,-574.8 1060.89,-568.32 1058.68,-574.97"/>
</g>
<!-- edge_as_node_6&#45;&gt;EntityKey(sm_1_primary_entity) -->
<g id="edge14" class="edge">
<title>edge_as_node_6&#45;&gt;EntityKey(sm_1_primary_entity)</title>
<path fill="none" stroke="#d3d3d3" d="M977.95,-638.81C989.79,-636.29 1002.87,-633.51 1016.39,-630.64"/>
<polygon fill="#303030" stroke="#d3d3d3" points="1016.77,-634.14 1025.83,-628.64 1015.32,-627.29 1016.77,-634.14"/>
</g>
<!-- edge_as_node_7&#45;&gt;EntityKey(sm_1_primary_entity) -->
<g id="edge16" class="edge">
<title>edge_as_node_7&#45;&gt;EntityKey(sm_1_primary_entity)</title>
<path fill="none" stroke="#d3d3d3" d="M991.53,-606.95C999.5,-606.7 1007.85,-606.44 1016.36,-606.18"/>
<polygon fill="#303030" stroke="#d3d3d3" points="1016.24,-609.68 1026.13,-605.88 1016.03,-602.69 1016.24,-609.68"/>
</g>
<!-- edge_as_node_8&#45;&gt;JoinTo(sm_0) -->
<g id="edge18" class="edge">
<title>edge_as_node_8&#45;&gt;JoinTo(sm_0)</title>
<path fill="none" stroke="#d3d3d3" d="M1312.92,-321.8C1193.35,-333.87 945.24,-358.92 824.81,-371.08"/>
<polygon fill="#303030" stroke="#d3d3d3" points="824.66,-367.58 815.06,-372.06 825.36,-374.54 824.66,-367.58"/>
</g>
<!-- edge_as_node_9&#45;&gt;DsiEntity(sm_0_primary_entity) -->
<g id="edge20" class="edge">
<title>edge_as_node_9&#45;&gt;DsiEntity(sm_0_primary_entity)</title>
<path fill="none" stroke="#d3d3d3" d="M991.53,-329.63C999.5,-330.54 1007.85,-331.5 1016.36,-332.48"/>
<polygon fill="#303030" stroke="#d3d3d3" points="1015.81,-335.94 1026.14,-333.61 1016.61,-328.99 1015.81,-335.94"/>
</g>
<!-- edge_as_node_10&#45;&gt;DsiEntity(sm_1_primary_entity) -->
<g id="edge22" class="edge">
<title>edge_as_node_10&#45;&gt;DsiEntity(sm_1_primary_entity)</title>
<path fill="none" stroke="#d3d3d3" d="M987.01,-374.2C1001.55,-376.84 1017.54,-379.74 1033.65,-382.67"/>
<polygon fill="#303030" stroke="#d3d3d3" points="1032.85,-386.08 1043.32,-384.42 1034.1,-379.19 1032.85,-386.08"/>
</g>
<!-- edge_as_node_11&#45;&gt;JoinTo(sm_1) -->
<g id="edge24" class="edge">
<title>edge_as_node_11&#45;&gt;JoinTo(sm_1)</title>
<path fill="none" stroke="#d3d3d3" d="M1312.92,-630.53C1193.35,-638.58 945.24,-655.28 824.81,-663.39"/>
<polygon fill="#303030" stroke="#d3d3d3" points="824.81,-659.88 815.07,-664.04 825.28,-666.86 824.81,-659.88"/>
</g>
<!-- edge_as_node_12&#45;&gt;DsiEntity(sm_1_primary_entity) -->
<g id="edge26" class="edge">
<title>edge_as_node_12&#45;&gt;DsiEntity(sm_1_primary_entity)</title>
<path fill="none" stroke="#d3d3d3" d="M991.53,-404C999.5,-404 1007.85,-404 1016.36,-404"/>
<polygon fill="#303030" stroke="#d3d3d3" points="1016.13,-407.5 1026.13,-404 1016.13,-400.5 1016.13,-407.5"/>
</g>
<!-- edge_as_node_13&#45;&gt;MetricTimeDimension(YEAR) -->
<g id="edge28" class="edge">
<title>edge_as_node_13&#45;&gt;MetricTimeDimension(YEAR)</title>
<path fill="none" stroke="#d3d3d3" d="M982.28,-132.2C998.41,-130.55 1016.59,-128.7 1034.88,-126.84"/>
<polygon fill="#303030" stroke="#d3d3d3" points="1035.16,-130.33 1044.76,-125.84 1034.45,-123.37 1035.16,-130.33"/>
</g>
<!-- edge_as_node_14&#45;&gt;Time(year) -->
<g id="edge30" class="edge">
<title>edge_as_node_14&#45;&gt;Time(year)</title>
<path fill="none" stroke="#d3d3d3" d="M1415.98,-29.84C1451.24,-44.92 1506.4,-68.5 1547.78,-86.18"/>
<polygon fill="#303030" stroke="#d3d3d3" points="1546.29,-89.35 1556.86,-90.07 1549.05,-82.92 1546.29,-89.35"/>
</g>
<!-- edge_as_node_15&#45;&gt;Time(extract_year) -->
<g id="edge32" class="edge">
<title>edge_as_node_15&#45;&gt;Time(extract_year)</title>
<path fill="none" stroke="#d3d3d3" d="M1443.75,-222.72C1465.38,-222.62 1490.06,-222.51 1513.45,-222.41"/>
<polygon fill="#303030" stroke="#d3d3d3" points="1513.32,-225.91 1523.3,-222.36 1513.29,-218.91 1513.32,-225.91"/>
</g>
<!-- edge_as_node_16&#45;&gt;Time(custom_year) -->
<g id="edge34" class="edge">
<title>edge_as_node_16&#45;&gt;Time(custom_year)</title>
<path fill="none" stroke="#d3d3d3" d="M1443.75,-129.34C1466.57,-134.58 1492.81,-140.6 1517.33,-146.23"/>
<polygon fill="#303030" stroke="#d3d3d3" points="1516.46,-149.62 1526.99,-148.44 1518.02,-142.79 1516.46,-149.62"/>
</g>
<!-- edge_as_node_20&#45;&gt;TimeDimension(ds, year) -->
<g id="edge42" class="edge">
<title>edge_as_node_20&#45;&gt;TimeDimension(ds, year)</title>
<path fill="none" stroke="#d3d3d3" d="M978.52,-235.75C997.72,-232.78 1020.16,-229.3 1042.37,-225.86"/>
<polygon fill="#303030" stroke="#d3d3d3" points="1042.76,-229.34 1052.1,-224.35 1041.69,-222.43 1042.76,-229.34"/>
</g>
<!-- edge_as_node_21&#45;&gt;TimeDimension(ds, year) -->
<g id="edge44" class="edge">
<title>edge_as_node_21&#45;&gt;TimeDimension(ds, year)</title>
<path fill="none" stroke="#d3d3d3" d="M978.52,-204.41C997.72,-204.92 1020.16,-205.52 1042.37,-206.11"/>
<polygon fill="#303030" stroke="#d3d3d3" points="1042,-209.6 1052.09,-206.37 1042.18,-202.6 1042,-209.6"/>
</g>
<!-- edge_as_node_22&#45;&gt;Time(year) -->
<g id="edge46" class="edge">
<title>edge_as_node_22&#45;&gt;Time(year)</title>
<path fill="none" stroke="#d3d3d3" d="M1434.48,-74.26C1467.37,-81.21 1509.63,-90.15 1543.67,-97.35"/>
<polygon fill="#303030" stroke="#d3d3d3" points="1542.88,-100.76 1553.39,-99.4 1544.33,-93.91 1542.88,-100.76"/>
</g>
<!-- edge_as_node_23&#45;&gt;Time(extract_year) -->
<g id="edge48" class="edge">
<title>edge_as_node_23&#45;&gt;Time(extract_year)</title>
<path fill="none" stroke="#d3d3d3" d="M1443.75,-257.22C1465.47,-252.43 1490.29,-246.96 1513.77,-241.78"/>
<polygon fill="#303030" stroke="#d3d3d3" points="1514.33,-245.24 1523.34,-239.67 1512.82,-238.41 1514.33,-245.24"/>
</g>
<!-- edge_as_node_24&#45;&gt;Time(custom_year) -->
<g id="edge50" class="edge">
<title>edge_as_node_24&#45;&gt;Time(custom_year)</title>
<path fill="none" stroke="#d3d3d3" d="M1443.75,-169.59C1466.47,-169.08 1492.57,-168.5 1517,-167.95"/>
<polygon fill="#303030" stroke="#d3d3d3" points="1517.03,-171.45 1526.95,-167.72 1516.87,-164.45 1517.03,-171.45"/>
</g>
<!-- edge_as_node_25&#45;&gt;Measure(sm_0_measure_0) -->
<g id="edge52" class="edge">
<title>edge_as_node_25&#45;&gt;Measure(sm_0_measure_0)</title>
<path fill="none" stroke="#d3d3d3" d="M1761.36,-174.85C1502.56,-197.97 549.64,-283.1 224.1,-312.19"/>
<polygon fill="#303030" stroke="#d3d3d3" points="223.95,-308.69 214.3,-313.06 224.57,-315.66 223.95,-308.69"/>
</g>
<!-- edge_as_node_26&#45;&gt;Metric(sm_0_measure_0_metric) -->
<g id="edge54" class="edge">
<title>edge_as_node_26&#45;&gt;Metric(sm_0_measure_0_metric)</title>
<path fill="none" stroke="#d3d3d3" d="M1447.63,-411.18C1472.81,-404.05 1501.68,-395.86 1527.66,-388.5"/>
<polygon fill="#303030" stroke="#d3d3d3" points="1528.48,-391.9 1537.15,-385.81 1526.58,-385.17 1528.48,-391.9"/>
</g>
<!-- edge_as_node_27&#45;&gt;Metric(sm_0_measure_0_metric) -->
<g id="edge56" class="edge">
<title>edge_as_node_27&#45;&gt;Metric(sm_0_measure_0_metric)</title>
<path fill="none" stroke="#d3d3d3" d="M1447.63,-367C1455.46,-367 1463.64,-367 1471.98,-367"/>
<polygon fill="#303030" stroke="#d3d3d3" points="1471.92,-370.5 1481.92,-367 1471.92,-363.5 1471.92,-370.5"/>
</g>
</g>
</svg>
