<?xml version="1.0" encoding="UTF-8" standalone="no"?>
<!DOCTYPE svg PUBLIC "-//W3C//DTD SVG 1.1//EN"
 "http://www.w3.org/Graphics/SVG/1.1/DTD/svg11.dtd">
<!-- Generated by graphviz version 12.2.1 (20241206.2353)
 -->
<!-- Pages: 1 -->
<svg width="2310pt" height="703pt"
 viewBox="0.00 0.00 2310.25 703.00" xmlns="http://www.w3.org/2000/svg" xmlns:xlink="http://www.w3.org/1999/xlink">
<g id="graph0" class="graph" transform="scale(1 1) rotate(0) translate(4 699)">
<polygon fill="#181818" stroke="none" points="-4,4 -4,-699 2306.25,-699 2306.25,4 -4,4"/>
<g id="clust1" class="cluster">
<title>cluster_sm_1</title>
<polygon fill="#181818" stroke="#000000" stroke-width="3" points="905,-73 905,-148 1446,-148 1446,-73 905,-73"/>
<text text-anchor="middle" x="1175.5" y="-134.5" font-family="Courier New" font-size="10.00" fill="#d3d3d3">sm_1</text>
</g>
<g id="clust2" class="cluster">
<title>cluster_other_attribute</title>
<polygon fill="#181818" stroke="#000000" stroke-width="3" points="1648.25,-252 1648.25,-476 1935.75,-476 1935.75,-252 1648.25,-252"/>
<text text-anchor="middle" x="1792" y="-462.5" font-family="Courier New" font-size="10.00" fill="#d3d3d3">other_attribute</text>
</g>
<g id="clust3" class="cluster">
<title>cluster_sm_0</title>
<polygon fill="#181818" stroke="#000000" stroke-width="3" points="8,-398 8,-513 1446,-513 1446,-398 8,-398"/>
<text text-anchor="middle" x="727" y="-499.5" font-family="Courier New" font-size="10.00" fill="#d3d3d3">sm_0</text>
</g>
<g id="clust4" class="cluster">
<title>cluster_dsi_entity</title>
<polygon fill="#181818" stroke="#000000" stroke-width="3" points="385.25,-150 385.25,-281 650.25,-281 650.25,-150 385.25,-150"/>
<text text-anchor="middle" x="517.75" y="-267.5" font-family="Courier New" font-size="10.00" fill="#d3d3d3">dsi_entity</text>
</g>
<g id="clust5" class="cluster">
<title>cluster_time_dimension</title>
<polygon fill="#181818" stroke="#000000" stroke-width="3" points="1678.25,-484 1678.25,-573 1905.75,-573 1905.75,-484 1678.25,-484"/>
<text text-anchor="middle" x="1792" y="-559.5" font-family="Courier New" font-size="10.00" fill="#d3d3d3">time_dimension</text>
</g>
<g id="clust6" class="cluster">
<title>cluster_time_attribute</title>
<polygon fill="#181818" stroke="#000000" stroke-width="3" points="2119.25,-466 2119.25,-653 2294.25,-653 2294.25,-466 2119.25,-466"/>
<text text-anchor="middle" x="2206.75" y="-639.5" font-family="Courier New" font-size="10.00" fill="#d3d3d3">time_attribute</text>
</g>
<g id="clust7" class="cluster">
<title>cluster_time_entity</title>
<polygon fill="#181818" stroke="#000000" stroke-width="3" points="1685.75,-581 1685.75,-663 1898.25,-663 1898.25,-581 1685.75,-581"/>
<text text-anchor="middle" x="1792" y="-649.5" font-family="Courier New" font-size="10.00" fill="#d3d3d3">time_entity</text>
</g>
<g id="clust8" class="cluster">
<title>cluster_metric_attribute</title>
<polygon fill="#181818" stroke="#000000" stroke-width="3" points="841.25,-211 841.25,-284 1098.75,-284 1098.75,-211 841.25,-211"/>
<text text-anchor="middle" x="970" y="-270.5" font-family="Courier New" font-size="10.00" fill="#d3d3d3">metric_attribute</text>
</g>
<!-- JoinTo(sm_1) -->
<g id="node1" class="node">
<title>JoinTo(sm_1)</title>
<polygon fill="#303030" stroke="#d3d3d3" points="1027,-118.88 913,-118.88 913,-81.12 1027,-81.12 1027,-118.88"/>
<text text-anchor="start" x="925" y="-99.47" font-family="Courier New" font-size="12.00" fill="#d3d3d3">JoinTo(sm_1)</text>
<text text-anchor="start" x="921" y="-86.92" font-family="Courier New" font-size="6.00" fill="#d3d3d3">add_model: sm_1</text>
</g>
<!-- edge_as_node_11 -->
<g id="node3" class="node">
<title>edge_as_node_11</title>
<polygon fill="none" stroke="none" points="1252.38,-111.25 1147.38,-111.25 1147.38,-88.75 1252.38,-88.75 1252.38,-111.25"/>
<text text-anchor="start" x="1147.38" y="-105.55" font-family="Courier New" font-size="6.00" fill="#d3d3d3">type: EntityRelationshipEdge</text>
<text text-anchor="start" x="1147.38" y="-98.05" font-family="Courier New" font-size="6.00" fill="#d3d3d3">tail: JoinTo(sm_1)</text>
<text text-anchor="start" x="1147.38" y="-90.55" font-family="Courier New" font-size="6.00" fill="#d3d3d3">head: JoinFrom(sm_1)</text>
</g>
<!-- JoinTo(sm_1)&#45;&gt;edge_as_node_11 -->
<g id="edge23" class="edge">
<title>JoinTo(sm_1)&#45;&gt;edge_as_node_11</title>
<path fill="none" stroke="#d3d3d3" d="M1027.33,-100C1064.1,-100 1111.74,-100 1147.48,-100"/>
</g>
<!-- edge_as_node_0 -->
<g id="node23" class="node">
<title>edge_as_node_0</title>
<polygon fill="none" stroke="none" points="1594,-70.25 1500.25,-70.25 1500.25,-47.75 1594,-47.75 1594,-70.25"/>
<text text-anchor="start" x="1500.25" y="-64.55" font-family="Courier New" font-size="6.00" fill="#d3d3d3">type: EntityAttributeEdge</text>
<text text-anchor="start" x="1500.25" y="-57.05" font-family="Courier New" font-size="6.00" fill="#d3d3d3">tail: JoinTo(sm_1)</text>
<text text-anchor="start" x="1500.25" y="-49.55" font-family="Courier New" font-size="6.00" fill="#d3d3d3">head: Dimension(dim_0)</text>
</g>
<!-- JoinTo(sm_1)&#45;&gt;edge_as_node_0 -->
<g id="edge1" class="edge">
<title>JoinTo(sm_1)&#45;&gt;edge_as_node_0</title>
<path fill="none" stroke="#d3d3d3" d="M1027.45,-95.92C1141.78,-87.8 1395.79,-69.75 1500.56,-62.31"/>
</g>
<!-- edge_as_node_5 -->
<g id="node28" class="node">
<title>edge_as_node_5</title>
<polygon fill="none" stroke="none" points="1273,-65.25 1126.75,-65.25 1126.75,-42.75 1273,-42.75 1273,-65.25"/>
<text text-anchor="start" x="1126.75" y="-59.55" font-family="Courier New" font-size="6.00" fill="#d3d3d3">type: EntityAttributeEdge</text>
<text text-anchor="start" x="1126.75" y="-52.05" font-family="Courier New" font-size="6.00" fill="#d3d3d3">tail: JoinTo(sm_1)</text>
<text text-anchor="start" x="1126.75" y="-44.55" font-family="Courier New" font-size="6.00" fill="#d3d3d3">head: DsiEntityKey(sm_1_primary_entity)</text>
</g>
<!-- JoinTo(sm_1)&#45;&gt;edge_as_node_5 -->
<g id="edge11" class="edge">
<title>JoinTo(sm_1)&#45;&gt;edge_as_node_5</title>
<path fill="none" stroke="#d3d3d3" d="M1027.33,-88.63C1062.65,-81.5 1108,-72.35 1143.19,-65.24"/>
</g>
<!-- JoinFrom(sm_1) -->
<g id="node2" class="node">
<title>JoinFrom(sm_1)</title>
<polygon fill="#303030" stroke="#d3d3d3" points="1438,-118.88 1309,-118.88 1309,-81.12 1438,-81.12 1438,-118.88"/>
<text text-anchor="start" x="1321" y="-99.47" font-family="Courier New" font-size="12.00" fill="#d3d3d3">JoinFrom(sm_1)</text>
<text text-anchor="start" x="1317" y="-86.92" font-family="Courier New" font-size="6.00" fill="#d3d3d3">add_model: sm_1</text>
</g>
<!-- edge_as_node_6 -->
<g id="node29" class="node">
<title>edge_as_node_6</title>
<polygon fill="none" stroke="none" points="1620.25,-194.25 1474,-194.25 1474,-171.75 1620.25,-171.75 1620.25,-194.25"/>
<text text-anchor="start" x="1474" y="-188.55" font-family="Courier New" font-size="6.00" fill="#d3d3d3">type: EntityAttributeEdge</text>
<text text-anchor="start" x="1474" y="-181.05" font-family="Courier New" font-size="6.00" fill="#d3d3d3">tail: JoinFrom(sm_1)</text>
<text text-anchor="start" x="1474" y="-173.55" font-family="Courier New" font-size="6.00" fill="#d3d3d3">head: DsiEntityKey(sm_1_primary_entity)</text>
</g>
<!-- JoinFrom(sm_1)&#45;&gt;edge_as_node_6 -->
<g id="edge13" class="edge">
<title>JoinFrom(sm_1)&#45;&gt;edge_as_node_6</title>
<path fill="none" stroke="#d3d3d3" d="M1414.31,-119.25C1447.97,-135.53 1495.06,-158.3 1522.89,-171.76"/>
</g>
<!-- edge_as_node_13 -->
<g id="node34" class="node">
<title>edge_as_node_13</title>
<polygon fill="none" stroke="none" points="1614.62,-30 1479.62,-30 1479.62,0 1614.62,0 1614.62,-30"/>
<text text-anchor="start" x="1479.62" y="-24.3" font-family="Courier New" font-size="6.00" fill="#d3d3d3">add_prop: LOCAL_LINKED</text>
<text text-anchor="start" x="1479.62" y="-16.8" font-family="Courier New" font-size="6.00" fill="#d3d3d3">type: JoinFromModelEdge</text>
<text text-anchor="start" x="1479.62" y="-9.3" font-family="Courier New" font-size="6.00" fill="#d3d3d3">tail: JoinFrom(sm_1)</text>
<text text-anchor="start" x="1479.62" y="-1.8" font-family="Courier New" font-size="6.00" fill="#d3d3d3">head: DsiEntity(sm_1_primary_entity)</text>
</g>
<!-- JoinFrom(sm_1)&#45;&gt;edge_as_node_13 -->
<g id="edge27" class="edge">
<title>JoinFrom(sm_1)&#45;&gt;edge_as_node_13</title>
<path fill="none" stroke="#d3d3d3" d="M1413.44,-80.71C1444.5,-65.33 1487.37,-44.1 1515.88,-29.98"/>
</g>
<!-- edge_as_node_11&#45;&gt;JoinFrom(sm_1) -->
<g id="edge24" class="edge">
<title>edge_as_node_11&#45;&gt;JoinFrom(sm_1)</title>
<path fill="none" stroke="#d3d3d3" d="M1252.37,-100C1266.45,-100 1282.01,-100 1297.13,-100"/>
<polygon fill="#303030" stroke="#d3d3d3" points="1297.07,-103.5 1307.07,-100 1297.07,-96.5 1297.07,-103.5"/>
</g>
<!-- Dimension(dim_0) -->
<g id="node4" class="node">
<title>Dimension(dim_0)</title>
<polygon fill="#303030" stroke="#ffa07a" points="1864,-305.62 1720,-305.62 1720,-260.38 1864,-260.38 1864,-305.62"/>
<text text-anchor="start" x="1732" y="-286.23" font-family="Courier New" font-size="12.00" fill="#d3d3d3">Dimension(dim_0)</text>
<text text-anchor="start" x="1728" y="-273.68" font-family="Courier New" font-size="6.00" fill="#d3d3d3">add_name: dim_0</text>
<text text-anchor="start" x="1728" y="-266.18" font-family="Courier New" font-size="6.00" fill="#d3d3d3">add_type: DIMENSION</text>
</g>
<!-- DsiEntityKey(sm_0_primary_entity) -->
<g id="node5" class="node">
<title>DsiEntityKey(sm_0_primary_entity)</title>
<polygon fill="#303030" stroke="#ffa07a" points="1927.75,-447.38 1656.25,-447.38 1656.25,-394.62 1927.75,-394.62 1927.75,-447.38"/>
<text text-anchor="start" x="1668.25" y="-427.98" font-family="Courier New" font-size="12.00" fill="#d3d3d3">DsiEntityKey(sm_0_primary_entity)</text>
<text text-anchor="start" x="1664.25" y="-415.43" font-family="Courier New" font-size="6.00" fill="#d3d3d3">add_name: sm_0_primary_entity</text>
<text text-anchor="start" x="1664.25" y="-407.93" font-family="Courier New" font-size="6.00" fill="#d3d3d3">add_prop: ENTITY</text>
<text text-anchor="start" x="1664.25" y="-400.43" font-family="Courier New" font-size="6.00" fill="#d3d3d3">add_type: ENTITY</text>
</g>
<!-- DsiEntityKey(sm_1_primary_entity) -->
<g id="node6" class="node">
<title>DsiEntityKey(sm_1_primary_entity)</title>
<polygon fill="#303030" stroke="#ffa07a" points="1927.75,-376.38 1656.25,-376.38 1656.25,-323.62 1927.75,-323.62 1927.75,-376.38"/>
<text text-anchor="start" x="1668.25" y="-356.98" font-family="Courier New" font-size="12.00" fill="#d3d3d3">DsiEntityKey(sm_1_primary_entity)</text>
<text text-anchor="start" x="1664.25" y="-344.43" font-family="Courier New" font-size="6.00" fill="#d3d3d3">add_name: sm_1_primary_entity</text>
<text text-anchor="start" x="1664.25" y="-336.93" font-family="Courier New" font-size="6.00" fill="#d3d3d3">add_prop: ENTITY</text>
<text text-anchor="start" x="1664.25" y="-329.43" font-family="Courier New" font-size="6.00" fill="#d3d3d3">add_type: ENTITY</text>
</g>
<!-- JoinTo(sm_0) -->
<g id="node7" class="node">
<title>JoinTo(sm_0)</title>
<polygon fill="#303030" stroke="#d3d3d3" points="1027,-483.88 913,-483.88 913,-446.12 1027,-446.12 1027,-483.88"/>
<text text-anchor="start" x="925" y="-464.48" font-family="Courier New" font-size="12.00" fill="#d3d3d3">JoinTo(sm_0)</text>
<text text-anchor="start" x="921" y="-451.93" font-family="Courier New" font-size="6.00" fill="#d3d3d3">add_model: sm_0</text>
</g>
<!-- edge_as_node_7 -->
<g id="node11" class="node">
<title>edge_as_node_7</title>
<polygon fill="none" stroke="none" points="1252.38,-471.25 1147.38,-471.25 1147.38,-448.75 1252.38,-448.75 1252.38,-471.25"/>
<text text-anchor="start" x="1147.38" y="-465.55" font-family="Courier New" font-size="6.00" fill="#d3d3d3">type: EntityRelationshipEdge</text>
<text text-anchor="start" x="1147.38" y="-458.05" font-family="Courier New" font-size="6.00" fill="#d3d3d3">tail: JoinTo(sm_0)</text>
<text text-anchor="start" x="1147.38" y="-450.55" font-family="Courier New" font-size="6.00" fill="#d3d3d3">head: JoinFrom(sm_0)</text>
</g>
<!-- JoinTo(sm_0)&#45;&gt;edge_as_node_7 -->
<g id="edge15" class="edge">
<title>JoinTo(sm_0)&#45;&gt;edge_as_node_7</title>
<path fill="none" stroke="#d3d3d3" d="M1027.33,-463.76C1064.1,-462.96 1111.74,-461.91 1147.48,-461.13"/>
</g>
<!-- edge_as_node_1 -->
<g id="node24" class="node">
<title>edge_as_node_1</title>
<polygon fill="none" stroke="none" points="1273,-584.25 1126.75,-584.25 1126.75,-561.75 1273,-561.75 1273,-584.25"/>
<text text-anchor="start" x="1126.75" y="-578.55" font-family="Courier New" font-size="6.00" fill="#d3d3d3">type: EntityAttributeEdge</text>
<text text-anchor="start" x="1126.75" y="-571.05" font-family="Courier New" font-size="6.00" fill="#d3d3d3">tail: JoinTo(sm_0)</text>
<text text-anchor="start" x="1126.75" y="-563.55" font-family="Courier New" font-size="6.00" fill="#d3d3d3">head: DsiEntityKey(sm_0_primary_entity)</text>
</g>
<!-- JoinTo(sm_0)&#45;&gt;edge_as_node_1 -->
<g id="edge3" class="edge">
<title>JoinTo(sm_0)&#45;&gt;edge_as_node_1</title>
<path fill="none" stroke="#d3d3d3" d="M1011.74,-484.31C1059.36,-506.88 1136.57,-543.47 1175.23,-561.8"/>
</g>
<!-- edge_as_node_3 -->
<g id="node26" class="node">
<title>edge_as_node_3</title>
<polygon fill="none" stroke="none" points="1273,-543.25 1126.75,-543.25 1126.75,-520.75 1273,-520.75 1273,-543.25"/>
<text text-anchor="start" x="1126.75" y="-537.55" font-family="Courier New" font-size="6.00" fill="#d3d3d3">type: EntityAttributeEdge</text>
<text text-anchor="start" x="1126.75" y="-530.05" font-family="Courier New" font-size="6.00" fill="#d3d3d3">tail: JoinTo(sm_0)</text>
<text text-anchor="start" x="1126.75" y="-522.55" font-family="Courier New" font-size="6.00" fill="#d3d3d3">head: DsiEntityKey(sm_1_primary_entity)</text>
</g>
<!-- JoinTo(sm_0)&#45;&gt;edge_as_node_3 -->
<g id="edge7" class="edge">
<title>JoinTo(sm_0)&#45;&gt;edge_as_node_3</title>
<path fill="none" stroke="#d3d3d3" d="M1027.33,-481.56C1068.84,-493.77 1124.21,-510.05 1160.67,-520.77"/>
</g>
<!-- edge_as_node_21 -->
<g id="node39" class="node">
<title>edge_as_node_21</title>
<polygon fill="none" stroke="none" points="1601.5,-623.25 1492.75,-623.25 1492.75,-600.75 1601.5,-600.75 1601.5,-623.25"/>
<text text-anchor="start" x="1492.75" y="-617.55" font-family="Courier New" font-size="6.00" fill="#d3d3d3">type: EntityRelationshipEdge</text>
<text text-anchor="start" x="1492.75" y="-610.05" font-family="Courier New" font-size="6.00" fill="#d3d3d3">tail: JoinTo(sm_0)</text>
<text text-anchor="start" x="1492.75" y="-602.55" font-family="Courier New" font-size="6.00" fill="#d3d3d3">head: TimeDimension(ds, year)</text>
</g>
<!-- JoinTo(sm_0)&#45;&gt;edge_as_node_21 -->
<g id="edge43" class="edge">
<title>JoinTo(sm_0)&#45;&gt;edge_as_node_21</title>
<path fill="none" stroke="#d3d3d3" d="M1027.45,-479.63C1142.77,-509.01 1400.24,-574.59 1503.27,-600.83"/>
</g>
<!-- JoinFrom(sm_0) -->
<g id="node8" class="node">
<title>JoinFrom(sm_0)</title>
<polygon fill="#303030" stroke="#d3d3d3" points="1438,-443.88 1309,-443.88 1309,-406.12 1438,-406.12 1438,-443.88"/>
<text text-anchor="start" x="1321" y="-424.48" font-family="Courier New" font-size="12.00" fill="#d3d3d3">JoinFrom(sm_0)</text>
<text text-anchor="start" x="1317" y="-411.93" font-family="Courier New" font-size="6.00" fill="#d3d3d3">add_model: sm_0</text>
</g>
<!-- edge_as_node_2 -->
<g id="node25" class="node">
<title>edge_as_node_2</title>
<polygon fill="none" stroke="none" points="1620.25,-436.25 1474,-436.25 1474,-413.75 1620.25,-413.75 1620.25,-436.25"/>
<text text-anchor="start" x="1474" y="-430.55" font-family="Courier New" font-size="6.00" fill="#d3d3d3">type: EntityAttributeEdge</text>
<text text-anchor="start" x="1474" y="-423.05" font-family="Courier New" font-size="6.00" fill="#d3d3d3">tail: JoinFrom(sm_0)</text>
<text text-anchor="start" x="1474" y="-415.55" font-family="Courier New" font-size="6.00" fill="#d3d3d3">head: DsiEntityKey(sm_0_primary_entity)</text>
</g>
<!-- JoinFrom(sm_0)&#45;&gt;edge_as_node_2 -->
<g id="edge5" class="edge">
<title>JoinFrom(sm_0)&#45;&gt;edge_as_node_2</title>
<path fill="none" stroke="#d3d3d3" d="M1438.41,-425C1450.03,-425 1462.24,-425 1474.08,-425"/>
</g>
<!-- edge_as_node_4 -->
<g id="node27" class="node">
<title>edge_as_node_4</title>
<polygon fill="none" stroke="none" points="1620.25,-394.25 1474,-394.25 1474,-371.75 1620.25,-371.75 1620.25,-394.25"/>
<text text-anchor="start" x="1474" y="-388.55" font-family="Courier New" font-size="6.00" fill="#d3d3d3">type: EntityAttributeEdge</text>
<text text-anchor="start" x="1474" y="-381.05" font-family="Courier New" font-size="6.00" fill="#d3d3d3">tail: JoinFrom(sm_0)</text>
<text text-anchor="start" x="1474" y="-373.55" font-family="Courier New" font-size="6.00" fill="#d3d3d3">head: DsiEntityKey(sm_1_primary_entity)</text>
</g>
<!-- JoinFrom(sm_0)&#45;&gt;edge_as_node_4 -->
<g id="edge9" class="edge">
<title>JoinFrom(sm_0)&#45;&gt;edge_as_node_4</title>
<path fill="none" stroke="#d3d3d3" d="M1438.41,-409.36C1458.99,-404.32 1481.38,-398.84 1500.39,-394.19"/>
</g>
<!-- edge_as_node_9 -->
<g id="node31" class="node">
<title>edge_as_node_9</title>
<polygon fill="none" stroke="none" points="1614.62,-289 1479.62,-289 1479.62,-259 1614.62,-259 1614.62,-289"/>
<text text-anchor="start" x="1479.62" y="-283.3" font-family="Courier New" font-size="6.00" fill="#d3d3d3">add_prop: LOCAL_LINKED</text>
<text text-anchor="start" x="1479.62" y="-275.8" font-family="Courier New" font-size="6.00" fill="#d3d3d3">type: JoinFromModelEdge</text>
<text text-anchor="start" x="1479.62" y="-268.3" font-family="Courier New" font-size="6.00" fill="#d3d3d3">tail: JoinFrom(sm_0)</text>
<text text-anchor="start" x="1479.62" y="-260.8" font-family="Courier New" font-size="6.00" fill="#d3d3d3">head: DsiEntity(sm_0_primary_entity)</text>
</g>
<!-- JoinFrom(sm_0)&#45;&gt;edge_as_node_9 -->
<g id="edge19" class="edge">
<title>JoinFrom(sm_0)&#45;&gt;edge_as_node_9</title>
<path fill="none" stroke="#d3d3d3" d="M1396.24,-405.88C1430.87,-375.4 1497.87,-316.46 1529.2,-288.89"/>
</g>
<!-- edge_as_node_10 -->
<g id="node32" class="node">
<title>edge_as_node_10</title>
<polygon fill="none" stroke="none" points="1614.62,-352.25 1479.62,-352.25 1479.62,-329.75 1614.62,-329.75 1614.62,-352.25"/>
<text text-anchor="start" x="1479.62" y="-346.55" font-family="Courier New" font-size="6.00" fill="#d3d3d3">type: JoinFromModelEdge</text>
<text text-anchor="start" x="1479.62" y="-339.05" font-family="Courier New" font-size="6.00" fill="#d3d3d3">tail: JoinFrom(sm_0)</text>
<text text-anchor="start" x="1479.62" y="-331.55" font-family="Courier New" font-size="6.00" fill="#d3d3d3">head: DsiEntity(sm_1_primary_entity)</text>
</g>
<!-- JoinFrom(sm_0)&#45;&gt;edge_as_node_10 -->
<g id="edge21" class="edge">
<title>JoinFrom(sm_0)&#45;&gt;edge_as_node_10</title>
<path fill="none" stroke="#d3d3d3" d="M1413.87,-405.73C1447.72,-389.16 1495.36,-365.85 1523.26,-352.19"/>
</g>
<!-- edge_as_node_14 -->
<g id="node35" class="node">
<title>edge_as_node_14</title>
<polygon fill="none" stroke="none" points="1605.25,-490.25 1489,-490.25 1489,-467.75 1605.25,-467.75 1605.25,-490.25"/>
<text text-anchor="start" x="1489" y="-484.55" font-family="Courier New" font-size="6.00" fill="#d3d3d3">type: EntityRelationshipEdge</text>
<text text-anchor="start" x="1489" y="-477.05" font-family="Courier New" font-size="6.00" fill="#d3d3d3">tail: JoinFrom(sm_0)</text>
<text text-anchor="start" x="1489" y="-469.55" font-family="Courier New" font-size="6.00" fill="#d3d3d3">head: MetricTimeDimension(YEAR)</text>
</g>
<!-- JoinFrom(sm_0)&#45;&gt;edge_as_node_14 -->
<g id="edge29" class="edge">
<title>JoinFrom(sm_0)&#45;&gt;edge_as_node_14</title>
<path fill="none" stroke="#d3d3d3" d="M1435.98,-444.34C1460.98,-452.21 1489,-461.03 1510.52,-467.8"/>
</g>
<!-- Agg(sm_0, ds) -->
<g id="node9" class="node">
<title>Agg(sm_0, ds)</title>
<polygon fill="#303030" stroke="#d3d3d3" points="578.5,-443 457,-443 457,-407 578.5,-407 578.5,-443"/>
<text text-anchor="start" x="469" y="-420.73" font-family="Courier New" font-size="12.00" fill="#d3d3d3">Agg(sm_0, ds)</text>
</g>
<!-- edge_as_node_18 -->
<g id="node12" class="node">
<title>edge_as_node_18</title>
<polygon fill="none" stroke="none" points="1022.5,-428.25 917.5,-428.25 917.5,-405.75 1022.5,-405.75 1022.5,-428.25"/>
<text text-anchor="start" x="917.5" y="-422.55" font-family="Courier New" font-size="6.00" fill="#d3d3d3">type: EntityRelationshipEdge</text>
<text text-anchor="start" x="917.5" y="-415.05" font-family="Courier New" font-size="6.00" fill="#d3d3d3">tail: Agg(sm_0, ds)</text>
<text text-anchor="start" x="917.5" y="-407.55" font-family="Courier New" font-size="6.00" fill="#d3d3d3">head: JoinFrom(sm_0)</text>
</g>
<!-- Agg(sm_0, ds)&#45;&gt;edge_as_node_18 -->
<g id="edge37" class="edge">
<title>Agg(sm_0, ds)&#45;&gt;edge_as_node_18</title>
<path fill="none" stroke="#d3d3d3" d="M578.74,-423.92C668.19,-422.34 833.44,-419.42 917.68,-417.93"/>
</g>
<!-- edge_as_node_19 -->
<g id="node13" class="node">
<title>edge_as_node_19</title>
<polygon fill="none" stroke="none" points="798.25,-471.25 693.25,-471.25 693.25,-448.75 798.25,-448.75 798.25,-471.25"/>
<text text-anchor="start" x="693.25" y="-465.55" font-family="Courier New" font-size="6.00" fill="#d3d3d3">type: EntityRelationshipEdge</text>
<text text-anchor="start" x="693.25" y="-458.05" font-family="Courier New" font-size="6.00" fill="#d3d3d3">tail: Agg(sm_0, ds)</text>
<text text-anchor="start" x="693.25" y="-450.55" font-family="Courier New" font-size="6.00" fill="#d3d3d3">head: JoinTo(sm_0)</text>
</g>
<!-- Agg(sm_0, ds)&#45;&gt;edge_as_node_19 -->
<g id="edge39" class="edge">
<title>Agg(sm_0, ds)&#45;&gt;edge_as_node_19</title>
<path fill="none" stroke="#d3d3d3" d="M578.72,-434.29C614.42,-439.82 659.25,-446.76 693.33,-452.04"/>
</g>
<!-- Measure(sm_0_measure_0) -->
<g id="node10" class="node">
<title>Measure(sm_0_measure_0)</title>
<polygon fill="#303030" stroke="#006400" points="212.5,-443.88 16,-443.88 16,-406.12 212.5,-406.12 212.5,-443.88"/>
<text text-anchor="start" x="28" y="-424.48" font-family="Courier New" font-size="12.00" fill="#d3d3d3">Measure(sm_0_measure_0)</text>
<text text-anchor="start" x="24" y="-411.93" font-family="Courier New" font-size="6.00" fill="#d3d3d3">add_model: sm_0</text>
</g>
<!-- edge_as_node_20 -->
<g id="node14" class="node">
<title>edge_as_node_20</title>
<polygon fill="none" stroke="none" points="357.25,-436.25 248.5,-436.25 248.5,-413.75 357.25,-413.75 357.25,-436.25"/>
<text text-anchor="start" x="248.5" y="-430.55" font-family="Courier New" font-size="6.00" fill="#d3d3d3">type: EntityAttributeEdge</text>
<text text-anchor="start" x="248.5" y="-423.05" font-family="Courier New" font-size="6.00" fill="#d3d3d3">tail: Measure(sm_0_measure_0)</text>
<text text-anchor="start" x="248.5" y="-415.55" font-family="Courier New" font-size="6.00" fill="#d3d3d3">head: Agg(sm_0, ds)</text>
</g>
<!-- Measure(sm_0_measure_0)&#45;&gt;edge_as_node_20 -->
<g id="edge41" class="edge">
<title>Measure(sm_0_measure_0)&#45;&gt;edge_as_node_20</title>
<path fill="none" stroke="#d3d3d3" d="M212.94,-425C225.28,-425 237.53,-425 248.8,-425"/>
</g>
<!-- edge_as_node_7&#45;&gt;JoinFrom(sm_0) -->
<g id="edge16" class="edge">
<title>edge_as_node_7&#45;&gt;JoinFrom(sm_0)</title>
<path fill="none" stroke="#d3d3d3" d="M1252.37,-449.5C1266.59,-446.6 1282.32,-443.39 1297.58,-440.28"/>
<polygon fill="#303030" stroke="#d3d3d3" points="1298,-443.77 1307.1,-438.34 1296.6,-436.91 1298,-443.77"/>
</g>
<!-- edge_as_node_18&#45;&gt;JoinFrom(sm_0) -->
<g id="edge38" class="edge">
<title>edge_as_node_18&#45;&gt;JoinFrom(sm_0)</title>
<path fill="none" stroke="#d3d3d3" d="M1022.34,-418.04C1092.4,-419.43 1217.14,-421.9 1297.54,-423.49"/>
<polygon fill="#303030" stroke="#d3d3d3" points="1297,-426.98 1307.07,-423.68 1297.14,-419.99 1297,-426.98"/>
</g>
<!-- edge_as_node_19&#45;&gt;JoinTo(sm_0) -->
<g id="edge40" class="edge">
<title>edge_as_node_19&#45;&gt;JoinTo(sm_0)</title>
<path fill="none" stroke="#d3d3d3" d="M798.02,-461.15C828.64,-461.84 867.9,-462.73 901.07,-463.47"/>
<polygon fill="#303030" stroke="#d3d3d3" points="900.94,-466.97 911.01,-463.7 901.1,-459.97 900.94,-466.97"/>
</g>
<!-- edge_as_node_20&#45;&gt;Agg(sm_0, ds) -->
<g id="edge42" class="edge">
<title>edge_as_node_20&#45;&gt;Agg(sm_0, ds)</title>
<path fill="none" stroke="#d3d3d3" d="M357.04,-425C383.79,-425 416.58,-425 445.47,-425"/>
<polygon fill="#303030" stroke="#d3d3d3" points="445.24,-428.5 455.24,-425 445.24,-421.5 445.24,-428.5"/>
</g>
<!-- DsiEntity(sm_0_primary_entity) -->
<g id="node15" class="node">
<title>DsiEntity(sm_0_primary_entity)</title>
<polygon fill="#303030" stroke="#87cefa" points="642.25,-251.88 393.25,-251.88 393.25,-214.12 642.25,-214.12 642.25,-251.88"/>
<text text-anchor="start" x="405.25" y="-232.47" font-family="Courier New" font-size="12.00" fill="#d3d3d3">DsiEntity(sm_0_primary_entity)</text>
<text text-anchor="start" x="401.25" y="-219.93" font-family="Courier New" font-size="6.00" fill="#d3d3d3">add_name: sm_0_primary_entity</text>
</g>
<!-- edge_as_node_8 -->
<g id="node30" class="node">
<title>edge_as_node_8</title>
<polygon fill="none" stroke="none" points="813.25,-390.25 678.25,-390.25 678.25,-367.75 813.25,-367.75 813.25,-390.25"/>
<text text-anchor="start" x="678.25" y="-384.55" font-family="Courier New" font-size="6.00" fill="#d3d3d3">type: JoinToModelEdge</text>
<text text-anchor="start" x="678.25" y="-377.05" font-family="Courier New" font-size="6.00" fill="#d3d3d3">tail: DsiEntity(sm_0_primary_entity)</text>
<text text-anchor="start" x="678.25" y="-369.55" font-family="Courier New" font-size="6.00" fill="#d3d3d3">head: JoinTo(sm_0)</text>
</g>
<!-- DsiEntity(sm_0_primary_entity)&#45;&gt;edge_as_node_8 -->
<g id="edge17" class="edge">
<title>DsiEntity(sm_0_primary_entity)&#45;&gt;edge_as_node_8</title>
<path fill="none" stroke="#d3d3d3" d="M548.3,-252.09C596.15,-283 689.14,-343.08 727.53,-367.88"/>
</g>
<!-- edge_as_node_27 -->
<g id="node45" class="node">
<title>edge_as_node_27</title>
<polygon fill="none" stroke="none" points="813.25,-274.25 678.25,-274.25 678.25,-221.75 813.25,-221.75 813.25,-274.25"/>
<text text-anchor="start" x="678.25" y="-268.55" font-family="Courier New" font-size="6.00" fill="#d3d3d3">add_name: sm_0_measure_0_metric</text>
<text text-anchor="start" x="678.25" y="-261.05" font-family="Courier New" font-size="6.00" fill="#d3d3d3">add_prop: METRIC</text>
<text text-anchor="start" x="678.25" y="-253.55" font-family="Courier New" font-size="6.00" fill="#d3d3d3">add_model: sm_0</text>
<text text-anchor="start" x="678.25" y="-246.05" font-family="Courier New" font-size="6.00" fill="#d3d3d3">add_type: METRIC</text>
<text text-anchor="start" x="678.25" y="-238.55" font-family="Courier New" font-size="6.00" fill="#d3d3d3">type: EntityAttributeEdge</text>
<text text-anchor="start" x="678.25" y="-231.05" font-family="Courier New" font-size="6.00" fill="#d3d3d3">tail: DsiEntity(sm_0_primary_entity)</text>
<text text-anchor="start" x="678.25" y="-223.55" font-family="Courier New" font-size="6.00" fill="#d3d3d3">head: Metric(sm_0_measure_0_metric)</text>
</g>
<!-- DsiEntity(sm_0_primary_entity)&#45;&gt;edge_as_node_27 -->
<g id="edge55" class="edge">
<title>DsiEntity(sm_0_primary_entity)&#45;&gt;edge_as_node_27</title>
<path fill="none" stroke="#d3d3d3" d="M642.66,-241.22C654.89,-242.04 666.96,-242.84 678.27,-243.59"/>
</g>
<!-- DsiEntity(sm_1_primary_entity) -->
<g id="node16" class="node">
<title>DsiEntity(sm_1_primary_entity)</title>
<polygon fill="#303030" stroke="#87cefa" points="642.25,-195.88 393.25,-195.88 393.25,-158.12 642.25,-158.12 642.25,-195.88"/>
<text text-anchor="start" x="405.25" y="-176.47" font-family="Courier New" font-size="12.00" fill="#d3d3d3">DsiEntity(sm_1_primary_entity)</text>
<text text-anchor="start" x="401.25" y="-163.93" font-family="Courier New" font-size="6.00" fill="#d3d3d3">add_name: sm_1_primary_entity</text>
</g>
<!-- edge_as_node_12 -->
<g id="node33" class="node">
<title>edge_as_node_12</title>
<polygon fill="none" stroke="none" points="813.25,-95.25 678.25,-95.25 678.25,-72.75 813.25,-72.75 813.25,-95.25"/>
<text text-anchor="start" x="678.25" y="-89.55" font-family="Courier New" font-size="6.00" fill="#d3d3d3">type: JoinToModelEdge</text>
<text text-anchor="start" x="678.25" y="-82.05" font-family="Courier New" font-size="6.00" fill="#d3d3d3">tail: DsiEntity(sm_1_primary_entity)</text>
<text text-anchor="start" x="678.25" y="-74.55" font-family="Courier New" font-size="6.00" fill="#d3d3d3">head: JoinTo(sm_1)</text>
</g>
<!-- DsiEntity(sm_1_primary_entity)&#45;&gt;edge_as_node_12 -->
<g id="edge25" class="edge">
<title>DsiEntity(sm_1_primary_entity)&#45;&gt;edge_as_node_12</title>
<path fill="none" stroke="#d3d3d3" d="M565.58,-157.73C611.48,-138.84 679.86,-110.7 717.49,-95.22"/>
</g>
<!-- edge_as_node_26 -->
<g id="node44" class="node">
<title>edge_as_node_26</title>
<polygon fill="none" stroke="none" points="813.25,-203.25 678.25,-203.25 678.25,-150.75 813.25,-150.75 813.25,-203.25"/>
<text text-anchor="start" x="678.25" y="-197.55" font-family="Courier New" font-size="6.00" fill="#d3d3d3">add_name: sm_0_measure_0_metric</text>
<text text-anchor="start" x="678.25" y="-190.05" font-family="Courier New" font-size="6.00" fill="#d3d3d3">add_prop: METRIC</text>
<text text-anchor="start" x="678.25" y="-182.55" font-family="Courier New" font-size="6.00" fill="#d3d3d3">add_model: sm_0</text>
<text text-anchor="start" x="678.25" y="-175.05" font-family="Courier New" font-size="6.00" fill="#d3d3d3">add_type: METRIC</text>
<text text-anchor="start" x="678.25" y="-167.55" font-family="Courier New" font-size="6.00" fill="#d3d3d3">type: EntityAttributeEdge</text>
<text text-anchor="start" x="678.25" y="-160.05" font-family="Courier New" font-size="6.00" fill="#d3d3d3">tail: DsiEntity(sm_1_primary_entity)</text>
<text text-anchor="start" x="678.25" y="-152.55" font-family="Courier New" font-size="6.00" fill="#d3d3d3">head: Metric(sm_0_measure_0_metric)</text>
</g>
<!-- DsiEntity(sm_1_primary_entity)&#45;&gt;edge_as_node_26 -->
<g id="edge53" class="edge">
<title>DsiEntity(sm_1_primary_entity)&#45;&gt;edge_as_node_26</title>
<path fill="none" stroke="#d3d3d3" d="M642.66,-177C654.89,-177 666.96,-177 678.27,-177"/>
</g>
<!-- MetricTimeDimension(YEAR) -->
<g id="node17" class="node">
<title>MetricTimeDimension(YEAR)</title>
<polygon fill="#303030" stroke="#d3d3d3" points="1897.75,-544.38 1686.25,-544.38 1686.25,-491.62 1897.75,-491.62 1897.75,-544.38"/>
<text text-anchor="start" x="1698.25" y="-524.98" font-family="Courier New" font-size="12.00" fill="#d3d3d3">MetricTimeDimension(YEAR)</text>
<text text-anchor="start" x="1694.25" y="-512.42" font-family="Courier New" font-size="6.00" fill="#d3d3d3">add_name: metric_time</text>
<text text-anchor="start" x="1694.25" y="-504.93" font-family="Courier New" font-size="6.00" fill="#d3d3d3">add_prop: METRIC_TIME</text>
<text text-anchor="start" x="1694.25" y="-497.43" font-family="Courier New" font-size="6.00" fill="#d3d3d3">add_type: TIME_DIMENSION</text>
</g>
<!-- edge_as_node_15 -->
<g id="node36" class="node">
<title>edge_as_node_15</title>
<polygon fill="none" stroke="none" points="2085.62,-647 1969.38,-647 1969.38,-617 2085.62,-617 2085.62,-647"/>
<text text-anchor="start" x="1969.38" y="-641.3" font-family="Courier New" font-size="6.00" fill="#d3d3d3">add_time_grain: year</text>
<text text-anchor="start" x="1969.38" y="-633.8" font-family="Courier New" font-size="6.00" fill="#d3d3d3">type: EntityAttributeEdge</text>
<text text-anchor="start" x="1969.38" y="-626.3" font-family="Courier New" font-size="6.00" fill="#d3d3d3">tail: MetricTimeDimension(YEAR)</text>
<text text-anchor="start" x="1969.38" y="-618.8" font-family="Courier New" font-size="6.00" fill="#d3d3d3">head: Time(year)</text>
</g>
<!-- MetricTimeDimension(YEAR)&#45;&gt;edge_as_node_15 -->
<g id="edge31" class="edge">
<title>MetricTimeDimension(YEAR)&#45;&gt;edge_as_node_15</title>
<path fill="none" stroke="#d3d3d3" d="M1848.04,-544.87C1894.15,-567.38 1958.29,-598.7 1995.79,-617.01"/>
</g>
<!-- edge_as_node_16 -->
<g id="node37" class="node">
<title>edge_as_node_16</title>
<polygon fill="none" stroke="none" points="2085.62,-551 1969.38,-551 1969.38,-521 2085.62,-521 2085.62,-551"/>
<text text-anchor="start" x="1969.38" y="-545.3" font-family="Courier New" font-size="6.00" fill="#d3d3d3">add_prop: DATE_PART</text>
<text text-anchor="start" x="1969.38" y="-537.8" font-family="Courier New" font-size="6.00" fill="#d3d3d3">type: EntityAttributeEdge</text>
<text text-anchor="start" x="1969.38" y="-530.3" font-family="Courier New" font-size="6.00" fill="#d3d3d3">tail: MetricTimeDimension(YEAR)</text>
<text text-anchor="start" x="1969.38" y="-522.8" font-family="Courier New" font-size="6.00" fill="#d3d3d3">head: Time(extract_year)</text>
</g>
<!-- MetricTimeDimension(YEAR)&#45;&gt;edge_as_node_16 -->
<g id="edge33" class="edge">
<title>MetricTimeDimension(YEAR)&#45;&gt;edge_as_node_16</title>
<path fill="none" stroke="#d3d3d3" d="M1898.14,-526.1C1922.71,-528 1947.98,-529.95 1969.52,-531.61"/>
</g>
<!-- edge_as_node_17 -->
<g id="node38" class="node">
<title>edge_as_node_17</title>
<polygon fill="none" stroke="none" points="2091.25,-446.75 1963.75,-446.75 1963.75,-409.25 2091.25,-409.25 2091.25,-446.75"/>
<text text-anchor="start" x="1963.75" y="-441.05" font-family="Courier New" font-size="6.00" fill="#d3d3d3">add_prop: DERIVED_TIME_GRANULARITY</text>
<text text-anchor="start" x="1963.75" y="-433.55" font-family="Courier New" font-size="6.00" fill="#d3d3d3">add_time_grain: custom_year</text>
<text text-anchor="start" x="1963.75" y="-426.05" font-family="Courier New" font-size="6.00" fill="#d3d3d3">type: EntityAttributeEdge</text>
<text text-anchor="start" x="1963.75" y="-418.55" font-family="Courier New" font-size="6.00" fill="#d3d3d3">tail: MetricTimeDimension(YEAR)</text>
<text text-anchor="start" x="1963.75" y="-411.05" font-family="Courier New" font-size="6.00" fill="#d3d3d3">head: Time(custom_year)</text>
</g>
<!-- MetricTimeDimension(YEAR)&#45;&gt;edge_as_node_17 -->
<g id="edge35" class="edge">
<title>MetricTimeDimension(YEAR)&#45;&gt;edge_as_node_17</title>
<path fill="none" stroke="#d3d3d3" d="M1862.43,-491.24C1899.66,-476.89 1944.63,-459.55 1978.07,-446.67"/>
</g>
<!-- Time(custom_year) -->
<g id="node18" class="node">
<title>Time(custom_year)</title>
<polygon fill="#303030" stroke="#ffa07a" points="2282.5,-511.88 2131,-511.88 2131,-474.12 2282.5,-474.12 2282.5,-511.88"/>
<text text-anchor="start" x="2143" y="-492.48" font-family="Courier New" font-size="12.00" fill="#d3d3d3">Time(custom_year)</text>
<text text-anchor="start" x="2139" y="-479.93" font-family="Courier New" font-size="6.00" fill="#d3d3d3">add_name: custom_year</text>
</g>
<!-- Time(extract_year) -->
<g id="node19" class="node">
<title>Time(extract_year)</title>
<polygon fill="#303030" stroke="#ffa07a" points="2286.25,-567.88 2127.25,-567.88 2127.25,-530.12 2286.25,-530.12 2286.25,-567.88"/>
<text text-anchor="start" x="2139.25" y="-548.48" font-family="Courier New" font-size="12.00" fill="#d3d3d3">Time(extract_year)</text>
<text text-anchor="start" x="2135.25" y="-535.92" font-family="Courier New" font-size="6.00" fill="#d3d3d3">add_name: extract_year</text>
</g>
<!-- Time(year) -->
<g id="node20" class="node">
<title>Time(year)</title>
<polygon fill="#303030" stroke="#ffa07a" points="2256.25,-623.88 2157.25,-623.88 2157.25,-586.12 2256.25,-586.12 2256.25,-623.88"/>
<text text-anchor="start" x="2169.25" y="-604.48" font-family="Courier New" font-size="12.00" fill="#d3d3d3">Time(year)</text>
<text text-anchor="start" x="2165.25" y="-591.92" font-family="Courier New" font-size="6.00" fill="#d3d3d3">add_name: year</text>
</g>
<!-- TimeDimension(ds, year) -->
<g id="node21" class="node">
<title>TimeDimension(ds, year)</title>
<polygon fill="#303030" stroke="#d3d3d3" points="1890.25,-634.62 1693.75,-634.62 1693.75,-589.38 1890.25,-589.38 1890.25,-634.62"/>
<text text-anchor="start" x="1705.75" y="-615.23" font-family="Courier New" font-size="12.00" fill="#d3d3d3">TimeDimension(ds, year)</text>
<text text-anchor="start" x="1701.75" y="-602.67" font-family="Courier New" font-size="6.00" fill="#d3d3d3">add_name: ds</text>
<text text-anchor="start" x="1701.75" y="-595.17" font-family="Courier New" font-size="6.00" fill="#d3d3d3">add_type: TIME_DIMENSION</text>
</g>
<!-- edge_as_node_22 -->
<g id="node40" class="node">
<title>edge_as_node_22</title>
<polygon fill="none" stroke="none" points="2081.88,-695 1973.12,-695 1973.12,-665 2081.88,-665 2081.88,-695"/>
<text text-anchor="start" x="1973.12" y="-689.3" font-family="Courier New" font-size="6.00" fill="#d3d3d3">add_time_grain: year</text>
<text text-anchor="start" x="1973.12" y="-681.8" font-family="Courier New" font-size="6.00" fill="#d3d3d3">type: EntityAttributeEdge</text>
<text text-anchor="start" x="1973.12" y="-674.3" font-family="Courier New" font-size="6.00" fill="#d3d3d3">tail: TimeDimension(ds, year)</text>
<text text-anchor="start" x="1973.12" y="-666.8" font-family="Courier New" font-size="6.00" fill="#d3d3d3">head: Time(year)</text>
</g>
<!-- TimeDimension(ds, year)&#45;&gt;edge_as_node_22 -->
<g id="edge45" class="edge">
<title>TimeDimension(ds, year)&#45;&gt;edge_as_node_22</title>
<path fill="none" stroke="#d3d3d3" d="M1872.38,-635.12C1906.36,-645.01 1945.06,-656.28 1975.18,-665.05"/>
</g>
<!-- edge_as_node_23 -->
<g id="node41" class="node">
<title>edge_as_node_23</title>
<polygon fill="none" stroke="none" points="2081.88,-599 1973.12,-599 1973.12,-569 2081.88,-569 2081.88,-599"/>
<text text-anchor="start" x="1973.12" y="-593.3" font-family="Courier New" font-size="6.00" fill="#d3d3d3">add_prop: DATE_PART</text>
<text text-anchor="start" x="1973.12" y="-585.8" font-family="Courier New" font-size="6.00" fill="#d3d3d3">type: EntityAttributeEdge</text>
<text text-anchor="start" x="1973.12" y="-578.3" font-family="Courier New" font-size="6.00" fill="#d3d3d3">tail: TimeDimension(ds, year)</text>
<text text-anchor="start" x="1973.12" y="-570.8" font-family="Courier New" font-size="6.00" fill="#d3d3d3">head: Time(extract_year)</text>
</g>
<!-- TimeDimension(ds, year)&#45;&gt;edge_as_node_23 -->
<g id="edge47" class="edge">
<title>TimeDimension(ds, year)&#45;&gt;edge_as_node_23</title>
<path fill="none" stroke="#d3d3d3" d="M1890.67,-600.29C1918.92,-596.9 1948.69,-593.33 1973.14,-590.4"/>
</g>
<!-- edge_as_node_24 -->
<g id="node42" class="node">
<title>edge_as_node_24</title>
<polygon fill="none" stroke="none" points="2091.25,-502.75 1963.75,-502.75 1963.75,-465.25 2091.25,-465.25 2091.25,-502.75"/>
<text text-anchor="start" x="1963.75" y="-497.05" font-family="Courier New" font-size="6.00" fill="#d3d3d3">add_prop: DERIVED_TIME_GRANULARITY</text>
<text text-anchor="start" x="1963.75" y="-489.55" font-family="Courier New" font-size="6.00" fill="#d3d3d3">add_time_grain: custom_year</text>
<text text-anchor="start" x="1963.75" y="-482.05" font-family="Courier New" font-size="6.00" fill="#d3d3d3">type: EntityAttributeEdge</text>
<text text-anchor="start" x="1963.75" y="-474.55" font-family="Courier New" font-size="6.00" fill="#d3d3d3">tail: TimeDimension(ds, year)</text>
<text text-anchor="start" x="1963.75" y="-467.05" font-family="Courier New" font-size="6.00" fill="#d3d3d3">head: Time(custom_year)</text>
</g>
<!-- TimeDimension(ds, year)&#45;&gt;edge_as_node_24 -->
<g id="edge49" class="edge">
<title>TimeDimension(ds, year)&#45;&gt;edge_as_node_24</title>
<path fill="none" stroke="#d3d3d3" d="M1835.01,-588.97C1880.05,-564.28 1950.68,-525.56 1992.41,-502.69"/>
</g>
<!-- Metric(sm_0_measure_0_metric) -->
<g id="node22" class="node">
<title>Metric(sm_0_measure_0_metric)</title>
<polygon fill="#303030" stroke="#ffa07a" points="1090.75,-255 849.25,-255 849.25,-219 1090.75,-219 1090.75,-255"/>
<text text-anchor="start" x="861.25" y="-232.72" font-family="Courier New" font-size="12.00" fill="#d3d3d3">Metric(sm_0_measure_0_metric)</text>
</g>
<!-- edge_as_node_25 -->
<g id="node43" class="node">
<title>edge_as_node_25</title>
<polygon fill="none" stroke="none" points="1265.5,-286.25 1134.25,-286.25 1134.25,-263.75 1265.5,-263.75 1265.5,-286.25"/>
<text text-anchor="start" x="1134.25" y="-280.55" font-family="Courier New" font-size="6.00" fill="#d3d3d3">type: MetricDefinitionEdge</text>
<text text-anchor="start" x="1134.25" y="-273.05" font-family="Courier New" font-size="6.00" fill="#d3d3d3">tail: Metric(sm_0_measure_0_metric)</text>
<text text-anchor="start" x="1134.25" y="-265.55" font-family="Courier New" font-size="6.00" fill="#d3d3d3">head: Measure(sm_0_measure_0)</text>
</g>
<!-- Metric(sm_0_measure_0_metric)&#45;&gt;edge_as_node_25 -->
<g id="edge51" class="edge">
<title>Metric(sm_0_measure_0_metric)&#45;&gt;edge_as_node_25</title>
<path fill="none" stroke="#d3d3d3" d="M1081.93,-255.5C1099.93,-258.5 1118.03,-261.52 1134.43,-264.25"/>
</g>
<!-- edge_as_node_0&#45;&gt;Dimension(dim_0) -->
<g id="edge2" class="edge">
<title>edge_as_node_0&#45;&gt;Dimension(dim_0)</title>
<path fill="none" stroke="#d3d3d3" d="M1560.17,-70.11C1596.06,-103.21 1703.17,-202 1757.95,-252.52"/>
<polygon fill="#303030" stroke="#d3d3d3" points="1755.43,-254.96 1765.16,-259.17 1760.18,-249.81 1755.43,-254.96"/>
</g>
<!-- edge_as_node_1&#45;&gt;DsiEntityKey(sm_0_primary_entity) -->
<g id="edge4" class="edge">
<title>edge_as_node_1&#45;&gt;DsiEntityKey(sm_0_primary_entity)</title>
<path fill="none" stroke="#d3d3d3" d="M1243.42,-561.82C1333.75,-538.63 1544.15,-484.62 1676.55,-450.64"/>
<polygon fill="#303030" stroke="#d3d3d3" points="1677.25,-454.07 1686.06,-448.19 1675.51,-447.29 1677.25,-454.07"/>
</g>
<!-- edge_as_node_2&#45;&gt;DsiEntityKey(sm_0_primary_entity) -->
<g id="edge6" class="edge">
<title>edge_as_node_2&#45;&gt;DsiEntityKey(sm_0_primary_entity)</title>
<path fill="none" stroke="#d3d3d3" d="M1620.01,-423.82C1627.98,-423.68 1636.3,-423.55 1644.79,-423.41"/>
<polygon fill="#303030" stroke="#d3d3d3" points="1644.58,-426.91 1654.52,-423.25 1644.46,-419.91 1644.58,-426.91"/>
</g>
<!-- edge_as_node_3&#45;&gt;DsiEntityKey(sm_1_primary_entity) -->
<g id="edge8" class="edge">
<title>edge_as_node_3&#45;&gt;DsiEntityKey(sm_1_primary_entity)</title>
<path fill="none" stroke="#d3d3d3" d="M1236.47,-520.75C1326.32,-493.14 1560.2,-421.25 1694.1,-380.09"/>
<polygon fill="#303030" stroke="#d3d3d3" points="1694.78,-383.54 1703.31,-377.26 1692.72,-376.85 1694.78,-383.54"/>
</g>
<!-- edge_as_node_4&#45;&gt;DsiEntityKey(sm_1_primary_entity) -->
<g id="edge10" class="edge">
<title>edge_as_node_4&#45;&gt;DsiEntityKey(sm_1_primary_entity)</title>
<path fill="none" stroke="#d3d3d3" d="M1620.01,-373.23C1627.98,-372.15 1636.3,-371.02 1644.79,-369.87"/>
<polygon fill="#303030" stroke="#d3d3d3" points="1645.1,-373.36 1654.53,-368.54 1644.15,-366.42 1645.1,-373.36"/>
</g>
<!-- edge_as_node_5&#45;&gt;DsiEntityKey(sm_1_primary_entity) -->
<g id="edge12" class="edge">
<title>edge_as_node_5&#45;&gt;DsiEntityKey(sm_1_primary_entity)</title>
<path fill="none" stroke="#d3d3d3" d="M1222.36,-65.24C1305.56,-106.83 1597.81,-252.92 1728.27,-318.14"/>
<polygon fill="#303030" stroke="#d3d3d3" points="1726.65,-321.24 1737.16,-322.58 1729.78,-314.98 1726.65,-321.24"/>
</g>
<!-- edge_as_node_6&#45;&gt;DsiEntityKey(sm_1_primary_entity) -->
<g id="edge14" class="edge">
<title>edge_as_node_6&#45;&gt;DsiEntityKey(sm_1_primary_entity)</title>
<path fill="none" stroke="#d3d3d3" d="M1564.44,-194.22C1600.43,-218.97 1687.83,-279.06 1742.95,-316.96"/>
<polygon fill="#303030" stroke="#d3d3d3" points="1740.7,-319.66 1750.93,-322.45 1744.67,-313.9 1740.7,-319.66"/>
</g>
<!-- edge_as_node_8&#45;&gt;JoinTo(sm_0) -->
<g id="edge18" class="edge">
<title>edge_as_node_8&#45;&gt;JoinTo(sm_0)</title>
<path fill="none" stroke="#d3d3d3" d="M775.81,-390.24C809.32,-403.21 865.35,-424.89 908.46,-441.57"/>
<polygon fill="#303030" stroke="#d3d3d3" points="907.12,-444.81 917.71,-445.15 909.64,-438.28 907.12,-444.81"/>
</g>
<!-- edge_as_node_9&#45;&gt;DsiEntity(sm_0_primary_entity) -->
<g id="edge20" class="edge">
<title>edge_as_node_9&#45;&gt;DsiEntity(sm_0_primary_entity)</title>
<path fill="none" stroke="#d3d3d3" d="M1479.88,-271.32C1313.04,-264.68 877.48,-247.33 654.14,-238.43"/>
<polygon fill="#303030" stroke="#d3d3d3" points="654.33,-234.94 644.2,-238.04 654.05,-241.93 654.33,-234.94"/>
</g>
<!-- edge_as_node_10&#45;&gt;DsiEntity(sm_1_primary_entity) -->
<g id="edge22" class="edge">
<title>edge_as_node_10&#45;&gt;DsiEntity(sm_1_primary_entity)</title>
<path fill="none" stroke="#d3d3d3" d="M1479.64,-330.25C1311.63,-303.48 872.17,-233.47 650.17,-198.1"/>
<polygon fill="#303030" stroke="#d3d3d3" points="651.03,-194.69 640.61,-196.57 649.93,-201.6 651.03,-194.69"/>
</g>
<!-- edge_as_node_12&#45;&gt;JoinTo(sm_1) -->
<g id="edge26" class="edge">
<title>edge_as_node_12&#45;&gt;JoinTo(sm_1)</title>
<path fill="none" stroke="#d3d3d3" d="M813.13,-88.78C841.01,-90.79 873.4,-93.12 901.41,-95.13"/>
<polygon fill="#303030" stroke="#d3d3d3" points="900.98,-98.61 911.21,-95.84 901.48,-91.63 900.98,-98.61"/>
</g>
<!-- edge_as_node_13&#45;&gt;DsiEntity(sm_1_primary_entity) -->
<g id="edge28" class="edge">
<title>edge_as_node_13&#45;&gt;DsiEntity(sm_1_primary_entity)</title>
<path fill="none" stroke="#d3d3d3" d="M1479.88,-25.58C1312.43,-51.94 874.33,-120.88 651.73,-155.92"/>
<polygon fill="#303030" stroke="#d3d3d3" points="651.47,-152.41 642.13,-157.42 652.56,-159.33 651.47,-152.41"/>
</g>
<!-- edge_as_node_14&#45;&gt;MetricTimeDimension(YEAR) -->
<g id="edge30" class="edge">
<title>edge_as_node_14&#45;&gt;MetricTimeDimension(YEAR)</title>
<path fill="none" stroke="#d3d3d3" d="M1605.07,-488.14C1625.98,-491.5 1650.49,-495.44 1674.72,-499.33"/>
<polygon fill="#303030" stroke="#d3d3d3" points="1673.9,-502.74 1684.33,-500.87 1675.01,-495.83 1673.9,-502.74"/>
</g>
<!-- edge_as_node_15&#45;&gt;Time(year) -->
<g id="edge32" class="edge">
<title>edge_as_node_15&#45;&gt;Time(year)</title>
<path fill="none" stroke="#d3d3d3" d="M2085.56,-623.31C2104.76,-620.38 2126.24,-617.11 2145.67,-614.15"/>
<polygon fill="#303030" stroke="#d3d3d3" points="2145.99,-617.64 2155.34,-612.68 2144.93,-610.72 2145.99,-617.64"/>
</g>
<!-- edge_as_node_16&#45;&gt;Time(extract_year) -->
<g id="edge34" class="edge">
<title>edge_as_node_16&#45;&gt;Time(extract_year)</title>
<path fill="none" stroke="#d3d3d3" d="M2085.56,-540.18C2095.12,-540.89 2105.24,-541.63 2115.39,-542.37"/>
<polygon fill="#303030" stroke="#d3d3d3" points="2115.1,-545.86 2125.33,-543.1 2115.61,-538.88 2115.1,-545.86"/>
</g>
<!-- edge_as_node_17&#45;&gt;Time(custom_year) -->
<g id="edge36" class="edge">
<title>edge_as_node_17&#45;&gt;Time(custom_year)</title>
<path fill="none" stroke="#d3d3d3" d="M2079.29,-446.63C2098.98,-453.85 2121.73,-462.19 2142.47,-469.79"/>
<polygon fill="#303030" stroke="#d3d3d3" points="2141.08,-473.01 2151.68,-473.17 2143.5,-466.44 2141.08,-473.01"/>
</g>
<!-- edge_as_node_21&#45;&gt;TimeDimension(ds, year) -->
<g id="edge44" class="edge">
<title>edge_as_node_21&#45;&gt;TimeDimension(ds, year)</title>
<path fill="none" stroke="#d3d3d3" d="M1601.42,-612C1625.11,-612 1653.91,-612 1681.84,-612"/>
<polygon fill="#303030" stroke="#d3d3d3" points="1681.8,-615.5 1691.8,-612 1681.8,-608.5 1681.8,-615.5"/>
</g>
<!-- edge_as_node_22&#45;&gt;Time(year) -->
<g id="edge46" class="edge">
<title>edge_as_node_22&#45;&gt;Time(year)</title>
<path fill="none" stroke="#d3d3d3" d="M2063.94,-665C2088.49,-654.62 2121.67,-640.58 2149.77,-628.69"/>
<polygon fill="#303030" stroke="#d3d3d3" points="2151.02,-631.96 2158.86,-624.84 2148.29,-625.51 2151.02,-631.96"/>
</g>
<!-- edge_as_node_23&#45;&gt;Time(extract_year) -->
<g id="edge48" class="edge">
<title>edge_as_node_23&#45;&gt;Time(extract_year)</title>
<path fill="none" stroke="#d3d3d3" d="M2081.68,-573.5C2092.5,-571.36 2104.16,-569.06 2115.85,-566.75"/>
<polygon fill="#303030" stroke="#d3d3d3" points="2116.43,-570.21 2125.56,-564.83 2115.07,-563.34 2116.43,-570.21"/>
</g>
<!-- edge_as_node_24&#45;&gt;Time(custom_year) -->
<g id="edge50" class="edge">
<title>edge_as_node_24&#45;&gt;Time(custom_year)</title>
<path fill="none" stroke="#d3d3d3" d="M2090.99,-487.17C2100.23,-487.64 2109.89,-488.13 2119.51,-488.62"/>
<polygon fill="#303030" stroke="#d3d3d3" points="2119.08,-492.1 2129.25,-489.12 2119.44,-485.11 2119.08,-492.1"/>
</g>
<!-- edge_as_node_25&#45;&gt;Measure(sm_0_measure_0) -->
<g id="edge52" class="edge">
<title>edge_as_node_25&#45;&gt;Measure(sm_0_measure_0)</title>
<path fill="none" stroke="#d3d3d3" d="M1134.39,-284.05C954.04,-308.97 448.63,-378.8 224.12,-409.82"/>
<polygon fill="#303030" stroke="#d3d3d3" points="223.91,-406.31 214.49,-411.15 224.87,-413.25 223.91,-406.31"/>
</g>
<!-- edge_as_node_26&#45;&gt;Metric(sm_0_measure_0_metric) -->
<g id="edge54" class="edge">
<title>edge_as_node_26&#45;&gt;Metric(sm_0_measure_0_metric)</title>
<path fill="none" stroke="#d3d3d3" d="M813.13,-194.92C837.2,-201.42 864.63,-208.82 889.7,-215.59"/>
<polygon fill="#303030" stroke="#d3d3d3" points="888.62,-218.93 899.19,-218.15 890.45,-212.17 888.62,-218.93"/>
</g>
<!-- edge_as_node_27&#45;&gt;Metric(sm_0_measure_0_metric) -->
<g id="edge56" class="edge">
<title>edge_as_node_27&#45;&gt;Metric(sm_0_measure_0_metric)</title>
<path fill="none" stroke="#d3d3d3" d="M813.13,-244.71C820.96,-244.33 829.14,-243.92 837.48,-243.51"/>
<polygon fill="#303030" stroke="#d3d3d3" points="837.61,-247.01 847.42,-243.02 837.26,-240.02 837.61,-247.01"/>
</g>
</g>
</svg>
