<?xml version="1.0" encoding="UTF-8" standalone="no"?>
<!DOCTYPE svg PUBLIC "-//W3C//DTD SVG 1.1//EN"
 "http://www.w3.org/Graphics/SVG/1.1/DTD/svg11.dtd">
<!-- Generated by graphviz version 12.2.1 (20241206.2353)
 -->
<!-- Pages: 1 -->
<svg width="1962pt" height="782pt"
 viewBox="0.00 0.00 1962.00 782.00" xmlns="http://www.w3.org/2000/svg" xmlns:xlink="http://www.w3.org/1999/xlink">
<g id="graph0" class="graph" transform="scale(1 1) rotate(0) translate(4 778)">
<polygon fill="#181818" stroke="none" points="-4,4 -4,-778 1958,-778 1958,4 -4,4"/>
<g id="clust1" class="cluster">
<title>cluster_other_attribute</title>
<polygon fill="#181818" stroke="#000000" stroke-width="3" points="1300,-543 1300,-766 1587.5,-766 1587.5,-543 1300,-543"/>
<text text-anchor="middle" x="1443.75" y="-752.5" font-family="Courier New" font-size="10.00" fill="#d3d3d3">other_attribute</text>
</g>
<g id="clust2" class="cluster">
<title>cluster_dsi_entity</title>
<polygon fill="#181818" stroke="#000000" stroke-width="3" points="373,-347 373,-478 638,-478 638,-347 373,-347"/>
<text text-anchor="middle" x="505.5" y="-464.5" font-family="Courier New" font-size="10.00" fill="#d3d3d3">dsi_entity</text>
</g>
<g id="clust3" class="cluster">
<title>cluster_time_dimension</title>
<polygon fill="#181818" stroke="#000000" stroke-width="3" points="1330,-60 1330,-149 1557.5,-149 1557.5,-60 1330,-60"/>
<text text-anchor="middle" x="1443.75" y="-135.5" font-family="Courier New" font-size="10.00" fill="#d3d3d3">time_dimension</text>
</g>
<g id="clust4" class="cluster">
<title>cluster_sm_0</title>
<polygon fill="#181818" stroke="#000000" stroke-width="3" points="904,-247 904,-322 1516.25,-322 1516.25,-247 904,-247"/>
<text text-anchor="middle" x="1210.12" y="-308.5" font-family="Courier New" font-size="10.00" fill="#d3d3d3">sm_0</text>
</g>
<g id="clust5" class="cluster">
<title>cluster_time_attribute</title>
<polygon fill="#181818" stroke="#000000" stroke-width="3" points="1771,-52 1771,-239 1946,-239 1946,-52 1771,-52"/>
<text text-anchor="middle" x="1858.5" y="-225.5" font-family="Courier New" font-size="10.00" fill="#d3d3d3">time_attribute</text>
</g>
<g id="clust6" class="cluster">
<title>cluster_time_entity</title>
<polygon fill="#181818" stroke="#000000" stroke-width="3" points="1337.5,-157 1337.5,-239 1550,-239 1550,-157 1337.5,-157"/>
<text text-anchor="middle" x="1443.75" y="-225.5" font-family="Courier New" font-size="10.00" fill="#d3d3d3">time_entity</text>
</g>
<g id="clust7" class="cluster">
<title>cluster_sm_1</title>
<polygon fill="#181818" stroke="#000000" stroke-width="3" points="440.5,-550 440.5,-625 1041.5,-625 1041.5,-550 440.5,-550"/>
<text text-anchor="middle" x="741" y="-611.5" font-family="Courier New" font-size="10.00" fill="#d3d3d3">sm_1</text>
</g>
<g id="clust8" class="cluster">
<title>cluster_metric_attribute</title>
<polygon fill="#181818" stroke="#000000" stroke-width="3" points="840.25,-381 840.25,-454 1097.75,-454 1097.75,-381 840.25,-381"/>
<text text-anchor="middle" x="969" y="-440.5" font-family="Courier New" font-size="10.00" fill="#d3d3d3">metric_attribute</text>
</g>
<!-- GroupByAttributeRoot -->
<g id="node1" class="node">
<title>GroupByAttributeRoot</title>
<polygon fill="#303030" stroke="#ffd700" points="174,-392 0,-392 0,-356 174,-356 174,-392"/>
<text text-anchor="start" x="12" y="-369.73" font-family="Courier New" font-size="12.00" fill="#d3d3d3">GroupByAttributeRoot</text>
</g>
<!-- edge_as_node_0 -->
<g id="node2" class="node">
<title>edge_as_node_0</title>
<polygon fill="none" stroke="none" points="1272,-734.25 1125.75,-734.25 1125.75,-711.75 1272,-711.75 1272,-734.25"/>
<text text-anchor="start" x="1125.75" y="-728.55" font-family="Courier New" font-size="6.00" fill="#d3d3d3">type: EntityRelationshipEdge</text>
<text text-anchor="start" x="1125.75" y="-721.05" font-family="Courier New" font-size="6.00" fill="#d3d3d3">tail: GroupByAttributeRoot</text>
<text text-anchor="start" x="1125.75" y="-713.55" font-family="Courier New" font-size="6.00" fill="#d3d3d3">head: DsiEntityKey(sm_0_primary_entity)</text>
</g>
<!-- GroupByAttributeRoot&#45;&gt;edge_as_node_0 -->
<g id="edge1" class="edge">
<title>GroupByAttributeRoot&#45;&gt;edge_as_node_0</title>
<path fill="none" stroke="#d3d3d3" d="M145.6,-392.39C346.37,-455.41 1002.91,-661.49 1163.29,-711.83"/>
</g>
<!-- edge_as_node_1 -->
<g id="node3" class="node">
<title>edge_as_node_1</title>
<polygon fill="none" stroke="none" points="1272,-431.25 1125.75,-431.25 1125.75,-408.75 1272,-408.75 1272,-431.25"/>
<text text-anchor="start" x="1125.75" y="-425.55" font-family="Courier New" font-size="6.00" fill="#d3d3d3">type: EntityRelationshipEdge</text>
<text text-anchor="start" x="1125.75" y="-418.05" font-family="Courier New" font-size="6.00" fill="#d3d3d3">tail: GroupByAttributeRoot</text>
<text text-anchor="start" x="1125.75" y="-410.55" font-family="Courier New" font-size="6.00" fill="#d3d3d3">head: DsiEntityKey(sm_1_primary_entity)</text>
</g>
<!-- GroupByAttributeRoot&#45;&gt;edge_as_node_1 -->
<g id="edge3" class="edge">
<title>GroupByAttributeRoot&#45;&gt;edge_as_node_1</title>
<path fill="none" stroke="#d3d3d3" d="M174.25,-377.61C386.96,-386.41 929.22,-408.84 1126.07,-416.99"/>
</g>
<!-- edge_as_node_2 -->
<g id="node4" class="node">
<title>edge_as_node_2</title>
<polygon fill="none" stroke="none" points="345,-385.25 210,-385.25 210,-362.75 345,-362.75 345,-385.25"/>
<text text-anchor="start" x="210" y="-379.55" font-family="Courier New" font-size="6.00" fill="#d3d3d3">type: EntityRelationshipEdge</text>
<text text-anchor="start" x="210" y="-372.05" font-family="Courier New" font-size="6.00" fill="#d3d3d3">tail: GroupByAttributeRoot</text>
<text text-anchor="start" x="210" y="-364.55" font-family="Courier New" font-size="6.00" fill="#d3d3d3">head: DsiEntity(sm_0_primary_entity)</text>
</g>
<!-- GroupByAttributeRoot&#45;&gt;edge_as_node_2 -->
<g id="edge5" class="edge">
<title>GroupByAttributeRoot&#45;&gt;edge_as_node_2</title>
<path fill="none" stroke="#d3d3d3" d="M174.25,-374C186.27,-374 198.47,-374 210.05,-374"/>
</g>
<!-- edge_as_node_3 -->
<g id="node5" class="node">
<title>edge_as_node_3</title>
<polygon fill="none" stroke="none" points="345,-434.25 210,-434.25 210,-411.75 345,-411.75 345,-434.25"/>
<text text-anchor="start" x="210" y="-428.55" font-family="Courier New" font-size="6.00" fill="#d3d3d3">type: EntityRelationshipEdge</text>
<text text-anchor="start" x="210" y="-421.05" font-family="Courier New" font-size="6.00" fill="#d3d3d3">tail: GroupByAttributeRoot</text>
<text text-anchor="start" x="210" y="-413.55" font-family="Courier New" font-size="6.00" fill="#d3d3d3">head: DsiEntity(sm_1_primary_entity)</text>
</g>
<!-- GroupByAttributeRoot&#45;&gt;edge_as_node_3 -->
<g id="edge7" class="edge">
<title>GroupByAttributeRoot&#45;&gt;edge_as_node_3</title>
<path fill="none" stroke="#d3d3d3" d="M159,-392.45C184.04,-398.97 211.43,-406.08 233.45,-411.81"/>
</g>
<!-- edge_as_node_4 -->
<g id="node6" class="node">
<title>edge_as_node_4</title>
<polygon fill="none" stroke="none" points="1257,-142.25 1140.75,-142.25 1140.75,-119.75 1257,-119.75 1257,-142.25"/>
<text text-anchor="start" x="1140.75" y="-136.55" font-family="Courier New" font-size="6.00" fill="#d3d3d3">type: EntityRelationshipEdge</text>
<text text-anchor="start" x="1140.75" y="-129.05" font-family="Courier New" font-size="6.00" fill="#d3d3d3">tail: GroupByAttributeRoot</text>
<text text-anchor="start" x="1140.75" y="-121.55" font-family="Courier New" font-size="6.00" fill="#d3d3d3">head: MetricTimeDimension(YEAR)</text>
</g>
<!-- GroupByAttributeRoot&#45;&gt;edge_as_node_4 -->
<g id="edge9" class="edge">
<title>GroupByAttributeRoot&#45;&gt;edge_as_node_4</title>
<path fill="none" stroke="#d3d3d3" d="M171.48,-355.54C390.41,-307.69 971.31,-180.73 1147.5,-142.23"/>
</g>
<!-- DsiEntityKey(sm_0_primary_entity) -->
<g id="node24" class="node">
<title>DsiEntityKey(sm_0_primary_entity)</title>
<polygon fill="#303030" stroke="#ffa07a" points="1579.5,-737.38 1308,-737.38 1308,-684.62 1579.5,-684.62 1579.5,-737.38"/>
<text text-anchor="start" x="1320" y="-717.98" font-family="Courier New" font-size="12.00" fill="#d3d3d3">DsiEntityKey(sm_0_primary_entity)</text>
<text text-anchor="start" x="1316" y="-705.42" font-family="Courier New" font-size="6.00" fill="#d3d3d3">add_name: sm_0_primary_entity</text>
<text text-anchor="start" x="1316" y="-697.92" font-family="Courier New" font-size="6.00" fill="#d3d3d3">add_prop: ENTITY</text>
<text text-anchor="start" x="1316" y="-690.42" font-family="Courier New" font-size="6.00" fill="#d3d3d3">add_type: ENTITY</text>
</g>
<!-- edge_as_node_0&#45;&gt;DsiEntityKey(sm_0_primary_entity) -->
<g id="edge2" class="edge">
<title>edge_as_node_0&#45;&gt;DsiEntityKey(sm_0_primary_entity)</title>
<path fill="none" stroke="#d3d3d3" d="M1271.76,-719.45C1279.73,-719.05 1288.05,-718.64 1296.54,-718.22"/>
<polygon fill="#303030" stroke="#d3d3d3" points="1296.46,-721.73 1306.27,-717.74 1296.11,-714.74 1296.46,-721.73"/>
</g>
<!-- DsiEntityKey(sm_1_primary_entity) -->
<g id="node25" class="node">
<title>DsiEntityKey(sm_1_primary_entity)</title>
<polygon fill="#303030" stroke="#ffa07a" points="1579.5,-603.38 1308,-603.38 1308,-550.62 1579.5,-550.62 1579.5,-603.38"/>
<text text-anchor="start" x="1320" y="-583.98" font-family="Courier New" font-size="12.00" fill="#d3d3d3">DsiEntityKey(sm_1_primary_entity)</text>
<text text-anchor="start" x="1316" y="-571.42" font-family="Courier New" font-size="6.00" fill="#d3d3d3">add_name: sm_1_primary_entity</text>
<text text-anchor="start" x="1316" y="-563.92" font-family="Courier New" font-size="6.00" fill="#d3d3d3">add_prop: ENTITY</text>
<text text-anchor="start" x="1316" y="-556.42" font-family="Courier New" font-size="6.00" fill="#d3d3d3">add_type: ENTITY</text>
</g>
<!-- edge_as_node_1&#45;&gt;DsiEntityKey(sm_1_primary_entity) -->
<g id="edge4" class="edge">
<title>edge_as_node_1&#45;&gt;DsiEntityKey(sm_1_primary_entity)</title>
<path fill="none" stroke="#d3d3d3" d="M1216.95,-431.04C1252.81,-454.22 1337.13,-508.73 1391.97,-544.18"/>
<polygon fill="#303030" stroke="#d3d3d3" points="1389.95,-547.03 1400.24,-549.52 1393.75,-541.16 1389.95,-547.03"/>
</g>
<!-- DsiEntity(sm_0_primary_entity) -->
<g id="node27" class="node">
<title>DsiEntity(sm_0_primary_entity)</title>
<polygon fill="#303030" stroke="#87cefa" points="630,-392.88 381,-392.88 381,-355.12 630,-355.12 630,-392.88"/>
<text text-anchor="start" x="393" y="-373.48" font-family="Courier New" font-size="12.00" fill="#d3d3d3">DsiEntity(sm_0_primary_entity)</text>
<text text-anchor="start" x="389" y="-360.93" font-family="Courier New" font-size="6.00" fill="#d3d3d3">add_name: sm_0_primary_entity</text>
</g>
<!-- edge_as_node_2&#45;&gt;DsiEntity(sm_0_primary_entity) -->
<g id="edge6" class="edge">
<title>edge_as_node_2&#45;&gt;DsiEntity(sm_0_primary_entity)</title>
<path fill="none" stroke="#d3d3d3" d="M344.78,-374C352.75,-374 361.1,-374 369.61,-374"/>
<polygon fill="#303030" stroke="#d3d3d3" points="369.38,-377.5 379.38,-374 369.38,-370.5 369.38,-377.5"/>
</g>
<!-- DsiEntity(sm_1_primary_entity) -->
<g id="node28" class="node">
<title>DsiEntity(sm_1_primary_entity)</title>
<polygon fill="#303030" stroke="#87cefa" points="630,-448.88 381,-448.88 381,-411.12 630,-411.12 630,-448.88"/>
<text text-anchor="start" x="393" y="-429.48" font-family="Courier New" font-size="12.00" fill="#d3d3d3">DsiEntity(sm_1_primary_entity)</text>
<text text-anchor="start" x="389" y="-416.93" font-family="Courier New" font-size="6.00" fill="#d3d3d3">add_name: sm_1_primary_entity</text>
</g>
<!-- edge_as_node_3&#45;&gt;DsiEntity(sm_1_primary_entity) -->
<g id="edge8" class="edge">
<title>edge_as_node_3&#45;&gt;DsiEntity(sm_1_primary_entity)</title>
<path fill="none" stroke="#d3d3d3" d="M344.78,-425.05C352.75,-425.3 361.1,-425.56 369.61,-425.82"/>
<polygon fill="#303030" stroke="#d3d3d3" points="369.28,-429.31 379.38,-426.12 369.49,-422.32 369.28,-429.31"/>
</g>
<!-- MetricTimeDimension(YEAR) -->
<g id="node29" class="node">
<title>MetricTimeDimension(YEAR)</title>
<polygon fill="#303030" stroke="#d3d3d3" points="1549.5,-120.38 1338,-120.38 1338,-67.62 1549.5,-67.62 1549.5,-120.38"/>
<text text-anchor="start" x="1350" y="-100.97" font-family="Courier New" font-size="12.00" fill="#d3d3d3">MetricTimeDimension(YEAR)</text>
<text text-anchor="start" x="1346" y="-88.42" font-family="Courier New" font-size="6.00" fill="#d3d3d3">add_name: metric_time</text>
<text text-anchor="start" x="1346" y="-80.92" font-family="Courier New" font-size="6.00" fill="#d3d3d3">add_prop: METRIC_TIME</text>
<text text-anchor="start" x="1346" y="-73.42" font-family="Courier New" font-size="6.00" fill="#d3d3d3">add_type: TIME_DIMENSION</text>
</g>
<!-- edge_as_node_4&#45;&gt;MetricTimeDimension(YEAR) -->
<g id="edge10" class="edge">
<title>edge_as_node_4&#45;&gt;MetricTimeDimension(YEAR)</title>
<path fill="none" stroke="#d3d3d3" d="M1256.82,-122.33C1277.73,-119.14 1302.24,-115.41 1326.47,-111.71"/>
<polygon fill="#303030" stroke="#d3d3d3" points="1326.72,-115.22 1336.08,-110.25 1325.66,-108.3 1326.72,-115.22"/>
</g>
<!-- edge_as_node_6 -->
<g id="node7" class="node">
<title>edge_as_node_6</title>
<polygon fill="none" stroke="none" points="1737.38,-126 1621.12,-126 1621.12,-96 1737.38,-96 1737.38,-126"/>
<text text-anchor="start" x="1621.12" y="-120.3" font-family="Courier New" font-size="6.00" fill="#d3d3d3">add_time_grain: year</text>
<text text-anchor="start" x="1621.12" y="-112.8" font-family="Courier New" font-size="6.00" fill="#d3d3d3">type: EntityAttributeEdge</text>
<text text-anchor="start" x="1621.12" y="-105.3" font-family="Courier New" font-size="6.00" fill="#d3d3d3">tail: MetricTimeDimension(YEAR)</text>
<text text-anchor="start" x="1621.12" y="-97.8" font-family="Courier New" font-size="6.00" fill="#d3d3d3">head: Time(year)</text>
</g>
<!-- Time(year) -->
<g id="node35" class="node">
<title>Time(year)</title>
<polygon fill="#303030" stroke="#ffa07a" points="1908,-153.88 1809,-153.88 1809,-116.12 1908,-116.12 1908,-153.88"/>
<text text-anchor="start" x="1821" y="-134.47" font-family="Courier New" font-size="12.00" fill="#d3d3d3">Time(year)</text>
<text text-anchor="start" x="1817" y="-121.92" font-family="Courier New" font-size="6.00" fill="#d3d3d3">add_name: year</text>
</g>
<!-- edge_as_node_6&#45;&gt;Time(year) -->
<g id="edge14" class="edge">
<title>edge_as_node_6&#45;&gt;Time(year)</title>
<path fill="none" stroke="#d3d3d3" d="M1737.31,-118.73C1756.51,-121.33 1777.99,-124.23 1797.42,-126.87"/>
<polygon fill="#303030" stroke="#d3d3d3" points="1796.71,-130.3 1807.09,-128.17 1797.65,-123.36 1796.71,-130.3"/>
</g>
<!-- edge_as_node_7 -->
<g id="node8" class="node">
<title>edge_as_node_7</title>
<polygon fill="none" stroke="none" points="1737.38,-30 1621.12,-30 1621.12,0 1737.38,0 1737.38,-30"/>
<text text-anchor="start" x="1621.12" y="-24.3" font-family="Courier New" font-size="6.00" fill="#d3d3d3">add_prop: DATE_PART</text>
<text text-anchor="start" x="1621.12" y="-16.8" font-family="Courier New" font-size="6.00" fill="#d3d3d3">type: EntityAttributeEdge</text>
<text text-anchor="start" x="1621.12" y="-9.3" font-family="Courier New" font-size="6.00" fill="#d3d3d3">tail: MetricTimeDimension(YEAR)</text>
<text text-anchor="start" x="1621.12" y="-1.8" font-family="Courier New" font-size="6.00" fill="#d3d3d3">head: Time(extract_year)</text>
</g>
<!-- Time(extract_year) -->
<g id="node34" class="node">
<title>Time(extract_year)</title>
<polygon fill="#303030" stroke="#ffa07a" points="1938,-97.88 1779,-97.88 1779,-60.12 1938,-60.12 1938,-97.88"/>
<text text-anchor="start" x="1791" y="-78.47" font-family="Courier New" font-size="12.00" fill="#d3d3d3">Time(extract_year)</text>
<text text-anchor="start" x="1787" y="-65.92" font-family="Courier New" font-size="6.00" fill="#d3d3d3">add_name: extract_year</text>
</g>
<!-- edge_as_node_7&#45;&gt;Time(extract_year) -->
<g id="edge16" class="edge">
<title>edge_as_node_7&#45;&gt;Time(extract_year)</title>
<path fill="none" stroke="#d3d3d3" d="M1721.36,-29.84C1742.73,-37.56 1769.34,-47.17 1793.35,-55.84"/>
<polygon fill="#303030" stroke="#d3d3d3" points="1792.15,-59.13 1802.75,-59.23 1794.53,-52.54 1792.15,-59.13"/>
</g>
<!-- edge_as_node_8 -->
<g id="node9" class="node">
<title>edge_as_node_8</title>
<polygon fill="none" stroke="none" points="1743,-229.75 1615.5,-229.75 1615.5,-192.25 1743,-192.25 1743,-229.75"/>
<text text-anchor="start" x="1615.5" y="-224.05" font-family="Courier New" font-size="6.00" fill="#d3d3d3">add_prop: DERIVED_TIME_GRANULARITY</text>
<text text-anchor="start" x="1615.5" y="-216.55" font-family="Courier New" font-size="6.00" fill="#d3d3d3">add_time_grain: custom_year</text>
<text text-anchor="start" x="1615.5" y="-209.05" font-family="Courier New" font-size="6.00" fill="#d3d3d3">type: EntityAttributeEdge</text>
<text text-anchor="start" x="1615.5" y="-201.55" font-family="Courier New" font-size="6.00" fill="#d3d3d3">tail: MetricTimeDimension(YEAR)</text>
<text text-anchor="start" x="1615.5" y="-194.05" font-family="Courier New" font-size="6.00" fill="#d3d3d3">head: Time(custom_year)</text>
</g>
<!-- Time(custom_year) -->
<g id="node33" class="node">
<title>Time(custom_year)</title>
<polygon fill="#303030" stroke="#ffa07a" points="1934.25,-209.88 1782.75,-209.88 1782.75,-172.12 1934.25,-172.12 1934.25,-209.88"/>
<text text-anchor="start" x="1794.75" y="-190.47" font-family="Courier New" font-size="12.00" fill="#d3d3d3">Time(custom_year)</text>
<text text-anchor="start" x="1790.75" y="-177.93" font-family="Courier New" font-size="6.00" fill="#d3d3d3">add_name: custom_year</text>
</g>
<!-- edge_as_node_8&#45;&gt;Time(custom_year) -->
<g id="edge18" class="edge">
<title>edge_as_node_8&#45;&gt;Time(custom_year)</title>
<path fill="none" stroke="#d3d3d3" d="M1742.74,-203.95C1751.98,-202.91 1761.64,-201.82 1771.26,-200.73"/>
<polygon fill="#303030" stroke="#d3d3d3" points="1771.46,-204.23 1781.01,-199.63 1770.68,-197.27 1771.46,-204.23"/>
</g>
<!-- edge_as_node_9 -->
<g id="node10" class="node">
<title>edge_as_node_9</title>
<polygon fill="none" stroke="none" points="1743,-285.75 1615.5,-285.75 1615.5,-248.25 1743,-248.25 1743,-285.75"/>
<text text-anchor="start" x="1615.5" y="-280.05" font-family="Courier New" font-size="6.00" fill="#d3d3d3">add_prop: DERIVED_TIME_GRANULARITY</text>
<text text-anchor="start" x="1615.5" y="-272.55" font-family="Courier New" font-size="6.00" fill="#d3d3d3">add_time_grain: custom_year</text>
<text text-anchor="start" x="1615.5" y="-265.05" font-family="Courier New" font-size="6.00" fill="#d3d3d3">type: EntityAttributeEdge</text>
<text text-anchor="start" x="1615.5" y="-257.55" font-family="Courier New" font-size="6.00" fill="#d3d3d3">tail: TimeDimension(ds, year)</text>
<text text-anchor="start" x="1615.5" y="-250.05" font-family="Courier New" font-size="6.00" fill="#d3d3d3">head: Time(custom_year)</text>
</g>
<!-- edge_as_node_9&#45;&gt;Time(custom_year) -->
<g id="edge20" class="edge">
<title>edge_as_node_9&#45;&gt;Time(custom_year)</title>
<path fill="none" stroke="#d3d3d3" d="M1723.61,-248.41C1747.2,-238.3 1776.63,-225.68 1801.89,-214.85"/>
<polygon fill="#303030" stroke="#d3d3d3" points="1803.22,-218.08 1811.03,-210.92 1800.46,-211.65 1803.22,-218.08"/>
</g>
<!-- edge_as_node_10 -->
<g id="node11" class="node">
<title>edge_as_node_10</title>
<polygon fill="none" stroke="none" points="1733.62,-78 1624.88,-78 1624.88,-48 1733.62,-48 1733.62,-78"/>
<text text-anchor="start" x="1624.88" y="-72.3" font-family="Courier New" font-size="6.00" fill="#d3d3d3">add_prop: DATE_PART</text>
<text text-anchor="start" x="1624.88" y="-64.8" font-family="Courier New" font-size="6.00" fill="#d3d3d3">type: EntityAttributeEdge</text>
<text text-anchor="start" x="1624.88" y="-57.3" font-family="Courier New" font-size="6.00" fill="#d3d3d3">tail: TimeDimension(ds, year)</text>
<text text-anchor="start" x="1624.88" y="-49.8" font-family="Courier New" font-size="6.00" fill="#d3d3d3">head: Time(extract_year)</text>
</g>
<!-- edge_as_node_10&#45;&gt;Time(extract_year) -->
<g id="edge22" class="edge">
<title>edge_as_node_10&#45;&gt;Time(extract_year)</title>
<path fill="none" stroke="#d3d3d3" d="M1733.43,-67.8C1744.25,-68.78 1755.91,-69.83 1767.6,-70.89"/>
<polygon fill="#303030" stroke="#d3d3d3" points="1767.01,-74.35 1777.29,-71.76 1767.64,-67.37 1767.01,-74.35"/>
</g>
<!-- edge_as_node_11 -->
<g id="node12" class="node">
<title>edge_as_node_11</title>
<polygon fill="none" stroke="none" points="1733.62,-174 1624.88,-174 1624.88,-144 1733.62,-144 1733.62,-174"/>
<text text-anchor="start" x="1624.88" y="-168.3" font-family="Courier New" font-size="6.00" fill="#d3d3d3">add_time_grain: year</text>
<text text-anchor="start" x="1624.88" y="-160.8" font-family="Courier New" font-size="6.00" fill="#d3d3d3">type: EntityAttributeEdge</text>
<text text-anchor="start" x="1624.88" y="-153.3" font-family="Courier New" font-size="6.00" fill="#d3d3d3">tail: TimeDimension(ds, year)</text>
<text text-anchor="start" x="1624.88" y="-145.8" font-family="Courier New" font-size="6.00" fill="#d3d3d3">head: Time(year)</text>
</g>
<!-- edge_as_node_11&#45;&gt;Time(year) -->
<g id="edge24" class="edge">
<title>edge_as_node_11&#45;&gt;Time(year)</title>
<path fill="none" stroke="#d3d3d3" d="M1733.43,-151.8C1753.56,-149.07 1776.62,-145.95 1797.35,-143.14"/>
<polygon fill="#303030" stroke="#d3d3d3" points="1797.65,-146.64 1807.09,-141.83 1796.71,-139.7 1797.65,-146.64"/>
</g>
<!-- edge_as_node_12 -->
<g id="node13" class="node">
<title>edge_as_node_12</title>
<polygon fill="none" stroke="none" points="806.62,-542.25 671.62,-542.25 671.62,-519.75 806.62,-519.75 806.62,-542.25"/>
<text text-anchor="start" x="671.62" y="-536.55" font-family="Courier New" font-size="6.00" fill="#d3d3d3">type: JoinToModelEdge</text>
<text text-anchor="start" x="671.62" y="-529.05" font-family="Courier New" font-size="6.00" fill="#d3d3d3">tail: DsiEntity(sm_1_primary_entity)</text>
<text text-anchor="start" x="671.62" y="-521.55" font-family="Courier New" font-size="6.00" fill="#d3d3d3">head: JoinTo(sm_1)</text>
</g>
<!-- JoinTo(sm_1) -->
<g id="node37" class="node">
<title>JoinTo(sm_1)</title>
<polygon fill="#303030" stroke="#d3d3d3" points="562.5,-595.88 448.5,-595.88 448.5,-558.12 562.5,-558.12 562.5,-595.88"/>
<text text-anchor="start" x="460.5" y="-576.48" font-family="Courier New" font-size="12.00" fill="#d3d3d3">JoinTo(sm_1)</text>
<text text-anchor="start" x="456.5" y="-563.92" font-family="Courier New" font-size="6.00" fill="#d3d3d3">add_model: sm_1</text>
</g>
<!-- edge_as_node_12&#45;&gt;JoinTo(sm_1) -->
<g id="edge26" class="edge">
<title>edge_as_node_12&#45;&gt;JoinTo(sm_1)</title>
<path fill="none" stroke="#d3d3d3" d="M681.51,-542.24C649.1,-548.68 608.23,-556.8 574.14,-563.57"/>
<polygon fill="#303030" stroke="#d3d3d3" points="573.48,-560.13 564.35,-565.51 574.84,-567 573.48,-560.13"/>
</g>
<!-- edge_as_node_13 -->
<g id="node14" class="node">
<title>edge_as_node_13</title>
<polygon fill="none" stroke="none" points="806.62,-464.25 671.62,-464.25 671.62,-411.75 806.62,-411.75 806.62,-464.25"/>
<text text-anchor="start" x="671.62" y="-458.55" font-family="Courier New" font-size="6.00" fill="#d3d3d3">add_name: sm_0_measure_0_metric</text>
<text text-anchor="start" x="671.62" y="-451.05" font-family="Courier New" font-size="6.00" fill="#d3d3d3">add_prop: METRIC</text>
<text text-anchor="start" x="671.62" y="-443.55" font-family="Courier New" font-size="6.00" fill="#d3d3d3">add_model: sm_0</text>
<text text-anchor="start" x="671.62" y="-436.05" font-family="Courier New" font-size="6.00" fill="#d3d3d3">add_type: METRIC</text>
<text text-anchor="start" x="671.62" y="-428.55" font-family="Courier New" font-size="6.00" fill="#d3d3d3">type: EntityAttributeEdge</text>
<text text-anchor="start" x="671.62" y="-421.05" font-family="Courier New" font-size="6.00" fill="#d3d3d3">tail: DsiEntity(sm_1_primary_entity)</text>
<text text-anchor="start" x="671.62" y="-413.55" font-family="Courier New" font-size="6.00" fill="#d3d3d3">head: Metric(sm_0_measure_0_metric)</text>
</g>
<!-- Metric(sm_0_measure_0_metric) -->
<g id="node40" class="node">
<title>Metric(sm_0_measure_0_metric)</title>
<polygon fill="#303030" stroke="#ffa07a" points="1089.75,-425 848.25,-425 848.25,-389 1089.75,-389 1089.75,-425"/>
<text text-anchor="start" x="860.25" y="-402.73" font-family="Courier New" font-size="12.00" fill="#d3d3d3">Metric(sm_0_measure_0_metric)</text>
</g>
<!-- edge_as_node_13&#45;&gt;Metric(sm_0_measure_0_metric) -->
<g id="edge28" class="edge">
<title>edge_as_node_13&#45;&gt;Metric(sm_0_measure_0_metric)</title>
<path fill="none" stroke="#d3d3d3" d="M806.34,-428.99C815.99,-427.68 826.2,-426.29 836.61,-424.87"/>
<polygon fill="#303030" stroke="#d3d3d3" points="837.02,-428.35 846.46,-423.53 836.08,-421.41 837.02,-428.35"/>
</g>
<!-- edge_as_node_14 -->
<g id="node15" class="node">
<title>edge_as_node_14</title>
<polygon fill="none" stroke="none" points="1266.38,-544 1131.38,-544 1131.38,-514 1266.38,-514 1266.38,-544"/>
<text text-anchor="start" x="1131.38" y="-538.3" font-family="Courier New" font-size="6.00" fill="#d3d3d3">add_prop: LOCAL_LINKED</text>
<text text-anchor="start" x="1131.38" y="-530.8" font-family="Courier New" font-size="6.00" fill="#d3d3d3">type: JoinFromModelEdge</text>
<text text-anchor="start" x="1131.38" y="-523.3" font-family="Courier New" font-size="6.00" fill="#d3d3d3">tail: JoinFrom(sm_1)</text>
<text text-anchor="start" x="1131.38" y="-515.8" font-family="Courier New" font-size="6.00" fill="#d3d3d3">head: DsiEntity(sm_1_primary_entity)</text>
</g>
<!-- edge_as_node_14&#45;&gt;DsiEntity(sm_1_primary_entity) -->
<g id="edge30" class="edge">
<title>edge_as_node_14&#45;&gt;DsiEntity(sm_1_primary_entity)</title>
<path fill="none" stroke="#d3d3d3" d="M1131.78,-519.42C1019.01,-503.32 789.3,-470.52 641.63,-449.44"/>
<polygon fill="#303030" stroke="#d3d3d3" points="642.16,-445.98 631.76,-448.03 641.17,-452.91 642.16,-445.98"/>
</g>
<!-- edge_as_node_15 -->
<g id="node16" class="node">
<title>edge_as_node_15</title>
<polygon fill="none" stroke="none" points="806.62,-393.25 671.62,-393.25 671.62,-340.75 806.62,-340.75 806.62,-393.25"/>
<text text-anchor="start" x="671.62" y="-387.55" font-family="Courier New" font-size="6.00" fill="#d3d3d3">add_name: sm_0_measure_0_metric</text>
<text text-anchor="start" x="671.62" y="-380.05" font-family="Courier New" font-size="6.00" fill="#d3d3d3">add_prop: METRIC</text>
<text text-anchor="start" x="671.62" y="-372.55" font-family="Courier New" font-size="6.00" fill="#d3d3d3">add_model: sm_0</text>
<text text-anchor="start" x="671.62" y="-365.05" font-family="Courier New" font-size="6.00" fill="#d3d3d3">add_type: METRIC</text>
<text text-anchor="start" x="671.62" y="-357.55" font-family="Courier New" font-size="6.00" fill="#d3d3d3">type: EntityAttributeEdge</text>
<text text-anchor="start" x="671.62" y="-350.05" font-family="Courier New" font-size="6.00" fill="#d3d3d3">tail: DsiEntity(sm_0_primary_entity)</text>
<text text-anchor="start" x="671.62" y="-342.55" font-family="Courier New" font-size="6.00" fill="#d3d3d3">head: Metric(sm_0_measure_0_metric)</text>
</g>
<!-- edge_as_node_15&#45;&gt;Metric(sm_0_measure_0_metric) -->
<g id="edge32" class="edge">
<title>edge_as_node_15&#45;&gt;Metric(sm_0_measure_0_metric)</title>
<path fill="none" stroke="#d3d3d3" d="M806.34,-378.62C820.62,-381.13 836.11,-383.85 851.67,-386.58"/>
<polygon fill="#303030" stroke="#d3d3d3" points="851.04,-390.02 861.5,-388.3 852.25,-383.13 851.04,-390.02"/>
</g>
<!-- edge_as_node_16 -->
<g id="node17" class="node">
<title>edge_as_node_16</title>
<polygon fill="none" stroke="none" points="786,-696.25 692.25,-696.25 692.25,-673.75 786,-673.75 786,-696.25"/>
<text text-anchor="start" x="692.25" y="-690.55" font-family="Courier New" font-size="6.00" fill="#d3d3d3">type: EntityAttributeEdge</text>
<text text-anchor="start" x="692.25" y="-683.05" font-family="Courier New" font-size="6.00" fill="#d3d3d3">tail: JoinTo(sm_1)</text>
<text text-anchor="start" x="692.25" y="-675.55" font-family="Courier New" font-size="6.00" fill="#d3d3d3">head: Dimension(dim_0)</text>
</g>
<!-- Dimension(dim_0) -->
<g id="node26" class="node">
<title>Dimension(dim_0)</title>
<polygon fill="#303030" stroke="#ffa07a" points="1515.75,-666.62 1371.75,-666.62 1371.75,-621.38 1515.75,-621.38 1515.75,-666.62"/>
<text text-anchor="start" x="1383.75" y="-647.23" font-family="Courier New" font-size="12.00" fill="#d3d3d3">Dimension(dim_0)</text>
<text text-anchor="start" x="1379.75" y="-634.67" font-family="Courier New" font-size="6.00" fill="#d3d3d3">add_name: dim_0</text>
<text text-anchor="start" x="1379.75" y="-627.17" font-family="Courier New" font-size="6.00" fill="#d3d3d3">add_type: DIMENSION</text>
</g>
<!-- edge_as_node_16&#45;&gt;Dimension(dim_0) -->
<g id="edge34" class="edge">
<title>edge_as_node_16&#45;&gt;Dimension(dim_0)</title>
<path fill="none" stroke="#d3d3d3" d="M785.9,-682.28C903.11,-675.46 1210.62,-657.57 1359.96,-648.88"/>
<polygon fill="#303030" stroke="#d3d3d3" points="1360.02,-652.38 1369.8,-648.3 1359.61,-645.39 1360.02,-652.38"/>
</g>
<!-- edge_as_node_17 -->
<g id="node18" class="node">
<title>edge_as_node_17</title>
<polygon fill="none" stroke="none" points="812.25,-655.25 666,-655.25 666,-632.75 812.25,-632.75 812.25,-655.25"/>
<text text-anchor="start" x="666" y="-649.55" font-family="Courier New" font-size="6.00" fill="#d3d3d3">type: EntityAttributeEdge</text>
<text text-anchor="start" x="666" y="-642.05" font-family="Courier New" font-size="6.00" fill="#d3d3d3">tail: JoinTo(sm_1)</text>
<text text-anchor="start" x="666" y="-634.55" font-family="Courier New" font-size="6.00" fill="#d3d3d3">head: DsiEntityKey(sm_1_primary_entity)</text>
</g>
<!-- edge_as_node_17&#45;&gt;DsiEntityKey(sm_1_primary_entity) -->
<g id="edge36" class="edge">
<title>edge_as_node_17&#45;&gt;DsiEntityKey(sm_1_primary_entity)</title>
<path fill="none" stroke="#d3d3d3" d="M812.21,-637.05C926.12,-626.22 1148.29,-605.09 1296.38,-591.01"/>
<polygon fill="#303030" stroke="#d3d3d3" points="1296.67,-594.5 1306.3,-590.07 1296.01,-587.53 1296.67,-594.5"/>
</g>
<!-- edge_as_node_19 -->
<g id="node19" class="node">
<title>edge_as_node_19</title>
<polygon fill="none" stroke="none" points="1272,-588.25 1125.75,-588.25 1125.75,-565.75 1272,-565.75 1272,-588.25"/>
<text text-anchor="start" x="1125.75" y="-582.55" font-family="Courier New" font-size="6.00" fill="#d3d3d3">type: EntityAttributeEdge</text>
<text text-anchor="start" x="1125.75" y="-575.05" font-family="Courier New" font-size="6.00" fill="#d3d3d3">tail: JoinFrom(sm_1)</text>
<text text-anchor="start" x="1125.75" y="-567.55" font-family="Courier New" font-size="6.00" fill="#d3d3d3">head: DsiEntityKey(sm_1_primary_entity)</text>
</g>
<!-- edge_as_node_19&#45;&gt;DsiEntityKey(sm_1_primary_entity) -->
<g id="edge40" class="edge">
<title>edge_as_node_19&#45;&gt;DsiEntityKey(sm_1_primary_entity)</title>
<path fill="none" stroke="#d3d3d3" d="M1271.76,-577C1279.73,-577 1288.05,-577 1296.54,-577"/>
<polygon fill="#303030" stroke="#d3d3d3" points="1296.27,-580.5 1306.27,-577 1296.27,-573.5 1296.27,-580.5"/>
</g>
<!-- edge_as_node_20 -->
<g id="node20" class="node">
<title>edge_as_node_20</title>
<polygon fill="none" stroke="none" points="1272,-357.25 1125.75,-357.25 1125.75,-334.75 1272,-334.75 1272,-357.25"/>
<text text-anchor="start" x="1125.75" y="-351.55" font-family="Courier New" font-size="6.00" fill="#d3d3d3">type: EntityAttributeEdge</text>
<text text-anchor="start" x="1125.75" y="-344.05" font-family="Courier New" font-size="6.00" fill="#d3d3d3">tail: JoinTo(sm_0)</text>
<text text-anchor="start" x="1125.75" y="-336.55" font-family="Courier New" font-size="6.00" fill="#d3d3d3">head: DsiEntityKey(sm_1_primary_entity)</text>
</g>
<!-- edge_as_node_20&#45;&gt;DsiEntityKey(sm_1_primary_entity) -->
<g id="edge42" class="edge">
<title>edge_as_node_20&#45;&gt;DsiEntityKey(sm_1_primary_entity)</title>
<path fill="none" stroke="#d3d3d3" d="M1211.59,-357.14C1246.47,-390.32 1350.68,-489.43 1406.5,-542.52"/>
<polygon fill="#303030" stroke="#d3d3d3" points="1403.95,-544.92 1413.6,-549.28 1408.77,-539.85 1403.95,-544.92"/>
</g>
<!-- edge_as_node_21 -->
<g id="node21" class="node">
<title>edge_as_node_21</title>
<polygon fill="none" stroke="none" points="806.62,-285.25 671.62,-285.25 671.62,-262.75 806.62,-262.75 806.62,-285.25"/>
<text text-anchor="start" x="671.62" y="-279.55" font-family="Courier New" font-size="6.00" fill="#d3d3d3">type: JoinToModelEdge</text>
<text text-anchor="start" x="671.62" y="-272.05" font-family="Courier New" font-size="6.00" fill="#d3d3d3">tail: DsiEntity(sm_0_primary_entity)</text>
<text text-anchor="start" x="671.62" y="-264.55" font-family="Courier New" font-size="6.00" fill="#d3d3d3">head: JoinTo(sm_0)</text>
</g>
<!-- JoinTo(sm_0) -->
<g id="node31" class="node">
<title>JoinTo(sm_0)</title>
<polygon fill="#303030" stroke="#d3d3d3" points="1026,-292.88 912,-292.88 912,-255.12 1026,-255.12 1026,-292.88"/>
<text text-anchor="start" x="924" y="-273.48" font-family="Courier New" font-size="12.00" fill="#d3d3d3">JoinTo(sm_0)</text>
<text text-anchor="start" x="920" y="-260.93" font-family="Courier New" font-size="6.00" fill="#d3d3d3">add_model: sm_0</text>
</g>
<!-- edge_as_node_21&#45;&gt;JoinTo(sm_0) -->
<g id="edge44" class="edge">
<title>edge_as_node_21&#45;&gt;JoinTo(sm_0)</title>
<path fill="none" stroke="#d3d3d3" d="M806.34,-274C835.94,-274 870.78,-274 900.52,-274"/>
<polygon fill="#303030" stroke="#d3d3d3" points="900.14,-277.5 910.14,-274 900.14,-270.5 900.14,-277.5"/>
</g>
<!-- edge_as_node_22 -->
<g id="node22" class="node">
<title>edge_as_node_22</title>
<polygon fill="none" stroke="none" points="1272,-488.25 1125.75,-488.25 1125.75,-465.75 1272,-465.75 1272,-488.25"/>
<text text-anchor="start" x="1125.75" y="-482.55" font-family="Courier New" font-size="6.00" fill="#d3d3d3">type: EntityAttributeEdge</text>
<text text-anchor="start" x="1125.75" y="-475.05" font-family="Courier New" font-size="6.00" fill="#d3d3d3">tail: JoinTo(sm_0)</text>
<text text-anchor="start" x="1125.75" y="-467.55" font-family="Courier New" font-size="6.00" fill="#d3d3d3">head: DsiEntityKey(sm_0_primary_entity)</text>
</g>
<!-- edge_as_node_22&#45;&gt;DsiEntityKey(sm_0_primary_entity) -->
<g id="edge46" class="edge">
<title>edge_as_node_22&#45;&gt;DsiEntityKey(sm_0_primary_entity)</title>
<path fill="none" stroke="#d3d3d3" d="M1211.26,-487.97C1245.87,-521.32 1350.86,-622.47 1406.79,-676.35"/>
<polygon fill="#303030" stroke="#d3d3d3" points="1404.28,-678.79 1413.91,-683.21 1409.13,-673.75 1404.28,-678.79"/>
</g>
<!-- edge_as_node_23 -->
<g id="node23" class="node">
<title>edge_as_node_23</title>
<polygon fill="none" stroke="none" points="1253.25,-219.25 1144.5,-219.25 1144.5,-196.75 1253.25,-196.75 1253.25,-219.25"/>
<text text-anchor="start" x="1144.5" y="-213.55" font-family="Courier New" font-size="6.00" fill="#d3d3d3">type: EntityRelationshipEdge</text>
<text text-anchor="start" x="1144.5" y="-206.05" font-family="Courier New" font-size="6.00" fill="#d3d3d3">tail: JoinTo(sm_0)</text>
<text text-anchor="start" x="1144.5" y="-198.55" font-family="Courier New" font-size="6.00" fill="#d3d3d3">head: TimeDimension(ds, year)</text>
</g>
<!-- TimeDimension(ds, year) -->
<g id="node36" class="node">
<title>TimeDimension(ds, year)</title>
<polygon fill="#303030" stroke="#d3d3d3" points="1542,-210.62 1345.5,-210.62 1345.5,-165.38 1542,-165.38 1542,-210.62"/>
<text text-anchor="start" x="1357.5" y="-191.22" font-family="Courier New" font-size="12.00" fill="#d3d3d3">TimeDimension(ds, year)</text>
<text text-anchor="start" x="1353.5" y="-178.68" font-family="Courier New" font-size="6.00" fill="#d3d3d3">add_name: ds</text>
<text text-anchor="start" x="1353.5" y="-171.18" font-family="Courier New" font-size="6.00" fill="#d3d3d3">add_type: TIME_DIMENSION</text>
</g>
<!-- edge_as_node_23&#45;&gt;TimeDimension(ds, year) -->
<g id="edge48" class="edge">
<title>edge_as_node_23&#45;&gt;TimeDimension(ds, year)</title>
<path fill="none" stroke="#d3d3d3" d="M1253.17,-203.61C1276.97,-201.65 1305.92,-199.27 1333.96,-196.96"/>
<polygon fill="#303030" stroke="#d3d3d3" points="1333.88,-200.48 1343.56,-196.17 1333.3,-193.5 1333.88,-200.48"/>
</g>
<!-- DsiEntity(sm_0_primary_entity)&#45;&gt;edge_as_node_15 -->
<g id="edge31" class="edge">
<title>DsiEntity(sm_0_primary_entity)&#45;&gt;edge_as_node_15</title>
<path fill="none" stroke="#d3d3d3" d="M630.45,-370.25C644.65,-369.83 658.68,-369.4 671.69,-369.01"/>
</g>
<!-- DsiEntity(sm_0_primary_entity)&#45;&gt;edge_as_node_21 -->
<g id="edge43" class="edge">
<title>DsiEntity(sm_0_primary_entity)&#45;&gt;edge_as_node_21</title>
<path fill="none" stroke="#d3d3d3" d="M551.16,-354.72C599.01,-334.06 673.32,-301.98 712.28,-285.16"/>
</g>
<!-- DsiEntity(sm_1_primary_entity)&#45;&gt;edge_as_node_12 -->
<g id="edge25" class="edge">
<title>DsiEntity(sm_1_primary_entity)&#45;&gt;edge_as_node_12</title>
<path fill="none" stroke="#d3d3d3" d="M550.89,-449.35C598.83,-470.26 673.57,-502.85 712.54,-519.84"/>
</g>
<!-- DsiEntity(sm_1_primary_entity)&#45;&gt;edge_as_node_13 -->
<g id="edge27" class="edge">
<title>DsiEntity(sm_1_primary_entity)&#45;&gt;edge_as_node_13</title>
<path fill="none" stroke="#d3d3d3" d="M630.45,-434.28C644.65,-434.77 658.68,-435.26 671.69,-435.71"/>
</g>
<!-- MetricTimeDimension(YEAR)&#45;&gt;edge_as_node_6 -->
<g id="edge13" class="edge">
<title>MetricTimeDimension(YEAR)&#45;&gt;edge_as_node_6</title>
<path fill="none" stroke="#d3d3d3" d="M1549.89,-101.65C1574.46,-103.44 1599.73,-105.28 1621.27,-106.85"/>
</g>
<!-- MetricTimeDimension(YEAR)&#45;&gt;edge_as_node_7 -->
<g id="edge15" class="edge">
<title>MetricTimeDimension(YEAR)&#45;&gt;edge_as_node_7</title>
<path fill="none" stroke="#d3d3d3" d="M1524.13,-67.14C1560.88,-54.71 1603.16,-40.4 1634.13,-29.93"/>
</g>
<!-- MetricTimeDimension(YEAR)&#45;&gt;edge_as_node_8 -->
<g id="edge17" class="edge">
<title>MetricTimeDimension(YEAR)&#45;&gt;edge_as_node_8</title>
<path fill="none" stroke="#d3d3d3" d="M1498.32,-120.84C1541.94,-142.7 1602.41,-173 1640.93,-192.3"/>
</g>
<!-- JoinFrom(sm_0) -->
<g id="node30" class="node">
<title>JoinFrom(sm_0)</title>
<polygon fill="#303030" stroke="#d3d3d3" points="1508.25,-292.88 1379.25,-292.88 1379.25,-255.12 1508.25,-255.12 1508.25,-292.88"/>
<text text-anchor="start" x="1391.25" y="-273.48" font-family="Courier New" font-size="12.00" fill="#d3d3d3">JoinFrom(sm_0)</text>
<text text-anchor="start" x="1387.25" y="-260.93" font-family="Courier New" font-size="6.00" fill="#d3d3d3">add_model: sm_0</text>
</g>
<!-- JoinTo(sm_0)&#45;&gt;edge_as_node_20 -->
<g id="edge41" class="edge">
<title>JoinTo(sm_0)&#45;&gt;edge_as_node_20</title>
<path fill="none" stroke="#d3d3d3" d="M1026.33,-291.8C1068.9,-305.25 1126.03,-323.3 1162.41,-334.79"/>
</g>
<!-- JoinTo(sm_0)&#45;&gt;edge_as_node_22 -->
<g id="edge45" class="edge">
<title>JoinTo(sm_0)&#45;&gt;edge_as_node_22</title>
<path fill="none" stroke="#d3d3d3" d="M991.44,-293.1C1038.19,-334.75 1148.12,-432.67 1185.32,-465.81"/>
</g>
<!-- JoinTo(sm_0)&#45;&gt;edge_as_node_23 -->
<g id="edge47" class="edge">
<title>JoinTo(sm_0)&#45;&gt;edge_as_node_23</title>
<path fill="none" stroke="#d3d3d3" d="M1026.33,-257.69C1067.71,-245.7 1122.86,-229.73 1159.32,-219.17"/>
</g>
<!-- edge_as_node_5 -->
<g id="node32" class="node">
<title>edge_as_node_5</title>
<polygon fill="none" stroke="none" points="1251.38,-285.25 1146.38,-285.25 1146.38,-262.75 1251.38,-262.75 1251.38,-285.25"/>
<text text-anchor="start" x="1146.38" y="-279.55" font-family="Courier New" font-size="6.00" fill="#d3d3d3">type: EntityRelationshipEdge</text>
<text text-anchor="start" x="1146.38" y="-272.05" font-family="Courier New" font-size="6.00" fill="#d3d3d3">tail: JoinTo(sm_0)</text>
<text text-anchor="start" x="1146.38" y="-264.55" font-family="Courier New" font-size="6.00" fill="#d3d3d3">head: JoinFrom(sm_0)</text>
</g>
<!-- JoinTo(sm_0)&#45;&gt;edge_as_node_5 -->
<g id="edge11" class="edge">
<title>JoinTo(sm_0)&#45;&gt;edge_as_node_5</title>
<path fill="none" stroke="#d3d3d3" d="M1026.33,-274C1063.1,-274 1110.74,-274 1146.48,-274"/>
</g>
<!-- edge_as_node_5&#45;&gt;JoinFrom(sm_0) -->
<g id="edge12" class="edge">
<title>edge_as_node_5&#45;&gt;JoinFrom(sm_0)</title>
<path fill="none" stroke="#d3d3d3" d="M1251.09,-274C1284.89,-274 1329.75,-274 1367.57,-274"/>
<polygon fill="#303030" stroke="#d3d3d3" points="1367.55,-277.5 1377.55,-274 1367.55,-270.5 1367.55,-277.5"/>
</g>
<!-- TimeDimension(ds, year)&#45;&gt;edge_as_node_9 -->
<g id="edge19" class="edge">
<title>TimeDimension(ds, year)&#45;&gt;edge_as_node_9</title>
<path fill="none" stroke="#d3d3d3" d="M1512.92,-211.06C1547.91,-222.9 1590,-237.14 1622.96,-248.29"/>
</g>
<!-- TimeDimension(ds, year)&#45;&gt;edge_as_node_10 -->
<g id="edge21" class="edge">
<title>TimeDimension(ds, year)&#45;&gt;edge_as_node_10</title>
<path fill="none" stroke="#d3d3d3" d="M1487.85,-164.93C1535.29,-139.53 1610.15,-99.46 1650.41,-77.9"/>
</g>
<!-- TimeDimension(ds, year)&#45;&gt;edge_as_node_11 -->
<g id="edge23" class="edge">
<title>TimeDimension(ds, year)&#45;&gt;edge_as_node_11</title>
<path fill="none" stroke="#d3d3d3" d="M1542.42,-175.87C1570.67,-172.36 1600.44,-168.66 1624.89,-165.63"/>
</g>
<!-- JoinTo(sm_1)&#45;&gt;edge_as_node_16 -->
<g id="edge33" class="edge">
<title>JoinTo(sm_1)&#45;&gt;edge_as_node_16</title>
<path fill="none" stroke="#d3d3d3" d="M547.91,-596.31C596.32,-618.88 674.8,-655.47 714.09,-673.8"/>
</g>
<!-- JoinTo(sm_1)&#45;&gt;edge_as_node_17 -->
<g id="edge35" class="edge">
<title>JoinTo(sm_1)&#45;&gt;edge_as_node_17</title>
<path fill="none" stroke="#d3d3d3" d="M562.87,-593.3C605.18,-605.54 662.02,-621.99 699.34,-632.78"/>
</g>
<!-- edge_as_node_18 -->
<g id="node39" class="node">
<title>edge_as_node_18</title>
<polygon fill="none" stroke="none" points="791.62,-588.25 686.62,-588.25 686.62,-565.75 791.62,-565.75 791.62,-588.25"/>
<text text-anchor="start" x="686.62" y="-582.55" font-family="Courier New" font-size="6.00" fill="#d3d3d3">type: EntityRelationshipEdge</text>
<text text-anchor="start" x="686.62" y="-575.05" font-family="Courier New" font-size="6.00" fill="#d3d3d3">tail: JoinTo(sm_1)</text>
<text text-anchor="start" x="686.62" y="-567.55" font-family="Courier New" font-size="6.00" fill="#d3d3d3">head: JoinFrom(sm_1)</text>
</g>
<!-- JoinTo(sm_1)&#45;&gt;edge_as_node_18 -->
<g id="edge37" class="edge">
<title>JoinTo(sm_1)&#45;&gt;edge_as_node_18</title>
<path fill="none" stroke="#d3d3d3" d="M562.87,-577C600.63,-577 649.96,-577 686.66,-577"/>
</g>
<!-- JoinFrom(sm_1) -->
<g id="node38" class="node">
<title>JoinFrom(sm_1)</title>
<polygon fill="#303030" stroke="#d3d3d3" points="1033.5,-595.88 904.5,-595.88 904.5,-558.12 1033.5,-558.12 1033.5,-595.88"/>
<text text-anchor="start" x="916.5" y="-576.48" font-family="Courier New" font-size="12.00" fill="#d3d3d3">JoinFrom(sm_1)</text>
<text text-anchor="start" x="912.5" y="-563.92" font-family="Courier New" font-size="6.00" fill="#d3d3d3">add_model: sm_1</text>
</g>
<!-- JoinFrom(sm_1)&#45;&gt;edge_as_node_14 -->
<g id="edge29" class="edge">
<title>JoinFrom(sm_1)&#45;&gt;edge_as_node_14</title>
<path fill="none" stroke="#d3d3d3" d="M1033.78,-563.57C1064.33,-557.13 1100.88,-549.43 1131.73,-542.93"/>
</g>
<!-- JoinFrom(sm_1)&#45;&gt;edge_as_node_19 -->
<g id="edge39" class="edge">
<title>JoinFrom(sm_1)&#45;&gt;edge_as_node_19</title>
<path fill="none" stroke="#d3d3d3" d="M1033.78,-577C1062.48,-577 1096.49,-577 1126.09,-577"/>
</g>
<!-- edge_as_node_18&#45;&gt;JoinFrom(sm_1) -->
<g id="edge38" class="edge">
<title>edge_as_node_18&#45;&gt;JoinFrom(sm_1)</title>
<path fill="none" stroke="#d3d3d3" d="M791.55,-577C821.37,-577 859.48,-577 892.64,-577"/>
<polygon fill="#303030" stroke="#d3d3d3" points="892.63,-580.5 902.63,-577 892.63,-573.5 892.63,-580.5"/>
</g>
</g>
</svg>
