<?xml version="1.0" encoding="UTF-8" standalone="no"?>
<!DOCTYPE svg PUBLIC "-//W3C//DTD SVG 1.1//EN"
 "http://www.w3.org/Graphics/SVG/1.1/DTD/svg11.dtd">
<!-- Generated by graphviz version 12.2.1 (20241206.2353)
 -->
<!-- Pages: 1 -->
<svg width="1182pt" height="298pt"
 viewBox="0.00 0.00 1181.50 298.00" xmlns="http://www.w3.org/2000/svg" xmlns:xlink="http://www.w3.org/1999/xlink">
<g id="graph0" class="graph" transform="scale(1 1) rotate(0) translate(4 294)">
<polygon fill="#181818" stroke="none" points="-4,4 -4,-294 1177.5,-294 1177.5,4 -4,4"/>
<g id="clust1" class="cluster">
<title>cluster_sm_0</title>
<polygon fill="#181818" stroke="#000000" stroke-width="3" points="8,-151 8,-282 584.25,-282 584.25,-151 8,-151"/>
<text text-anchor="middle" x="296.12" y="-268.5" font-family="Courier New" font-size="10.00" fill="#d3d3d3">sm_0</text>
</g>
<g id="clust2" class="cluster">
<title>cluster_time_dimension</title>
<polygon fill="#181818" stroke="#000000" stroke-width="3" points="398,-39 398,-128 625.5,-128 625.5,-39 398,-39"/>
<text text-anchor="middle" x="511.75" y="-114.5" font-family="Courier New" font-size="10.00" fill="#d3d3d3">time_dimension</text>
</g>
<g id="clust3" class="cluster">
<title>cluster_time_attribute</title>
<polygon fill="#181818" stroke="#000000" stroke-width="3" points="953,-8 953,-139 1120.5,-139 1120.5,-8 953,-8"/>
<text text-anchor="middle" x="1036.75" y="-125.5" font-family="Courier New" font-size="10.00" fill="#d3d3d3">time_attribute</text>
</g>
<g id="clust4" class="cluster">
<title>cluster_model_entity</title>
<polygon fill="#181818" stroke="#000000" stroke-width="3" points="645.5,-153 645.5,-228 888,-228 888,-153 645.5,-153"/>
<text text-anchor="middle" x="766.75" y="-214.5" font-family="Courier New" font-size="10.00" fill="#d3d3d3">model_entity</text>
</g>
<g id="clust5" class="cluster">
<title>cluster_other_attribute</title>
<polygon fill="#181818" stroke="#000000" stroke-width="3" points="908,-147 908,-236 1165.5,-236 1165.5,-147 908,-147"/>
<text text-anchor="middle" x="1036.75" y="-222.5" font-family="Courier New" font-size="10.00" fill="#d3d3d3">other_attribute</text>
</g>
<!-- Agg(sm_0, ds) -->
<g id="node1" class="node">
<title>Agg(sm_0, ds)</title>
<polygon fill="#303030" stroke="#d3d3d3" points="370,-196 248.5,-196 248.5,-160 370,-160 370,-196"/>
<text text-anchor="start" x="260.5" y="-173.72" font-family="Courier New" font-size="12.00" fill="#d3d3d3">Agg(sm_0, ds)</text>
</g>
<!-- JoinFrom(sm_0) -->
<g id="node2" class="node">
<title>JoinFrom(sm_0)</title>
<polygon fill="#303030" stroke="#d3d3d3" points="576.25,-196.88 447.25,-196.88 447.25,-159.12 576.25,-159.12 576.25,-196.88"/>
<text text-anchor="start" x="459.25" y="-177.47" font-family="Courier New" font-size="12.00" fill="#d3d3d3">JoinFrom(sm_0)</text>
<text text-anchor="start" x="455.25" y="-164.93" font-family="Courier New" font-size="6.00" fill="#d3d3d3">add_model: sm_0</text>
</g>
<!-- Agg(sm_0, ds)&#45;&gt;JoinFrom(sm_0) -->
<g id="edge7" class="edge">
<title>Agg(sm_0, ds)&#45;&gt;JoinFrom(sm_0)</title>
<path fill="none" stroke="#d3d3d3" d="M370.41,-178C390.84,-178 413.94,-178 435.41,-178"/>
<polygon fill="#303030" stroke="#d3d3d3" points="435.29,-181.5 445.29,-178 435.29,-174.5 435.29,-181.5"/>
</g>
<!-- JoinTo(sm_0) -->
<g id="node3" class="node">
<title>JoinTo(sm_0)</title>
<polygon fill="#303030" stroke="#d3d3d3" points="568.75,-252.88 454.75,-252.88 454.75,-215.12 568.75,-215.12 568.75,-252.88"/>
<text text-anchor="start" x="466.75" y="-233.47" font-family="Courier New" font-size="12.00" fill="#d3d3d3">JoinTo(sm_0)</text>
<text text-anchor="start" x="462.75" y="-220.93" font-family="Courier New" font-size="6.00" fill="#d3d3d3">add_model: sm_0</text>
</g>
<!-- Agg(sm_0, ds)&#45;&gt;JoinTo(sm_0) -->
<g id="edge8" class="edge">
<title>Agg(sm_0, ds)&#45;&gt;JoinTo(sm_0)</title>
<path fill="none" stroke="#d3d3d3" d="M370.41,-194.8C393.41,-201.23 419.78,-208.59 443.41,-215.19"/>
<polygon fill="#303030" stroke="#d3d3d3" points="442.38,-218.54 452.95,-217.86 444.26,-211.8 442.38,-218.54"/>
</g>
<!-- MetricTimeDimension(YEAR) -->
<g id="node5" class="node">
<title>MetricTimeDimension(YEAR)</title>
<polygon fill="#303030" stroke="#d3d3d3" points="617.5,-99.38 406,-99.38 406,-46.62 617.5,-46.62 617.5,-99.38"/>
<text text-anchor="start" x="418" y="-79.97" font-family="Courier New" font-size="12.00" fill="#d3d3d3">MetricTimeDimension(YEAR)</text>
<text text-anchor="start" x="414" y="-67.42" font-family="Courier New" font-size="6.00" fill="#d3d3d3">add_name: metric_time</text>
<text text-anchor="start" x="414" y="-59.92" font-family="Courier New" font-size="6.00" fill="#d3d3d3">add_prop: METRIC_TIME</text>
<text text-anchor="start" x="414" y="-52.42" font-family="Courier New" font-size="6.00" fill="#d3d3d3">add_type: TIME_DIMENSION</text>
</g>
<!-- Agg(sm_0, ds)&#45;&gt;MetricTimeDimension(YEAR) -->
<g id="edge1" class="edge">
<title>Agg(sm_0, ds)&#45;&gt;MetricTimeDimension(YEAR)</title>
<path fill="none" stroke="#d3d3d3" d="M345.17,-159.71C373.97,-144.63 415.51,-122.88 449.77,-104.93"/>
<polygon fill="#303030" stroke="#d3d3d3" points="451.11,-108.18 458.34,-100.44 447.86,-101.98 451.11,-108.18"/>
</g>
<!-- Entity(sm_0_primary_entity) -->
<g id="node8" class="node">
<title>Entity(sm_0_primary_entity)</title>
<polygon fill="#303030" stroke="#87cefa" points="880,-198.88 653.5,-198.88 653.5,-161.12 880,-161.12 880,-198.88"/>
<text text-anchor="start" x="665.5" y="-179.47" font-family="Courier New" font-size="12.00" fill="#d3d3d3">Entity(sm_0_primary_entity)</text>
<text text-anchor="start" x="661.5" y="-166.93" font-family="Courier New" font-size="6.00" fill="#d3d3d3">add_name: sm_0_primary_entity</text>
</g>
<!-- JoinFrom(sm_0)&#45;&gt;Entity(sm_0_primary_entity) -->
<g id="edge10" class="edge">
<title>JoinFrom(sm_0)&#45;&gt;Entity(sm_0_primary_entity)</title>
<path fill="none" stroke="#d3d3d3" d="M576.59,-178.5C596.5,-178.66 619.19,-178.84 641.76,-179.02"/>
<polygon fill="#303030" stroke="#d3d3d3" points="641.64,-182.52 651.67,-179.1 641.69,-175.52 641.64,-182.52"/>
</g>
<!-- Measure(sm_0_measure_0) -->
<g id="node4" class="node">
<title>Measure(sm_0_measure_0)</title>
<polygon fill="#303030" stroke="#006400" points="212.5,-196.88 16,-196.88 16,-159.12 212.5,-159.12 212.5,-196.88"/>
<text text-anchor="start" x="28" y="-177.47" font-family="Courier New" font-size="12.00" fill="#d3d3d3">Measure(sm_0_measure_0)</text>
<text text-anchor="start" x="24" y="-164.93" font-family="Courier New" font-size="6.00" fill="#d3d3d3">add_model: sm_0</text>
</g>
<!-- Measure(sm_0_measure_0)&#45;&gt;Agg(sm_0, ds) -->
<g id="edge9" class="edge">
<title>Measure(sm_0_measure_0)&#45;&gt;Agg(sm_0, ds)</title>
<path fill="none" stroke="#d3d3d3" d="M212.88,-178C220.98,-178 229.08,-178 236.93,-178"/>
<polygon fill="#303030" stroke="#d3d3d3" points="236.73,-181.5 246.73,-178 236.73,-174.5 236.73,-181.5"/>
</g>
<!-- Time(year) -->
<g id="node7" class="node">
<title>Time(year)</title>
<polygon fill="#303030" stroke="#ffa07a" points="1086.25,-109.88 987.25,-109.88 987.25,-72.12 1086.25,-72.12 1086.25,-109.88"/>
<text text-anchor="start" x="999.25" y="-90.47" font-family="Courier New" font-size="12.00" fill="#d3d3d3">Time(year)</text>
<text text-anchor="start" x="995.25" y="-77.92" font-family="Courier New" font-size="6.00" fill="#d3d3d3">add_name: year</text>
</g>
<!-- MetricTimeDimension(YEAR)&#45;&gt;Time(year) -->
<g id="edge2" class="edge">
<title>MetricTimeDimension(YEAR)&#45;&gt;Time(year)</title>
<path fill="none" stroke="#d3d3d3" d="M617.99,-76.64C725.52,-80.33 888.05,-85.9 975.65,-88.91"/>
<polygon fill="#303030" stroke="#d3d3d3" points="975.36,-92.4 985.47,-89.24 975.6,-85.4 975.36,-92.4"/>
</g>
<!-- edge_as_node_0 -->
<g id="node10" class="node">
<title>edge_as_node_0</title>
<polygon fill="none" stroke="none" points="830.5,-75.75 703,-75.75 703,-68.25 830.5,-68.25 830.5,-75.75"/>
<text text-anchor="start" x="703" y="-70.05" font-family="Courier New" font-size="6.00" fill="#d3d3d3">add_prop: DERIVED_TIME_GRANULARITY</text>
</g>
<!-- MetricTimeDimension(YEAR)&#45;&gt;edge_as_node_0 -->
<g id="edge3" class="edge">
<title>MetricTimeDimension(YEAR)&#45;&gt;edge_as_node_0</title>
<path fill="none" stroke="#d3d3d3" d="M617.85,-72.58C646.9,-72.47 677.51,-72.35 703.29,-72.25"/>
</g>
<!-- edge_as_node_1 -->
<g id="node11" class="node">
<title>edge_as_node_1</title>
<polygon fill="none" stroke="none" points="830.5,-42.75 703,-42.75 703,-35.25 830.5,-35.25 830.5,-42.75"/>
<text text-anchor="start" x="703" y="-37.05" font-family="Courier New" font-size="6.00" fill="#d3d3d3">add_prop: DERIVED_TIME_GRANULARITY</text>
</g>
<!-- MetricTimeDimension(YEAR)&#45;&gt;edge_as_node_1 -->
<g id="edge5" class="edge">
<title>MetricTimeDimension(YEAR)&#45;&gt;edge_as_node_1</title>
<path fill="none" stroke="#d3d3d3" d="M617.85,-58.88C661.7,-52.98 709.08,-46.62 738.09,-42.72"/>
</g>
<!-- Time(custom_year) -->
<g id="node6" class="node">
<title>Time(custom_year)</title>
<polygon fill="#303030" stroke="#ffa07a" points="1112.5,-53.88 961,-53.88 961,-16.12 1112.5,-16.12 1112.5,-53.88"/>
<text text-anchor="start" x="973" y="-34.48" font-family="Courier New" font-size="12.00" fill="#d3d3d3">Time(custom_year)</text>
<text text-anchor="start" x="969" y="-21.93" font-family="Courier New" font-size="6.00" fill="#d3d3d3">add_name: custom_year</text>
</g>
<!-- Metric(sm_0_measure_0_metric) -->
<g id="node9" class="node">
<title>Metric(sm_0_measure_0_metric)</title>
<polygon fill="#303030" stroke="#ffa07a" points="1157.5,-207.38 916,-207.38 916,-154.62 1157.5,-154.62 1157.5,-207.38"/>
<text text-anchor="start" x="928" y="-187.97" font-family="Courier New" font-size="12.00" fill="#d3d3d3">Metric(sm_0_measure_0_metric)</text>
<text text-anchor="start" x="924" y="-175.43" font-family="Courier New" font-size="6.00" fill="#d3d3d3">add_name: sm_0_measure_0_metric</text>
<text text-anchor="start" x="924" y="-167.93" font-family="Courier New" font-size="6.00" fill="#d3d3d3">add_prop: METRIC</text>
<text text-anchor="start" x="924" y="-160.43" font-family="Courier New" font-size="6.00" fill="#d3d3d3">add_type: METRIC</text>
</g>
<!-- Entity(sm_0_primary_entity)&#45;&gt;Metric(sm_0_measure_0_metric) -->
<g id="edge11" class="edge">
<title>Entity(sm_0_primary_entity)&#45;&gt;Metric(sm_0_measure_0_metric)</title>
<path fill="none" stroke="#d3d3d3" d="M880.24,-180.42C888.22,-180.45 896.31,-180.48 904.39,-180.51"/>
<polygon fill="#303030" stroke="#d3d3d3" points="904.26,-184.01 914.27,-180.55 904.28,-177.01 904.26,-184.01"/>
</g>
<!-- edge_as_node_0&#45;&gt;Time(year) -->
<g id="edge4" class="edge">
<title>edge_as_node_0&#45;&gt;Time(year)</title>
<path fill="none" stroke="#d3d3d3" d="M820.38,-75.73C864.93,-78.89 928.78,-83.42 975.4,-86.72"/>
<polygon fill="#303030" stroke="#d3d3d3" points="975.12,-90.21 985.34,-87.43 975.62,-83.23 975.12,-90.21"/>
</g>
<!-- edge_as_node_1&#45;&gt;Time(custom_year) -->
<g id="edge6" class="edge">
<title>edge_as_node_1&#45;&gt;Time(custom_year)</title>
<path fill="none" stroke="#d3d3d3" d="M830.25,-38.07C865.72,-37.54 910.65,-36.87 949.45,-36.29"/>
<polygon fill="#303030" stroke="#d3d3d3" points="949.28,-39.79 959.23,-36.14 949.18,-32.79 949.28,-39.79"/>
</g>
</g>
</svg>
