<?xml version="1.0" encoding="UTF-8" standalone="no"?>
<!DOCTYPE svg PUBLIC "-//W3C//DTD SVG 1.1//EN"
 "http://www.w3.org/Graphics/SVG/1.1/DTD/svg11.dtd">
<!-- Generated by graphviz version 12.2.1 (20241206.2353)
 -->
<!-- Pages: 1 -->
<svg width="1440pt" height="425pt"
 viewBox="0.00 0.00 1439.50 425.00" xmlns="http://www.w3.org/2000/svg" xmlns:xlink="http://www.w3.org/1999/xlink">
<g id="graph0" class="graph" transform="scale(1 1) rotate(0) translate(4 421)">
<polygon fill="#181818" stroke="none" points="-4,4 -4,-421 1435.5,-421 1435.5,4 -4,4"/>
<g id="clust1" class="cluster">
<title>cluster_sm_0</title>
<polygon fill="#181818" stroke="#000000" stroke-width="3" points="8,-117 8,-248 1016.25,-248 1016.25,-117 8,-117"/>
<text text-anchor="middle" x="512.12" y="-234.5" font-family="Courier New" font-size="10.00" fill="#d3d3d3">sm_0</text>
</g>
<g id="clust2" class="cluster">
<title>cluster_model_entity</title>
<polygon fill="#181818" stroke="#000000" stroke-width="3" points="385.25,-273 385.25,-348 627.75,-348 627.75,-273 385.25,-273"/>
<text text-anchor="middle" x="506.5" y="-334.5" font-family="Courier New" font-size="10.00" fill="#d3d3d3">model_entity</text>
</g>
<g id="clust3" class="cluster">
<title>cluster_other_attribute</title>
<polygon fill="#181818" stroke="#000000" stroke-width="3" points="815,-320 815,-409 1072.5,-409 1072.5,-320 815,-320"/>
<text text-anchor="middle" x="943.75" y="-395.5" font-family="Courier New" font-size="10.00" fill="#d3d3d3">other_attribute</text>
</g>
<g id="clust4" class="cluster">
<title>cluster_time_dimension</title>
<polygon fill="#181818" stroke="#000000" stroke-width="3" points="830,-20 830,-109 1057.5,-109 1057.5,-20 830,-20"/>
<text text-anchor="middle" x="943.75" y="-95.5" font-family="Courier New" font-size="10.00" fill="#d3d3d3">time_dimension</text>
</g>
<g id="clust5" class="cluster">
<title>cluster_time_attribute</title>
<polygon fill="#181818" stroke="#000000" stroke-width="3" points="1256,-8 1256,-139 1423.5,-139 1423.5,-8 1256,-8"/>
<text text-anchor="middle" x="1339.75" y="-125.5" font-family="Courier New" font-size="10.00" fill="#d3d3d3">time_attribute</text>
</g>
<!-- Agg(sm_0, ds) -->
<g id="node1" class="node">
<title>Agg(sm_0, ds)</title>
<polygon fill="#303030" stroke="#d3d3d3" points="567.25,-162 445.75,-162 445.75,-126 567.25,-126 567.25,-162"/>
<text text-anchor="start" x="457.75" y="-139.72" font-family="Courier New" font-size="12.00" fill="#d3d3d3">Agg(sm_0, ds)</text>
</g>
<!-- edge_as_node_5 -->
<g id="node6" class="node">
<title>edge_as_node_5</title>
<polygon fill="none" stroke="none" points="758.88,-151.5 683.88,-151.5 683.88,-136.5 758.88,-136.5 758.88,-151.5"/>
<text text-anchor="start" x="683.88" y="-145.8" font-family="Courier New" font-size="6.00" fill="#d3d3d3">tail: Agg(sm_0, ds)</text>
<text text-anchor="start" x="683.88" y="-138.3" font-family="Courier New" font-size="6.00" fill="#d3d3d3">head: JoinFrom(sm_0)</text>
</g>
<!-- Agg(sm_0, ds)&#45;&gt;edge_as_node_5 -->
<g id="edge11" class="edge">
<title>Agg(sm_0, ds)&#45;&gt;edge_as_node_5</title>
<path fill="none" stroke="#d3d3d3" d="M567.65,-144C605.15,-144 652.17,-144 684.06,-144"/>
</g>
<!-- edge_as_node_6 -->
<g id="node7" class="node">
<title>edge_as_node_6</title>
<polygon fill="none" stroke="none" points="757,-195.5 685.75,-195.5 685.75,-180.5 757,-180.5 757,-195.5"/>
<text text-anchor="start" x="685.75" y="-189.8" font-family="Courier New" font-size="6.00" fill="#d3d3d3">tail: Agg(sm_0, ds)</text>
<text text-anchor="start" x="685.75" y="-182.3" font-family="Courier New" font-size="6.00" fill="#d3d3d3">head: JoinTo(sm_0)</text>
</g>
<!-- Agg(sm_0, ds)&#45;&gt;edge_as_node_6 -->
<g id="edge13" class="edge">
<title>Agg(sm_0, ds)&#45;&gt;edge_as_node_6</title>
<path fill="none" stroke="#d3d3d3" d="M567.65,-156.43C605.88,-164.34 654.02,-174.28 685.92,-180.88"/>
</g>
<!-- edge_as_node_7 -->
<g id="node17" class="node">
<title>edge_as_node_7</title>
<polygon fill="none" stroke="none" points="779.5,-84.5 663.25,-84.5 663.25,-69.5 779.5,-69.5 779.5,-84.5"/>
<text text-anchor="start" x="663.25" y="-78.8" font-family="Courier New" font-size="6.00" fill="#d3d3d3">tail: Agg(sm_0, ds)</text>
<text text-anchor="start" x="663.25" y="-71.3" font-family="Courier New" font-size="6.00" fill="#d3d3d3">head: MetricTimeDimension(YEAR)</text>
</g>
<!-- Agg(sm_0, ds)&#45;&gt;edge_as_node_7 -->
<g id="edge15" class="edge">
<title>Agg(sm_0, ds)&#45;&gt;edge_as_node_7</title>
<path fill="none" stroke="#d3d3d3" d="M566.23,-125.51C609.31,-111.96 665.52,-94.26 696.78,-84.43"/>
</g>
<!-- JoinFrom(sm_0) -->
<g id="node2" class="node">
<title>JoinFrom(sm_0)</title>
<polygon fill="#303030" stroke="#d3d3d3" points="1008.25,-162.88 879.25,-162.88 879.25,-125.12 1008.25,-125.12 1008.25,-162.88"/>
<text text-anchor="start" x="891.25" y="-143.47" font-family="Courier New" font-size="12.00" fill="#d3d3d3">JoinFrom(sm_0)</text>
<text text-anchor="start" x="887.25" y="-130.93" font-family="Courier New" font-size="6.00" fill="#d3d3d3">add_model: sm_0</text>
</g>
<!-- edge_as_node_9 -->
<g id="node19" class="node">
<title>edge_as_node_9</title>
<polygon fill="none" stroke="none" points="1226.12,-229.5 1102.38,-229.5 1102.38,-214.5 1226.12,-214.5 1226.12,-229.5"/>
<text text-anchor="start" x="1102.38" y="-223.8" font-family="Courier New" font-size="6.00" fill="#d3d3d3">tail: JoinFrom(sm_0)</text>
<text text-anchor="start" x="1102.38" y="-216.3" font-family="Courier New" font-size="6.00" fill="#d3d3d3">head: Entity(sm_0_primary_entity)</text>
</g>
<!-- JoinFrom(sm_0)&#45;&gt;edge_as_node_9 -->
<g id="edge19" class="edge">
<title>JoinFrom(sm_0)&#45;&gt;edge_as_node_9</title>
<path fill="none" stroke="#d3d3d3" d="M998.76,-163.28C1045.14,-179.84 1109.54,-202.83 1142.3,-214.52"/>
</g>
<!-- JoinTo(sm_0) -->
<g id="node3" class="node">
<title>JoinTo(sm_0)</title>
<polygon fill="#303030" stroke="#d3d3d3" points="1000.75,-218.88 886.75,-218.88 886.75,-181.12 1000.75,-181.12 1000.75,-218.88"/>
<text text-anchor="start" x="898.75" y="-199.47" font-family="Courier New" font-size="12.00" fill="#d3d3d3">JoinTo(sm_0)</text>
<text text-anchor="start" x="894.75" y="-186.93" font-family="Courier New" font-size="6.00" fill="#d3d3d3">add_model: sm_0</text>
</g>
<!-- Measure(sm_0_measure_0) -->
<g id="node4" class="node">
<title>Measure(sm_0_measure_0)</title>
<polygon fill="#303030" stroke="#006400" points="212.5,-162.88 16,-162.88 16,-125.12 212.5,-125.12 212.5,-162.88"/>
<text text-anchor="start" x="28" y="-143.47" font-family="Courier New" font-size="12.00" fill="#d3d3d3">Measure(sm_0_measure_0)</text>
<text text-anchor="start" x="24" y="-130.93" font-family="Courier New" font-size="6.00" fill="#d3d3d3">add_model: sm_0</text>
</g>
<!-- edge_as_node_1 -->
<g id="node5" class="node">
<title>edge_as_node_1</title>
<polygon fill="none" stroke="none" points="357.25,-151.5 248.5,-151.5 248.5,-136.5 357.25,-136.5 357.25,-151.5"/>
<text text-anchor="start" x="248.5" y="-145.8" font-family="Courier New" font-size="6.00" fill="#d3d3d3">tail: Measure(sm_0_measure_0)</text>
<text text-anchor="start" x="248.5" y="-138.3" font-family="Courier New" font-size="6.00" fill="#d3d3d3">head: Agg(sm_0, ds)</text>
</g>
<!-- Measure(sm_0_measure_0)&#45;&gt;edge_as_node_1 -->
<g id="edge3" class="edge">
<title>Measure(sm_0_measure_0)&#45;&gt;edge_as_node_1</title>
<path fill="none" stroke="#d3d3d3" d="M212.94,-144C225.28,-144 237.53,-144 248.8,-144"/>
</g>
<!-- edge_as_node_1&#45;&gt;Agg(sm_0, ds) -->
<g id="edge4" class="edge">
<title>edge_as_node_1&#45;&gt;Agg(sm_0, ds)</title>
<path fill="none" stroke="#d3d3d3" d="M357.11,-144C380.69,-144 408.76,-144 434.12,-144"/>
<polygon fill="#303030" stroke="#d3d3d3" points="434.04,-147.5 444.04,-144 434.04,-140.5 434.04,-147.5"/>
</g>
<!-- edge_as_node_5&#45;&gt;JoinFrom(sm_0) -->
<g id="edge12" class="edge">
<title>edge_as_node_5&#45;&gt;JoinFrom(sm_0)</title>
<path fill="none" stroke="#d3d3d3" d="M758.77,-144C788.35,-144 831.06,-144 867.89,-144"/>
<polygon fill="#303030" stroke="#d3d3d3" points="867.59,-147.5 877.59,-144 867.59,-140.5 867.59,-147.5"/>
</g>
<!-- edge_as_node_6&#45;&gt;JoinTo(sm_0) -->
<g id="edge14" class="edge">
<title>edge_as_node_6&#45;&gt;JoinTo(sm_0)</title>
<path fill="none" stroke="#d3d3d3" d="M756.81,-189.88C788.32,-191.59 835.85,-194.18 874.97,-196.31"/>
<polygon fill="#303030" stroke="#d3d3d3" points="874.6,-199.79 884.77,-196.84 874.98,-192.8 874.6,-199.79"/>
</g>
<!-- Entity(sm_0_primary_entity) -->
<g id="node8" class="node">
<title>Entity(sm_0_primary_entity)</title>
<polygon fill="#303030" stroke="#87cefa" points="619.75,-318.88 393.25,-318.88 393.25,-281.12 619.75,-281.12 619.75,-318.88"/>
<text text-anchor="start" x="405.25" y="-299.48" font-family="Courier New" font-size="12.00" fill="#d3d3d3">Entity(sm_0_primary_entity)</text>
<text text-anchor="start" x="401.25" y="-286.93" font-family="Courier New" font-size="6.00" fill="#d3d3d3">add_name: sm_0_primary_entity</text>
</g>
<!-- edge_as_node_0 -->
<g id="node13" class="node">
<title>edge_as_node_0</title>
<polygon fill="none" stroke="none" points="787,-352.5 655.75,-352.5 655.75,-337.5 787,-337.5 787,-352.5"/>
<text text-anchor="start" x="655.75" y="-346.8" font-family="Courier New" font-size="6.00" fill="#d3d3d3">tail: Entity(sm_0_primary_entity)</text>
<text text-anchor="start" x="655.75" y="-339.3" font-family="Courier New" font-size="6.00" fill="#d3d3d3">head: Metric(sm_0_measure_0_metric)</text>
</g>
<!-- Entity(sm_0_primary_entity)&#45;&gt;edge_as_node_0 -->
<g id="edge1" class="edge">
<title>Entity(sm_0_primary_entity)&#45;&gt;edge_as_node_0</title>
<path fill="none" stroke="#d3d3d3" d="M599.01,-319.35C629.44,-325.78 661.53,-332.56 685.06,-337.53"/>
</g>
<!-- edge_as_node_8 -->
<g id="node18" class="node">
<title>edge_as_node_8</title>
<polygon fill="none" stroke="none" points="783.25,-271.5 659.5,-271.5 659.5,-256.5 783.25,-256.5 783.25,-271.5"/>
<text text-anchor="start" x="659.5" y="-265.8" font-family="Courier New" font-size="6.00" fill="#d3d3d3">tail: Entity(sm_0_primary_entity)</text>
<text text-anchor="start" x="659.5" y="-258.3" font-family="Courier New" font-size="6.00" fill="#d3d3d3">head: JoinTo(sm_0)</text>
</g>
<!-- Entity(sm_0_primary_entity)&#45;&gt;edge_as_node_8 -->
<g id="edge17" class="edge">
<title>Entity(sm_0_primary_entity)&#45;&gt;edge_as_node_8</title>
<path fill="none" stroke="#d3d3d3" d="M620.17,-280.95C640.12,-277.57 659.77,-274.25 676.32,-271.45"/>
</g>
<!-- Metric(sm_0_measure_0_metric) -->
<g id="node9" class="node">
<title>Metric(sm_0_measure_0_metric)</title>
<polygon fill="#303030" stroke="#ffa07a" points="1064.5,-380.38 823,-380.38 823,-327.62 1064.5,-327.62 1064.5,-380.38"/>
<text text-anchor="start" x="835" y="-360.98" font-family="Courier New" font-size="12.00" fill="#d3d3d3">Metric(sm_0_measure_0_metric)</text>
<text text-anchor="start" x="831" y="-348.43" font-family="Courier New" font-size="6.00" fill="#d3d3d3">add_name: sm_0_measure_0_metric</text>
<text text-anchor="start" x="831" y="-340.93" font-family="Courier New" font-size="6.00" fill="#d3d3d3">add_prop: METRIC</text>
<text text-anchor="start" x="831" y="-333.43" font-family="Courier New" font-size="6.00" fill="#d3d3d3">add_type: METRIC</text>
</g>
<!-- MetricTimeDimension(YEAR) -->
<g id="node10" class="node">
<title>MetricTimeDimension(YEAR)</title>
<polygon fill="#303030" stroke="#d3d3d3" points="1049.5,-80.38 838,-80.38 838,-27.62 1049.5,-27.62 1049.5,-80.38"/>
<text text-anchor="start" x="850" y="-60.98" font-family="Courier New" font-size="12.00" fill="#d3d3d3">MetricTimeDimension(YEAR)</text>
<text text-anchor="start" x="846" y="-48.42" font-family="Courier New" font-size="6.00" fill="#d3d3d3">add_name: metric_time</text>
<text text-anchor="start" x="846" y="-40.92" font-family="Courier New" font-size="6.00" fill="#d3d3d3">add_prop: METRIC_TIME</text>
<text text-anchor="start" x="846" y="-33.42" font-family="Courier New" font-size="6.00" fill="#d3d3d3">add_type: TIME_DIMENSION</text>
</g>
<!-- edge_as_node_2 -->
<g id="node14" class="node">
<title>edge_as_node_2</title>
<polygon fill="none" stroke="none" points="1228,-102.25 1100.5,-102.25 1100.5,-79.75 1228,-79.75 1228,-102.25"/>
<text text-anchor="start" x="1100.5" y="-96.55" font-family="Courier New" font-size="6.00" fill="#d3d3d3">add_prop: DERIVED_TIME_GRANULARITY</text>
<text text-anchor="start" x="1100.5" y="-89.05" font-family="Courier New" font-size="6.00" fill="#d3d3d3">tail: MetricTimeDimension(YEAR)</text>
<text text-anchor="start" x="1100.5" y="-81.55" font-family="Courier New" font-size="6.00" fill="#d3d3d3">head: Time(custom_year)</text>
</g>
<!-- MetricTimeDimension(YEAR)&#45;&gt;edge_as_node_2 -->
<g id="edge5" class="edge">
<title>MetricTimeDimension(YEAR)&#45;&gt;edge_as_node_2</title>
<path fill="none" stroke="#d3d3d3" d="M1049.84,-71.8C1067.22,-74.74 1084.75,-77.71 1100.65,-80.4"/>
</g>
<!-- edge_as_node_3 -->
<g id="node15" class="node">
<title>edge_as_node_3</title>
<polygon fill="none" stroke="none" points="1222.38,-61.5 1106.12,-61.5 1106.12,-46.5 1222.38,-46.5 1222.38,-61.5"/>
<text text-anchor="start" x="1106.12" y="-55.8" font-family="Courier New" font-size="6.00" fill="#d3d3d3">tail: MetricTimeDimension(YEAR)</text>
<text text-anchor="start" x="1106.12" y="-48.3" font-family="Courier New" font-size="6.00" fill="#d3d3d3">head: Time(year)</text>
</g>
<!-- MetricTimeDimension(YEAR)&#45;&gt;edge_as_node_3 -->
<g id="edge7" class="edge">
<title>MetricTimeDimension(YEAR)&#45;&gt;edge_as_node_3</title>
<path fill="none" stroke="#d3d3d3" d="M1049.84,-54C1069.3,-54 1088.94,-54 1106.28,-54"/>
</g>
<!-- edge_as_node_4 -->
<g id="node16" class="node">
<title>edge_as_node_4</title>
<polygon fill="none" stroke="none" points="1228,-28.25 1100.5,-28.25 1100.5,-5.75 1228,-5.75 1228,-28.25"/>
<text text-anchor="start" x="1100.5" y="-22.55" font-family="Courier New" font-size="6.00" fill="#d3d3d3">add_prop: DERIVED_TIME_GRANULARITY</text>
<text text-anchor="start" x="1100.5" y="-15.05" font-family="Courier New" font-size="6.00" fill="#d3d3d3">tail: MetricTimeDimension(YEAR)</text>
<text text-anchor="start" x="1100.5" y="-7.55" font-family="Courier New" font-size="6.00" fill="#d3d3d3">head: Time(year)</text>
</g>
<!-- MetricTimeDimension(YEAR)&#45;&gt;edge_as_node_4 -->
<g id="edge9" class="edge">
<title>MetricTimeDimension(YEAR)&#45;&gt;edge_as_node_4</title>
<path fill="none" stroke="#d3d3d3" d="M1049.84,-36.2C1067.22,-33.26 1084.75,-30.29 1100.65,-27.6"/>
</g>
<!-- Time(custom_year) -->
<g id="node11" class="node">
<title>Time(custom_year)</title>
<polygon fill="#303030" stroke="#ffa07a" points="1415.5,-109.88 1264,-109.88 1264,-72.12 1415.5,-72.12 1415.5,-109.88"/>
<text text-anchor="start" x="1276" y="-90.47" font-family="Courier New" font-size="12.00" fill="#d3d3d3">Time(custom_year)</text>
<text text-anchor="start" x="1272" y="-77.92" font-family="Courier New" font-size="6.00" fill="#d3d3d3">add_name: custom_year</text>
</g>
<!-- Time(year) -->
<g id="node12" class="node">
<title>Time(year)</title>
<polygon fill="#303030" stroke="#ffa07a" points="1389.25,-53.88 1290.25,-53.88 1290.25,-16.12 1389.25,-16.12 1389.25,-53.88"/>
<text text-anchor="start" x="1302.25" y="-34.48" font-family="Courier New" font-size="12.00" fill="#d3d3d3">Time(year)</text>
<text text-anchor="start" x="1298.25" y="-21.93" font-family="Courier New" font-size="6.00" fill="#d3d3d3">add_name: year</text>
</g>
<!-- edge_as_node_0&#45;&gt;Metric(sm_0_measure_0_metric) -->
<g id="edge2" class="edge">
<title>edge_as_node_0&#45;&gt;Metric(sm_0_measure_0_metric)</title>
<path fill="none" stroke="#d3d3d3" d="M786.71,-347.63C794.66,-347.95 803,-348.29 811.51,-348.64"/>
<polygon fill="#303030" stroke="#d3d3d3" points="811.13,-352.13 821.27,-349.04 811.42,-345.13 811.13,-352.13"/>
</g>
<!-- edge_as_node_2&#45;&gt;Time(custom_year) -->
<g id="edge6" class="edge">
<title>edge_as_node_2&#45;&gt;Time(custom_year)</title>
<path fill="none" stroke="#d3d3d3" d="M1227.89,-91C1235.9,-91 1244.2,-91 1252.5,-91"/>
<polygon fill="#303030" stroke="#d3d3d3" points="1252.27,-94.5 1262.27,-91 1252.27,-87.5 1252.27,-94.5"/>
</g>
<!-- edge_as_node_3&#45;&gt;Time(year) -->
<g id="edge8" class="edge">
<title>edge_as_node_3&#45;&gt;Time(year)</title>
<path fill="none" stroke="#d3d3d3" d="M1222.06,-47.78C1240.14,-45.8 1260.21,-43.6 1278.52,-41.6"/>
<polygon fill="#303030" stroke="#d3d3d3" points="1278.9,-45.07 1288.46,-40.51 1278.14,-38.12 1278.9,-45.07"/>
</g>
<!-- edge_as_node_4&#45;&gt;Time(year) -->
<g id="edge10" class="edge">
<title>edge_as_node_4&#45;&gt;Time(year)</title>
<path fill="none" stroke="#d3d3d3" d="M1227.89,-23.5C1244.45,-25.22 1262.28,-27.07 1278.71,-28.77"/>
<polygon fill="#303030" stroke="#d3d3d3" points="1278,-32.22 1288.31,-29.77 1278.72,-25.25 1278,-32.22"/>
</g>
<!-- edge_as_node_7&#45;&gt;MetricTimeDimension(YEAR) -->
<g id="edge16" class="edge">
<title>edge_as_node_7&#45;&gt;MetricTimeDimension(YEAR)</title>
<path fill="none" stroke="#d3d3d3" d="M779.41,-71.05C793.92,-69.53 810.04,-67.85 826.35,-66.15"/>
<polygon fill="#303030" stroke="#d3d3d3" points="826.56,-69.65 836.14,-65.13 825.83,-62.68 826.56,-69.65"/>
</g>
<!-- edge_as_node_8&#45;&gt;JoinTo(sm_0) -->
<g id="edge18" class="edge">
<title>edge_as_node_8&#45;&gt;JoinTo(sm_0)</title>
<path fill="none" stroke="#d3d3d3" d="M748.09,-256.53C779.11,-247.52 832.45,-232.03 875.46,-219.54"/>
<polygon fill="#303030" stroke="#d3d3d3" points="876.36,-222.93 884.99,-216.78 874.41,-216.2 876.36,-222.93"/>
</g>
<!-- edge_as_node_9&#45;&gt;Entity(sm_0_primary_entity) -->
<g id="edge20" class="edge">
<title>edge_as_node_9&#45;&gt;Entity(sm_0_primary_entity)</title>
<path fill="none" stroke="#d3d3d3" d="M1102.65,-229.3C995.3,-242.04 771.96,-268.52 631.2,-285.21"/>
<polygon fill="#303030" stroke="#d3d3d3" points="630.97,-281.72 621.45,-286.37 631.79,-288.67 630.97,-281.72"/>
</g>
</g>
</svg>
